G04*
G04 #@! TF.GenerationSoftware,Altium Limited,Altium Designer,21.9.2 (33)*
G04*
G04 Layer_Physical_Order=1*
G04 Layer_Color=255*
%FSTAX24Y24*%
%MOIN*%
G70*
G04*
G04 #@! TF.SameCoordinates,A68203B9-CA12-4FF3-9F36-A0A22A6ADD5B*
G04*
G04*
G04 #@! TF.FilePolarity,Positive*
G04*
G01*
G75*
%ADD13C,0.0100*%
G04:AMPARAMS|DCode=14|XSize=129.1mil|YSize=59.1mil|CornerRadius=14.8mil|HoleSize=0mil|Usage=FLASHONLY|Rotation=180.000|XOffset=0mil|YOffset=0mil|HoleType=Round|Shape=RoundedRectangle|*
%AMROUNDEDRECTD14*
21,1,0.1291,0.0295,0,0,180.0*
21,1,0.0996,0.0591,0,0,180.0*
1,1,0.0295,-0.0498,0.0148*
1,1,0.0295,0.0498,0.0148*
1,1,0.0295,0.0498,-0.0148*
1,1,0.0295,-0.0498,-0.0148*
%
%ADD14ROUNDEDRECTD14*%
G04:AMPARAMS|DCode=15|XSize=39.4mil|YSize=59.1mil|CornerRadius=9.8mil|HoleSize=0mil|Usage=FLASHONLY|Rotation=180.000|XOffset=0mil|YOffset=0mil|HoleType=Round|Shape=RoundedRectangle|*
%AMROUNDEDRECTD15*
21,1,0.0394,0.0394,0,0,180.0*
21,1,0.0197,0.0591,0,0,180.0*
1,1,0.0197,-0.0098,0.0197*
1,1,0.0197,0.0098,0.0197*
1,1,0.0197,0.0098,-0.0197*
1,1,0.0197,-0.0098,-0.0197*
%
%ADD15ROUNDEDRECTD15*%
%ADD24C,0.0591*%
%ADD33C,0.0197*%
%ADD34C,0.0394*%
%ADD35C,0.0630*%
%ADD36C,0.1181*%
%ADD37C,0.0512*%
%ADD38R,0.0700X0.1000*%
%ADD39O,0.0700X0.1000*%
%ADD40C,0.0700*%
%ADD41R,0.0591X0.0591*%
%ADD42R,0.0650X0.0900*%
%ADD43O,0.0650X0.0900*%
%ADD44C,0.1575*%
%ADD45R,0.0620X0.0900*%
%ADD46O,0.0620X0.0900*%
G36*
X063474Y010731D02*
X020727D01*
X020727Y029463D01*
X063474D01*
Y010731D01*
D02*
G37*
%LPC*%
G36*
X062516Y029124D02*
X062384D01*
X062255Y029098D01*
X062133Y029047D01*
X062023Y028974D01*
X06193Y028881D01*
X061857Y028771D01*
X061806Y02865D01*
X061781Y02852D01*
Y028388D01*
X061806Y028259D01*
X061857Y028137D01*
X06193Y028028D01*
X062023Y027934D01*
X062133Y027861D01*
X062255Y027811D01*
X062384Y027785D01*
X062516D01*
X062645Y027811D01*
X062767Y027861D01*
X062877Y027934D01*
X06297Y028028D01*
X063043Y028137D01*
X063094Y028259D01*
X063119Y028388D01*
Y02852D01*
X063094Y02865D01*
X063043Y028771D01*
X06297Y028881D01*
X062877Y028974D01*
X062767Y029047D01*
X062645Y029098D01*
X062516Y029124D01*
D02*
G37*
G36*
X021816D02*
X021684D01*
X021555Y029098D01*
X021433Y029047D01*
X021323Y028974D01*
X02123Y028881D01*
X021157Y028771D01*
X021106Y02865D01*
X021081Y02852D01*
Y028388D01*
X021106Y028259D01*
X021157Y028137D01*
X02123Y028028D01*
X021323Y027934D01*
X021433Y027861D01*
X021555Y027811D01*
X021684Y027785D01*
X021816D01*
X021945Y027811D01*
X022067Y027861D01*
X022177Y027934D01*
X02227Y028028D01*
X022343Y028137D01*
X022394Y028259D01*
X022419Y028388D01*
Y02852D01*
X022394Y02865D01*
X022343Y028771D01*
X02227Y028881D01*
X022177Y028974D01*
X022067Y029047D01*
X021945Y029098D01*
X021816Y029124D01*
D02*
G37*
G36*
X055979Y029198D02*
X028402D01*
Y026876D01*
X055979D01*
Y029198D01*
D02*
G37*
G36*
X059591Y028599D02*
X059463D01*
X059445Y028595D01*
X059415D01*
X059396Y028592D01*
X059388D01*
X059369Y028588D01*
X059362D01*
X059343Y028584D01*
X059339D01*
X05932Y02858D01*
X059317D01*
X059286Y028574D01*
X059286Y028574D01*
X059267Y02857D01*
X059267Y02857D01*
X059248Y028567D01*
X059247Y028566D01*
X059233Y028563D01*
X059232Y028562D01*
X059218Y028559D01*
X059217Y028558D01*
X059203Y028555D01*
X059202Y028554D01*
X059188Y028552D01*
X059185Y028549D01*
X059177Y028548D01*
X059174Y028546D01*
X059166Y028544D01*
X059162Y028542D01*
X059154Y02854D01*
X059151Y028538D01*
X059143Y028537D01*
X05914Y028534D01*
X059132Y028533D01*
X059129Y028531D01*
X059121Y028529D01*
X059116Y028526D01*
X059113Y028525D01*
X05911Y028523D01*
X059102Y028522D01*
X059097Y028518D01*
X059094Y028518D01*
X059091Y028516D01*
X059083Y028514D01*
X059078Y028511D01*
X059075Y02851D01*
X059072Y028508D01*
X059064Y028507D01*
X059059Y028503D01*
X059057Y028503D01*
X059052Y0285D01*
X059049Y028499D01*
X059044Y028496D01*
X059042Y028495D01*
X059037Y028492D01*
X059034Y028491D01*
X059031Y028489D01*
X059023Y028488D01*
X059018Y028484D01*
X059015Y028484D01*
X05901Y028481D01*
X059008Y02848D01*
X059003Y028477D01*
X059Y028476D01*
X058995Y028473D01*
X058993Y028473D01*
X058988Y028469D01*
X058985Y028469D01*
X05898Y028466D01*
X058978Y028465D01*
X058973Y028462D01*
X05897Y028461D01*
X058959Y028454D01*
X058959Y028454D01*
X058954Y028451D01*
X058951Y02845D01*
X05894Y028443D01*
X05894Y028443D01*
X058935Y028439D01*
X058932Y028439D01*
X058921Y028431D01*
X058921Y028431D01*
X058916Y028428D01*
X058914Y028428D01*
X058902Y02842D01*
X058902Y02842D01*
X058891Y028412D01*
X058891Y028412D01*
X05888Y028405D01*
X05888Y028405D01*
X058868Y028397D01*
X058868Y028397D01*
X058857Y02839D01*
X058857Y02839D01*
X058846Y028382D01*
X058846Y028382D01*
X05882Y028365D01*
X058818Y028363D01*
X058805Y028354D01*
X058803Y028351D01*
X058801Y02835D01*
X0588Y028348D01*
X058786Y028339D01*
X058784Y028336D01*
X058782Y028335D01*
X058781Y028333D01*
X058767Y028324D01*
X058766Y028321D01*
X058763Y02832D01*
X058762Y028318D01*
X05876Y028316D01*
X058758Y028314D01*
X058756Y028312D01*
X058754Y02831D01*
X058741Y028301D01*
X058739Y028299D01*
X058737Y028297D01*
X058736Y028295D01*
X058733Y028293D01*
X058732Y028291D01*
X05873Y02829D01*
X058728Y028287D01*
X058726Y028286D01*
X058724Y028284D01*
X058722Y028282D01*
X058721Y02828D01*
X058718Y028278D01*
X058717Y028276D01*
X058714Y028275D01*
X058713Y028272D01*
X058711Y028271D01*
X058709Y028269D01*
X058707Y028267D01*
X058705Y028265D01*
X058703Y028263D01*
X058702Y028261D01*
X058699Y02826D01*
X058698Y028257D01*
X058696Y028256D01*
X058694Y028254D01*
X058692Y028252D01*
X05869Y02825D01*
X058688Y028248D01*
X058687Y028246D01*
X058684Y028245D01*
X058683Y028242D01*
X058681Y028241D01*
X058679Y028239D01*
X058677Y028237D01*
X058675Y028235D01*
X058673Y028233D01*
X058672Y028231D01*
X058669Y02823D01*
X058668Y028227D01*
X058666Y028226D01*
X058664Y028224D01*
X058662Y028222D01*
X05866Y02822D01*
X058658Y028218D01*
X058657Y028216D01*
X058654Y028214D01*
X058653Y028212D01*
X058651Y028211D01*
X058649Y028208D01*
X058647Y028207D01*
X058638Y028193D01*
X058636Y028192D01*
X058634Y02819D01*
X058632Y028188D01*
X05863Y028186D01*
X058628Y028184D01*
X058626Y028182D01*
X058624Y028181D01*
X058623Y028178D01*
X05862Y028177D01*
X058611Y028163D01*
X058609Y028162D01*
X058608Y02816D01*
X058605Y028158D01*
X058596Y028144D01*
X058594Y028143D01*
X058593Y028141D01*
X05859Y028139D01*
X058574Y028114D01*
X058572Y028113D01*
X058554Y028087D01*
X058554Y028087D01*
X058547Y028076D01*
X058547Y028076D01*
X058539Y028064D01*
X058539Y028064D01*
X058532Y028053D01*
X058532Y028053D01*
X058524Y028042D01*
X058524Y028042D01*
X058517Y02803D01*
X058517Y02803D01*
X058509Y028019D01*
X058508Y028016D01*
X058505Y028012D01*
X058505Y028012D01*
X058498Y028D01*
X058497Y027998D01*
X058494Y027993D01*
X058493Y02799D01*
X05849Y027985D01*
X05849Y027985D01*
X058483Y027974D01*
X058482Y027971D01*
X058479Y027966D01*
X058478Y027964D01*
X058475Y027959D01*
X058475Y027956D01*
X058471Y027951D01*
X058471Y027949D01*
X058468Y027944D01*
X058467Y027941D01*
X058464Y027936D01*
X058463Y027934D01*
X05846Y027929D01*
X05846Y027926D01*
X058456Y027921D01*
X058456Y027919D01*
X058453Y027914D01*
X058452Y027911D01*
X058449Y027906D01*
X058448Y027904D01*
X058445Y027899D01*
X058443Y027891D01*
X058441Y027887D01*
X058441Y027885D01*
X058438Y02788D01*
X058437Y027877D01*
X058434Y027872D01*
X058433Y02787D01*
X05843Y027865D01*
X058428Y027857D01*
X058426Y027854D01*
X058426Y027851D01*
X058422Y027846D01*
X058421Y027838D01*
X058419Y027835D01*
X058417Y027827D01*
X058415Y027824D01*
X058414Y027821D01*
X058411Y027816D01*
X05841Y027808D01*
X058407Y027805D01*
X058406Y027797D01*
X058404Y027793D01*
X058402Y027785D01*
X0584Y027782D01*
X058398Y027774D01*
X058396Y027771D01*
X058395Y027763D01*
X058392Y02776D01*
X05839Y027746D01*
X058389Y027745D01*
X058387Y027736D01*
X058385Y027733D01*
X058382Y02772D01*
X058381Y027718D01*
X058378Y027705D01*
X058377Y027703D01*
X058375Y02769D01*
X058374Y027688D01*
X058371Y027675D01*
X05837Y027673D01*
X058366Y027654D01*
X058366Y027654D01*
X058362Y027635D01*
X058362Y027635D01*
X058356Y027605D01*
Y027601D01*
X058352Y027582D01*
Y027575D01*
X058349Y027556D01*
Y027548D01*
X058345Y027529D01*
Y027507D01*
X058341Y027488D01*
Y027308D01*
X058345Y027289D01*
Y027266D01*
X058349Y027247D01*
Y02724D01*
X058352Y027221D01*
Y027213D01*
X058356Y027195D01*
Y027191D01*
X058362Y02716D01*
X058362Y02716D01*
X058366Y027141D01*
X058366Y027141D01*
X05837Y027123D01*
X058371Y027121D01*
X058374Y027107D01*
X058375Y027106D01*
X058377Y027092D01*
X058378Y027091D01*
X058381Y027077D01*
X058382Y027076D01*
X058385Y027062D01*
X058387Y027059D01*
X058389Y027051D01*
X05839Y027049D01*
X058392Y027036D01*
X058395Y027033D01*
X058396Y027025D01*
X058398Y027021D01*
X0584Y027013D01*
X058402Y02701D01*
X058404Y027002D01*
X058406Y026999D01*
X058407Y026991D01*
X05841Y026988D01*
X058411Y02698D01*
X058414Y026975D01*
X058415Y026972D01*
X058417Y026969D01*
X058419Y026961D01*
X058422Y026956D01*
X058422Y026953D01*
X058425Y02695D01*
X058426Y026942D01*
X058429Y026937D01*
X05843Y026934D01*
X058432Y026931D01*
X058434Y026923D01*
X058437Y026918D01*
X058438Y026916D01*
X058441Y026911D01*
X058441Y026908D01*
X058443Y026905D01*
X058445Y026897D01*
X058448Y026892D01*
X058449Y026889D01*
X058452Y026884D01*
X058453Y026882D01*
X058456Y026877D01*
X058456Y026874D01*
X05846Y026869D01*
X05846Y026867D01*
X058463Y026862D01*
X058464Y026859D01*
X058467Y026854D01*
X058468Y026852D01*
X058471Y026847D01*
X058471Y026844D01*
X058475Y026839D01*
X058475Y026837D01*
X058478Y026832D01*
X058479Y026829D01*
X058482Y026824D01*
X058483Y026822D01*
X05849Y02681D01*
X05849Y02681D01*
X058493Y026805D01*
X058494Y026803D01*
X058497Y026798D01*
X058498Y026795D01*
X058505Y026784D01*
X058505Y026784D01*
X058508Y026779D01*
X058509Y026776D01*
X058517Y026765D01*
X058517Y026765D01*
X05852Y02676D01*
X05852Y026758D01*
X058528Y026746D01*
X058528Y026746D01*
X058545Y02672D01*
X058547Y026719D01*
X058554Y026709D01*
X058554Y026709D01*
X058562Y026697D01*
X058562Y026697D01*
X058579Y026671D01*
X058581Y02667D01*
X05859Y026656D01*
X058593Y026655D01*
X058594Y026653D01*
X058596Y026651D01*
X058605Y026638D01*
X058608Y026636D01*
X058609Y026634D01*
X058611Y026632D01*
X05862Y026619D01*
X058623Y026617D01*
X058624Y026615D01*
X058626Y026613D01*
X058628Y026611D01*
X05863Y02661D01*
X058639Y026596D01*
X058642Y026595D01*
X058643Y026592D01*
X058645Y026591D01*
X058647Y026589D01*
X058649Y026587D01*
X058651Y026585D01*
X058653Y026583D01*
X058654Y026581D01*
X058657Y02658D01*
X058658Y026577D01*
X05866Y026576D01*
X058662Y026574D01*
X058664Y026572D01*
X058666Y02657D01*
X058668Y026568D01*
X058669Y026566D01*
X058672Y026565D01*
X058673Y026562D01*
X058675Y026561D01*
X058677Y026559D01*
X058679Y026557D01*
X058681Y026555D01*
X058683Y026553D01*
X058684Y026551D01*
X058687Y026549D01*
X058688Y026547D01*
X05869Y026546D01*
X058692Y026543D01*
X058694Y026542D01*
X058696Y02654D01*
X058698Y026538D01*
X058699Y026536D01*
X058702Y026534D01*
X058703Y026532D01*
X058705Y026531D01*
X058707Y026528D01*
X058709Y026527D01*
X058711Y026525D01*
X058713Y026523D01*
X058714Y026521D01*
X058717Y026519D01*
X058718Y026517D01*
X058721Y026516D01*
X058722Y026513D01*
X058724Y026512D01*
X058726Y02651D01*
X058728Y026508D01*
X05873Y026506D01*
X058732Y026504D01*
X058733Y026502D01*
X058736Y026501D01*
X058737Y026498D01*
X058739Y026497D01*
X058741Y026495D01*
X058754Y026486D01*
X058756Y026483D01*
X058758Y026482D01*
X05876Y02648D01*
X058762Y026478D01*
X058763Y026476D01*
X058777Y026467D01*
X058778Y026464D01*
X058781Y026463D01*
X058782Y026461D01*
X058784Y026459D01*
X058786Y026457D01*
X0588Y026448D01*
X058801Y026446D01*
X058815Y026437D01*
X058816Y026434D01*
X05883Y026425D01*
X058831Y026423D01*
X058857Y026406D01*
X058857Y026406D01*
X058867Y026399D01*
X058869Y026397D01*
X058895Y026379D01*
X058897Y026379D01*
X058902Y026376D01*
X058902Y026376D01*
X058914Y026368D01*
X058916Y026368D01*
X058921Y026364D01*
X058921Y026364D01*
X058932Y026357D01*
X058935Y026356D01*
X05894Y026353D01*
X058943Y026352D01*
X058947Y026349D01*
X058947Y026349D01*
X058959Y026342D01*
X058961Y026341D01*
X058966Y026338D01*
X058969Y026337D01*
X058974Y026334D01*
X058976Y026334D01*
X058981Y02633D01*
X058984Y02633D01*
X058989Y026327D01*
X058992Y026326D01*
X058996Y026323D01*
X058996Y026323D01*
X059008Y026315D01*
X05901Y026315D01*
X059015Y026312D01*
X059018Y026311D01*
X059023Y026308D01*
X059031Y026306D01*
X059034Y026304D01*
X059037Y026304D01*
X059042Y0263D01*
X059044Y0263D01*
X059049Y026297D01*
X059052Y026296D01*
X059057Y026293D01*
X059065Y026291D01*
X059068Y026289D01*
X059071Y026289D01*
X059075Y026285D01*
X059083Y026284D01*
X059087Y026282D01*
X059089Y026281D01*
X059094Y026278D01*
X059102Y026276D01*
X059105Y026274D01*
X059108Y026273D01*
X059113Y02627D01*
X059121Y026269D01*
X059124Y026267D01*
X059132Y026265D01*
X059136Y026263D01*
X059144Y026261D01*
X059147Y026259D01*
X059155Y026257D01*
X059158Y026255D01*
X059166Y026254D01*
X059169Y026251D01*
X059177Y02625D01*
X059181Y026248D01*
X059189Y026246D01*
X059192Y026244D01*
X059205Y026241D01*
X059207Y02624D01*
X05922Y026237D01*
X059222Y026236D01*
X059235Y026234D01*
X059237Y026233D01*
X059245Y026231D01*
X059248Y026229D01*
X059267Y026225D01*
X059267Y026225D01*
X059298Y026219D01*
X059302D01*
X059309Y026218D01*
X059309Y026218D01*
X059339Y026211D01*
X059343D01*
X059362Y026208D01*
X059366D01*
X059384Y026204D01*
X059399D01*
X059418Y0262D01*
X05946D01*
X059479Y026196D01*
X059576D01*
X059595Y0262D01*
X059637D01*
X059655Y026204D01*
X05967D01*
X059689Y026208D01*
X059693D01*
X059712Y026211D01*
X059716D01*
X059746Y026218D01*
X059746Y026218D01*
X059765Y026221D01*
X059765Y026221D01*
X059772Y026223D01*
X059776D01*
X059806Y026229D01*
X059808Y02623D01*
X059821Y026233D01*
X059825Y026235D01*
X059833Y026236D01*
X059834Y026237D01*
X059848Y02624D01*
X059849Y026241D01*
X059863Y026244D01*
X059866Y026246D01*
X059874Y026248D01*
X059877Y02625D01*
X059885Y026251D01*
X059889Y026254D01*
X059897Y026255D01*
X0599Y026257D01*
X059908Y026259D01*
X059911Y026261D01*
X059919Y026263D01*
X059923Y026265D01*
X059931Y026267D01*
X059934Y026269D01*
X059942Y02627D01*
X059945Y026272D01*
X059953Y026274D01*
X059958Y026277D01*
X059961Y026278D01*
X059964Y02628D01*
X059972Y026282D01*
X059977Y026285D01*
X059979Y026285D01*
X059984Y026289D01*
X059987Y026289D01*
X05999Y026291D01*
X059998Y026293D01*
X060003Y026296D01*
X060006Y026297D01*
X060011Y0263D01*
X060013Y0263D01*
X060018Y026304D01*
X060021Y026304D01*
X060024Y026306D01*
X060032Y026308D01*
X060037Y026311D01*
X06004Y026312D01*
X060051Y026319D01*
X060051Y026319D01*
X060056Y026322D01*
X060058Y026323D01*
X060063Y026326D01*
X060066Y026327D01*
X060071Y02633D01*
X060074Y02633D01*
X060078Y026334D01*
X060081Y026334D01*
X060086Y026337D01*
X060089Y026338D01*
X060093Y026341D01*
X060096Y026342D01*
X060107Y026349D01*
X060107Y026349D01*
X060112Y026352D01*
X060115Y026353D01*
X06012Y026356D01*
X060122Y026357D01*
X060134Y026364D01*
X060134Y026364D01*
X060139Y026368D01*
X060141Y026368D01*
X060153Y026376D01*
X060153Y026376D01*
X060157Y026379D01*
X06016Y026379D01*
X060186Y026397D01*
X060188Y026399D01*
X060198Y026406D01*
X060198Y026406D01*
X060224Y026423D01*
X060225Y026425D01*
X060239Y026434D01*
X06024Y026437D01*
X060254Y026446D01*
X060255Y026448D01*
X060269Y026457D01*
X06027Y026459D01*
X060273Y026461D01*
X060274Y026463D01*
X060276Y026464D01*
X060278Y026467D01*
X060291Y026476D01*
X060293Y026478D01*
X060295Y02648D01*
X060297Y026482D01*
X060299Y026483D01*
X0603Y026486D01*
X060303Y026487D01*
X060304Y026489D01*
X060318Y026498D01*
X060319Y026501D01*
X060322Y026502D01*
X060323Y026504D01*
X060325Y026506D01*
X060327Y026508D01*
X060329Y02651D01*
X060331Y026512D01*
X060333Y026513D01*
X060334Y026516D01*
X060337Y026517D01*
X060338Y026519D01*
X06034Y026521D01*
X060342Y026523D01*
X060344Y026525D01*
X060346Y026527D01*
X060348Y026528D01*
X060349Y026531D01*
X060352Y026532D01*
X060353Y026534D01*
X060355Y026536D01*
X060357Y026538D01*
X060359Y02654D01*
X060361Y026542D01*
X060363Y026543D01*
X060364Y026546D01*
X060367Y026547D01*
X060368Y026549D01*
X06037Y026551D01*
X060372Y026553D01*
X060374Y026555D01*
X060376Y026557D01*
X060378Y026559D01*
X060379Y026561D01*
X060382Y026562D01*
X060383Y026565D01*
X060385Y026566D01*
X060387Y026568D01*
X060389Y02657D01*
X060391Y026572D01*
X060393Y026574D01*
X060395Y026576D01*
X060397Y026577D01*
X060398Y02658D01*
X060401Y026581D01*
X060402Y026583D01*
X060404Y026585D01*
X060406Y026587D01*
X060408Y026589D01*
X06041Y026591D01*
X060412Y026592D01*
X060421Y026606D01*
X060423Y026607D01*
X060425Y02661D01*
X060427Y026611D01*
X060428Y026613D01*
X060431Y026615D01*
X060432Y026617D01*
X060434Y026619D01*
X060443Y026632D01*
X060446Y026634D01*
X060447Y026636D01*
X060449Y026638D01*
X060459Y026651D01*
X060461Y026653D01*
X06047Y026666D01*
X060472Y026668D01*
X060474Y02667D01*
X060476Y026671D01*
X060493Y026697D01*
X060493Y026697D01*
X060501Y026709D01*
X060501Y026709D01*
X060507Y026719D01*
X06051Y02672D01*
X060527Y026746D01*
X060527Y026746D01*
X060535Y026758D01*
X060535Y02676D01*
X060538Y026765D01*
X060538Y026765D01*
X060546Y026776D01*
X060546Y026779D01*
X06055Y026784D01*
X06055Y026784D01*
X060557Y026795D01*
X060558Y026798D01*
X060561Y026803D01*
X060561Y026805D01*
X060565Y02681D01*
X060565Y02681D01*
X060572Y026822D01*
X060573Y026824D01*
X060576Y026829D01*
X060576Y026832D01*
X06058Y026837D01*
X06058Y026839D01*
X060583Y026844D01*
X060584Y026847D01*
X060587Y026852D01*
X060588Y026854D01*
X060591Y026859D01*
X060592Y026862D01*
X060595Y026867D01*
X060595Y026869D01*
X060599Y026874D01*
X060599Y026877D01*
X060602Y026882D01*
X060603Y026884D01*
X060606Y026889D01*
X060607Y026892D01*
X06061Y026897D01*
X060611Y026905D01*
X060614Y026908D01*
X060614Y026911D01*
X060617Y026916D01*
X060618Y026918D01*
X060621Y026923D01*
X060623Y026931D01*
X060625Y026934D01*
X060625Y026937D01*
X060629Y026942D01*
X06063Y02695D01*
X060632Y026953D01*
X060633Y026956D01*
X060636Y026961D01*
X060638Y026969D01*
X06064Y026972D01*
X06064Y026975D01*
X060644Y02698D01*
X060645Y026988D01*
X060647Y026991D01*
X060649Y026999D01*
X060651Y027002D01*
X060653Y02701D01*
X060655Y027013D01*
X060657Y027021D01*
X060659Y027025D01*
X06066Y027033D01*
X060662Y027036D01*
X060665Y027049D01*
X060666Y027051D01*
X060668Y027059D01*
X06067Y027062D01*
X060673Y027076D01*
X060674Y027077D01*
X060676Y027091D01*
X060678Y027092D01*
X06068Y027106D01*
X060681Y027107D01*
X060684Y027121D01*
X060685Y027123D01*
X060689Y027141D01*
X060689Y027141D01*
X060693Y02716D01*
X060693Y02716D01*
X060699Y027191D01*
Y027195D01*
X060702Y027213D01*
Y027221D01*
X060706Y02724D01*
Y027251D01*
X06071Y02727D01*
Y027289D01*
X060714Y027308D01*
Y027488D01*
X06071Y027507D01*
Y027526D01*
X060706Y027545D01*
Y027556D01*
X060702Y027575D01*
Y027582D01*
X060699Y027601D01*
Y027605D01*
X060693Y027635D01*
X060693Y027635D01*
X060689Y027654D01*
X060688Y027656D01*
X060685Y027669D01*
X060685Y027669D01*
X060681Y027688D01*
X06068Y02769D01*
X060678Y027703D01*
X060676Y027705D01*
X060674Y027718D01*
X060673Y02772D01*
X06067Y027733D01*
X060668Y027736D01*
X060666Y027745D01*
X060665Y027746D01*
X060662Y02776D01*
X06066Y027763D01*
X060659Y027771D01*
X060657Y027774D01*
X060655Y027782D01*
X060653Y027785D01*
X060651Y027793D01*
X060649Y027797D01*
X060647Y027805D01*
X060645Y027808D01*
X060644Y027816D01*
X06064Y027821D01*
X06064Y027824D01*
X060638Y027827D01*
X060636Y027835D01*
X060634Y027838D01*
X060632Y027846D01*
X060629Y027851D01*
X060629Y027854D01*
X060625Y027858D01*
X060625Y027861D01*
X060623Y027864D01*
X060621Y027872D01*
X060618Y027877D01*
X060617Y02788D01*
X060614Y027885D01*
X060614Y027887D01*
X060611Y027891D01*
X06061Y027899D01*
X060607Y027904D01*
X060606Y027906D01*
X060603Y027911D01*
X060602Y027914D01*
X060599Y027919D01*
X060599Y027921D01*
X060595Y027926D01*
X060595Y027929D01*
X060592Y027934D01*
X060591Y027936D01*
X060588Y027941D01*
X060587Y027944D01*
X060584Y027949D01*
X060583Y027951D01*
X06058Y027956D01*
X06058Y027959D01*
X060576Y027964D01*
X060576Y027966D01*
X060573Y027971D01*
X060572Y027974D01*
X060565Y027985D01*
X060565Y027985D01*
X060561Y02799D01*
X060561Y027993D01*
X060558Y027998D01*
X060557Y028D01*
X06055Y028012D01*
X06055Y028012D01*
X060546Y028016D01*
X060546Y028019D01*
X060538Y02803D01*
X060538Y02803D01*
X060531Y028042D01*
X060531Y028042D01*
X060523Y028053D01*
X060523Y028053D01*
X060516Y028064D01*
X060516Y028064D01*
X060508Y028076D01*
X060508Y028076D01*
X060501Y028087D01*
X060501Y028087D01*
X060483Y028113D01*
X060481Y028114D01*
X060465Y028139D01*
X060462Y028141D01*
X060461Y028143D01*
X060459Y028144D01*
X060449Y028158D01*
X060447Y02816D01*
X060446Y028162D01*
X060443Y028163D01*
X060434Y028177D01*
X060432Y028178D01*
X060431Y028181D01*
X060428Y028182D01*
X060427Y028184D01*
X060425Y028186D01*
X060423Y028188D01*
X060421Y02819D01*
X060419Y028192D01*
X060417Y028193D01*
X060408Y028207D01*
X060406Y028208D01*
X060404Y028211D01*
X060402Y028212D01*
X060401Y028214D01*
X060398Y028216D01*
X060397Y028218D01*
X060395Y02822D01*
X060393Y028222D01*
X060391Y028224D01*
X060389Y028226D01*
X060387Y028227D01*
X060385Y02823D01*
X060383Y028231D01*
X060382Y028233D01*
X060379Y028235D01*
X060378Y028237D01*
X060376Y028239D01*
X060374Y028241D01*
X060372Y028242D01*
X06037Y028245D01*
X060368Y028246D01*
X060367Y028248D01*
X060364Y02825D01*
X060363Y028252D01*
X060361Y028254D01*
X060359Y028256D01*
X060357Y028257D01*
X060355Y02826D01*
X060353Y028261D01*
X060352Y028263D01*
X060349Y028265D01*
X060348Y028267D01*
X060346Y028269D01*
X060344Y028271D01*
X060342Y028272D01*
X06034Y028275D01*
X060338Y028276D01*
X060337Y028278D01*
X060334Y02828D01*
X060333Y028282D01*
X060331Y028284D01*
X060329Y028286D01*
X060327Y028287D01*
X060325Y02829D01*
X060323Y028291D01*
X060322Y028293D01*
X060319Y028295D01*
X060318Y028297D01*
X060316Y028299D01*
X060314Y028301D01*
X0603Y02831D01*
X060299Y028312D01*
X060297Y028314D01*
X060295Y028316D01*
X060293Y028318D01*
X060291Y02832D01*
X060278Y028329D01*
X060276Y028331D01*
X060274Y028333D01*
X060273Y028335D01*
X06027Y028336D01*
X060269Y028339D01*
X060255Y028348D01*
X060254Y02835D01*
X06024Y028359D01*
X060239Y028361D01*
X060225Y02837D01*
X060224Y028372D01*
X060198Y02839D01*
X060198Y02839D01*
X060186Y028397D01*
X060186Y028397D01*
X060175Y028405D01*
X060175Y028405D01*
X060164Y028412D01*
X060164Y028412D01*
X060153Y02842D01*
X060153Y02842D01*
X060141Y028428D01*
X060139Y028428D01*
X060134Y028431D01*
X060134Y028431D01*
X060122Y028439D01*
X06012Y028439D01*
X060115Y028443D01*
X060115Y028443D01*
X060104Y02845D01*
X060101Y028451D01*
X060096Y028454D01*
X060096Y028454D01*
X060085Y028461D01*
X060082Y028462D01*
X060077Y028465D01*
X060075Y028466D01*
X06007Y028469D01*
X060067Y028469D01*
X060062Y028473D01*
X06006Y028473D01*
X060055Y028476D01*
X060052Y028477D01*
X060047Y02848D01*
X060045Y028481D01*
X06004Y028484D01*
X060037Y028484D01*
X060032Y028488D01*
X060024Y028489D01*
X060021Y028491D01*
X060018Y028492D01*
X060013Y028495D01*
X060011Y028496D01*
X060006Y028499D01*
X060003Y0285D01*
X059998Y028503D01*
X059996Y028503D01*
X059991Y028507D01*
X059983Y028508D01*
X059979Y02851D01*
X059977Y028511D01*
X059972Y028514D01*
X059964Y028516D01*
X059961Y028518D01*
X059958Y028518D01*
X059953Y028522D01*
X059945Y028523D01*
X059942Y028525D01*
X059934Y028527D01*
X059931Y028529D01*
X059928Y02853D01*
X059923Y028533D01*
X059915Y028534D01*
X059912Y028537D01*
X059904Y028538D01*
X0599Y02854D01*
X059892Y028542D01*
X059889Y028544D01*
X059881Y028546D01*
X059878Y028548D01*
X05987Y028549D01*
X059867Y028552D01*
X059853Y028554D01*
X059852Y028555D01*
X059838Y028558D01*
X059837Y028559D01*
X059823Y028562D01*
X059821Y028563D01*
X059803Y028567D01*
X059803Y028567D01*
X059789Y028569D01*
X059788Y02857D01*
X059769Y028574D01*
X059769Y028574D01*
X059738Y02858D01*
X059734D01*
X059716Y028584D01*
X059712D01*
X059693Y028588D01*
X059686D01*
X059667Y028592D01*
X059659D01*
X05964Y028595D01*
X05961D01*
X059591Y028599D01*
D02*
G37*
G36*
X040652Y023898D02*
X040548D01*
X040448Y023871D01*
X040358Y023819D01*
X040285Y023746D01*
X040233Y023656D01*
X040206Y023556D01*
Y023453D01*
X040233Y023352D01*
X040285Y023263D01*
X040358Y023189D01*
X040448Y023137D01*
X040548Y023111D01*
X040652D01*
X040752Y023137D01*
X040842Y023189D01*
X040915Y023263D01*
X040967Y023352D01*
X040994Y023453D01*
Y023556D01*
X040967Y023656D01*
X040915Y023746D01*
X040842Y023819D01*
X040752Y023871D01*
X040652Y023898D01*
D02*
G37*
G36*
X039652D02*
X039548D01*
X039448Y023871D01*
X039358Y023819D01*
X039285Y023746D01*
X039233Y023656D01*
X039206Y023556D01*
Y023453D01*
X039233Y023352D01*
X039285Y023263D01*
X039358Y023189D01*
X039448Y023137D01*
X039548Y023111D01*
X039652D01*
X039752Y023137D01*
X039842Y023189D01*
X039915Y023263D01*
X039967Y023352D01*
X039994Y023453D01*
Y023556D01*
X039967Y023656D01*
X039915Y023746D01*
X039842Y023819D01*
X039752Y023871D01*
X039652Y023898D01*
D02*
G37*
G36*
X038652D02*
X038548D01*
X038448Y023871D01*
X038358Y023819D01*
X038285Y023746D01*
X038233Y023656D01*
X038206Y023556D01*
Y023453D01*
X038233Y023352D01*
X038285Y023263D01*
X038358Y023189D01*
X038448Y023137D01*
X038548Y023111D01*
X038652D01*
X038752Y023137D01*
X038842Y023189D01*
X038915Y023263D01*
X038967Y023352D01*
X038994Y023453D01*
Y023556D01*
X038967Y023656D01*
X038915Y023746D01*
X038842Y023819D01*
X038752Y023871D01*
X038652Y023898D01*
D02*
G37*
G36*
X037652D02*
X037548D01*
X037448Y023871D01*
X037358Y023819D01*
X037285Y023746D01*
X037233Y023656D01*
X037206Y023556D01*
Y023453D01*
X037233Y023352D01*
X037285Y023263D01*
X037358Y023189D01*
X037448Y023137D01*
X037548Y023111D01*
X037652D01*
X037752Y023137D01*
X037842Y023189D01*
X037915Y023263D01*
X037967Y023352D01*
X037994Y023453D01*
Y023556D01*
X037967Y023656D01*
X037915Y023746D01*
X037842Y023819D01*
X037752Y023871D01*
X037652Y023898D01*
D02*
G37*
G36*
X058705Y023215D02*
X0587D01*
Y02285D01*
X059065D01*
Y022855D01*
X059037Y02296D01*
X058982Y023055D01*
X058905Y023132D01*
X05881Y023187D01*
X058705Y023215D01*
D02*
G37*
G36*
X0586D02*
X058595D01*
X05849Y023187D01*
X058395Y023132D01*
X058318Y023055D01*
X058263Y02296D01*
X058235Y022855D01*
Y02285D01*
X0586D01*
Y023215D01*
D02*
G37*
G36*
X024855Y023169D02*
X02485D01*
Y022804D01*
X025215D01*
Y022809D01*
X025187Y022915D01*
X025132Y023009D01*
X025055Y023086D01*
X02496Y023141D01*
X024855Y023169D01*
D02*
G37*
G36*
X02475D02*
X024745D01*
X02464Y023141D01*
X024545Y023086D01*
X024468Y023009D01*
X024413Y022915D01*
X024385Y022809D01*
Y022804D01*
X02475D01*
Y023169D01*
D02*
G37*
G36*
X049359Y02305D02*
X04935D01*
Y02265D01*
X04975D01*
Y022659D01*
X049719Y022774D01*
X04966Y022876D01*
X049576Y02296D01*
X049474Y023019D01*
X049359Y02305D01*
D02*
G37*
G36*
X04925D02*
X049241D01*
X049126Y023019D01*
X049024Y02296D01*
X04894Y022876D01*
X048881Y022774D01*
X04885Y022659D01*
Y02265D01*
X04925D01*
Y02305D01*
D02*
G37*
G36*
X060702Y023194D02*
X060598D01*
X060498Y023167D01*
X060408Y023115D01*
X060335Y023042D01*
X060283Y022952D01*
X060256Y022852D01*
Y022748D01*
X060283Y022648D01*
X060335Y022558D01*
X060408Y022485D01*
X060498Y022433D01*
X060598Y022406D01*
X060702D01*
X060802Y022433D01*
X060892Y022485D01*
X060965Y022558D01*
X061017Y022648D01*
X061044Y022748D01*
Y022852D01*
X061017Y022952D01*
X060965Y023042D01*
X060892Y023115D01*
X060802Y023167D01*
X060702Y023194D01*
D02*
G37*
G36*
X059065Y02275D02*
X0587D01*
Y022385D01*
X058705D01*
X05881Y022413D01*
X058905Y022468D01*
X058982Y022545D01*
X059037Y02264D01*
X059065Y022745D01*
Y02275D01*
D02*
G37*
G36*
X0586D02*
X058235D01*
Y022745D01*
X058263Y02264D01*
X058318Y022545D01*
X058395Y022468D01*
X05849Y022413D01*
X058595Y022385D01*
X0586D01*
Y02275D01*
D02*
G37*
G36*
X025215Y022704D02*
X02485D01*
Y022339D01*
X024855D01*
X02496Y022368D01*
X025055Y022422D01*
X025132Y0225D01*
X025187Y022594D01*
X025215Y0227D01*
Y022704D01*
D02*
G37*
G36*
X02475D02*
X024385D01*
Y0227D01*
X024413Y022594D01*
X024468Y0225D01*
X024545Y022422D01*
X02464Y022368D01*
X024745Y022339D01*
X02475D01*
Y022704D01*
D02*
G37*
G36*
X047902Y023098D02*
X047798D01*
X047698Y023071D01*
X047608Y023019D01*
X047535Y022946D01*
X047483Y022856D01*
X047456Y022756D01*
Y022653D01*
X047483Y022552D01*
X047535Y022463D01*
X047608Y022389D01*
X047698Y022337D01*
X047798Y022311D01*
X047902D01*
X048002Y022337D01*
X048092Y022389D01*
X048165Y022463D01*
X048217Y022552D01*
X048244Y022653D01*
Y022756D01*
X048217Y022856D01*
X048165Y022946D01*
X048092Y023019D01*
X048002Y023071D01*
X047902Y023098D01*
D02*
G37*
G36*
X054494Y022835D02*
X054406D01*
X054321Y022812D01*
X054245Y022768D01*
X054182Y022705D01*
X054138Y022629D01*
X054115Y022544D01*
Y022456D01*
X054138Y022371D01*
X054182Y022295D01*
X054245Y022232D01*
X054321Y022188D01*
X054406Y022165D01*
X054494D01*
X054579Y022188D01*
X054655Y022232D01*
X054718Y022295D01*
X054762Y022371D01*
X054785Y022456D01*
Y022544D01*
X054762Y022629D01*
X054718Y022705D01*
X054655Y022768D01*
X054579Y022812D01*
X054494Y022835D01*
D02*
G37*
G36*
X050494D02*
X050406D01*
X050321Y022812D01*
X050245Y022768D01*
X050182Y022705D01*
X050138Y022629D01*
X050115Y022544D01*
Y022456D01*
X050138Y022371D01*
X050182Y022295D01*
X050245Y022232D01*
X050321Y022188D01*
X050406Y022165D01*
X050494D01*
X050579Y022188D01*
X050655Y022232D01*
X050718Y022295D01*
X050762Y022371D01*
X050785Y022456D01*
Y022544D01*
X050762Y022629D01*
X050718Y022705D01*
X050655Y022768D01*
X050579Y022812D01*
X050494Y022835D01*
D02*
G37*
G36*
X04975Y02255D02*
X04935D01*
Y02215D01*
X049359D01*
X049474Y022181D01*
X049576Y02224D01*
X04966Y022324D01*
X049719Y022426D01*
X04975Y022541D01*
Y02255D01*
D02*
G37*
G36*
X04925D02*
X04885D01*
Y022541D01*
X048881Y022426D01*
X04894Y022324D01*
X049024Y02224D01*
X049126Y022181D01*
X049241Y02215D01*
X04925D01*
Y02255D01*
D02*
G37*
G36*
X026093Y022019D02*
X026044D01*
Y02167D01*
X026295D01*
Y021817D01*
X02628Y021894D01*
X026236Y02196D01*
X02617Y022003D01*
X026093Y022019D01*
D02*
G37*
G36*
X025944D02*
X025896D01*
X025819Y022003D01*
X025753Y02196D01*
X025709Y021894D01*
X025694Y021817D01*
Y02167D01*
X025944D01*
Y022019D01*
D02*
G37*
G36*
X059702Y023194D02*
X059598D01*
X059498Y023167D01*
X059408Y023115D01*
X059335Y023042D01*
X059283Y022952D01*
X059256Y022852D01*
Y022748D01*
X059283Y022648D01*
X059335Y022558D01*
X059408Y022485D01*
X059469Y02245D01*
Y022075D01*
X058722Y021327D01*
X058694Y021335D01*
X058606D01*
X058521Y021312D01*
X058445Y021268D01*
X058382Y021205D01*
X058338Y021129D01*
X058315Y021044D01*
Y020956D01*
X058338Y020871D01*
X058382Y020795D01*
X058445Y020732D01*
X058521Y020688D01*
X058606Y020665D01*
X058694D01*
X058779Y020688D01*
X058855Y020732D01*
X058918Y020795D01*
X058962Y020871D01*
X058985Y020956D01*
Y021044D01*
X058977Y021072D01*
X059778Y021872D01*
X059817Y021931D01*
X059831Y022D01*
Y02245D01*
X059892Y022485D01*
X059965Y022558D01*
X060017Y022648D01*
X060044Y022748D01*
Y022852D01*
X060017Y022952D01*
X059965Y023042D01*
X059892Y023115D01*
X059802Y023167D01*
X059702Y023194D01*
D02*
G37*
G36*
X047902Y022098D02*
X047798D01*
X047698Y022071D01*
X047608Y022019D01*
X047535Y021946D01*
X047483Y021856D01*
X047456Y021756D01*
Y021653D01*
X047483Y021552D01*
X047535Y021463D01*
X047608Y021389D01*
X047698Y021337D01*
X047798Y021311D01*
X047902D01*
X048002Y021337D01*
X048092Y021389D01*
X048165Y021463D01*
X048217Y021552D01*
X048244Y021653D01*
Y021756D01*
X048217Y021856D01*
X048165Y021946D01*
X048092Y022019D01*
X048002Y022071D01*
X047902Y022098D01*
D02*
G37*
G36*
X024859Y0213D02*
X02485D01*
Y0209D01*
X02525D01*
Y020909D01*
X025219Y021024D01*
X02516Y021126D01*
X025076Y02121D01*
X024974Y021269D01*
X024859Y0213D01*
D02*
G37*
G36*
X026295Y02157D02*
X025994D01*
X025694D01*
Y021423D01*
X025709Y021345D01*
X025753Y02128D01*
X025819Y021236D01*
X025869Y021226D01*
X025885Y021172D01*
X02584Y021126D01*
X025781Y021024D01*
X02575Y020909D01*
Y0209D01*
X02665D01*
Y020909D01*
X026619Y021024D01*
X02656Y021126D01*
X026476Y02121D01*
X026374Y021269D01*
X026302Y021289D01*
X02628Y021345D01*
X026295Y021423D01*
Y02157D01*
D02*
G37*
G36*
X02475Y0213D02*
X024741D01*
X024626Y021269D01*
X024524Y02121D01*
X02444Y021126D01*
X024381Y021024D01*
X02435Y020909D01*
Y0209D01*
X02475D01*
Y0213D01*
D02*
G37*
G36*
X047905Y021119D02*
X0479D01*
Y020754D01*
X048265D01*
Y020759D01*
X048237Y020865D01*
X048182Y020959D01*
X048105Y021036D01*
X04801Y021091D01*
X047905Y021119D01*
D02*
G37*
G36*
X0478D02*
X047795D01*
X04769Y021091D01*
X047595Y021036D01*
X047518Y020959D01*
X047463Y020865D01*
X047435Y020759D01*
Y020754D01*
X0478D01*
Y021119D01*
D02*
G37*
G36*
X038344Y021385D02*
X038256D01*
X038171Y021362D01*
X038095Y021318D01*
X038032Y021255D01*
X037988Y021179D01*
X037965Y021094D01*
Y021006D01*
X037988Y020921D01*
X038032Y020845D01*
X038095Y020782D01*
X038171Y020738D01*
X038256Y020715D01*
X038344D01*
X038429Y020738D01*
X038505Y020782D01*
X038568Y020845D01*
X038612Y020921D01*
X038635Y021006D01*
Y021094D01*
X038612Y021179D01*
X038568Y021255D01*
X038505Y021318D01*
X038429Y021362D01*
X038344Y021385D01*
D02*
G37*
G36*
X037344D02*
X037256D01*
X037171Y021362D01*
X037095Y021318D01*
X037032Y021255D01*
X036988Y021179D01*
X036965Y021094D01*
Y021006D01*
X036988Y020921D01*
X037032Y020845D01*
X037095Y020782D01*
X037171Y020738D01*
X037256Y020715D01*
X037344D01*
X037429Y020738D01*
X037505Y020782D01*
X037568Y020845D01*
X037612Y020921D01*
X037635Y021006D01*
Y021094D01*
X037612Y021179D01*
X037568Y021255D01*
X037505Y021318D01*
X037429Y021362D01*
X037344Y021385D01*
D02*
G37*
G36*
X036344D02*
X036256D01*
X036171Y021362D01*
X036095Y021318D01*
X036032Y021255D01*
X035988Y021179D01*
X035965Y021094D01*
Y021006D01*
X035988Y020921D01*
X036032Y020845D01*
X036095Y020782D01*
X036171Y020738D01*
X036256Y020715D01*
X036344D01*
X036429Y020738D01*
X036505Y020782D01*
X036568Y020845D01*
X036612Y020921D01*
X036635Y021006D01*
Y021094D01*
X036612Y021179D01*
X036568Y021255D01*
X036505Y021318D01*
X036429Y021362D01*
X036344Y021385D01*
D02*
G37*
G36*
X060894Y021335D02*
X060806D01*
X060721Y021312D01*
X060645Y021268D01*
X060582Y021205D01*
X060538Y021129D01*
X060515Y021044D01*
Y020956D01*
X060538Y020871D01*
X060582Y020795D01*
X060645Y020732D01*
X060721Y020688D01*
X060806Y020665D01*
X060894D01*
X060979Y020688D01*
X061055Y020732D01*
X061118Y020795D01*
X061162Y020871D01*
X061185Y020956D01*
Y021044D01*
X061162Y021129D01*
X061118Y021205D01*
X061055Y021268D01*
X060979Y021312D01*
X060894Y021335D01*
D02*
G37*
G36*
X059794D02*
X059706D01*
X059621Y021312D01*
X059545Y021268D01*
X059482Y021205D01*
X059438Y021129D01*
X059415Y021044D01*
Y020956D01*
X059438Y020871D01*
X059482Y020795D01*
X059545Y020732D01*
X059621Y020688D01*
X059706Y020665D01*
X059794D01*
X059879Y020688D01*
X059955Y020732D01*
X060018Y020795D01*
X060062Y020871D01*
X060085Y020956D01*
Y021044D01*
X060062Y021129D01*
X060018Y021205D01*
X059955Y021268D01*
X059879Y021312D01*
X059794Y021335D01*
D02*
G37*
G36*
X055555Y020865D02*
X05555D01*
Y0205D01*
X055915D01*
Y020505D01*
X055887Y02061D01*
X055832Y020705D01*
X055755Y020782D01*
X05566Y020837D01*
X055555Y020865D01*
D02*
G37*
G36*
X05545D02*
X055445D01*
X05534Y020837D01*
X055245Y020782D01*
X055168Y020705D01*
X055113Y02061D01*
X055085Y020505D01*
Y0205D01*
X05545D01*
Y020865D01*
D02*
G37*
G36*
X026998Y021997D02*
X026802D01*
X026732Y021983D01*
X026674Y021944D01*
X026635Y021886D01*
X026621Y021817D01*
Y021423D01*
X026635Y021354D01*
X026674Y021295D01*
X026732Y021256D01*
X026802Y021242D01*
X026818D01*
Y021188D01*
X026832Y021119D01*
X026847Y021096D01*
X0268Y021015D01*
X026771Y020906D01*
Y020794D01*
X0268Y020685D01*
X026857Y020587D01*
X026937Y020507D01*
X027035Y02045D01*
X027144Y020421D01*
X027256D01*
X027365Y02045D01*
X027463Y020507D01*
X027543Y020587D01*
X0276Y020685D01*
X027629Y020794D01*
Y020906D01*
X0276Y021015D01*
X027543Y021113D01*
X027463Y021193D01*
X027365Y02125D01*
X027256Y021279D01*
X027179D01*
Y021521D01*
X027179Y021521D01*
Y021817D01*
X027165Y021886D01*
X027126Y021944D01*
X027068Y021983D01*
X026998Y021997D01*
D02*
G37*
G36*
X02665Y0208D02*
X02625D01*
Y0204D01*
X026259D01*
X026374Y020431D01*
X026476Y02049D01*
X02656Y020574D01*
X026619Y020676D01*
X02665Y020791D01*
Y0208D01*
D02*
G37*
G36*
X02615D02*
X02575D01*
Y020791D01*
X025781Y020676D01*
X02584Y020574D01*
X025924Y02049D01*
X026026Y020431D01*
X026141Y0204D01*
X02615D01*
Y0208D01*
D02*
G37*
G36*
X02525D02*
X02485D01*
Y0204D01*
X024859D01*
X024974Y020431D01*
X025076Y02049D01*
X02516Y020574D01*
X025219Y020676D01*
X02525Y020791D01*
Y0208D01*
D02*
G37*
G36*
X02475D02*
X02435D01*
Y020791D01*
X024381Y020676D01*
X02444Y020574D01*
X024524Y02049D01*
X024626Y020431D01*
X024741Y0204D01*
X02475D01*
Y0208D01*
D02*
G37*
G36*
X048265Y020654D02*
X0479D01*
Y020289D01*
X047905D01*
X04801Y020318D01*
X048105Y020372D01*
X048182Y02045D01*
X048237Y020544D01*
X048265Y02065D01*
Y020654D01*
D02*
G37*
G36*
X0478D02*
X047435D01*
Y02065D01*
X047463Y020544D01*
X047518Y02045D01*
X047595Y020372D01*
X04769Y020318D01*
X047795Y020289D01*
X0478D01*
Y020654D01*
D02*
G37*
G36*
X057552Y020844D02*
X057448D01*
X057348Y020817D01*
X057258Y020765D01*
X057185Y020692D01*
X057133Y020602D01*
X057106Y020502D01*
Y020398D01*
X057133Y020298D01*
X057185Y020208D01*
X057258Y020135D01*
X057348Y020083D01*
X057448Y020056D01*
X057552D01*
X057652Y020083D01*
X057742Y020135D01*
X057815Y020208D01*
X057867Y020298D01*
X057894Y020398D01*
Y020502D01*
X057867Y020602D01*
X057815Y020692D01*
X057742Y020765D01*
X057652Y020817D01*
X057552Y020844D01*
D02*
G37*
G36*
X056552D02*
X056448D01*
X056348Y020817D01*
X056258Y020765D01*
X056185Y020692D01*
X056133Y020602D01*
X056106Y020502D01*
Y020398D01*
X056133Y020298D01*
X056185Y020208D01*
X056258Y020135D01*
X056348Y020083D01*
X056448Y020056D01*
X056552D01*
X056652Y020083D01*
X056742Y020135D01*
X056815Y020208D01*
X056867Y020298D01*
X056894Y020398D01*
Y020502D01*
X056867Y020602D01*
X056815Y020692D01*
X056742Y020765D01*
X056652Y020817D01*
X056552Y020844D01*
D02*
G37*
G36*
X055915Y0204D02*
X05555D01*
Y020035D01*
X055555D01*
X05566Y020063D01*
X055755Y020118D01*
X055832Y020195D01*
X055887Y02029D01*
X055915Y020395D01*
Y0204D01*
D02*
G37*
G36*
X05545D02*
X055085D01*
Y020395D01*
X055113Y02029D01*
X055168Y020195D01*
X055245Y020118D01*
X05534Y020063D01*
X055445Y020035D01*
X05545D01*
Y0204D01*
D02*
G37*
G36*
X02865Y019555D02*
Y01925D01*
X028955D01*
X028932Y019337D01*
X028885Y019419D01*
X028819Y019485D01*
X028737Y019532D01*
X02865Y019555D01*
D02*
G37*
G36*
X0268D02*
Y01925D01*
X027105D01*
X027082Y019337D01*
X027035Y019419D01*
X026969Y019485D01*
X026887Y019532D01*
X0268Y019555D01*
D02*
G37*
G36*
X0342Y019747D02*
Y01925D01*
X034579D01*
Y019325D01*
X034564Y019436D01*
X034521Y019539D01*
X034453Y019628D01*
X034364Y019696D01*
X034261Y019739D01*
X0342Y019747D01*
D02*
G37*
G36*
X0341D02*
X034039Y019739D01*
X033936Y019696D01*
X033847Y019628D01*
X033779Y019539D01*
X033736Y019436D01*
X033721Y019325D01*
Y01925D01*
X0341D01*
Y019747D01*
D02*
G37*
G36*
X02855Y019555D02*
X028463Y019532D01*
X028381Y019485D01*
X028315Y019419D01*
X028268Y019337D01*
X028245Y01925D01*
X02855D01*
Y019555D01*
D02*
G37*
G36*
X0267D02*
X026613Y019532D01*
X026531Y019485D01*
X026465Y019419D01*
X026418Y019337D01*
X026395Y01925D01*
X0267D01*
Y019555D01*
D02*
G37*
G36*
X052849Y019874D02*
X052751D01*
X052656Y019849D01*
X05257Y019799D01*
X052501Y01973D01*
X052451Y019644D01*
X052426Y019549D01*
Y019451D01*
X052451Y019356D01*
X052501Y01927D01*
X05257Y019201D01*
X052656Y019151D01*
X052751Y019126D01*
X052849D01*
X052944Y019151D01*
X05303Y019201D01*
X053099Y01927D01*
X053149Y019356D01*
X053174Y019451D01*
Y019549D01*
X053149Y019644D01*
X053099Y01973D01*
X05303Y019799D01*
X052944Y019849D01*
X052849Y019874D01*
D02*
G37*
G36*
X050174Y019869D02*
X049426D01*
Y019121D01*
X050174D01*
Y019869D01*
D02*
G37*
G36*
X028955Y01915D02*
X02865D01*
Y018845D01*
X028737Y018868D01*
X028819Y018915D01*
X028885Y018981D01*
X028932Y019063D01*
X028955Y01915D01*
D02*
G37*
G36*
X027105D02*
X0268D01*
Y018845D01*
X026887Y018868D01*
X026969Y018915D01*
X027035Y018981D01*
X027082Y019063D01*
X027105Y01915D01*
D02*
G37*
G36*
X02855D02*
X028245D01*
X028268Y019063D01*
X028315Y018981D01*
X028381Y018915D01*
X028463Y018868D01*
X02855Y018845D01*
Y01915D01*
D02*
G37*
G36*
X0267D02*
X026395D01*
X026418Y019063D01*
X026465Y018981D01*
X026531Y018915D01*
X026613Y018868D01*
X0267Y018845D01*
Y01915D01*
D02*
G37*
G36*
X02485Y019297D02*
Y01875D01*
X025254D01*
Y01885D01*
X025238Y018967D01*
X025193Y019077D01*
X025121Y019171D01*
X025027Y019243D01*
X024917Y019288D01*
X02485Y019297D01*
D02*
G37*
G36*
X02475D02*
X024683Y019288D01*
X024573Y019243D01*
X024479Y019171D01*
X024407Y019077D01*
X024362Y018967D01*
X024346Y01885D01*
Y01875D01*
X02475D01*
Y019297D01*
D02*
G37*
G36*
X027532Y024853D02*
X024118D01*
X024049Y02484D01*
X023991Y024801D01*
X023672Y024482D01*
X023633Y024423D01*
X023619Y024354D01*
Y023105D01*
X023558Y023069D01*
X023485Y022996D01*
X023433Y022906D01*
X023406Y022806D01*
Y022703D01*
X023433Y022602D01*
X023485Y022513D01*
X023558Y022439D01*
X023619Y022404D01*
Y021241D01*
X023537Y021193D01*
X023457Y021113D01*
X0234Y021015D01*
X023371Y020906D01*
Y020794D01*
X0234Y020685D01*
X023457Y020587D01*
X023537Y020507D01*
X023619Y020459D01*
Y019279D01*
X023371D01*
Y018121D01*
X023619D01*
Y016504D01*
X023371D01*
Y015346D01*
X024229D01*
Y016504D01*
X023981D01*
Y018121D01*
X024229D01*
Y019279D01*
X023981D01*
Y020459D01*
X024063Y020507D01*
X024143Y020587D01*
X0242Y020685D01*
X024229Y020794D01*
Y020906D01*
X0242Y021015D01*
X024143Y021113D01*
X024063Y021193D01*
X023981Y021241D01*
Y022404D01*
X024042Y022439D01*
X024115Y022513D01*
X024167Y022602D01*
X024194Y022703D01*
Y022806D01*
X024167Y022906D01*
X024115Y022996D01*
X024042Y023069D01*
X023981Y023105D01*
Y02428D01*
X024193Y024492D01*
X02627D01*
X026286Y024442D01*
X026239Y024411D01*
X026189Y024336D01*
X026171Y024248D01*
Y023952D01*
X026189Y023864D01*
X026239Y023789D01*
X026314Y023739D01*
X026402Y023722D01*
X027398D01*
X027486Y023739D01*
X027561Y023789D01*
X027575Y02381D01*
X027625Y023794D01*
Y021975D01*
X027579Y021944D01*
X02754Y021886D01*
X027526Y021817D01*
Y021423D01*
X02754Y021354D01*
X027579Y021295D01*
X027638Y021256D01*
X027707Y021242D01*
X027904D01*
X027973Y021256D01*
X028032Y021295D01*
X028071Y021354D01*
X028085Y021423D01*
Y021817D01*
X028071Y021886D01*
X028032Y021944D01*
X027986Y021975D01*
Y024324D01*
X028136Y024474D01*
X031675D01*
X031969Y02418D01*
Y019729D01*
X031746D01*
Y018671D01*
X032554D01*
Y019729D01*
X032331D01*
Y024254D01*
X032317Y024323D01*
X032278Y024382D01*
X031878Y024782D01*
X031819Y024821D01*
X03175Y024835D01*
X028061D01*
X027992Y024821D01*
X027933Y024782D01*
X027806Y024654D01*
X027659Y024801D01*
X027601Y02484D01*
X027532Y024853D01*
D02*
G37*
G36*
X03315Y019732D02*
X033045Y019718D01*
X032946Y019678D01*
X032862Y019613D01*
X032797Y019529D01*
X032757Y01943D01*
X032743Y019325D01*
Y019075D01*
X032757Y01897D01*
X032797Y018871D01*
X032862Y018787D01*
X032946Y018722D01*
X033045Y018682D01*
X03315Y018668D01*
X033255Y018682D01*
X033354Y018722D01*
X033438Y018787D01*
X033503Y018871D01*
X033543Y01897D01*
X033557Y019075D01*
Y019325D01*
X033543Y01943D01*
X033503Y019529D01*
X033438Y019613D01*
X033354Y019678D01*
X033255Y019718D01*
X03315Y019732D01*
D02*
G37*
G36*
X034579Y01915D02*
X0342D01*
Y018653D01*
X034261Y018661D01*
X034364Y018704D01*
X034453Y018772D01*
X034521Y018861D01*
X034564Y018964D01*
X034579Y019075D01*
Y01915D01*
D02*
G37*
G36*
X0341D02*
X033721D01*
Y019075D01*
X033736Y018964D01*
X033779Y018861D01*
X033847Y018772D01*
X033936Y018704D01*
X034039Y018661D01*
X0341Y018653D01*
Y01915D01*
D02*
G37*
G36*
X055605Y018515D02*
X0556D01*
Y01815D01*
X055965D01*
Y018155D01*
X055937Y01826D01*
X055882Y018355D01*
X055805Y018432D01*
X05571Y018487D01*
X055605Y018515D01*
D02*
G37*
G36*
X0555D02*
X055495D01*
X05539Y018487D01*
X055295Y018432D01*
X055218Y018355D01*
X055163Y01826D01*
X055135Y018155D01*
Y01815D01*
X0555D01*
Y018515D01*
D02*
G37*
G36*
X025254Y01865D02*
X02485D01*
Y018103D01*
X024917Y018112D01*
X025027Y018157D01*
X025121Y018229D01*
X025193Y018323D01*
X025238Y018433D01*
X025254Y01855D01*
Y01865D01*
D02*
G37*
G36*
X02475D02*
X024346D01*
Y01855D01*
X024362Y018433D01*
X024407Y018323D01*
X024479Y018229D01*
X024573Y018157D01*
X024683Y018112D01*
X02475Y018103D01*
Y01865D01*
D02*
G37*
G36*
X04535Y018405D02*
Y0181D01*
X045655D01*
X045632Y018187D01*
X045585Y018269D01*
X045519Y018335D01*
X045437Y018382D01*
X04535Y018405D01*
D02*
G37*
G36*
X026794Y018535D02*
X026706D01*
X026621Y018512D01*
X026545Y018468D01*
X026482Y018405D01*
X026438Y018329D01*
X026415Y018244D01*
Y018156D01*
X026438Y018071D01*
X026482Y017995D01*
X026545Y017932D01*
X026621Y017888D01*
X026706Y017865D01*
X026794D01*
X026879Y017888D01*
X026955Y017932D01*
X027018Y017995D01*
X027062Y018071D01*
X027085Y018156D01*
Y018244D01*
X027062Y018329D01*
X027018Y018405D01*
X026955Y018468D01*
X026879Y018512D01*
X026794Y018535D01*
D02*
G37*
G36*
X040344Y018385D02*
X040256D01*
X040171Y018362D01*
X040095Y018318D01*
X040032Y018255D01*
X039988Y018179D01*
X039965Y018094D01*
Y018006D01*
X039988Y017921D01*
X040032Y017845D01*
X040095Y017782D01*
X040171Y017738D01*
X040256Y017715D01*
X040344D01*
X040429Y017738D01*
X040505Y017782D01*
X040568Y017845D01*
X040612Y017921D01*
X040635Y018006D01*
Y018094D01*
X040612Y018179D01*
X040568Y018255D01*
X040505Y018318D01*
X040429Y018362D01*
X040344Y018385D01*
D02*
G37*
G36*
X039344D02*
X039256D01*
X039171Y018362D01*
X039095Y018318D01*
X039032Y018255D01*
X038988Y018179D01*
X038965Y018094D01*
Y018006D01*
X038988Y017921D01*
X039032Y017845D01*
X039095Y017782D01*
X039171Y017738D01*
X039256Y017715D01*
X039344D01*
X039429Y017738D01*
X039505Y017782D01*
X039568Y017845D01*
X039612Y017921D01*
X039635Y018006D01*
Y018094D01*
X039612Y018179D01*
X039568Y018255D01*
X039505Y018318D01*
X039429Y018362D01*
X039344Y018385D01*
D02*
G37*
G36*
X038344D02*
X038256D01*
X038171Y018362D01*
X038095Y018318D01*
X038032Y018255D01*
X037988Y018179D01*
X037965Y018094D01*
Y018006D01*
X037988Y017921D01*
X038032Y017845D01*
X038095Y017782D01*
X038171Y017738D01*
X038256Y017715D01*
X038344D01*
X038429Y017738D01*
X038505Y017782D01*
X038568Y017845D01*
X038612Y017921D01*
X038635Y018006D01*
Y018094D01*
X038612Y018179D01*
X038568Y018255D01*
X038505Y018318D01*
X038429Y018362D01*
X038344Y018385D01*
D02*
G37*
G36*
X037344D02*
X037256D01*
X037171Y018362D01*
X037095Y018318D01*
X037032Y018255D01*
X036988Y018179D01*
X036965Y018094D01*
Y018006D01*
X036988Y017921D01*
X037032Y017845D01*
X037095Y017782D01*
X037171Y017738D01*
X037256Y017715D01*
X037344D01*
X037429Y017738D01*
X037505Y017782D01*
X037568Y017845D01*
X037612Y017921D01*
X037635Y018006D01*
Y018094D01*
X037612Y018179D01*
X037568Y018255D01*
X037505Y018318D01*
X037429Y018362D01*
X037344Y018385D01*
D02*
G37*
G36*
X036344D02*
X036256D01*
X036171Y018362D01*
X036095Y018318D01*
X036032Y018255D01*
X035988Y018179D01*
X035965Y018094D01*
Y018006D01*
X035988Y017921D01*
X036032Y017845D01*
X036095Y017782D01*
X036171Y017738D01*
X036256Y017715D01*
X036344D01*
X036429Y017738D01*
X036505Y017782D01*
X036568Y017845D01*
X036612Y017921D01*
X036635Y018006D01*
Y018094D01*
X036612Y018179D01*
X036568Y018255D01*
X036505Y018318D01*
X036429Y018362D01*
X036344Y018385D01*
D02*
G37*
G36*
X057602Y018494D02*
X057498D01*
X057398Y018467D01*
X057308Y018415D01*
X057235Y018342D01*
X057183Y018252D01*
X057156Y018152D01*
Y018048D01*
X057183Y017948D01*
X057235Y017858D01*
X057308Y017785D01*
X057398Y017733D01*
X057498Y017706D01*
X057602D01*
X057702Y017733D01*
X057792Y017785D01*
X057865Y017858D01*
X057917Y017948D01*
X057944Y018048D01*
Y018152D01*
X057917Y018252D01*
X057865Y018342D01*
X057792Y018415D01*
X057702Y018467D01*
X057602Y018494D01*
D02*
G37*
G36*
X056602D02*
X056498D01*
X056398Y018467D01*
X056308Y018415D01*
X056235Y018342D01*
X056183Y018252D01*
X056156Y018152D01*
Y018048D01*
X056183Y017948D01*
X056235Y017858D01*
X056308Y017785D01*
X056398Y017733D01*
X056498Y017706D01*
X056602D01*
X056702Y017733D01*
X056792Y017785D01*
X056865Y017858D01*
X056917Y017948D01*
X056944Y018048D01*
Y018152D01*
X056917Y018252D01*
X056865Y018342D01*
X056792Y018415D01*
X056702Y018467D01*
X056602Y018494D01*
D02*
G37*
G36*
X055965Y01805D02*
X0556D01*
Y017685D01*
X055605D01*
X05571Y017713D01*
X055805Y017768D01*
X055882Y017845D01*
X055937Y01794D01*
X055965Y018045D01*
Y01805D01*
D02*
G37*
G36*
X0555D02*
X055135D01*
Y018045D01*
X055163Y01794D01*
X055218Y017845D01*
X055295Y017768D01*
X05539Y017713D01*
X055495Y017685D01*
X0555D01*
Y01805D01*
D02*
G37*
G36*
X061019Y025067D02*
X046713D01*
X046663Y025057D01*
X04662Y025029D01*
X045044Y023452D01*
X044994Y023473D01*
Y023556D01*
X044967Y023656D01*
X044915Y023746D01*
X044842Y023819D01*
X044752Y023871D01*
X044652Y023898D01*
X044548D01*
X044448Y023871D01*
X044358Y023819D01*
X044285Y023746D01*
X044233Y023656D01*
X044206Y023556D01*
Y023453D01*
X044233Y023352D01*
X044285Y023263D01*
X044345Y023203D01*
X044326Y023153D01*
X043874D01*
X043855Y023203D01*
X043915Y023263D01*
X043967Y023352D01*
X043994Y023453D01*
Y023556D01*
X043967Y023656D01*
X043915Y023746D01*
X043842Y023819D01*
X043752Y023871D01*
X043652Y023898D01*
X043548D01*
X043448Y023871D01*
X043358Y023819D01*
X043285Y023746D01*
X043233Y023656D01*
X043206Y023556D01*
Y023453D01*
X043233Y023352D01*
X043285Y023263D01*
X043345Y023203D01*
X043326Y023153D01*
X042874D01*
X042855Y023203D01*
X042915Y023263D01*
X042967Y023352D01*
X042994Y023453D01*
Y023556D01*
X042967Y023656D01*
X042915Y023746D01*
X042842Y023819D01*
X042752Y023871D01*
X042652Y023898D01*
X042548D01*
X042448Y023871D01*
X042358Y023819D01*
X042285Y023746D01*
X042233Y023656D01*
X042206Y023556D01*
Y023453D01*
X042233Y023352D01*
X042285Y023263D01*
X042345Y023203D01*
X042326Y023153D01*
X041874D01*
X041855Y023203D01*
X041915Y023263D01*
X041967Y023352D01*
X041994Y023453D01*
Y023556D01*
X041967Y023656D01*
X041915Y023746D01*
X041842Y023819D01*
X041752Y023871D01*
X041652Y023898D01*
X041548D01*
X041448Y023871D01*
X041358Y023819D01*
X041285Y023746D01*
X041233Y023656D01*
X041206Y023556D01*
Y023453D01*
X041233Y023352D01*
X041285Y023263D01*
X041345Y023203D01*
X041326Y023153D01*
X041271D01*
X041221Y023143D01*
X041178Y023114D01*
X039427Y021362D01*
X039344Y021385D01*
X039256D01*
X039171Y021362D01*
X039095Y021318D01*
X039032Y021255D01*
X038988Y021179D01*
X038965Y021094D01*
Y021006D01*
X038988Y020921D01*
X039032Y020845D01*
X039095Y020782D01*
X039171Y020738D01*
X039256Y020715D01*
X039344D01*
X039429Y020738D01*
X039505Y020782D01*
X039568Y020845D01*
X039612Y020921D01*
X039635Y021006D01*
Y021094D01*
X039612Y021177D01*
X041326Y02289D01*
X041889D01*
X041908Y022844D01*
X040427Y021362D01*
X040344Y021385D01*
X040256D01*
X040171Y021362D01*
X040095Y021318D01*
X040032Y021255D01*
X039988Y021179D01*
X039965Y021094D01*
Y021006D01*
X039988Y020921D01*
X040032Y020845D01*
X040095Y020782D01*
X040171Y020738D01*
X040256Y020715D01*
X040344D01*
X040429Y020738D01*
X040505Y020782D01*
X040568Y020845D01*
X040612Y020921D01*
X040635Y021006D01*
Y021094D01*
X040619Y021154D01*
X040636Y02117D01*
X040686Y021147D01*
Y018483D01*
X0407Y018414D01*
X040739Y018355D01*
X040973Y018122D01*
X040965Y018094D01*
Y018006D01*
X040988Y017921D01*
X041032Y017845D01*
X041095Y017782D01*
X041171Y017738D01*
X041256Y017715D01*
X041344D01*
X041429Y017738D01*
X041505Y017782D01*
X041568Y017845D01*
X041602Y017904D01*
X041651Y017911D01*
X04166Y017908D01*
X042469Y0171D01*
Y015691D01*
X042404Y015665D01*
X042323Y015602D01*
X04226Y015521D01*
X042221Y015426D01*
X042208Y015325D01*
Y015045D01*
X042221Y014944D01*
X04226Y014849D01*
X042323Y014768D01*
X042404Y014705D01*
X042499Y014666D01*
X0426Y014653D01*
X042701Y014666D01*
X042796Y014705D01*
X042877Y014768D01*
X04294Y014849D01*
X042979Y014944D01*
X042992Y015045D01*
Y015325D01*
X042979Y015426D01*
X04294Y015521D01*
X042877Y015602D01*
X042796Y015665D01*
X042731Y015691D01*
Y017154D01*
X042721Y017205D01*
X042693Y017247D01*
X042275Y017665D01*
X042295Y017715D01*
X042344D01*
X042429Y017738D01*
X042505Y017782D01*
X042568Y017845D01*
X042612Y017921D01*
X042625Y01797D01*
X042676Y017968D01*
X042679Y017956D01*
X042707Y017913D01*
X043469Y017152D01*
Y015691D01*
X043404Y015665D01*
X043323Y015602D01*
X04326Y015521D01*
X043221Y015426D01*
X043208Y015325D01*
Y015045D01*
X043221Y014944D01*
X04326Y014849D01*
X043323Y014768D01*
X043404Y014705D01*
X043499Y014666D01*
X0436Y014653D01*
X043701Y014666D01*
X043796Y014705D01*
X043877Y014768D01*
X04394Y014849D01*
X043979Y014944D01*
X043992Y015045D01*
Y015325D01*
X043979Y015426D01*
X04394Y015521D01*
X043877Y015602D01*
X043796Y015665D01*
X043731Y015691D01*
Y017206D01*
X043721Y017256D01*
X043693Y017299D01*
X043323Y017669D01*
X043332Y017693D01*
X043346Y017716D01*
X043429Y017738D01*
X043505Y017782D01*
X043568Y017845D01*
X043612Y017921D01*
X043625Y01797D01*
X043676Y017968D01*
X043679Y017956D01*
X043707Y017913D01*
X044469Y017152D01*
Y015691D01*
X044404Y015665D01*
X044323Y015602D01*
X04426Y015521D01*
X044221Y015426D01*
X044208Y015325D01*
Y015045D01*
X044221Y014944D01*
X04426Y014849D01*
X044323Y014768D01*
X044404Y014705D01*
X044499Y014666D01*
X0446Y014653D01*
X044701Y014666D01*
X044796Y014705D01*
X044877Y014768D01*
X04494Y014849D01*
X044979Y014944D01*
X044992Y015045D01*
Y015325D01*
X044979Y015426D01*
X04494Y015521D01*
X044877Y015602D01*
X044796Y015665D01*
X044731Y015691D01*
Y017206D01*
X044721Y017256D01*
X044693Y017299D01*
X044323Y017669D01*
X044332Y017693D01*
X044346Y017716D01*
X044429Y017738D01*
X044505Y017782D01*
X044568Y017845D01*
X044612Y017921D01*
X044625Y01797D01*
X044676Y017968D01*
X044679Y017956D01*
X044707Y017913D01*
X045469Y017152D01*
Y015691D01*
X045404Y015665D01*
X045323Y015602D01*
X04526Y015521D01*
X045221Y015426D01*
X045208Y015325D01*
Y015045D01*
X045221Y014944D01*
X04526Y014849D01*
X045323Y014768D01*
X045404Y014705D01*
X045499Y014666D01*
X0456Y014653D01*
X045701Y014666D01*
X045796Y014705D01*
X045877Y014768D01*
X04594Y014849D01*
X045979Y014944D01*
X045992Y015045D01*
Y015325D01*
X045979Y015426D01*
X04594Y015521D01*
X045877Y015602D01*
X045796Y015665D01*
X045731Y015691D01*
Y017206D01*
X045721Y017256D01*
X045693Y017299D01*
X045344Y017648D01*
X045364Y017699D01*
X045437Y017718D01*
X045519Y017765D01*
X045585Y017831D01*
X045632Y017913D01*
X045655Y018D01*
X0453D01*
Y01805D01*
X04525D01*
Y018405D01*
X045163Y018382D01*
X045081Y018335D01*
X045015Y018269D01*
X044981Y01821D01*
X044931Y018223D01*
Y018554D01*
X044921Y018605D01*
X044893Y018647D01*
X044431Y019109D01*
Y020739D01*
X044505Y020782D01*
X044568Y020845D01*
X044612Y020921D01*
X044635Y021006D01*
Y021094D01*
X044612Y021179D01*
X044568Y021255D01*
X044505Y021318D01*
X044429Y021362D01*
X044344Y021385D01*
X044256D01*
X044171Y021362D01*
X044095Y021318D01*
X044032Y021255D01*
X043988Y021179D01*
X043965Y021094D01*
Y021006D01*
X043988Y020921D01*
X044032Y020845D01*
X044095Y020782D01*
X044169Y020739D01*
Y019054D01*
X044179Y019004D01*
X044207Y018962D01*
X044669Y0185D01*
Y01816D01*
X044619Y018153D01*
X044612Y018179D01*
X044568Y018255D01*
X044505Y018318D01*
X044429Y018362D01*
X044344Y018385D01*
X044256D01*
X044171Y018362D01*
X044095Y018318D01*
X044032Y018255D01*
X043988Y018179D01*
X043981Y018153D01*
X043931Y01816D01*
Y018554D01*
X043921Y018605D01*
X043893Y018647D01*
X043431Y019109D01*
Y020739D01*
X043505Y020782D01*
X043568Y020845D01*
X043612Y020921D01*
X043635Y021006D01*
Y021094D01*
X043612Y021179D01*
X043568Y021255D01*
X043505Y021318D01*
X043429Y021362D01*
X043344Y021385D01*
X043256D01*
X043171Y021362D01*
X043095Y021318D01*
X043032Y021255D01*
X042988Y021179D01*
X042965Y021094D01*
Y021006D01*
X042988Y020921D01*
X043032Y020845D01*
X043095Y020782D01*
X043169Y020739D01*
Y019054D01*
X043179Y019004D01*
X043207Y018962D01*
X043669Y0185D01*
Y01816D01*
X043619Y018153D01*
X043612Y018179D01*
X043568Y018255D01*
X043505Y018318D01*
X043429Y018362D01*
X043344Y018385D01*
X043256D01*
X043171Y018362D01*
X043095Y018318D01*
X043032Y018255D01*
X042988Y018179D01*
X042981Y018153D01*
X042931Y01816D01*
Y018554D01*
X042921Y018605D01*
X042893Y018647D01*
X042431Y019109D01*
Y020739D01*
X042505Y020782D01*
X042568Y020845D01*
X042612Y020921D01*
X042635Y021006D01*
Y021094D01*
X042612Y021179D01*
X042568Y021255D01*
X042505Y021318D01*
X042429Y021362D01*
X042344Y021385D01*
X042256D01*
X042171Y021362D01*
X042095Y021318D01*
X042032Y021255D01*
X041988Y021179D01*
X041965Y021094D01*
Y021006D01*
X041988Y020921D01*
X042032Y020845D01*
X042095Y020782D01*
X042169Y020739D01*
Y019054D01*
X042179Y019004D01*
X042207Y018962D01*
X042669Y0185D01*
Y01816D01*
X042619Y018153D01*
X042612Y018179D01*
X042568Y018255D01*
X042505Y018318D01*
X042429Y018362D01*
X042344Y018385D01*
X042256D01*
X042171Y018362D01*
X042095Y018318D01*
X042032Y018255D01*
X041988Y018179D01*
X041965Y018094D01*
Y018045D01*
X041915Y018025D01*
X041881Y018059D01*
Y018554D01*
X041871Y018605D01*
X041843Y018647D01*
X041658Y018832D01*
Y020711D01*
X041648Y020762D01*
X04162Y020804D01*
X041572Y020852D01*
X041612Y020921D01*
X041635Y021006D01*
Y021094D01*
X041612Y021179D01*
X041568Y021255D01*
X041505Y021318D01*
X041429Y021362D01*
X041347Y021384D01*
X041334Y021407D01*
X041324Y021431D01*
X042328Y022435D01*
X045104D01*
X045115Y022421D01*
X045127Y022387D01*
X045117Y022377D01*
X045078Y022319D01*
X045064Y022249D01*
Y021288D01*
X045032Y021255D01*
X044988Y021179D01*
X044965Y021094D01*
Y021006D01*
X044988Y020921D01*
X045032Y020845D01*
X045095Y020782D01*
X045171Y020738D01*
X045256Y020715D01*
X045344D01*
X045429Y020738D01*
X045505Y020782D01*
X045568Y020845D01*
X045612Y020921D01*
X045635Y021006D01*
Y021094D01*
X045612Y021179D01*
X045568Y021255D01*
X045505Y021318D01*
X045429Y021362D01*
X045426Y021363D01*
Y022175D01*
X047325Y024074D01*
X047602D01*
X047616Y024024D01*
X047608Y024019D01*
X047535Y023946D01*
X047483Y023856D01*
X047456Y023756D01*
Y023653D01*
X047483Y023552D01*
X047535Y023463D01*
X047608Y023389D01*
X047698Y023337D01*
X047798Y023311D01*
X047902D01*
X048002Y023337D01*
X048092Y023389D01*
X048165Y023463D01*
X0482Y023524D01*
X0485D01*
X048569Y023537D01*
X048628Y023577D01*
X048878Y023827D01*
X048918Y023797D01*
X0489Y023765D01*
X048871Y023656D01*
Y023544D01*
X0489Y023435D01*
X048957Y023337D01*
X049037Y023257D01*
X049135Y0232D01*
X049244Y023171D01*
X049356D01*
X049465Y0232D01*
X049563Y023257D01*
X049643Y023337D01*
X0497Y023435D01*
X049729Y023544D01*
Y023656D01*
X0497Y023765D01*
X049643Y023863D01*
X049563Y023943D01*
X049465Y024D01*
X049375Y024024D01*
X049382Y024074D01*
X049871D01*
X050123Y023822D01*
X050115Y023794D01*
Y023706D01*
X050138Y023621D01*
X050182Y023545D01*
X050245Y023482D01*
X050321Y023438D01*
X050406Y023415D01*
X050494D01*
X050579Y023438D01*
X050655Y023482D01*
X050718Y023545D01*
X050762Y023621D01*
X050785Y023706D01*
Y023794D01*
X050762Y023879D01*
X050718Y023955D01*
X050655Y024018D01*
X050579Y024062D01*
X050494Y024085D01*
X050406D01*
X050378Y024077D01*
X050152Y024303D01*
X050171Y024349D01*
X053595D01*
X054123Y023822D01*
X054115Y023794D01*
Y023706D01*
X054138Y023621D01*
X054182Y023545D01*
X054245Y023482D01*
X054321Y023438D01*
X054406Y023415D01*
X054494D01*
X054579Y023438D01*
X054655Y023482D01*
X054718Y023545D01*
X054762Y023621D01*
X054785Y023706D01*
Y023794D01*
X054762Y023879D01*
X054718Y023955D01*
X054655Y024018D01*
X054579Y024062D01*
X054494Y024085D01*
X054406D01*
X054378Y024077D01*
X053876Y02458D01*
X053895Y024626D01*
X06089D01*
X061619Y023897D01*
Y019054D01*
X059877Y017312D01*
X059794Y017335D01*
X059706D01*
X059621Y017312D01*
X059545Y017268D01*
X059482Y017205D01*
X059438Y017129D01*
X059415Y017044D01*
Y016956D01*
X059438Y016871D01*
X059482Y016795D01*
X059545Y016732D01*
X059621Y016688D01*
X059706Y016665D01*
X059794D01*
X059879Y016688D01*
X059955Y016732D01*
X060018Y016795D01*
X060062Y016871D01*
X060085Y016956D01*
Y017044D01*
X060062Y017127D01*
X061751Y018816D01*
X061797Y018797D01*
Y018133D01*
X060977Y017312D01*
X060894Y017335D01*
X060806D01*
X060721Y017312D01*
X060645Y017268D01*
X060582Y017205D01*
X060538Y017129D01*
X060515Y017044D01*
Y016956D01*
X060538Y016871D01*
X060582Y016795D01*
X060645Y016732D01*
X060721Y016688D01*
X060806Y016665D01*
X060894D01*
X060979Y016688D01*
X061055Y016732D01*
X061118Y016795D01*
X061162Y016871D01*
X061185Y016956D01*
Y017044D01*
X061162Y017127D01*
X062022Y017986D01*
X06205Y018029D01*
X06206Y018079D01*
Y024026D01*
X06205Y024076D01*
X062022Y024118D01*
X061111Y025029D01*
X061069Y025057D01*
X061019Y025067D01*
D02*
G37*
G36*
X028644Y018535D02*
X028556D01*
X028471Y018512D01*
X028395Y018468D01*
X028332Y018405D01*
X028288Y018329D01*
X028265Y018244D01*
Y018156D01*
X028288Y018071D01*
X028332Y017995D01*
X028395Y017932D01*
X028471Y017888D01*
X028494Y017882D01*
Y017646D01*
X028445Y017618D01*
X028382Y017555D01*
X028338Y017479D01*
X028315Y017394D01*
Y017306D01*
X028338Y017221D01*
X028382Y017145D01*
X028445Y017082D01*
X028521Y017038D01*
X028606Y017015D01*
X028694D01*
X028779Y017038D01*
X028855Y017082D01*
X028918Y017145D01*
X028962Y017221D01*
X028985Y017306D01*
Y017394D01*
X028962Y017479D01*
X028918Y017555D01*
X028855Y017618D01*
X028779Y017662D01*
X028756Y017668D01*
Y017904D01*
X028805Y017932D01*
X028868Y017995D01*
X028912Y018071D01*
X028935Y018156D01*
Y018244D01*
X028912Y018329D01*
X028868Y018405D01*
X028805Y018468D01*
X028729Y018512D01*
X028644Y018535D01*
D02*
G37*
G36*
X026644Y017685D02*
X026556D01*
X026471Y017662D01*
X026395Y017618D01*
X026332Y017555D01*
X026288Y017479D01*
X026265Y017394D01*
Y017306D01*
X026288Y017221D01*
X026332Y017145D01*
X026395Y017082D01*
X026471Y017038D01*
X026556Y017015D01*
X026644D01*
X026729Y017038D01*
X026805Y017082D01*
X026868Y017145D01*
X026912Y017221D01*
X026935Y017306D01*
Y017394D01*
X026912Y017479D01*
X026868Y017555D01*
X026805Y017618D01*
X026729Y017662D01*
X026644Y017685D01*
D02*
G37*
G36*
X058694Y017335D02*
X058606D01*
X058521Y017312D01*
X058445Y017268D01*
X058382Y017205D01*
X058338Y017129D01*
X058315Y017044D01*
Y016956D01*
X058338Y016871D01*
X058382Y016795D01*
X058445Y016732D01*
X058521Y016688D01*
X058606Y016665D01*
X058694D01*
X058779Y016688D01*
X058855Y016732D01*
X058918Y016795D01*
X058962Y016871D01*
X058985Y016956D01*
Y017044D01*
X058962Y017129D01*
X058918Y017205D01*
X058855Y017268D01*
X058779Y017312D01*
X058694Y017335D01*
D02*
G37*
G36*
X02485Y016522D02*
Y015975D01*
X025254D01*
Y016075D01*
X025238Y016192D01*
X025193Y016302D01*
X025121Y016396D01*
X025027Y016468D01*
X024917Y016513D01*
X02485Y016522D01*
D02*
G37*
G36*
X02475D02*
X024683Y016513D01*
X024573Y016468D01*
X024479Y016396D01*
X024407Y016302D01*
X024362Y016192D01*
X024346Y016075D01*
Y015975D01*
X02475D01*
Y016522D01*
D02*
G37*
G36*
X025254Y015875D02*
X02485D01*
Y015328D01*
X024917Y015337D01*
X025027Y015382D01*
X025121Y015454D01*
X025193Y015548D01*
X025238Y015658D01*
X025254Y015775D01*
Y015875D01*
D02*
G37*
G36*
X02475D02*
X024346D01*
Y015775D01*
X024362Y015658D01*
X024407Y015548D01*
X024479Y015454D01*
X024573Y015382D01*
X024683Y015337D01*
X02475Y015328D01*
Y015875D01*
D02*
G37*
G36*
X04765Y015732D02*
Y015235D01*
X048014D01*
Y015325D01*
X047999Y015432D01*
X047958Y015532D01*
X047892Y015617D01*
X047807Y015683D01*
X047707Y015724D01*
X04765Y015732D01*
D02*
G37*
G36*
X04755D02*
X047493Y015724D01*
X047393Y015683D01*
X047308Y015617D01*
X047242Y015532D01*
X047201Y015432D01*
X047186Y015325D01*
Y015235D01*
X04755D01*
Y015732D01*
D02*
G37*
G36*
X04165D02*
Y015235D01*
X042014D01*
Y015325D01*
X041999Y015432D01*
X041958Y015532D01*
X041892Y015617D01*
X041807Y015683D01*
X041707Y015724D01*
X04165Y015732D01*
D02*
G37*
G36*
X04155D02*
X041493Y015724D01*
X041393Y015683D01*
X041308Y015617D01*
X041242Y015532D01*
X041201Y015432D01*
X041186Y015325D01*
Y015235D01*
X04155D01*
Y015732D01*
D02*
G37*
G36*
X04065D02*
Y015235D01*
X041014D01*
Y015325D01*
X040999Y015432D01*
X040958Y015532D01*
X040892Y015617D01*
X040807Y015683D01*
X040707Y015724D01*
X04065Y015732D01*
D02*
G37*
G36*
X04055D02*
X040493Y015724D01*
X040393Y015683D01*
X040308Y015617D01*
X040242Y015532D01*
X040201Y015432D01*
X040186Y015325D01*
Y015235D01*
X04055D01*
Y015732D01*
D02*
G37*
G36*
X03965D02*
Y015235D01*
X040014D01*
Y015325D01*
X039999Y015432D01*
X039958Y015532D01*
X039892Y015617D01*
X039807Y015683D01*
X039707Y015724D01*
X03965Y015732D01*
D02*
G37*
G36*
X03955D02*
X039493Y015724D01*
X039393Y015683D01*
X039308Y015617D01*
X039242Y015532D01*
X039201Y015432D01*
X039186Y015325D01*
Y015235D01*
X03955D01*
Y015732D01*
D02*
G37*
G36*
X03865D02*
Y015235D01*
X039014D01*
Y015325D01*
X038999Y015432D01*
X038958Y015532D01*
X038892Y015617D01*
X038807Y015683D01*
X038707Y015724D01*
X03865Y015732D01*
D02*
G37*
G36*
X03855D02*
X038493Y015724D01*
X038393Y015683D01*
X038308Y015617D01*
X038242Y015532D01*
X038201Y015432D01*
X038186Y015325D01*
Y015235D01*
X03855D01*
Y015732D01*
D02*
G37*
G36*
X03665D02*
Y015235D01*
X037014D01*
Y015325D01*
X036999Y015432D01*
X036958Y015532D01*
X036892Y015617D01*
X036807Y015683D01*
X036707Y015724D01*
X03665Y015732D01*
D02*
G37*
G36*
X03655D02*
X036493Y015724D01*
X036393Y015683D01*
X036308Y015617D01*
X036242Y015532D01*
X036201Y015432D01*
X036186Y015325D01*
Y015235D01*
X03655D01*
Y015732D01*
D02*
G37*
G36*
X03301Y015735D02*
X03265D01*
Y015235D01*
X03301D01*
Y015735D01*
D02*
G37*
G36*
X03255D02*
X03219D01*
Y015235D01*
X03255D01*
Y015735D01*
D02*
G37*
G36*
X0466Y015717D02*
X046499Y015704D01*
X046404Y015665D01*
X046323Y015602D01*
X04626Y015521D01*
X046221Y015426D01*
X046208Y015325D01*
Y015045D01*
X046221Y014944D01*
X04626Y014849D01*
X046323Y014768D01*
X046404Y014705D01*
X046499Y014666D01*
X0466Y014653D01*
X046701Y014666D01*
X046796Y014705D01*
X046877Y014768D01*
X04694Y014849D01*
X046979Y014944D01*
X046992Y015045D01*
Y015325D01*
X046979Y015426D01*
X04694Y015521D01*
X046877Y015602D01*
X046796Y015665D01*
X046701Y015704D01*
X0466Y015717D01*
D02*
G37*
G36*
X0376D02*
X037499Y015704D01*
X037404Y015665D01*
X037323Y015602D01*
X03726Y015521D01*
X037221Y015426D01*
X037208Y015325D01*
Y015045D01*
X037221Y014944D01*
X03726Y014849D01*
X037323Y014768D01*
X037404Y014705D01*
X037499Y014666D01*
X0376Y014653D01*
X037701Y014666D01*
X037796Y014705D01*
X037877Y014768D01*
X03794Y014849D01*
X037979Y014944D01*
X037992Y015045D01*
Y015325D01*
X037979Y015426D01*
X03794Y015521D01*
X037877Y015602D01*
X037796Y015665D01*
X037701Y015704D01*
X0376Y015717D01*
D02*
G37*
G36*
X0356D02*
X035499Y015704D01*
X035404Y015665D01*
X035323Y015602D01*
X03526Y015521D01*
X035221Y015426D01*
X035208Y015325D01*
Y015045D01*
X035221Y014944D01*
X03526Y014849D01*
X035323Y014768D01*
X035404Y014705D01*
X035499Y014666D01*
X0356Y014653D01*
X035701Y014666D01*
X035796Y014705D01*
X035877Y014768D01*
X03594Y014849D01*
X035979Y014944D01*
X035992Y015045D01*
Y015325D01*
X035979Y015426D01*
X03594Y015521D01*
X035877Y015602D01*
X035796Y015665D01*
X035701Y015704D01*
X0356Y015717D01*
D02*
G37*
G36*
X0346D02*
X034499Y015704D01*
X034404Y015665D01*
X034323Y015602D01*
X03426Y015521D01*
X034221Y015426D01*
X034208Y015325D01*
Y015045D01*
X034221Y014944D01*
X03426Y014849D01*
X034323Y014768D01*
X034404Y014705D01*
X034499Y014666D01*
X0346Y014653D01*
X034701Y014666D01*
X034796Y014705D01*
X034877Y014768D01*
X03494Y014849D01*
X034979Y014944D01*
X034992Y015045D01*
Y015325D01*
X034979Y015426D01*
X03494Y015521D01*
X034877Y015602D01*
X034796Y015665D01*
X034701Y015704D01*
X0346Y015717D01*
D02*
G37*
G36*
X0336D02*
X033499Y015704D01*
X033404Y015665D01*
X033323Y015602D01*
X03326Y015521D01*
X033221Y015426D01*
X033208Y015325D01*
Y015045D01*
X033221Y014944D01*
X03326Y014849D01*
X033323Y014768D01*
X033404Y014705D01*
X033499Y014666D01*
X0336Y014653D01*
X033701Y014666D01*
X033796Y014705D01*
X033877Y014768D01*
X03394Y014849D01*
X033979Y014944D01*
X033992Y015045D01*
Y015325D01*
X033979Y015426D01*
X03394Y015521D01*
X033877Y015602D01*
X033796Y015665D01*
X033701Y015704D01*
X0336Y015717D01*
D02*
G37*
G36*
X048014Y015135D02*
X04765D01*
Y014638D01*
X047707Y014646D01*
X047807Y014687D01*
X047892Y014753D01*
X047958Y014838D01*
X047999Y014938D01*
X048014Y015045D01*
Y015135D01*
D02*
G37*
G36*
X04755D02*
X047186D01*
Y015045D01*
X047201Y014938D01*
X047242Y014838D01*
X047308Y014753D01*
X047393Y014687D01*
X047493Y014646D01*
X04755Y014638D01*
Y015135D01*
D02*
G37*
G36*
X042014D02*
X04165D01*
Y014638D01*
X041707Y014646D01*
X041807Y014687D01*
X041892Y014753D01*
X041958Y014838D01*
X041999Y014938D01*
X042014Y015045D01*
Y015135D01*
D02*
G37*
G36*
X04155D02*
X041186D01*
Y015045D01*
X041201Y014938D01*
X041242Y014838D01*
X041308Y014753D01*
X041393Y014687D01*
X041493Y014646D01*
X04155Y014638D01*
Y015135D01*
D02*
G37*
G36*
X041014D02*
X04065D01*
Y014638D01*
X040707Y014646D01*
X040807Y014687D01*
X040892Y014753D01*
X040958Y014838D01*
X040999Y014938D01*
X041014Y015045D01*
Y015135D01*
D02*
G37*
G36*
X04055D02*
X040186D01*
Y015045D01*
X040201Y014938D01*
X040242Y014838D01*
X040308Y014753D01*
X040393Y014687D01*
X040493Y014646D01*
X04055Y014638D01*
Y015135D01*
D02*
G37*
G36*
X040014D02*
X03965D01*
Y014638D01*
X039707Y014646D01*
X039807Y014687D01*
X039892Y014753D01*
X039958Y014838D01*
X039999Y014938D01*
X040014Y015045D01*
Y015135D01*
D02*
G37*
G36*
X03955D02*
X039186D01*
Y015045D01*
X039201Y014938D01*
X039242Y014838D01*
X039308Y014753D01*
X039393Y014687D01*
X039493Y014646D01*
X03955Y014638D01*
Y015135D01*
D02*
G37*
G36*
X039014D02*
X03865D01*
Y014638D01*
X038707Y014646D01*
X038807Y014687D01*
X038892Y014753D01*
X038958Y014838D01*
X038999Y014938D01*
X039014Y015045D01*
Y015135D01*
D02*
G37*
G36*
X03855D02*
X038186D01*
Y015045D01*
X038201Y014938D01*
X038242Y014838D01*
X038308Y014753D01*
X038393Y014687D01*
X038493Y014646D01*
X03855Y014638D01*
Y015135D01*
D02*
G37*
G36*
X037014D02*
X03665D01*
Y014638D01*
X036707Y014646D01*
X036807Y014687D01*
X036892Y014753D01*
X036958Y014838D01*
X036999Y014938D01*
X037014Y015045D01*
Y015135D01*
D02*
G37*
G36*
X03655D02*
X036186D01*
Y015045D01*
X036201Y014938D01*
X036242Y014838D01*
X036308Y014753D01*
X036393Y014687D01*
X036493Y014646D01*
X03655Y014638D01*
Y015135D01*
D02*
G37*
G36*
X03301D02*
X03265D01*
Y014635D01*
X03301D01*
Y015135D01*
D02*
G37*
G36*
X03255D02*
X03219D01*
Y014635D01*
X03255D01*
Y015135D01*
D02*
G37*
G36*
X060185Y015751D02*
X060015D01*
X059847Y015718D01*
X05969Y015653D01*
X059548Y015558D01*
X059427Y015437D01*
X059332Y015295D01*
X059267Y015138D01*
X059234Y01497D01*
Y0148D01*
X059267Y014632D01*
X059332Y014475D01*
X059427Y014333D01*
X059548Y014212D01*
X05969Y014117D01*
X059847Y014052D01*
X060015Y014019D01*
X060185D01*
X060353Y014052D01*
X06051Y014117D01*
X060652Y014212D01*
X060773Y014333D01*
X060868Y014475D01*
X060933Y014632D01*
X060966Y0148D01*
Y01497D01*
X060933Y015138D01*
X060868Y015295D01*
X060773Y015437D01*
X060652Y015558D01*
X06051Y015653D01*
X060353Y015718D01*
X060185Y015751D01*
D02*
G37*
G36*
X030685D02*
X030515D01*
X030347Y015718D01*
X03019Y015653D01*
X030048Y015558D01*
X029927Y015437D01*
X029832Y015295D01*
X029767Y015138D01*
X029734Y01497D01*
Y0148D01*
X029767Y014632D01*
X029832Y014475D01*
X029927Y014333D01*
X030048Y014212D01*
X03019Y014117D01*
X030347Y014052D01*
X030515Y014019D01*
X030685D01*
X030853Y014052D01*
X03101Y014117D01*
X031152Y014212D01*
X031273Y014333D01*
X031368Y014475D01*
X031433Y014632D01*
X031466Y0148D01*
Y01497D01*
X031433Y015138D01*
X031368Y015295D01*
X031273Y015437D01*
X031152Y015558D01*
X03101Y015653D01*
X030853Y015718D01*
X030685Y015751D01*
D02*
G37*
G36*
X02485Y013747D02*
Y0132D01*
X025254D01*
Y0133D01*
X025238Y013417D01*
X025193Y013527D01*
X025121Y013621D01*
X025027Y013693D01*
X024917Y013738D01*
X02485Y013747D01*
D02*
G37*
G36*
X02475D02*
X024683Y013738D01*
X024573Y013693D01*
X024479Y013621D01*
X024407Y013527D01*
X024362Y013417D01*
X024346Y0133D01*
Y0132D01*
X02475D01*
Y013747D01*
D02*
G37*
G36*
X028694Y013685D02*
X028606D01*
X028521Y013662D01*
X028445Y013618D01*
X028382Y013555D01*
X028338Y013479D01*
X028315Y013394D01*
Y013306D01*
X028338Y013221D01*
X028382Y013145D01*
X028445Y013082D01*
X028521Y013038D01*
X028606Y013015D01*
X028694D01*
X028779Y013038D01*
X028855Y013082D01*
X028918Y013145D01*
X028962Y013221D01*
X028985Y013306D01*
Y013394D01*
X028962Y013479D01*
X028918Y013555D01*
X028855Y013618D01*
X028779Y013662D01*
X028694Y013685D01*
D02*
G37*
G36*
X026644D02*
X026556D01*
X026471Y013662D01*
X026395Y013618D01*
X026332Y013555D01*
X026288Y013479D01*
X026265Y013394D01*
Y013306D01*
X026288Y013221D01*
X026332Y013145D01*
X026395Y013082D01*
X026471Y013038D01*
X026556Y013015D01*
X026644D01*
X026729Y013038D01*
X026805Y013082D01*
X026868Y013145D01*
X026912Y013221D01*
X026935Y013306D01*
Y013394D01*
X026912Y013479D01*
X026868Y013555D01*
X026805Y013618D01*
X026729Y013662D01*
X026644Y013685D01*
D02*
G37*
G36*
X024229Y013729D02*
X023371D01*
Y012571D01*
X024229D01*
Y013729D01*
D02*
G37*
G36*
X025254Y0131D02*
X02485D01*
Y012553D01*
X024917Y012562D01*
X025027Y012607D01*
X025121Y012679D01*
X025193Y012773D01*
X025238Y012883D01*
X025254Y013D01*
Y0131D01*
D02*
G37*
G36*
X02475D02*
X024346D01*
Y013D01*
X024362Y012883D01*
X024407Y012773D01*
X024479Y012679D01*
X024573Y012607D01*
X024683Y012562D01*
X02475Y012553D01*
Y0131D01*
D02*
G37*
G36*
X062516Y012424D02*
X062384D01*
X062255Y012398D01*
X062133Y012347D01*
X062023Y012274D01*
X06193Y012181D01*
X061857Y012071D01*
X061806Y01195D01*
X061781Y01182D01*
Y011688D01*
X061806Y011559D01*
X061857Y011437D01*
X06193Y011328D01*
X062023Y011234D01*
X062133Y011161D01*
X062255Y011111D01*
X062384Y011085D01*
X062516D01*
X062645Y011111D01*
X062767Y011161D01*
X062877Y011234D01*
X06297Y011328D01*
X063043Y011437D01*
X063094Y011559D01*
X063119Y011688D01*
Y01182D01*
X063094Y01195D01*
X063043Y012071D01*
X06297Y012181D01*
X062877Y012274D01*
X062767Y012347D01*
X062645Y012398D01*
X062516Y012424D01*
D02*
G37*
G36*
X021816D02*
X021684D01*
X021555Y012398D01*
X021433Y012347D01*
X021323Y012274D01*
X02123Y012181D01*
X021157Y012071D01*
X021106Y01195D01*
X021081Y01182D01*
Y011688D01*
X021106Y011559D01*
X021157Y011437D01*
X02123Y011328D01*
X021323Y011234D01*
X021433Y011161D01*
X021555Y011111D01*
X021684Y011085D01*
X021816D01*
X021945Y011111D01*
X022067Y011161D01*
X022177Y011234D01*
X02227Y011328D01*
X022343Y011437D01*
X022394Y011559D01*
X022419Y011688D01*
Y01182D01*
X022394Y01195D01*
X022343Y012071D01*
X02227Y012181D01*
X022177Y012274D01*
X022067Y012347D01*
X021945Y012398D01*
X021816Y012424D01*
D02*
G37*
%LPD*%
G36*
X059591Y028515D02*
X05964D01*
Y028511D01*
X059667D01*
Y028508D01*
X059693D01*
Y028504D01*
X059716D01*
Y0285D01*
X059738D01*
Y028496D01*
X059757D01*
Y028493D01*
X059772D01*
Y028489D01*
X059791D01*
Y028485D01*
X059806D01*
Y028481D01*
X059821D01*
Y028477D01*
X059836D01*
Y028474D01*
X059847D01*
Y02847D01*
X059858D01*
Y028466D01*
X05987D01*
Y028462D01*
X059881D01*
Y028459D01*
X059892D01*
Y028455D01*
X0599D01*
Y028451D01*
X059911D01*
Y028447D01*
X059922D01*
Y028444D01*
X05993D01*
Y02844D01*
X059941D01*
Y028436D01*
X059949D01*
Y028432D01*
X05996D01*
Y028429D01*
X059968D01*
Y028425D01*
X059975D01*
Y028421D01*
X059983D01*
Y028417D01*
X05999D01*
Y028414D01*
X060001D01*
Y02841D01*
X060009D01*
Y028406D01*
X060016D01*
Y028402D01*
X060024D01*
Y028398D01*
X060032D01*
Y028395D01*
X060039D01*
Y028391D01*
X060047D01*
Y028387D01*
X060054D01*
Y028383D01*
X060058D01*
Y02838D01*
X060065D01*
Y028376D01*
X060073D01*
Y028372D01*
X060077D01*
Y028368D01*
X060084D01*
Y028365D01*
X060092D01*
Y028361D01*
X060095D01*
Y028357D01*
X060103D01*
Y028353D01*
X060111D01*
Y02835D01*
X060114D01*
Y028346D01*
X060122D01*
Y028342D01*
X060126D01*
Y028338D01*
X060133D01*
Y028335D01*
X060137D01*
Y028331D01*
X060144D01*
Y028327D01*
X060148D01*
Y028323D01*
X060156D01*
Y028319D01*
X060159D01*
Y028316D01*
X060167D01*
Y028312D01*
X060171D01*
Y028308D01*
X060174D01*
Y028304D01*
X060182D01*
Y028301D01*
X060186D01*
Y028297D01*
X06019D01*
Y028293D01*
X060197D01*
Y028289D01*
X060201D01*
Y028286D01*
X060205D01*
Y028282D01*
X060212D01*
Y028278D01*
X060216D01*
Y028274D01*
X06022D01*
Y028271D01*
X060223D01*
Y028267D01*
X060227D01*
Y028263D01*
X060235D01*
Y028259D01*
X060238D01*
Y028256D01*
X060242D01*
Y028252D01*
X060246D01*
Y028248D01*
X06025D01*
Y028244D01*
X060257D01*
Y02824D01*
X060261D01*
Y028237D01*
X060265D01*
Y028233D01*
X060269D01*
Y028229D01*
X060272D01*
Y028225D01*
X060276D01*
Y028222D01*
X06028D01*
Y028218D01*
X060284D01*
Y028214D01*
X060287D01*
Y02821D01*
X060291D01*
Y028207D01*
X060295D01*
Y028203D01*
X060299D01*
Y028199D01*
X060302D01*
Y028195D01*
X060306D01*
Y028192D01*
X06031D01*
Y028188D01*
X060314D01*
Y028184D01*
X060317D01*
Y02818D01*
X060321D01*
Y028177D01*
X060325D01*
Y028173D01*
X060329D01*
Y028169D01*
X060332D01*
Y028165D01*
X060336D01*
Y028161D01*
X06034D01*
Y028158D01*
X060344D01*
Y028154D01*
X060348D01*
Y02815D01*
X060351D01*
Y028143D01*
X060355D01*
Y028139D01*
X060359D01*
Y028135D01*
X060363D01*
Y028131D01*
X060366D01*
Y028128D01*
X06037D01*
Y028124D01*
X060374D01*
Y02812D01*
X060378D01*
Y028113D01*
X060381D01*
Y028109D01*
X060385D01*
Y028105D01*
X060389D01*
Y028101D01*
X060393D01*
Y028094D01*
X060396D01*
Y02809D01*
X0604D01*
Y028086D01*
X060404D01*
Y028082D01*
X060408D01*
Y028075D01*
X060411D01*
Y028071D01*
X060415D01*
Y028064D01*
X060419D01*
Y02806D01*
X060423D01*
Y028056D01*
X060427D01*
Y028049D01*
X06043D01*
Y028045D01*
X060434D01*
Y028037D01*
X060438D01*
Y028034D01*
X060442D01*
Y028026D01*
X060445D01*
Y028022D01*
X060449D01*
Y028015D01*
X060453D01*
Y028011D01*
X060457D01*
Y028003D01*
X06046D01*
Y028D01*
X060464D01*
Y027992D01*
X060468D01*
Y027988D01*
X060472D01*
Y027981D01*
X060475D01*
Y027973D01*
X060479D01*
Y02797D01*
X060483D01*
Y027962D01*
X060487D01*
Y027955D01*
X06049D01*
Y027947D01*
X060494D01*
Y027943D01*
X060498D01*
Y027936D01*
X060502D01*
Y027928D01*
X060506D01*
Y027921D01*
X060509D01*
Y027913D01*
X060513D01*
Y027906D01*
X060517D01*
Y027898D01*
X060521D01*
Y027891D01*
X060524D01*
Y027883D01*
X060528D01*
Y027876D01*
X060532D01*
Y027868D01*
X060536D01*
Y027857D01*
X060539D01*
Y027849D01*
X060543D01*
Y027842D01*
X060547D01*
Y02783D01*
X060551D01*
Y027823D01*
X060554D01*
Y027815D01*
X060558D01*
Y027804D01*
X060562D01*
Y027793D01*
X060566D01*
Y027785D01*
X060569D01*
Y027774D01*
X060573D01*
Y027763D01*
X060577D01*
Y027751D01*
X060581D01*
Y02774D01*
X060585D01*
Y027729D01*
X060588D01*
Y027714D01*
X060592D01*
Y027703D01*
X060596D01*
Y027687D01*
X0606D01*
Y027672D01*
X060603D01*
Y027657D01*
X060607D01*
Y027639D01*
X060611D01*
Y027624D01*
X060615D01*
Y027605D01*
X060618D01*
Y027582D01*
X060622D01*
Y027556D01*
X060626D01*
Y027526D01*
X06063D01*
Y027488D01*
X060633D01*
Y027308D01*
X06063D01*
Y02727D01*
X060626D01*
Y02724D01*
X060622D01*
Y027213D01*
X060618D01*
Y027191D01*
X060615D01*
Y027172D01*
X060611D01*
Y027153D01*
X060607D01*
Y027138D01*
X060603D01*
Y027123D01*
X0606D01*
Y027108D01*
X060596D01*
Y027093D01*
X060592D01*
Y027082D01*
X060588D01*
Y027067D01*
X060585D01*
Y027055D01*
X060581D01*
Y027044D01*
X060577D01*
Y027033D01*
X060573D01*
Y027022D01*
X060569D01*
Y02701D01*
X060566D01*
Y027003D01*
X060562D01*
Y026992D01*
X060558D01*
Y026984D01*
X060554D01*
Y026973D01*
X060551D01*
Y026965D01*
X060547D01*
Y026954D01*
X060543D01*
Y026946D01*
X060539D01*
Y026939D01*
X060536D01*
Y026928D01*
X060532D01*
Y02692D01*
X060528D01*
Y026912D01*
X060524D01*
Y026905D01*
X060521D01*
Y026897D01*
X060517D01*
Y02689D01*
X060513D01*
Y026882D01*
X060509D01*
Y026875D01*
X060506D01*
Y026867D01*
X060502D01*
Y02686D01*
X060498D01*
Y026852D01*
X060494D01*
Y026849D01*
X06049D01*
Y026841D01*
X060487D01*
Y026833D01*
X060483D01*
Y026826D01*
X060479D01*
Y026822D01*
X060475D01*
Y026815D01*
X060472D01*
Y026807D01*
X060468D01*
Y026803D01*
X060464D01*
Y026796D01*
X06046D01*
Y026788D01*
X060457D01*
Y026785D01*
X060453D01*
Y026777D01*
X060449D01*
Y026773D01*
X060445D01*
Y02677D01*
X060442D01*
Y026762D01*
X060438D01*
Y026758D01*
X060434D01*
Y026751D01*
X06043D01*
Y026747D01*
X060427D01*
Y026739D01*
X060423D01*
Y026736D01*
X060419D01*
Y026728D01*
X060415D01*
Y026724D01*
X060411D01*
Y026721D01*
X060408D01*
Y026717D01*
X060404D01*
Y026709D01*
X0604D01*
Y026706D01*
X060396D01*
Y026702D01*
X060393D01*
Y026694D01*
X060389D01*
Y026691D01*
X060385D01*
Y026687D01*
X060381D01*
Y026683D01*
X060378D01*
Y026675D01*
X060374D01*
Y026672D01*
X06037D01*
Y026668D01*
X060366D01*
Y026664D01*
X060363D01*
Y02666D01*
X060359D01*
Y026657D01*
X060355D01*
Y026649D01*
X060351D01*
Y026645D01*
X060348D01*
Y026642D01*
X060344D01*
Y026638D01*
X06034D01*
Y026634D01*
X060336D01*
Y02663D01*
X060332D01*
Y026627D01*
X060329D01*
Y026623D01*
X060325D01*
Y026619D01*
X060321D01*
Y026615D01*
X060317D01*
Y026612D01*
X060314D01*
Y026608D01*
X06031D01*
Y026604D01*
X060306D01*
Y0266D01*
X060302D01*
Y026596D01*
X060299D01*
Y026593D01*
X060295D01*
Y026589D01*
X060291D01*
Y026585D01*
X060287D01*
Y026581D01*
X060284D01*
Y026578D01*
X06028D01*
Y026574D01*
X060276D01*
Y02657D01*
X060272D01*
Y026566D01*
X060269D01*
Y026563D01*
X060265D01*
Y026559D01*
X060261D01*
Y026555D01*
X060253D01*
Y026551D01*
X06025D01*
Y026548D01*
X060246D01*
Y026544D01*
X060242D01*
Y02654D01*
X060238D01*
Y026536D01*
X060235D01*
Y026533D01*
X060227D01*
Y026529D01*
X060223D01*
Y026525D01*
X06022D01*
Y026521D01*
X060216D01*
Y026517D01*
X060212D01*
Y026514D01*
X060205D01*
Y02651D01*
X060201D01*
Y026506D01*
X060197D01*
Y026502D01*
X06019D01*
Y026499D01*
X060186D01*
Y026495D01*
X060182D01*
Y026491D01*
X060174D01*
Y026487D01*
X060171D01*
Y026484D01*
X060167D01*
Y02648D01*
X060159D01*
Y026476D01*
X060156D01*
Y026472D01*
X060148D01*
Y026469D01*
X060144D01*
Y026465D01*
X060137D01*
Y026461D01*
X060133D01*
Y026457D01*
X060129D01*
Y026454D01*
X060122D01*
Y02645D01*
X060114D01*
Y026446D01*
X060111D01*
Y026442D01*
X060103D01*
Y026438D01*
X060095D01*
Y026435D01*
X060092D01*
Y026431D01*
X060084D01*
Y026427D01*
X060077D01*
Y026423D01*
X060069D01*
Y02642D01*
X060065D01*
Y026416D01*
X060058D01*
Y026412D01*
X06005D01*
Y026408D01*
X060043D01*
Y026405D01*
X060035D01*
Y026401D01*
X060028D01*
Y026397D01*
X06002D01*
Y026393D01*
X060013D01*
Y02639D01*
X060009D01*
Y026386D01*
X060001D01*
Y026382D01*
X05999D01*
Y026378D01*
X059983D01*
Y026375D01*
X059975D01*
Y026371D01*
X059968D01*
Y026367D01*
X059956D01*
Y026363D01*
X059949D01*
Y026359D01*
X059941D01*
Y026356D01*
X05993D01*
Y026352D01*
X059922D01*
Y026348D01*
X059911D01*
Y026344D01*
X0599D01*
Y026341D01*
X059889D01*
Y026337D01*
X059877D01*
Y026333D01*
X059866D01*
Y026329D01*
X059855D01*
Y026326D01*
X059843D01*
Y026322D01*
X059832D01*
Y026318D01*
X059817D01*
Y026314D01*
X059802D01*
Y026311D01*
X059791D01*
Y026307D01*
X059776D01*
Y026303D01*
X059753D01*
Y026299D01*
X059734D01*
Y026296D01*
X059716D01*
Y026292D01*
X059693D01*
Y026288D01*
X05967D01*
Y026284D01*
X059637D01*
Y02628D01*
X059576D01*
Y026277D01*
X059479D01*
Y02628D01*
X059418D01*
Y026284D01*
X059384D01*
Y026288D01*
X059362D01*
Y026292D01*
X059339D01*
Y026296D01*
X059321D01*
Y026299D01*
X059298D01*
Y026303D01*
X059279D01*
Y026307D01*
X059268D01*
Y026311D01*
X059253D01*
Y026314D01*
X059238D01*
Y026318D01*
X059223D01*
Y026322D01*
X059211D01*
Y026326D01*
X0592D01*
Y026329D01*
X059189D01*
Y026333D01*
X059178D01*
Y026337D01*
X059166D01*
Y026341D01*
X059155D01*
Y026344D01*
X059144D01*
Y026348D01*
X059136D01*
Y026352D01*
X059125D01*
Y026356D01*
X059117D01*
Y026359D01*
X059106D01*
Y026363D01*
X059099D01*
Y026367D01*
X059087D01*
Y026371D01*
X05908D01*
Y026375D01*
X059072D01*
Y026378D01*
X059065D01*
Y026382D01*
X059053D01*
Y026386D01*
X059046D01*
Y02639D01*
X059038D01*
Y026393D01*
X059035D01*
Y026397D01*
X059027D01*
Y026401D01*
X05902D01*
Y026405D01*
X059012D01*
Y026408D01*
X059005D01*
Y026412D01*
X058997D01*
Y026416D01*
X058989D01*
Y02642D01*
X058986D01*
Y026423D01*
X058978D01*
Y026427D01*
X058971D01*
Y026431D01*
X058963D01*
Y026435D01*
X058959D01*
Y026438D01*
X058952D01*
Y026442D01*
X058944D01*
Y026446D01*
X058941D01*
Y02645D01*
X058933D01*
Y026454D01*
X058926D01*
Y026457D01*
X058922D01*
Y026461D01*
X058918D01*
Y026465D01*
X05891D01*
Y026469D01*
X058907D01*
Y026472D01*
X058899D01*
Y026476D01*
X058895D01*
Y02648D01*
X058888D01*
Y026484D01*
X058884D01*
Y026487D01*
X05888D01*
Y026491D01*
X058873D01*
Y026495D01*
X058869D01*
Y026499D01*
X058865D01*
Y026502D01*
X058858D01*
Y026506D01*
X058854D01*
Y02651D01*
X05885D01*
Y026514D01*
X058843D01*
Y026517D01*
X058839D01*
Y026521D01*
X058835D01*
Y026525D01*
X058831D01*
Y026529D01*
X058828D01*
Y026533D01*
X05882D01*
Y026536D01*
X058816D01*
Y02654D01*
X058813D01*
Y026544D01*
X058809D01*
Y026548D01*
X058805D01*
Y026551D01*
X058798D01*
Y026555D01*
X058794D01*
Y026559D01*
X05879D01*
Y026563D01*
X058786D01*
Y026566D01*
X058783D01*
Y02657D01*
X058779D01*
Y026574D01*
X058775D01*
Y026578D01*
X058771D01*
Y026581D01*
X058768D01*
Y026585D01*
X058764D01*
Y026589D01*
X05876D01*
Y026593D01*
X058756D01*
Y026596D01*
X058752D01*
Y0266D01*
X058749D01*
Y026604D01*
X058745D01*
Y026608D01*
X058741D01*
Y026612D01*
X058737D01*
Y026615D01*
X058734D01*
Y026619D01*
X05873D01*
Y026623D01*
X058726D01*
Y026627D01*
X058722D01*
Y02663D01*
X058719D01*
Y026634D01*
X058715D01*
Y026638D01*
X058711D01*
Y026642D01*
X058707D01*
Y026645D01*
X058704D01*
Y026649D01*
X0587D01*
Y026653D01*
X058696D01*
Y02666D01*
X058692D01*
Y026664D01*
X058689D01*
Y026668D01*
X058685D01*
Y026672D01*
X058681D01*
Y026675D01*
X058677D01*
Y026683D01*
X058673D01*
Y026687D01*
X05867D01*
Y026691D01*
X058666D01*
Y026694D01*
X058662D01*
Y026702D01*
X058658D01*
Y026706D01*
X058655D01*
Y026709D01*
X058651D01*
Y026713D01*
X058647D01*
Y026721D01*
X058643D01*
Y026724D01*
X05864D01*
Y026728D01*
X058636D01*
Y026736D01*
X058632D01*
Y026739D01*
X058628D01*
Y026747D01*
X058625D01*
Y026751D01*
X058621D01*
Y026758D01*
X058617D01*
Y026762D01*
X058613D01*
Y02677D01*
X05861D01*
Y026773D01*
X058606D01*
Y026777D01*
X058602D01*
Y026785D01*
X058598D01*
Y026788D01*
X058594D01*
Y026796D01*
X058591D01*
Y026803D01*
X058587D01*
Y026807D01*
X058583D01*
Y026815D01*
X058579D01*
Y026822D01*
X058576D01*
Y026826D01*
X058572D01*
Y026833D01*
X058568D01*
Y026841D01*
X058564D01*
Y026849D01*
X058561D01*
Y026852D01*
X058557D01*
Y02686D01*
X058553D01*
Y026867D01*
X058549D01*
Y026875D01*
X058546D01*
Y026882D01*
X058542D01*
Y02689D01*
X058538D01*
Y026897D01*
X058534D01*
Y026905D01*
X058531D01*
Y026912D01*
X058527D01*
Y02692D01*
X058523D01*
Y026928D01*
X058519D01*
Y026939D01*
X058515D01*
Y026946D01*
X058512D01*
Y026954D01*
X058508D01*
Y026965D01*
X058504D01*
Y026973D01*
X0585D01*
Y026984D01*
X058497D01*
Y026992D01*
X058493D01*
Y027003D01*
X058489D01*
Y02701D01*
X058485D01*
Y027022D01*
X058482D01*
Y027033D01*
X058478D01*
Y027044D01*
X058474D01*
Y027055D01*
X05847D01*
Y027067D01*
X058467D01*
Y027082D01*
X058463D01*
Y027093D01*
X058459D01*
Y027108D01*
X058455D01*
Y027123D01*
X058452D01*
Y027138D01*
X058448D01*
Y027153D01*
X058444D01*
Y027172D01*
X05844D01*
Y027191D01*
X058436D01*
Y027213D01*
X058433D01*
Y02724D01*
X058429D01*
Y027266D01*
X058425D01*
Y027308D01*
X058421D01*
Y027338D01*
Y027341D01*
Y027488D01*
X058425D01*
Y027529D01*
X058429D01*
Y027556D01*
X058433D01*
Y027582D01*
X058436D01*
Y027605D01*
X05844D01*
Y027624D01*
X058444D01*
Y027642D01*
X058448D01*
Y027657D01*
X058452D01*
Y027672D01*
X058455D01*
Y027687D01*
X058459D01*
Y027703D01*
X058463D01*
Y027714D01*
X058467D01*
Y027729D01*
X05847D01*
Y02774D01*
X058474D01*
Y027751D01*
X058478D01*
Y027763D01*
X058482D01*
Y027774D01*
X058485D01*
Y027785D01*
X058489D01*
Y027793D01*
X058493D01*
Y027804D01*
X058497D01*
Y027815D01*
X0585D01*
Y027823D01*
X058504D01*
Y027834D01*
X058508D01*
Y027842D01*
X058512D01*
Y027849D01*
X058515D01*
Y027857D01*
X058519D01*
Y027868D01*
X058523D01*
Y027876D01*
X058527D01*
Y027883D01*
X058531D01*
Y027891D01*
X058534D01*
Y027898D01*
X058538D01*
Y027906D01*
X058542D01*
Y027913D01*
X058546D01*
Y027921D01*
X058549D01*
Y027928D01*
X058553D01*
Y027936D01*
X058557D01*
Y027943D01*
X058561D01*
Y027947D01*
X058564D01*
Y027955D01*
X058568D01*
Y027962D01*
X058572D01*
Y02797D01*
X058576D01*
Y027973D01*
X058579D01*
Y027981D01*
X058583D01*
Y027988D01*
X058587D01*
Y027992D01*
X058591D01*
Y028D01*
X058594D01*
Y028003D01*
X058598D01*
Y028011D01*
X058602D01*
Y028015D01*
X058606D01*
Y028022D01*
X05861D01*
Y028026D01*
X058613D01*
Y028034D01*
X058617D01*
Y028037D01*
X058621D01*
Y028045D01*
X058625D01*
Y028049D01*
X058628D01*
Y028056D01*
X058632D01*
Y02806D01*
X058636D01*
Y028064D01*
X05864D01*
Y028071D01*
X058643D01*
Y028075D01*
X058647D01*
Y028082D01*
X058651D01*
Y028086D01*
X058655D01*
Y02809D01*
X058658D01*
Y028094D01*
X058662D01*
Y028101D01*
X058666D01*
Y028105D01*
X05867D01*
Y028109D01*
X058673D01*
Y028113D01*
X058677D01*
Y02812D01*
X058681D01*
Y028124D01*
X058685D01*
Y028128D01*
X058689D01*
Y028131D01*
X058692D01*
Y028135D01*
X058696D01*
Y028139D01*
X0587D01*
Y028143D01*
X058704D01*
Y02815D01*
X058707D01*
Y028154D01*
X058711D01*
Y028158D01*
X058715D01*
Y028161D01*
X058719D01*
Y028165D01*
X058722D01*
Y028169D01*
X058726D01*
Y028173D01*
X05873D01*
Y028177D01*
X058734D01*
Y02818D01*
X058737D01*
Y028184D01*
X058741D01*
Y028188D01*
X058745D01*
Y028192D01*
X058749D01*
Y028195D01*
X058752D01*
Y028199D01*
X058756D01*
Y028203D01*
X05876D01*
Y028207D01*
X058764D01*
Y02821D01*
X058768D01*
Y028214D01*
X058771D01*
Y028218D01*
X058775D01*
Y028222D01*
X058779D01*
Y028225D01*
X058783D01*
Y028229D01*
X058786D01*
Y028233D01*
X05879D01*
Y028237D01*
X058794D01*
Y02824D01*
X058798D01*
Y028244D01*
X058805D01*
Y028248D01*
X058809D01*
Y028252D01*
X058813D01*
Y028256D01*
X058816D01*
Y028259D01*
X05882D01*
Y028263D01*
X058824D01*
Y028267D01*
X058831D01*
Y028271D01*
X058835D01*
Y028274D01*
X058839D01*
Y028278D01*
X058843D01*
Y028282D01*
X05885D01*
Y028286D01*
X058854D01*
Y028289D01*
X058858D01*
Y028293D01*
X058862D01*
Y028297D01*
X058869D01*
Y028301D01*
X058873D01*
Y028304D01*
X058877D01*
Y028308D01*
X058884D01*
Y028312D01*
X058888D01*
Y028316D01*
X058895D01*
Y028319D01*
X058899D01*
Y028323D01*
X058907D01*
Y028327D01*
X05891D01*
Y028331D01*
X058918D01*
Y028335D01*
X058922D01*
Y028338D01*
X058929D01*
Y028342D01*
X058933D01*
Y028346D01*
X058941D01*
Y02835D01*
X058944D01*
Y028353D01*
X058952D01*
Y028357D01*
X058959D01*
Y028361D01*
X058963D01*
Y028365D01*
X058971D01*
Y028368D01*
X058978D01*
Y028372D01*
X058982D01*
Y028376D01*
X058989D01*
Y02838D01*
X058997D01*
Y028383D01*
X059001D01*
Y028387D01*
X059008D01*
Y028391D01*
X059016D01*
Y028395D01*
X059023D01*
Y028398D01*
X059031D01*
Y028402D01*
X059038D01*
Y028406D01*
X059046D01*
Y02841D01*
X059053D01*
Y028414D01*
X059065D01*
Y028417D01*
X059072D01*
Y028421D01*
X05908D01*
Y028425D01*
X059087D01*
Y028429D01*
X059095D01*
Y028432D01*
X059106D01*
Y028436D01*
X059114D01*
Y02844D01*
X059125D01*
Y028444D01*
X059132D01*
Y028447D01*
X059144D01*
Y028451D01*
X059151D01*
Y028455D01*
X059163D01*
Y028459D01*
X059174D01*
Y028462D01*
X059185D01*
Y028466D01*
X059196D01*
Y02847D01*
X059208D01*
Y028474D01*
X059219D01*
Y028477D01*
X059234D01*
Y028481D01*
X059249D01*
Y028485D01*
X059264D01*
Y028489D01*
X059279D01*
Y028493D01*
X059298D01*
Y028496D01*
X059317D01*
Y0285D01*
X059339D01*
Y028504D01*
X059362D01*
Y028508D01*
X059388D01*
Y028511D01*
X059415D01*
Y028515D01*
X059463D01*
Y028519D01*
X059591D01*
Y028515D01*
D02*
G37*
%LPC*%
G36*
Y028474D02*
X059463D01*
Y02847D01*
X059418D01*
Y028466D01*
X059384D01*
Y028462D01*
X059354D01*
Y028459D01*
X059336D01*
Y028455D01*
X059317D01*
Y028451D01*
X059298D01*
Y028447D01*
X059279D01*
Y028444D01*
X059264D01*
Y02844D01*
X059253D01*
Y028436D01*
X059238D01*
Y028432D01*
X059226D01*
Y028429D01*
X059211D01*
Y028425D01*
X0592D01*
Y028421D01*
X059189D01*
Y028417D01*
X059178D01*
Y028414D01*
X05917D01*
Y02841D01*
X059159D01*
Y028406D01*
X059151D01*
Y028402D01*
X05914D01*
Y028398D01*
X059132D01*
Y028395D01*
X059121D01*
Y028391D01*
X05911D01*
Y028387D01*
X059102D01*
Y028383D01*
X059095D01*
Y02838D01*
X059087D01*
Y028376D01*
X05908D01*
Y028372D01*
X059072D01*
Y028368D01*
X059065D01*
Y028365D01*
X059057D01*
Y028361D01*
X059046D01*
Y028357D01*
X059038D01*
Y028353D01*
X059035D01*
Y02835D01*
X059027D01*
Y028346D01*
X05902D01*
Y028342D01*
X059012D01*
Y028338D01*
X059008D01*
Y028335D01*
X059001D01*
Y028331D01*
X058993D01*
Y028327D01*
X058986D01*
Y028323D01*
X058982D01*
Y028319D01*
X058974D01*
Y028316D01*
X058967D01*
Y028312D01*
X058963D01*
Y028308D01*
X058956D01*
Y028304D01*
X058952D01*
Y028301D01*
X058944D01*
Y028297D01*
X058941D01*
Y028293D01*
X058933D01*
Y028289D01*
X058929D01*
Y028286D01*
X058922D01*
Y028282D01*
X058918D01*
Y028278D01*
X058914D01*
Y028274D01*
X058907D01*
Y028271D01*
X058903D01*
Y028267D01*
X058895D01*
Y028263D01*
X058892D01*
Y028259D01*
X058888D01*
Y028256D01*
X058884D01*
Y028252D01*
X058877D01*
Y028248D01*
X058873D01*
Y028244D01*
X058869D01*
Y02824D01*
X058865D01*
Y028237D01*
X058858D01*
Y028233D01*
X058854D01*
Y028229D01*
X05885D01*
Y028225D01*
X058847D01*
Y028222D01*
X058839D01*
Y028218D01*
X058835D01*
Y028214D01*
X058831D01*
Y02821D01*
X058828D01*
Y028207D01*
X058824D01*
Y028203D01*
X05882D01*
Y028199D01*
X058816D01*
Y028195D01*
X058813D01*
Y028192D01*
X058809D01*
Y028188D01*
X058805D01*
Y028184D01*
X058801D01*
Y02818D01*
X058798D01*
Y028177D01*
X05879D01*
Y028173D01*
X058786D01*
Y028169D01*
X058783D01*
Y028165D01*
X058779D01*
Y028161D01*
X058775D01*
Y028158D01*
X058771D01*
Y028154D01*
X058768D01*
Y02815D01*
X058764D01*
Y028146D01*
X05876D01*
Y028143D01*
X058756D01*
Y028139D01*
X058752D01*
Y028135D01*
X058749D01*
Y028131D01*
X058745D01*
Y028124D01*
X058741D01*
Y02812D01*
X058737D01*
Y028116D01*
X058734D01*
Y028113D01*
X05873D01*
Y028109D01*
X058726D01*
Y028105D01*
X058722D01*
Y028101D01*
X058719D01*
Y028098D01*
X058715D01*
Y02809D01*
X058711D01*
Y028086D01*
X058707D01*
Y028082D01*
X058704D01*
Y028075D01*
X0587D01*
Y028071D01*
X058696D01*
Y028067D01*
X058692D01*
Y028064D01*
X058689D01*
Y028056D01*
X058685D01*
Y028052D01*
X058681D01*
Y028049D01*
X058677D01*
Y028045D01*
X058673D01*
Y028037D01*
X05867D01*
Y028034D01*
X058666D01*
Y028026D01*
X058662D01*
Y028022D01*
X058658D01*
Y028015D01*
X058655D01*
Y028011D01*
X058651D01*
Y028003D01*
X058647D01*
Y028D01*
X058643D01*
Y027992D01*
X05864D01*
Y027988D01*
X058636D01*
Y027981D01*
X058632D01*
Y027977D01*
X058628D01*
Y02797D01*
X058625D01*
Y027966D01*
X058621D01*
Y027958D01*
X058617D01*
Y027951D01*
X058613D01*
Y027943D01*
X05861D01*
Y02794D01*
X058606D01*
Y027932D01*
X058602D01*
Y027924D01*
X058598D01*
Y027917D01*
X058594D01*
Y027909D01*
X058591D01*
Y027906D01*
X058587D01*
Y027898D01*
X058583D01*
Y027891D01*
X058579D01*
Y027883D01*
X058576D01*
Y027876D01*
X058572D01*
Y027864D01*
X058568D01*
Y027857D01*
X058564D01*
Y027849D01*
X058561D01*
Y027842D01*
X058557D01*
Y027834D01*
X058553D01*
Y027827D01*
X058549D01*
Y027819D01*
X058546D01*
Y027808D01*
X058542D01*
Y027797D01*
X058538D01*
Y027785D01*
X058534D01*
Y027778D01*
X058531D01*
Y027766D01*
X058527D01*
Y027755D01*
X058523D01*
Y027748D01*
X058519D01*
Y027736D01*
X058515D01*
Y027721D01*
X058512D01*
Y02771D01*
X058508D01*
Y027695D01*
X058504D01*
Y027684D01*
X0585D01*
Y027669D01*
X058497D01*
Y027657D01*
X058493D01*
Y027639D01*
X058489D01*
Y02762D01*
X058485D01*
Y027601D01*
X058482D01*
Y027582D01*
X058478D01*
Y027563D01*
X058474D01*
Y027529D01*
X05847D01*
Y027499D01*
X058467D01*
Y027428D01*
X058463D01*
Y027368D01*
X058467D01*
Y027296D01*
X05847D01*
Y027266D01*
X058474D01*
Y027232D01*
X058478D01*
Y027213D01*
X058482D01*
Y027195D01*
X058485D01*
Y027176D01*
X058489D01*
Y027157D01*
X058493D01*
Y027138D01*
X058497D01*
Y027127D01*
X0585D01*
Y027112D01*
X058504D01*
Y027097D01*
X058508D01*
Y027086D01*
X058512D01*
Y027071D01*
X058515D01*
Y027059D01*
X058519D01*
Y027048D01*
X058523D01*
Y02704D01*
X058527D01*
Y027029D01*
X058531D01*
Y027018D01*
X058534D01*
Y02701D01*
X058538D01*
Y026999D01*
X058542D01*
Y026988D01*
X058546D01*
Y02698D01*
X058549D01*
Y026969D01*
X058553D01*
Y026961D01*
X058557D01*
Y026954D01*
X058561D01*
Y026946D01*
X058564D01*
Y026939D01*
X058568D01*
Y026931D01*
X058572D01*
Y02692D01*
X058576D01*
Y026912D01*
X058579D01*
Y026905D01*
X058583D01*
Y026897D01*
X058587D01*
Y02689D01*
X058591D01*
Y026886D01*
X058594D01*
Y026879D01*
X058598D01*
Y026871D01*
X058602D01*
Y026864D01*
X058606D01*
Y026856D01*
X05861D01*
Y026852D01*
X058613D01*
Y026845D01*
X058617D01*
Y026837D01*
X058621D01*
Y02683D01*
X058625D01*
Y026826D01*
X058628D01*
Y026818D01*
X058632D01*
Y026815D01*
X058636D01*
Y026807D01*
X05864D01*
Y026803D01*
X058643D01*
Y026796D01*
X058647D01*
Y026792D01*
X058651D01*
Y026785D01*
X058655D01*
Y026781D01*
X058658D01*
Y026773D01*
X058662D01*
Y02677D01*
X058666D01*
Y026762D01*
X05867D01*
Y026758D01*
X058673D01*
Y026751D01*
X058677D01*
Y026747D01*
X058681D01*
Y026743D01*
X058685D01*
Y026739D01*
X058689D01*
Y026732D01*
X058692D01*
Y026728D01*
X058696D01*
Y026724D01*
X0587D01*
Y026721D01*
X058704D01*
Y026713D01*
X058707D01*
Y026709D01*
X058711D01*
Y026706D01*
X058715D01*
Y026698D01*
X058719D01*
Y026694D01*
X058722D01*
Y026691D01*
X058726D01*
Y026687D01*
X05873D01*
Y026683D01*
X058734D01*
Y026679D01*
X058737D01*
Y026675D01*
X058741D01*
Y026672D01*
X058745D01*
Y026668D01*
X058749D01*
Y026664D01*
X058752D01*
Y02666D01*
X058756D01*
Y026653D01*
X05876D01*
Y026649D01*
X058764D01*
Y026645D01*
X058768D01*
Y026642D01*
X058771D01*
Y026638D01*
X058775D01*
Y026634D01*
X058779D01*
Y02663D01*
X058783D01*
Y026627D01*
X058786D01*
Y026623D01*
X05879D01*
Y026619D01*
X058794D01*
Y026615D01*
X058798D01*
Y026612D01*
X058801D01*
Y026608D01*
X058809D01*
Y026604D01*
X058813D01*
Y0266D01*
X058816D01*
Y026596D01*
X05882D01*
Y026593D01*
X058824D01*
Y026589D01*
X058828D01*
Y026585D01*
X058831D01*
Y026581D01*
X058835D01*
Y026578D01*
X058839D01*
Y026574D01*
X058847D01*
Y02657D01*
X05885D01*
Y026566D01*
X058854D01*
Y026563D01*
X058858D01*
Y026559D01*
X058865D01*
Y026555D01*
X058869D01*
Y026551D01*
X058873D01*
Y026548D01*
X058877D01*
Y026544D01*
X058884D01*
Y02654D01*
X058888D01*
Y026536D01*
X058892D01*
Y026533D01*
X058895D01*
Y026529D01*
X058903D01*
Y026525D01*
X058907D01*
Y026521D01*
X058914D01*
Y026517D01*
X058918D01*
Y026514D01*
X058922D01*
Y02651D01*
X058929D01*
Y026506D01*
X058933D01*
Y026502D01*
X058941D01*
Y026499D01*
X058944D01*
Y026495D01*
X058952D01*
Y026491D01*
X058956D01*
Y026487D01*
X058963D01*
Y026484D01*
X058967D01*
Y02648D01*
X058974D01*
Y026476D01*
X058982D01*
Y026472D01*
X058989D01*
Y026469D01*
X058993D01*
Y026465D01*
X059001D01*
Y026461D01*
X059008D01*
Y026457D01*
X059016D01*
Y026454D01*
X05902D01*
Y02645D01*
X059027D01*
Y026446D01*
X059035D01*
Y026442D01*
X059042D01*
Y026438D01*
X05905D01*
Y026435D01*
X059057D01*
Y026431D01*
X059065D01*
Y026427D01*
X059072D01*
Y026423D01*
X05908D01*
Y02642D01*
X059087D01*
Y026416D01*
X059095D01*
Y026412D01*
X059102D01*
Y026408D01*
X05911D01*
Y026405D01*
X059121D01*
Y026401D01*
X059132D01*
Y026397D01*
X05914D01*
Y026393D01*
X059151D01*
Y02639D01*
X059163D01*
Y026386D01*
X05917D01*
Y026382D01*
X059181D01*
Y026378D01*
X059193D01*
Y026375D01*
X059204D01*
Y026371D01*
X059215D01*
Y026367D01*
X059226D01*
Y026363D01*
X059242D01*
Y026359D01*
X059253D01*
Y026356D01*
X059264D01*
Y026352D01*
X059279D01*
Y026348D01*
X059298D01*
Y026344D01*
X059317D01*
Y026341D01*
X059336D01*
Y026337D01*
X059354D01*
Y026333D01*
X059381D01*
Y026329D01*
X059418D01*
Y026326D01*
X059463D01*
Y026322D01*
X059591D01*
Y026326D01*
X059637D01*
Y026329D01*
X059674D01*
Y026333D01*
X0597D01*
Y026337D01*
X059719D01*
Y026341D01*
X059738D01*
Y026344D01*
X059757D01*
Y026348D01*
X059776D01*
Y026352D01*
X059791D01*
Y026356D01*
X059802D01*
Y026359D01*
X059813D01*
Y026363D01*
X059828D01*
Y026367D01*
X05984D01*
Y026371D01*
X059851D01*
Y026375D01*
X059862D01*
Y026378D01*
X059874D01*
Y026382D01*
X059885D01*
Y026386D01*
X059892D01*
Y02639D01*
X059904D01*
Y026393D01*
X059915D01*
Y026397D01*
X059922D01*
Y026401D01*
X059934D01*
Y026405D01*
X059945D01*
Y026408D01*
X059953D01*
Y026412D01*
X05996D01*
Y026416D01*
X059968D01*
Y02642D01*
X059975D01*
Y026423D01*
X059983D01*
Y026427D01*
X05999D01*
Y026431D01*
X059998D01*
Y026435D01*
X060005D01*
Y026438D01*
X060013D01*
Y026442D01*
X06002D01*
Y026446D01*
X060028D01*
Y02645D01*
X060035D01*
Y026454D01*
X060039D01*
Y026457D01*
X060047D01*
Y026461D01*
X060054D01*
Y026465D01*
X060062D01*
Y026469D01*
X060065D01*
Y026472D01*
X060073D01*
Y026476D01*
X06008D01*
Y02648D01*
X060088D01*
Y026484D01*
X060092D01*
Y026487D01*
X060099D01*
Y026491D01*
X060103D01*
Y026495D01*
X060111D01*
Y026499D01*
X060114D01*
Y026502D01*
X060122D01*
Y026506D01*
X060126D01*
Y02651D01*
X060133D01*
Y026514D01*
X060137D01*
Y026517D01*
X060141D01*
Y026521D01*
X060148D01*
Y026525D01*
X060152D01*
Y026529D01*
X060159D01*
Y026533D01*
X060163D01*
Y026536D01*
X060167D01*
Y02654D01*
X060171D01*
Y026544D01*
X060178D01*
Y026548D01*
X060182D01*
Y026551D01*
X060186D01*
Y026555D01*
X06019D01*
Y026559D01*
X060197D01*
Y026563D01*
X060201D01*
Y026566D01*
X060205D01*
Y02657D01*
X060208D01*
Y026574D01*
X060216D01*
Y026578D01*
X06022D01*
Y026581D01*
X060223D01*
Y026585D01*
X060227D01*
Y026589D01*
X060231D01*
Y026593D01*
X060235D01*
Y026596D01*
X060238D01*
Y0266D01*
X060242D01*
Y026604D01*
X060246D01*
Y026608D01*
X060253D01*
Y026612D01*
X060257D01*
Y026615D01*
X060261D01*
Y026619D01*
X060265D01*
Y026623D01*
X060269D01*
Y026627D01*
X060272D01*
Y02663D01*
X060276D01*
Y026634D01*
X06028D01*
Y026638D01*
X060284D01*
Y026642D01*
X060287D01*
Y026645D01*
X060291D01*
Y026649D01*
X060295D01*
Y026653D01*
X060299D01*
Y02666D01*
X060302D01*
Y026664D01*
X060306D01*
Y026668D01*
X06031D01*
Y026672D01*
X060314D01*
Y026675D01*
X060317D01*
Y026679D01*
X060321D01*
Y026683D01*
X060325D01*
Y026687D01*
X060329D01*
Y026691D01*
X060332D01*
Y026694D01*
X060336D01*
Y026698D01*
X06034D01*
Y026706D01*
X060344D01*
Y026709D01*
X060348D01*
Y026713D01*
X060351D01*
Y026721D01*
X060355D01*
Y026724D01*
X060359D01*
Y026728D01*
X060363D01*
Y026732D01*
X060366D01*
Y026739D01*
X06037D01*
Y026743D01*
X060374D01*
Y026747D01*
X060378D01*
Y026751D01*
X060381D01*
Y026758D01*
X060385D01*
Y026762D01*
X060389D01*
Y02677D01*
X060393D01*
Y026773D01*
X060396D01*
Y026781D01*
X0604D01*
Y026785D01*
X060404D01*
Y026792D01*
X060408D01*
Y026796D01*
X060411D01*
Y026803D01*
X060415D01*
Y026807D01*
X060419D01*
Y026815D01*
X060423D01*
Y026818D01*
X060427D01*
Y026826D01*
X06043D01*
Y02683D01*
X060434D01*
Y026837D01*
X060438D01*
Y026845D01*
X060442D01*
Y026852D01*
X060445D01*
Y026856D01*
X060449D01*
Y026864D01*
X060453D01*
Y026871D01*
X060457D01*
Y026879D01*
X06046D01*
Y026886D01*
X060464D01*
Y02689D01*
X060468D01*
Y026897D01*
X060472D01*
Y026905D01*
X060475D01*
Y026912D01*
X060479D01*
Y02692D01*
X060483D01*
Y026931D01*
X060487D01*
Y026939D01*
X06049D01*
Y026946D01*
X060494D01*
Y026954D01*
X060498D01*
Y026961D01*
X060502D01*
Y026969D01*
X060506D01*
Y02698D01*
X060509D01*
Y026988D01*
X060513D01*
Y026999D01*
X060517D01*
Y02701D01*
X060521D01*
Y027018D01*
X060524D01*
Y027029D01*
X060528D01*
Y02704D01*
X060532D01*
Y027048D01*
X060536D01*
Y027059D01*
X060539D01*
Y027071D01*
X060543D01*
Y027086D01*
X060547D01*
Y027097D01*
X060551D01*
Y027112D01*
X060554D01*
Y027127D01*
X060558D01*
Y027138D01*
X060562D01*
Y027157D01*
X060566D01*
Y027176D01*
X060569D01*
Y027195D01*
X060573D01*
Y027213D01*
X060577D01*
Y027232D01*
X060581D01*
Y027266D01*
X060585D01*
Y027296D01*
X060588D01*
Y027368D01*
X060592D01*
Y027428D01*
X060588D01*
Y027499D01*
X060585D01*
Y027529D01*
X060581D01*
Y027563D01*
X060577D01*
Y027582D01*
X060573D01*
Y027601D01*
X060569D01*
Y02762D01*
X060566D01*
Y027639D01*
X060562D01*
Y027657D01*
X060558D01*
Y027669D01*
X060554D01*
Y027684D01*
X060551D01*
Y027695D01*
X060547D01*
Y02771D01*
X060543D01*
Y027721D01*
X060539D01*
Y027736D01*
X060536D01*
Y027748D01*
X060532D01*
Y027755D01*
X060528D01*
Y027766D01*
X060524D01*
Y027778D01*
X060521D01*
Y027785D01*
X060517D01*
Y027797D01*
X060513D01*
Y027808D01*
X060509D01*
Y027815D01*
X060506D01*
Y027827D01*
X060502D01*
Y027834D01*
X060498D01*
Y027842D01*
X060494D01*
Y027849D01*
X06049D01*
Y027857D01*
X060487D01*
Y027864D01*
X060483D01*
Y027876D01*
X060479D01*
Y027883D01*
X060475D01*
Y027891D01*
X060472D01*
Y027898D01*
X060468D01*
Y027906D01*
X060464D01*
Y027909D01*
X06046D01*
Y027917D01*
X060457D01*
Y027924D01*
X060453D01*
Y027932D01*
X060449D01*
Y02794D01*
X060445D01*
Y027943D01*
X060442D01*
Y027951D01*
X060438D01*
Y027958D01*
X060434D01*
Y027966D01*
X06043D01*
Y02797D01*
X060427D01*
Y027977D01*
X060423D01*
Y027981D01*
X060419D01*
Y027988D01*
X060415D01*
Y027992D01*
X060411D01*
Y028D01*
X060408D01*
Y028003D01*
X060404D01*
Y028011D01*
X0604D01*
Y028015D01*
X060396D01*
Y028022D01*
X060393D01*
Y028026D01*
X060389D01*
Y028034D01*
X060385D01*
Y028037D01*
X060381D01*
Y028045D01*
X060378D01*
Y028049D01*
X060374D01*
Y028052D01*
X06037D01*
Y028056D01*
X060366D01*
Y028064D01*
X060363D01*
Y028067D01*
X060359D01*
Y028071D01*
X060355D01*
Y028075D01*
X060351D01*
Y028082D01*
X060348D01*
Y028086D01*
X060344D01*
Y02809D01*
X06034D01*
Y028098D01*
X060336D01*
Y028101D01*
X060332D01*
Y028105D01*
X060329D01*
Y028109D01*
X060325D01*
Y028113D01*
X060321D01*
Y028116D01*
X060317D01*
Y02812D01*
X060314D01*
Y028124D01*
X06031D01*
Y028131D01*
X060306D01*
Y028135D01*
X060302D01*
Y028139D01*
X060299D01*
Y028143D01*
X060295D01*
Y028146D01*
X060291D01*
Y02815D01*
X060287D01*
Y028154D01*
X060284D01*
Y028158D01*
X06028D01*
Y028161D01*
X060276D01*
Y028165D01*
X060272D01*
Y028169D01*
X060269D01*
Y028173D01*
X060265D01*
Y028177D01*
X060257D01*
Y02818D01*
X060253D01*
Y028184D01*
X06025D01*
Y028188D01*
X060246D01*
Y028192D01*
X060242D01*
Y028195D01*
X060238D01*
Y028199D01*
X060235D01*
Y028203D01*
X060231D01*
Y028207D01*
X060227D01*
Y02821D01*
X060223D01*
Y028214D01*
X06022D01*
Y028218D01*
X060216D01*
Y028222D01*
X060208D01*
Y028225D01*
X060205D01*
Y028229D01*
X060201D01*
Y028233D01*
X060197D01*
Y028237D01*
X06019D01*
Y02824D01*
X060186D01*
Y028244D01*
X060182D01*
Y028248D01*
X060178D01*
Y028252D01*
X060171D01*
Y028256D01*
X060167D01*
Y028259D01*
X060163D01*
Y028263D01*
X060159D01*
Y028267D01*
X060152D01*
Y028271D01*
X060148D01*
Y028274D01*
X060141D01*
Y028278D01*
X060137D01*
Y028282D01*
X060133D01*
Y028286D01*
X060126D01*
Y028289D01*
X060122D01*
Y028293D01*
X060114D01*
Y028297D01*
X060111D01*
Y028301D01*
X060103D01*
Y028304D01*
X060099D01*
Y028308D01*
X060092D01*
Y028312D01*
X060088D01*
Y028316D01*
X06008D01*
Y028319D01*
X060073D01*
Y028323D01*
X060069D01*
Y028327D01*
X060062D01*
Y028331D01*
X060054D01*
Y028335D01*
X060047D01*
Y028338D01*
X060043D01*
Y028342D01*
X060035D01*
Y028346D01*
X060028D01*
Y02835D01*
X06002D01*
Y028353D01*
X060016D01*
Y028357D01*
X060009D01*
Y028361D01*
X059998D01*
Y028365D01*
X05999D01*
Y028368D01*
X059983D01*
Y028372D01*
X059975D01*
Y028376D01*
X059968D01*
Y02838D01*
X05996D01*
Y028383D01*
X059953D01*
Y028387D01*
X059945D01*
Y028391D01*
X059934D01*
Y028395D01*
X059922D01*
Y028398D01*
X059915D01*
Y028402D01*
X059904D01*
Y028406D01*
X059896D01*
Y02841D01*
X059885D01*
Y028414D01*
X059877D01*
Y028417D01*
X059866D01*
Y028421D01*
X059855D01*
Y028425D01*
X059843D01*
Y028429D01*
X059828D01*
Y028432D01*
X059817D01*
Y028436D01*
X059802D01*
Y02844D01*
X059791D01*
Y028444D01*
X059776D01*
Y028447D01*
X059757D01*
Y028451D01*
X059738D01*
Y028455D01*
X059719D01*
Y028459D01*
X0597D01*
Y028462D01*
X05967D01*
Y028466D01*
X059637D01*
Y02847D01*
X059591D01*
Y028474D01*
D02*
G37*
%LPD*%
G36*
X060013Y028098D02*
X060035D01*
Y028094D01*
X06005D01*
Y02809D01*
X060062D01*
Y028086D01*
X060073D01*
Y028082D01*
X060084D01*
Y028079D01*
X060092D01*
Y028075D01*
X060099D01*
Y028071D01*
X060107D01*
Y028067D01*
X060111D01*
Y028064D01*
X060118D01*
Y02806D01*
X060126D01*
Y028056D01*
X060129D01*
Y028052D01*
X060137D01*
Y028049D01*
X060141D01*
Y028045D01*
X060144D01*
Y028041D01*
X060148D01*
Y028037D01*
X060152D01*
Y028034D01*
X060156D01*
Y02803D01*
X060159D01*
Y028026D01*
X060163D01*
Y028022D01*
X060167D01*
Y028019D01*
X060171D01*
Y028015D01*
X060174D01*
Y028011D01*
X060178D01*
Y028007D01*
X060182D01*
Y028003D01*
X060186D01*
Y027996D01*
X06019D01*
Y027992D01*
X060193D01*
Y027985D01*
X060197D01*
Y027981D01*
X060201D01*
Y027977D01*
X060205D01*
Y027966D01*
X060208D01*
Y027962D01*
X060212D01*
Y027955D01*
X060216D01*
Y027943D01*
X06022D01*
Y027936D01*
X060223D01*
Y027924D01*
X060227D01*
Y027909D01*
X060231D01*
Y027898D01*
X060235D01*
Y027876D01*
X060238D01*
Y027815D01*
X060235D01*
Y027789D01*
X060231D01*
Y027778D01*
X060227D01*
Y027766D01*
X060223D01*
Y027751D01*
X06022D01*
Y027744D01*
X060216D01*
Y027736D01*
X060212D01*
Y027729D01*
X060208D01*
Y027721D01*
X060205D01*
Y027714D01*
X060201D01*
Y02771D01*
X060197D01*
Y027703D01*
X060193D01*
Y027699D01*
X06019D01*
Y027691D01*
X060186D01*
Y027687D01*
X060182D01*
Y027684D01*
X060178D01*
Y027676D01*
X060171D01*
Y027669D01*
X060167D01*
Y027665D01*
X060163D01*
Y027661D01*
X060159D01*
Y027657D01*
X060156D01*
Y027654D01*
X060148D01*
Y02765D01*
X060144D01*
Y027646D01*
X060141D01*
Y027642D01*
X060137D01*
Y027639D01*
X060129D01*
Y027635D01*
X060126D01*
Y027631D01*
X060118D01*
Y027627D01*
X060114D01*
Y027624D01*
X060107D01*
Y02762D01*
X060099D01*
Y027616D01*
X060095D01*
Y027612D01*
X060084D01*
Y027608D01*
X060077D01*
Y027605D01*
X060065D01*
Y027601D01*
X060054D01*
Y027597D01*
X060039D01*
Y027593D01*
X060024D01*
Y02759D01*
X059855D01*
Y027593D01*
X059851D01*
Y027631D01*
X059847D01*
Y02765D01*
X059843D01*
Y027665D01*
X05984D01*
Y02768D01*
X059836D01*
Y027687D01*
X059832D01*
Y027695D01*
X059828D01*
Y027706D01*
X059825D01*
Y027714D01*
X059821D01*
Y027721D01*
X059817D01*
Y027729D01*
X059813D01*
Y027736D01*
X05981D01*
Y02774D01*
X059806D01*
Y027748D01*
X059802D01*
Y027755D01*
X059798D01*
Y027759D01*
X059795D01*
Y027766D01*
X059791D01*
Y02777D01*
X059787D01*
Y027774D01*
X059783D01*
Y027778D01*
X059779D01*
Y027782D01*
X059776D01*
Y027785D01*
X059772D01*
Y027789D01*
X059768D01*
Y027797D01*
X059764D01*
Y0278D01*
X059994D01*
Y027804D01*
X060001D01*
Y027808D01*
X060009D01*
Y027812D01*
X060013D01*
Y027815D01*
X060016D01*
Y027819D01*
X06002D01*
Y027827D01*
X060024D01*
Y027838D01*
X060028D01*
Y027853D01*
X060024D01*
Y027864D01*
X06002D01*
Y027868D01*
X060016D01*
Y027876D01*
X060013D01*
Y027879D01*
X060009D01*
Y027883D01*
X060001D01*
Y027887D01*
X05999D01*
Y027891D01*
X059027D01*
Y027887D01*
X059012D01*
Y027883D01*
X059008D01*
Y027879D01*
X059005D01*
Y027876D01*
X059001D01*
Y027872D01*
X058997D01*
Y027868D01*
X058993D01*
Y027861D01*
X058989D01*
Y027827D01*
X058993D01*
Y027823D01*
X058997D01*
Y027815D01*
X059001D01*
Y027812D01*
X059005D01*
Y027808D01*
X059012D01*
Y027804D01*
X05902D01*
Y0278D01*
X059573D01*
Y027797D01*
X059595D01*
Y027793D01*
X059606D01*
Y027789D01*
X059618D01*
Y027785D01*
X059629D01*
Y027782D01*
X059637D01*
Y027778D01*
X059644D01*
Y027774D01*
X059652D01*
Y02777D01*
X059659D01*
Y027766D01*
X059663D01*
Y027763D01*
X05967D01*
Y027759D01*
X059674D01*
Y027755D01*
X059678D01*
Y027751D01*
X059685D01*
Y027748D01*
X059689D01*
Y027744D01*
X059693D01*
Y02774D01*
X059697D01*
Y027736D01*
X0597D01*
Y027733D01*
X059704D01*
Y027729D01*
X059708D01*
Y027725D01*
X059712D01*
Y027721D01*
X059716D01*
Y027714D01*
X059719D01*
Y02771D01*
X059723D01*
Y027706D01*
X059727D01*
Y027699D01*
X059731D01*
Y027695D01*
X059734D01*
Y027687D01*
X059738D01*
Y02768D01*
X059742D01*
Y027672D01*
X059746D01*
Y027665D01*
X059749D01*
Y027654D01*
X059753D01*
Y027642D01*
X059757D01*
Y027627D01*
X059761D01*
Y027593D01*
X059764D01*
Y026702D01*
Y026698D01*
Y026634D01*
X059761D01*
Y026589D01*
X059757D01*
Y026574D01*
X059753D01*
Y026563D01*
X059749D01*
Y026551D01*
X059746D01*
Y026544D01*
X059742D01*
Y026533D01*
X059738D01*
Y026525D01*
X059734D01*
Y026517D01*
X059731D01*
Y02651D01*
X059727D01*
Y026506D01*
X059723D01*
Y026499D01*
X059719D01*
Y026495D01*
X059716D01*
Y026487D01*
X059712D01*
Y026484D01*
X059708D01*
Y02648D01*
X059704D01*
Y026472D01*
X0597D01*
Y026469D01*
X059697D01*
Y026465D01*
X059693D01*
Y026461D01*
X059689D01*
Y026457D01*
X059685D01*
Y026454D01*
X059682D01*
Y02645D01*
X059678D01*
Y026446D01*
X059674D01*
Y026442D01*
X059667D01*
Y026438D01*
X059663D01*
Y026435D01*
X059659D01*
Y026431D01*
X059652D01*
Y026427D01*
X059648D01*
Y026423D01*
X05964D01*
Y02642D01*
X059637D01*
Y026416D01*
X059625D01*
Y026412D01*
X059621D01*
Y026408D01*
X059614D01*
Y026405D01*
X059603D01*
Y026401D01*
X059595D01*
Y026397D01*
X059584D01*
Y026393D01*
X059569D01*
Y02639D01*
X059554D01*
Y026386D01*
X059524D01*
Y026382D01*
X05949D01*
Y026386D01*
X05946D01*
Y02639D01*
X059448D01*
Y026393D01*
X059433D01*
Y026397D01*
X059418D01*
Y026401D01*
X059411D01*
Y026405D01*
X0594D01*
Y026408D01*
X059392D01*
Y026412D01*
X059388D01*
Y026416D01*
X059381D01*
Y02642D01*
X059373D01*
Y026423D01*
X059366D01*
Y026427D01*
X059362D01*
Y026431D01*
X059358D01*
Y026435D01*
X059351D01*
Y026438D01*
X059347D01*
Y026442D01*
X059343D01*
Y026446D01*
X059339D01*
Y02645D01*
X059332D01*
Y026454D01*
X059328D01*
Y026457D01*
X059324D01*
Y026461D01*
X059321D01*
Y026465D01*
X059317D01*
Y026472D01*
X059313D01*
Y026476D01*
X059309D01*
Y02648D01*
X059305D01*
Y026484D01*
X059302D01*
Y026487D01*
X059298D01*
Y026495D01*
X059294D01*
Y026499D01*
X05929D01*
Y026506D01*
X059287D01*
Y026514D01*
X059283D01*
Y026517D01*
X059279D01*
Y026525D01*
X059275D01*
Y026536D01*
X059272D01*
Y026544D01*
X059268D01*
Y026551D01*
X059264D01*
Y026566D01*
X05926D01*
Y026578D01*
X059257D01*
Y026596D01*
X059253D01*
Y027499D01*
X05946D01*
Y027496D01*
X059463D01*
Y026623D01*
X059467D01*
Y026619D01*
X059471D01*
Y026612D01*
X059475D01*
Y026608D01*
X059479D01*
Y026604D01*
X059482D01*
Y0266D01*
X05949D01*
Y026596D01*
X059524D01*
Y0266D01*
X059531D01*
Y026604D01*
X059535D01*
Y026608D01*
X059539D01*
Y026612D01*
X059542D01*
Y026615D01*
X059546D01*
Y026623D01*
X05955D01*
Y027586D01*
X059546D01*
Y02759D01*
X058986D01*
Y027593D01*
X058974D01*
Y027597D01*
X058959D01*
Y027601D01*
X058948D01*
Y027605D01*
X058937D01*
Y027608D01*
X058929D01*
Y027612D01*
X058918D01*
Y027616D01*
X058914D01*
Y02762D01*
X058907D01*
Y027624D01*
X058899D01*
Y027627D01*
X058895D01*
Y027631D01*
X058888D01*
Y027635D01*
X058884D01*
Y027639D01*
X058877D01*
Y027642D01*
X058873D01*
Y027646D01*
X058869D01*
Y02765D01*
X058865D01*
Y027654D01*
X058858D01*
Y027657D01*
X058854D01*
Y027661D01*
X05885D01*
Y027665D01*
X058847D01*
Y027672D01*
X058843D01*
Y027676D01*
X058839D01*
Y02768D01*
X058835D01*
Y027684D01*
X058831D01*
Y027687D01*
X058828D01*
Y027691D01*
X058824D01*
Y027699D01*
X05882D01*
Y027703D01*
X058816D01*
Y02771D01*
X058813D01*
Y027718D01*
X058809D01*
Y027725D01*
X058805D01*
Y027729D01*
X058801D01*
Y02774D01*
X058798D01*
Y027748D01*
X058794D01*
Y027755D01*
X05879D01*
Y02777D01*
X058786D01*
Y027782D01*
X058783D01*
Y0278D01*
X058779D01*
Y027891D01*
X058783D01*
Y027906D01*
X058786D01*
Y027921D01*
X05879D01*
Y027936D01*
X058794D01*
Y027943D01*
X058798D01*
Y027951D01*
X058801D01*
Y027958D01*
X058805D01*
Y027966D01*
X058809D01*
Y027973D01*
X058813D01*
Y027981D01*
X058816D01*
Y027985D01*
X05882D01*
Y027988D01*
X058824D01*
Y027996D01*
X058828D01*
Y028D01*
X058831D01*
Y028003D01*
X058835D01*
Y028011D01*
X058839D01*
Y028015D01*
X058843D01*
Y028019D01*
X058847D01*
Y028022D01*
X05885D01*
Y028026D01*
X058854D01*
Y02803D01*
X058858D01*
Y028034D01*
X058862D01*
Y028037D01*
X058865D01*
Y028041D01*
X058869D01*
Y028045D01*
X058877D01*
Y028049D01*
X05888D01*
Y028052D01*
X058884D01*
Y028056D01*
X058892D01*
Y02806D01*
X058895D01*
Y028064D01*
X058903D01*
Y028067D01*
X05891D01*
Y028071D01*
X058914D01*
Y028075D01*
X058926D01*
Y028079D01*
X058933D01*
Y028082D01*
X058941D01*
Y028086D01*
X058956D01*
Y02809D01*
X058967D01*
Y028094D01*
X058982D01*
Y028098D01*
X059005D01*
Y028101D01*
X060013D01*
Y028098D01*
D02*
G37*
G36*
X058689Y027805D02*
X058699Y027796D01*
X058699Y027796D01*
X058705Y02777D01*
X058705Y02777D01*
X058708Y027751D01*
X058711Y027748D01*
X058712Y02774D01*
X058713Y027738D01*
X058716Y027724D01*
X058719Y02772D01*
X05872Y027717D01*
X058723Y027712D01*
X058723Y027709D01*
X058726Y027706D01*
X058727Y027698D01*
X058735Y027687D01*
X058735Y027687D01*
X058738Y027682D01*
X058738Y027679D01*
X058742Y027674D01*
X058742Y027672D01*
X05875Y027661D01*
X05875Y027661D01*
X058767Y027634D01*
X058769Y027633D01*
X058771Y027631D01*
X058773Y027629D01*
X058775Y027627D01*
X058777Y027625D01*
X058778Y027623D01*
X058781Y027622D01*
X05879Y027608D01*
X058792Y027607D01*
X058794Y027604D01*
X058796Y027603D01*
X058797Y027601D01*
X0588Y027599D01*
X058801Y027597D01*
X058815Y027588D01*
X058816Y027586D01*
X058818Y027584D01*
X05882Y027582D01*
X058846Y027564D01*
X058846Y027564D01*
X058857Y027557D01*
X058857Y027557D01*
X058868Y027549D01*
X058871Y027549D01*
X058876Y027546D01*
X058876Y027546D01*
X058887Y027538D01*
X058895Y027536D01*
X058899Y027534D01*
X058901Y027534D01*
X058906Y027531D01*
X058914Y027529D01*
X058917Y027527D01*
X058925Y027525D01*
X058929Y027523D01*
X058942Y02752D01*
X058944Y027519D01*
X058952Y027518D01*
X058955Y027515D01*
X058986Y027509D01*
X059164D01*
X059173Y027499D01*
Y026596D01*
X059179Y026566D01*
X059179Y026566D01*
X059182Y026547D01*
X059185Y026544D01*
X059186Y026536D01*
X059187Y026534D01*
X05919Y026521D01*
X059193Y026516D01*
X059193Y026515D01*
X059174Y026489D01*
X059157Y026477D01*
X059156Y026476D01*
X059155Y026477D01*
X059152Y026479D01*
X059144Y02648D01*
X059141Y026483D01*
X059138Y026483D01*
X059133Y026486D01*
X05913Y026487D01*
X059126Y02649D01*
X059123Y026491D01*
X059118Y026494D01*
X059115Y026494D01*
X05911Y026498D01*
X059108Y026498D01*
X059103Y026501D01*
X0591Y026502D01*
X059095Y026505D01*
X059093Y026506D01*
X059088Y026509D01*
X059085Y026509D01*
X05908Y026513D01*
X059078Y026513D01*
X059073Y026516D01*
X05907Y026517D01*
X059065Y02652D01*
X059063Y026521D01*
X059058Y026524D01*
X059058Y026524D01*
X059047Y026531D01*
X059044Y026532D01*
X059039Y026535D01*
X059036Y026536D01*
X059031Y026539D01*
X059031Y026539D01*
X05902Y026547D01*
X059017Y026547D01*
X059013Y02655D01*
X05901Y026551D01*
X059005Y026554D01*
X059005Y026554D01*
X058994Y026562D01*
X058994Y026562D01*
X058983Y026569D01*
X058983Y026569D01*
X058972Y026576D01*
X058971Y026578D01*
X058946Y026595D01*
X058945Y026597D01*
X058942Y026598D01*
X058941Y026601D01*
X058927Y02661D01*
X058926Y026612D01*
X058924Y026613D01*
X058922Y026616D01*
X058909Y026625D01*
X058907Y026627D01*
X058905Y026628D01*
X058903Y026631D01*
X05889Y02664D01*
X058888Y026642D01*
X058886Y026643D01*
X058884Y026646D01*
X058882Y026647D01*
X058881Y026649D01*
X058878Y026651D01*
X058877Y026653D01*
X058875Y026655D01*
X058873Y026657D01*
X058871Y026659D01*
X058869Y026661D01*
X058867Y026662D01*
X058866Y026665D01*
X058852Y026674D01*
X058851Y026676D01*
X058848Y026677D01*
X058847Y02668D01*
X058845Y026681D01*
X058843Y026683D01*
X058841Y026685D01*
X058839Y026687D01*
X058837Y026689D01*
X058836Y026691D01*
X058833Y026692D01*
X058832Y026695D01*
X05883Y026696D01*
X058828Y026698D01*
X058826Y0267D01*
X058824Y026702D01*
X058822Y026704D01*
X058813Y026717D01*
X058811Y026719D01*
X058809Y026721D01*
X058807Y026722D01*
X058805Y026725D01*
X058803Y026726D01*
X058802Y026728D01*
X058799Y02673D01*
X058798Y026732D01*
X058796Y026734D01*
X058794Y026736D01*
X058792Y026738D01*
X05879Y02674D01*
X058788Y026741D01*
X058787Y026744D01*
X058784Y026745D01*
X058783Y026747D01*
X058781Y026749D01*
X058772Y026762D01*
X058769Y026764D01*
X05876Y026777D01*
X058758Y026779D01*
X058757Y026781D01*
X058754Y026783D01*
X058745Y026796D01*
X058743Y026798D01*
X058742Y0268D01*
X058739Y026801D01*
X058733Y026812D01*
X058733Y026812D01*
X058725Y026823D01*
X058725Y026823D01*
X058718Y026834D01*
X058718Y026834D01*
X05871Y026845D01*
X05871Y026845D01*
X058703Y026857D01*
X058702Y026857D01*
X058695Y026868D01*
X058695Y026868D01*
X058692Y026873D01*
X058691Y026876D01*
X058688Y02688D01*
X058687Y026883D01*
X05868Y026894D01*
X05868Y026894D01*
X058677Y026899D01*
X058676Y026902D01*
X058673Y026907D01*
X058672Y026909D01*
X058669Y026914D01*
X058669Y026917D01*
X058661Y026928D01*
X058661Y026928D01*
X058658Y026933D01*
X058657Y026936D01*
X058654Y026941D01*
X058654Y026943D01*
X05865Y026948D01*
X05865Y026951D01*
X058648Y026954D01*
X058646Y026962D01*
X058643Y026967D01*
X058642Y02697D01*
X058639Y026974D01*
X058639Y026977D01*
X058635Y026982D01*
X058635Y026985D01*
X058632Y026989D01*
X058631Y026992D01*
X058628Y026997D01*
X058627Y027D01*
X058625Y027003D01*
X058623Y027011D01*
X05862Y027016D01*
X05862Y027018D01*
X058618Y027022D01*
X058616Y02703D01*
X058614Y027033D01*
X058612Y027041D01*
X058609Y027046D01*
X058608Y027049D01*
X058606Y027052D01*
X058605Y02706D01*
X058603Y027063D01*
X058601Y027071D01*
X058598Y027076D01*
X058597Y027079D01*
X058595Y027082D01*
X058593Y02709D01*
X058591Y027093D01*
X05859Y027101D01*
X058589Y027103D01*
X058586Y027116D01*
X058584Y02712D01*
X058582Y027128D01*
X058581Y027129D01*
X058578Y027143D01*
X058577Y027144D01*
X058575Y027158D01*
X058572Y027161D01*
X058571Y027169D01*
X058571Y027169D01*
X058567Y027188D01*
X058567Y027188D01*
X058563Y027207D01*
X058563Y027207D01*
X05856Y027225D01*
X05856Y027225D01*
X058556Y027244D01*
X058556Y027244D01*
X058554Y027251D01*
Y027266D01*
X058551Y027285D01*
Y027296D01*
X058547Y027315D01*
Y027368D01*
X058543Y027387D01*
Y027409D01*
X058547Y027428D01*
Y02748D01*
X058551Y027499D01*
Y027511D01*
X058554Y027529D01*
Y027544D01*
X058556Y027551D01*
X058556Y027551D01*
X05856Y02757D01*
X05856Y02757D01*
X058563Y027589D01*
X058563Y027589D01*
X058567Y027608D01*
X058567Y027608D01*
X058571Y027627D01*
X058571Y027627D01*
X058572Y027635D01*
X058575Y027638D01*
X058577Y027651D01*
X058578Y027653D01*
X05858Y027661D01*
X058582Y027664D01*
X058585Y027678D01*
X058586Y027679D01*
X058587Y027687D01*
X05859Y027691D01*
X058592Y027704D01*
X058593Y027706D01*
X058595Y027714D01*
X058597Y027717D01*
X058598Y02772D01*
X058601Y027724D01*
X058603Y027733D01*
X058605Y027736D01*
X058606Y027744D01*
X058608Y027747D01*
X058609Y02775D01*
X058612Y027755D01*
X058614Y027763D01*
X058616Y027766D01*
X058618Y027774D01*
X05862Y027777D01*
X058621Y027785D01*
X058623Y027788D01*
X058624Y027791D01*
X058627Y027796D01*
X058628Y027799D01*
X058631Y027803D01*
X058631Y027804D01*
X058638Y027813D01*
X058649Y02782D01*
X058689Y027805D01*
D02*
G37*
G36*
X060374Y027896D02*
X060382Y027886D01*
X060386Y027881D01*
X060386Y027879D01*
X060394Y027867D01*
X060394Y027867D01*
X060397Y027863D01*
X060398Y02786D01*
X060401Y027855D01*
X060401Y027852D01*
X060405Y027848D01*
X060405Y027845D01*
X060407Y027842D01*
X060409Y027834D01*
X060412Y027829D01*
X060413Y027826D01*
X060416Y027821D01*
X060416Y027819D01*
X06042Y027814D01*
X06042Y027811D01*
X060423Y027806D01*
X060424Y027803D01*
X060427Y027799D01*
X060428Y027796D01*
X06043Y027793D01*
X060431Y027785D01*
X060435Y02778D01*
X060435Y027777D01*
X060437Y027774D01*
X060439Y027766D01*
X060441Y027763D01*
X060443Y027755D01*
X060446Y02775D01*
X060446Y027747D01*
X060449Y027744D01*
X06045Y027736D01*
X060452Y027733D01*
X060454Y027724D01*
X060457Y02772D01*
X060458Y027717D01*
X06046Y027714D01*
X060461Y027706D01*
X060463Y027704D01*
X060465Y027691D01*
X060467Y027687D01*
X060469Y027679D01*
X06047Y027678D01*
X060473Y027664D01*
X060475Y027661D01*
X060477Y027653D01*
X060478Y027651D01*
X06048Y027638D01*
X060482Y027635D01*
X060484Y027627D01*
X060484Y027627D01*
X060488Y027608D01*
X060488Y027608D01*
X060492Y027589D01*
X060492Y027589D01*
X060495Y02757D01*
X060495Y02757D01*
X060499Y027551D01*
X060499Y027551D01*
X0605Y027544D01*
Y027529D01*
X060504Y027511D01*
Y027499D01*
X060508Y02748D01*
Y027428D01*
X060512Y027409D01*
Y027387D01*
X060508Y027368D01*
Y027315D01*
X060504Y027296D01*
Y027285D01*
X0605Y027266D01*
Y027251D01*
X060499Y027244D01*
X060499Y027244D01*
X060495Y027225D01*
X060495Y027225D01*
X060492Y027207D01*
X060492Y027207D01*
X060488Y027188D01*
X060488Y027188D01*
X060484Y027169D01*
X060484Y027169D01*
X060482Y027161D01*
X06048Y027158D01*
X060478Y027144D01*
X060477Y027143D01*
X060474Y027129D01*
X060473Y027128D01*
X060471Y02712D01*
X060469Y027116D01*
X060466Y027103D01*
X060465Y027101D01*
X060464Y027093D01*
X060461Y02709D01*
X06046Y027082D01*
X060458Y027079D01*
X060457Y027076D01*
X060454Y027071D01*
X060452Y027063D01*
X06045Y02706D01*
X060449Y027052D01*
X060446Y027049D01*
X060446Y027046D01*
X060443Y027041D01*
X060441Y027033D01*
X060439Y02703D01*
X060437Y027022D01*
X060435Y027018D01*
X060435Y027016D01*
X060431Y027011D01*
X06043Y027003D01*
X060428Y027D01*
X060427Y026997D01*
X060424Y026992D01*
X060423Y026989D01*
X06042Y026985D01*
X06042Y026982D01*
X060416Y026977D01*
X060416Y026974D01*
X060413Y02697D01*
X060412Y026967D01*
X060409Y026962D01*
X060407Y026954D01*
X060405Y026951D01*
X060405Y026948D01*
X060401Y026943D01*
X060401Y026941D01*
X060398Y026936D01*
X060397Y026933D01*
X060394Y026928D01*
X060394Y026928D01*
X060386Y026917D01*
X060386Y026914D01*
X060382Y026909D01*
X060382Y026907D01*
X060379Y026902D01*
X060378Y026899D01*
X060375Y026894D01*
X060375Y026894D01*
X060367Y026883D01*
X060367Y02688D01*
X060364Y026876D01*
X060363Y026873D01*
X06036Y026868D01*
X06036Y026868D01*
X060352Y026857D01*
X060352Y026857D01*
X060345Y026845D01*
X060345Y026845D01*
X060337Y026834D01*
X060337Y026834D01*
X06033Y026823D01*
X06033Y026823D01*
X060322Y026812D01*
X060322Y026812D01*
X060316Y026801D01*
X060313Y0268D01*
X060312Y026798D01*
X06031Y026796D01*
X060301Y026783D01*
X060298Y026781D01*
X060297Y026779D01*
X060295Y026777D01*
X060285Y026764D01*
X060283Y026762D01*
X060274Y026749D01*
X060272Y026747D01*
X06027Y026745D01*
X060268Y026744D01*
X060267Y026741D01*
X060264Y02674D01*
X060263Y026738D01*
X060261Y026736D01*
X060259Y026734D01*
X060257Y026732D01*
X060255Y02673D01*
X060253Y026728D01*
X060252Y026726D01*
X060249Y026725D01*
X060248Y026722D01*
X060246Y026721D01*
X060244Y026719D01*
X060242Y026717D01*
X060233Y026704D01*
X060231Y026702D01*
X060229Y0267D01*
X060227Y026698D01*
X060225Y026696D01*
X060223Y026695D01*
X060222Y026692D01*
X060219Y026691D01*
X060218Y026689D01*
X060216Y026687D01*
X060214Y026685D01*
X060212Y026683D01*
X06021Y026681D01*
X060208Y02668D01*
X060206Y026677D01*
X060204Y026676D01*
X060203Y026674D01*
X060189Y026665D01*
X060188Y026662D01*
X060185Y026661D01*
X060184Y026659D01*
X060182Y026657D01*
X06018Y026655D01*
X060178Y026653D01*
X060176Y026651D01*
X060174Y026649D01*
X060173Y026647D01*
X06017Y026646D01*
X060169Y026643D01*
X060167Y026642D01*
X060165Y02664D01*
X060152Y026631D01*
X06015Y026628D01*
X060148Y026627D01*
X060146Y026625D01*
X060133Y026616D01*
X060131Y026613D01*
X060129Y026612D01*
X060128Y02661D01*
X060114Y026601D01*
X060112Y026598D01*
X06011Y026597D01*
X060109Y026595D01*
X060084Y026578D01*
X060082Y026576D01*
X060072Y026569D01*
X060072Y026569D01*
X060061Y026562D01*
X060061Y026562D01*
X06005Y026554D01*
X06005Y026554D01*
X060045Y026551D01*
X060042Y02655D01*
X060037Y026547D01*
X060035Y026547D01*
X060023Y026539D01*
X060023Y026539D01*
X060019Y026536D01*
X060016Y026535D01*
X060011Y026532D01*
X060008Y026531D01*
X059997Y026524D01*
X059997Y026524D01*
X059992Y026521D01*
X05999Y02652D01*
X059985Y026517D01*
X059982Y026516D01*
X059977Y026513D01*
X059974Y026513D01*
X05997Y026509D01*
X059967Y026509D01*
X059962Y026506D01*
X059959Y026505D01*
X059955Y026502D01*
X059952Y026501D01*
X059947Y026498D01*
X059944Y026498D01*
X05994Y026494D01*
X059937Y026494D01*
X059932Y026491D01*
X059929Y02649D01*
X059925Y026487D01*
X059922Y026486D01*
X059917Y026483D01*
X059914Y026483D01*
X059911Y02648D01*
X059903Y026479D01*
X0599Y026477D01*
X059892Y026475D01*
X059887Y026472D01*
X059884Y026471D01*
X059881Y026469D01*
X059873Y026468D01*
X05987Y026465D01*
X059862Y026464D01*
X059857Y026461D01*
X059854Y02646D01*
X059851Y026458D01*
X059849Y026457D01*
X059832Y02647D01*
X059815Y026493D01*
X059814Y026498D01*
X059816Y026502D01*
X059818Y02651D01*
X05982Y026513D01*
X05982Y026516D01*
X059824Y026521D01*
X059825Y026529D01*
X059827Y026532D01*
X059829Y02654D01*
X059831Y026543D01*
X059834Y026557D01*
X059835Y026558D01*
X059841Y026589D01*
Y026615D01*
X059845Y026634D01*
Y027501D01*
X059855Y027509D01*
X060024D01*
X060055Y027515D01*
X060056Y027517D01*
X06007Y027519D01*
X060071Y02752D01*
X060085Y027523D01*
X060088Y027525D01*
X060096Y027527D01*
X060099Y027529D01*
X060107Y027531D01*
X060112Y027534D01*
X060115Y027534D01*
X060118Y027536D01*
X060126Y027538D01*
X060137Y027546D01*
X060138Y027546D01*
X060142Y027549D01*
X060145Y027549D01*
X060156Y027557D01*
X060156Y027557D01*
X060168Y027564D01*
X060168Y027564D01*
X060194Y027582D01*
X060195Y027584D01*
X060197Y027586D01*
X060199Y027588D01*
X060212Y027597D01*
X060214Y027599D01*
X060216Y027601D01*
X060218Y027603D01*
X06022Y027604D01*
X060221Y027607D01*
X060224Y027608D01*
X060225Y02761D01*
X060227Y027612D01*
X060231Y027616D01*
X060235Y027619D01*
X060244Y027633D01*
X060246Y027634D01*
X060264Y027661D01*
X060264Y027661D01*
X060271Y027672D01*
X060271Y027672D01*
X060279Y027683D01*
X060279Y027686D01*
X060283Y027691D01*
X060283Y027693D01*
X060286Y027698D01*
X060287Y027701D01*
X06029Y027706D01*
X060291Y027708D01*
X060294Y027713D01*
X060294Y027716D01*
X060298Y027721D01*
X0603Y027734D01*
X060301Y027736D01*
X060303Y027744D01*
X060305Y027747D01*
X060307Y027755D01*
X060309Y027758D01*
X060315Y027789D01*
Y027796D01*
X060319Y027815D01*
Y027871D01*
X060326Y027879D01*
X060365Y027901D01*
X060374Y027896D01*
D02*
G37*
G36*
X041171Y020738D02*
X041256Y020715D01*
X041338D01*
X041396Y020657D01*
Y018777D01*
X041406Y018727D01*
X041434Y018684D01*
X041619Y0185D01*
Y018267D01*
X041569Y018254D01*
X041568Y018255D01*
X041505Y018318D01*
X041429Y018362D01*
X041344Y018385D01*
X041256D01*
X041228Y018377D01*
X041048Y018558D01*
Y020764D01*
X041071Y020774D01*
X041098Y02078D01*
X041171Y020738D01*
D02*
G37*
D13*
X045016Y022843D02*
X04693Y024757D01*
X061019Y024936D02*
X061929Y024026D01*
X044798Y023021D02*
X046713Y024936D01*
X060944Y024757D02*
X06175Y023952D01*
X046713Y024936D02*
X061019D01*
X04693Y024757D02*
X060944D01*
X0393Y02105D02*
X041271Y023021D01*
X0403Y02105D02*
X042093Y022843D01*
X045016D01*
X041527Y018777D02*
Y020711D01*
X041271Y023021D02*
X044798D01*
X041527Y018777D02*
X04175Y018554D01*
X0413Y020939D02*
X041527Y020711D01*
X0413Y020939D02*
Y02105D01*
X061929Y018079D02*
Y024026D01*
X06175Y019D02*
Y023952D01*
X05975Y017D02*
X06175Y019D01*
X06085Y017D02*
X061929Y018079D01*
X0423Y019054D02*
Y02105D01*
X0428Y018006D02*
Y018554D01*
X0423Y019054D02*
X0428Y018554D01*
X04175Y018004D02*
Y018554D01*
Y018004D02*
X0426Y017154D01*
Y015185D02*
Y017154D01*
X0428Y018006D02*
X0436Y017206D01*
X0433Y019054D02*
X0438Y018554D01*
Y018006D02*
X0446Y017206D01*
X0438Y018006D02*
Y018554D01*
X0433Y019054D02*
Y02105D01*
X0448Y018006D02*
X0456Y017206D01*
X0443Y019054D02*
X0448Y018554D01*
Y018006D02*
Y018554D01*
X0443Y019054D02*
Y02105D01*
X0456Y015185D02*
Y017206D01*
X0446Y015185D02*
Y017206D01*
X0436Y015185D02*
Y017206D01*
X028625Y017375D02*
Y018175D01*
X0286Y0182D02*
X028625Y018175D01*
Y017375D02*
X02865Y01735D01*
D14*
X0269Y0241D02*
D03*
D15*
X027806Y02162D02*
D03*
X0269D02*
D03*
X025994D02*
D03*
D24*
X0528Y0195D02*
D03*
D33*
X0238Y02085D02*
Y022754D01*
X0238Y02085D02*
X0238Y02085D01*
Y022754D02*
Y024354D01*
X024118Y024673D01*
X0238Y0187D02*
Y02085D01*
X0485Y023704D02*
X04905Y024254D01*
X04785Y023704D02*
X0485D01*
X04725Y024254D02*
X04905D01*
X049946D01*
X05045Y02375D01*
X045245Y022249D02*
X04725Y024254D01*
X04511Y022615D02*
X047025Y02453D01*
X05367D02*
X05445Y02375D01*
X047025Y02453D02*
X05367D01*
X045245Y021105D02*
Y022249D01*
Y021105D02*
X0453Y02105D01*
X0238Y015925D02*
Y0187D01*
X040867Y018483D02*
X0413Y01805D01*
X040867Y018483D02*
Y021229D01*
X042253Y022615D01*
X04511D01*
X05965Y022D02*
Y0228D01*
X05865Y021D02*
X05965Y022D01*
X027806Y024399D02*
X028061Y024654D01*
X03215Y0192D02*
Y024254D01*
X028061Y024654D02*
X03175D01*
X03215Y024254D01*
X027806Y02162D02*
Y024399D01*
X024118Y024673D02*
X027532D01*
X027806Y024399D01*
X026998Y021188D02*
Y021521D01*
Y021188D02*
X0272Y020986D01*
X0269Y02162D02*
X026998Y021521D01*
X0272Y02085D02*
Y020986D01*
D34*
X055506Y027348D02*
Y028266D01*
X055277D01*
X055047Y028037D01*
Y027348D01*
Y028037D01*
X054818Y028266D01*
X054588Y028037D01*
Y027348D01*
X053899Y028266D02*
X05344D01*
X05321Y028037D01*
Y027348D01*
X053899D01*
X054129Y027578D01*
X053899Y027807D01*
X05321D01*
X051833Y028266D02*
X052522D01*
X052751Y028037D01*
Y027578D01*
X052522Y027348D01*
X051833D01*
X051374Y028726D02*
Y027348D01*
Y028037D01*
X051144Y028266D01*
X050685D01*
X050455Y028037D01*
Y027348D01*
X048619D02*
Y028726D01*
Y027807D02*
X04793Y028266D01*
X048619Y027807D02*
X04793Y027348D01*
X047241Y028726D02*
Y027348D01*
Y028037D01*
X047012Y028266D01*
X046553D01*
X046323Y028037D01*
Y027348D01*
X045634D02*
X045175D01*
X044945Y027578D01*
Y028037D01*
X045175Y028266D01*
X045634D01*
X045864Y028037D01*
Y027578D01*
X045634Y027348D01*
X044257Y028266D02*
X043797D01*
X043568Y028037D01*
Y027348D01*
X044257D01*
X044486Y027578D01*
X044257Y027807D01*
X043568D01*
X041731Y027348D02*
X041042D01*
X040813Y027578D01*
X041042Y027807D01*
X041502D01*
X041731Y028037D01*
X041502Y028266D01*
X040813D01*
X040124Y027348D02*
X039665D01*
X039435Y027578D01*
Y028037D01*
X039665Y028266D01*
X040124D01*
X040354Y028037D01*
Y027578D01*
X040124Y027348D01*
X03668Y028726D02*
Y027348D01*
X037369D01*
X037599Y027578D01*
Y028037D01*
X037369Y028266D01*
X03668D01*
X036221Y027348D02*
X035762D01*
X035992D01*
Y028266D01*
X036221D01*
X034385Y027348D02*
X034844D01*
X035073Y027578D01*
Y028037D01*
X034844Y028266D01*
X034385D01*
X034155Y028037D01*
Y027807D01*
X035073D01*
X033696Y027348D02*
Y028266D01*
X033007D01*
X032777Y028037D01*
Y027348D01*
X030711Y028496D02*
Y028266D01*
X030941D01*
X030482D01*
X030711D01*
Y027578D01*
X030482Y027348D01*
X029793Y028266D02*
Y027578D01*
X029563Y027348D01*
X028874D01*
Y028266D01*
D35*
X0248Y022754D02*
D03*
X0238D02*
D03*
X04785Y023704D02*
D03*
Y022704D02*
D03*
Y021704D02*
D03*
Y020704D02*
D03*
X0446Y023504D02*
D03*
X0436D02*
D03*
X0426D02*
D03*
X0416D02*
D03*
X0406D02*
D03*
X0396D02*
D03*
X0386D02*
D03*
X0376D02*
D03*
X05555Y0181D02*
D03*
X05655D02*
D03*
X05755D02*
D03*
X0555Y02045D02*
D03*
X0565D02*
D03*
X0575D02*
D03*
X05965Y0228D02*
D03*
X06065D02*
D03*
X05865D02*
D03*
D36*
X06245Y028454D02*
D03*
X02175D02*
D03*
X06245Y011754D02*
D03*
X02175D02*
D03*
D37*
X02675Y0182D02*
D03*
Y0192D02*
D03*
X0266Y01335D02*
D03*
Y01735D02*
D03*
X02865Y01335D02*
D03*
Y01735D02*
D03*
X0453Y02105D02*
D03*
X0443D02*
D03*
X0433D02*
D03*
X0423D02*
D03*
X0413D02*
D03*
X0403D02*
D03*
X0393D02*
D03*
X0383D02*
D03*
X0373D02*
D03*
X0363D02*
D03*
X0453Y01805D02*
D03*
X0443D02*
D03*
X0433D02*
D03*
X0423D02*
D03*
X0413D02*
D03*
X0403D02*
D03*
X0393D02*
D03*
X0383D02*
D03*
X0373D02*
D03*
X0363D02*
D03*
X06085Y017D02*
D03*
Y021D02*
D03*
X05975Y017D02*
D03*
Y021D02*
D03*
X05865D02*
D03*
Y017D02*
D03*
X0286Y0192D02*
D03*
Y0182D02*
D03*
X05045Y02375D02*
D03*
X05445D02*
D03*
Y0225D02*
D03*
X05045D02*
D03*
D38*
X0238Y0187D02*
D03*
Y01315D02*
D03*
Y015925D02*
D03*
D39*
X0248Y0187D02*
D03*
Y01315D02*
D03*
Y015925D02*
D03*
D40*
X0262Y02085D02*
D03*
X0272D02*
D03*
X0248D02*
D03*
X0238D02*
D03*
X0493Y0226D02*
D03*
Y0236D02*
D03*
D41*
X0498Y019495D02*
D03*
D42*
X03215Y0192D02*
D03*
D43*
X03315D02*
D03*
X03415D02*
D03*
D44*
X0306Y014885D02*
D03*
Y002685D02*
D03*
X0601Y002735D02*
D03*
Y014885D02*
D03*
D45*
X0326Y015185D02*
D03*
D46*
X0336D02*
D03*
X0346D02*
D03*
X0356D02*
D03*
X0366D02*
D03*
X0376D02*
D03*
X0386D02*
D03*
X0396D02*
D03*
X0406D02*
D03*
X0416D02*
D03*
X0426D02*
D03*
X0436D02*
D03*
X0446D02*
D03*
X0456D02*
D03*
X0466D02*
D03*
X0476D02*
D03*
M02*
