M48
;Layer_Color=9474304
;FILE_FORMAT=2:4
INCH,LZ
;TYPE=PLATED
T1F00S00C0.0300
T2F00S00C0.0310
T3F00S00C0.0315
T4F00S00C0.0320
T5F00S00C0.0360
T6F00S00C0.0394
T7F00S00C0.1181
T8F00S00C0.1378
%
T01
X03215Y0192
X03315
X03415
T02
X0493Y0226
Y0236
X0272Y02085
X0262
X0248
X0238
T03
X0266Y01335
X02865
X0498Y019495
X0528Y0195
X05445Y0225
Y02375
X05045
Y0225
X05865Y021
X05975
X06085
Y017
X05975
X05865
X0453Y01805
X0443
X0433
X0423
X0413
X0403
X0393
X0383
X0373
X0363
Y02105
X0373
X0383
X0393
X0403
X0413
X0423
X0433
X0443
X0453
X0286Y0192
Y0182
X02865Y01735
X0266
X02675Y0182
Y0192
T04
X0238Y01315
X0248
Y015925
X0238
Y0187
X0248
T05
X0326Y015185
X0336
X0346
X0356
X0366
X0376
X0386
X0396
X0406
X0416
X0426
X0436
X0446
X0456
X0466
X0476
T06
X04785Y020704
Y021704
Y022704
Y023704
X0555Y02045
X0565
X0575
X05755Y0181
X05655
X05555
X05865Y0228
X05965
X06065
X0446Y023504
X0436
X0426
X0416
X0406
X0396
X0386
X0376
X0248Y022754
X0238
T07
X02175Y011754
X06245
Y028454
X02175
T08
X0306Y002685
Y014885
X0601
Y002735
M30
