G04*
G04 #@! TF.GenerationSoftware,Altium Limited,Altium Designer,21.9.2 (33)*
G04*
G04 Layer_Physical_Order=2*
G04 Layer_Color=16711680*
%FSTAX24Y24*%
%MOIN*%
G70*
G04*
G04 #@! TF.SameCoordinates,A68203B9-CA12-4FF3-9F36-A0A22A6ADD5B*
G04*
G04*
G04 #@! TF.FilePolarity,Positive*
G04*
G01*
G75*
%ADD13C,0.0100*%
%ADD24C,0.0591*%
%ADD33C,0.0197*%
%ADD35C,0.0630*%
%ADD36C,0.1181*%
%ADD37C,0.0512*%
%ADD38R,0.0700X0.1000*%
%ADD39O,0.0700X0.1000*%
%ADD40C,0.0700*%
%ADD41R,0.0591X0.0591*%
%ADD42R,0.0650X0.0900*%
%ADD43O,0.0650X0.0900*%
%ADD44C,0.1575*%
%ADD45R,0.0620X0.0900*%
%ADD46O,0.0620X0.0900*%
G36*
X063474Y010731D02*
X020727D01*
X020727Y029463D01*
X063474D01*
Y010731D01*
D02*
G37*
%LPC*%
G36*
X062516Y029124D02*
X062384D01*
X062255Y029098D01*
X062133Y029047D01*
X062023Y028974D01*
X06193Y028881D01*
X061857Y028771D01*
X061806Y02865D01*
X061781Y02852D01*
Y028388D01*
X061806Y028259D01*
X061857Y028137D01*
X06193Y028028D01*
X062023Y027934D01*
X062133Y027861D01*
X062255Y027811D01*
X062384Y027785D01*
X062516D01*
X062645Y027811D01*
X062767Y027861D01*
X062877Y027934D01*
X06297Y028028D01*
X063043Y028137D01*
X063094Y028259D01*
X063119Y028388D01*
Y02852D01*
X063094Y02865D01*
X063043Y028771D01*
X06297Y028881D01*
X062877Y028974D01*
X062767Y029047D01*
X062645Y029098D01*
X062516Y029124D01*
D02*
G37*
G36*
X021816D02*
X021684D01*
X021555Y029098D01*
X021433Y029047D01*
X021323Y028974D01*
X02123Y028881D01*
X021157Y028771D01*
X021106Y02865D01*
X021081Y02852D01*
Y028388D01*
X021106Y028259D01*
X021157Y028137D01*
X02123Y028028D01*
X021323Y027934D01*
X021433Y027861D01*
X021555Y027811D01*
X021684Y027785D01*
X021816D01*
X021945Y027811D01*
X022067Y027861D01*
X022177Y027934D01*
X02227Y028028D01*
X022343Y028137D01*
X022394Y028259D01*
X022419Y028388D01*
Y02852D01*
X022394Y02865D01*
X022343Y028771D01*
X02227Y028881D01*
X022177Y028974D01*
X022067Y029047D01*
X021945Y029098D01*
X021816Y029124D01*
D02*
G37*
G36*
X054017Y024364D02*
X049883D01*
X049814Y02435D01*
X049755Y024311D01*
X049449Y024004D01*
X049356Y024029D01*
X049244D01*
X049135Y024D01*
X049037Y023943D01*
X048957Y023863D01*
X0489Y023765D01*
X048871Y023656D01*
Y023544D01*
X048896Y023451D01*
X04833Y022885D01*
X0482D01*
X048165Y022946D01*
X048092Y023019D01*
X048002Y023071D01*
X047902Y023098D01*
X047798D01*
X047698Y023071D01*
X047608Y023019D01*
X047535Y022946D01*
X047483Y022856D01*
X047456Y022756D01*
Y022653D01*
X047483Y022552D01*
X047535Y022463D01*
X047608Y022389D01*
X047698Y022337D01*
X047798Y022311D01*
X047902D01*
X048002Y022337D01*
X048092Y022389D01*
X048165Y022463D01*
X0482Y022524D01*
X048404D01*
X048473Y022537D01*
X048532Y022577D01*
X049151Y023196D01*
X049244Y023171D01*
X049356D01*
X049465Y0232D01*
X049563Y023257D01*
X049643Y023337D01*
X0497Y023435D01*
X049729Y023544D01*
Y023656D01*
X049704Y023749D01*
X049958Y024002D01*
X050164D01*
X050174Y023979D01*
X05018Y023952D01*
X050138Y023879D01*
X050115Y023794D01*
Y023706D01*
X050138Y023621D01*
X050182Y023545D01*
X050245Y023482D01*
X050321Y023438D01*
X050406Y023415D01*
X050494D01*
X050579Y023438D01*
X050655Y023482D01*
X050718Y023545D01*
X050762Y023621D01*
X050785Y023706D01*
Y023794D01*
X050762Y023879D01*
X05072Y023952D01*
X050726Y023979D01*
X050736Y024002D01*
X053942D01*
X054123Y023822D01*
X054115Y023794D01*
Y023706D01*
X054138Y023621D01*
X054182Y023545D01*
X054245Y023482D01*
X054321Y023438D01*
X054406Y023415D01*
X054494D01*
X054579Y023438D01*
X054655Y023482D01*
X054718Y023545D01*
X054762Y023621D01*
X054785Y023706D01*
Y023794D01*
X054762Y023879D01*
X054718Y023955D01*
X054655Y024018D01*
X054579Y024062D01*
X054494Y024085D01*
X054406D01*
X054378Y024077D01*
X054145Y024311D01*
X054086Y02435D01*
X054017Y024364D01*
D02*
G37*
G36*
X046837Y025898D02*
X028663D01*
X028594Y025885D01*
X028536Y025846D01*
X027072Y024382D01*
X027033Y024323D01*
X027019Y024254D01*
Y021241D01*
X026937Y021193D01*
X026857Y021113D01*
X0268Y021015D01*
X026771Y020906D01*
Y020794D01*
X0268Y020685D01*
X026857Y020587D01*
X026937Y020507D01*
X027019Y020459D01*
Y019499D01*
X026973Y01948D01*
X026969Y019485D01*
X026887Y019532D01*
X0268Y019555D01*
Y0192D01*
Y018845D01*
X026887Y018868D01*
X026969Y018915D01*
X026973Y01892D01*
X027019Y018901D01*
Y018475D01*
X026969Y018454D01*
X026955Y018468D01*
X026879Y018512D01*
X026794Y018535D01*
X026706D01*
X026621Y018512D01*
X026545Y018468D01*
X026482Y018405D01*
X026438Y018329D01*
X026415Y018244D01*
Y018156D01*
X026438Y018071D01*
X026482Y017995D01*
X026482Y017994D01*
X026479Y017989D01*
X026469Y017939D01*
Y017661D01*
X026395Y017618D01*
X026332Y017555D01*
X026288Y017479D01*
X026265Y017394D01*
Y017306D01*
X026288Y017221D01*
X026332Y017145D01*
X026395Y017082D01*
X026471Y017038D01*
X026556Y017015D01*
X026644D01*
X026729Y017038D01*
X026805Y017082D01*
X026868Y017145D01*
X026912Y017221D01*
X026935Y017306D01*
Y017394D01*
X026912Y017479D01*
X026868Y017555D01*
X026805Y017618D01*
X026731Y017661D01*
Y017865D01*
X026794D01*
X026879Y017888D01*
X026955Y017932D01*
X026969Y017946D01*
X027019Y017925D01*
Y014025D01*
X026672Y013677D01*
X026644Y013685D01*
X026556D01*
X026471Y013662D01*
X026395Y013618D01*
X026332Y013555D01*
X026288Y013479D01*
X026265Y013394D01*
Y013306D01*
X026273Y013278D01*
X025648Y012653D01*
X025164D01*
X02514Y012703D01*
X025193Y012773D01*
X025238Y012883D01*
X025254Y013D01*
Y0131D01*
X024346D01*
Y013D01*
X024362Y012883D01*
X024407Y012773D01*
X024449Y012718D01*
X024427Y012669D01*
X02439Y012665D01*
X024229Y012827D01*
Y013729D01*
X023371D01*
Y012571D01*
X023973D01*
X024199Y012345D01*
X024258Y012306D01*
X024327Y012292D01*
X025723D01*
X025792Y012306D01*
X025851Y012345D01*
X026528Y013023D01*
X026556Y013015D01*
X026644D01*
X026729Y013038D01*
X026805Y013082D01*
X026868Y013145D01*
X026912Y013221D01*
X026935Y013306D01*
Y013394D01*
X026927Y013422D01*
X027328Y013822D01*
X027367Y013881D01*
X027381Y01395D01*
Y020459D01*
X027463Y020507D01*
X027543Y020587D01*
X0276Y020685D01*
X027629Y020794D01*
Y020906D01*
X0276Y021015D01*
X027543Y021113D01*
X027463Y021193D01*
X027381Y021241D01*
Y02418D01*
X028738Y025537D01*
X036343D01*
X036362Y025491D01*
X035188Y024317D01*
X035149Y024258D01*
X035135Y024189D01*
Y017899D01*
X035149Y01783D01*
X035188Y017771D01*
X035777Y017183D01*
X035835Y017143D01*
X035904Y01713D01*
X03756D01*
X037629Y017143D01*
X037688Y017183D01*
X038228Y017723D01*
X038256Y017715D01*
X038344D01*
X038429Y017738D01*
X038505Y017782D01*
X038568Y017845D01*
X038612Y017921D01*
X038635Y018006D01*
Y018094D01*
X038612Y018179D01*
X038568Y018255D01*
X038505Y018318D01*
X038429Y018362D01*
X038344Y018385D01*
X038256D01*
X038171Y018362D01*
X038095Y018318D01*
X038032Y018255D01*
X037988Y018179D01*
X037965Y018094D01*
Y018006D01*
X037973Y017978D01*
X037485Y017491D01*
X037062D01*
X037043Y017537D01*
X037228Y017723D01*
X037256Y017715D01*
X037344D01*
X037429Y017738D01*
X037505Y017782D01*
X037568Y017845D01*
X037612Y017921D01*
X037635Y018006D01*
Y018094D01*
X037612Y018179D01*
X037568Y018255D01*
X037505Y018318D01*
X037429Y018362D01*
X037344Y018385D01*
X037256D01*
X037171Y018362D01*
X037095Y018318D01*
X037032Y018255D01*
X036988Y018179D01*
X036965Y018094D01*
Y018006D01*
X036973Y017978D01*
X036761Y017767D01*
X03656D01*
X03654Y017817D01*
X036568Y017845D01*
X036612Y017921D01*
X036635Y018006D01*
Y018094D01*
X036612Y018179D01*
X036568Y018255D01*
X036505Y018318D01*
X036429Y018362D01*
X036344Y018385D01*
X036256D01*
X036228Y018377D01*
X036048Y018558D01*
Y020764D01*
X036071Y020774D01*
X036098Y02078D01*
X036171Y020738D01*
X036256Y020715D01*
X036344D01*
X036429Y020738D01*
X036505Y020782D01*
X036568Y020845D01*
X036612Y020921D01*
X036635Y021006D01*
Y021094D01*
X036612Y021179D01*
X036568Y021255D01*
X036505Y021318D01*
X036481Y021332D01*
Y02393D01*
X03652Y023969D01*
X036566Y023944D01*
X036565Y02394D01*
Y021781D01*
X036579Y021712D01*
X036618Y021653D01*
X037026Y021245D01*
X036988Y021179D01*
X036965Y021094D01*
Y021006D01*
X036988Y020921D01*
X037032Y020845D01*
X037095Y020782D01*
X037171Y020738D01*
X037256Y020715D01*
X037344D01*
X037429Y020738D01*
X037505Y020782D01*
X037568Y020845D01*
X037612Y020921D01*
X037635Y021006D01*
Y021094D01*
X037612Y021179D01*
X037568Y021255D01*
X037505Y021318D01*
X037429Y021362D01*
X037397Y02137D01*
X037367Y021415D01*
X036926Y021856D01*
Y023865D01*
X03722Y024159D01*
X038171D01*
X038419Y023911D01*
Y023855D01*
X038358Y023819D01*
X038285Y023746D01*
X038233Y023656D01*
X038206Y023556D01*
Y023453D01*
X038233Y023352D01*
X038285Y023263D01*
X038358Y023189D01*
X038448Y023137D01*
X038548Y023111D01*
X038652D01*
X038752Y023137D01*
X038842Y023189D01*
X038915Y023263D01*
X038967Y023352D01*
X038994Y023453D01*
Y023556D01*
X038967Y023656D01*
X038915Y023746D01*
X038842Y023819D01*
X038781Y023855D01*
Y023985D01*
X038779Y023995D01*
X038825Y02402D01*
X039224Y023621D01*
X039206Y023556D01*
Y023453D01*
X039233Y023352D01*
X039285Y023263D01*
X039358Y023189D01*
X039448Y023137D01*
X039548Y023111D01*
X039652D01*
X039752Y023137D01*
X039842Y023189D01*
X039915Y023263D01*
X039967Y023352D01*
X039994Y023453D01*
Y023556D01*
X039967Y023656D01*
X039915Y023746D01*
X039842Y023819D01*
X039752Y023871D01*
X039652Y023898D01*
X039548D01*
X039477Y023879D01*
X038691Y024664D01*
X03871Y02471D01*
X039134D01*
X040224Y023621D01*
X040206Y023556D01*
Y023453D01*
X040233Y023352D01*
X040285Y023263D01*
X040358Y023189D01*
X040448Y023137D01*
X040548Y023111D01*
X040652D01*
X040752Y023137D01*
X040842Y023189D01*
X040915Y023263D01*
X040967Y023352D01*
X040994Y023453D01*
Y023556D01*
X040967Y023656D01*
X040915Y023746D01*
X040842Y023819D01*
X040752Y023871D01*
X040652Y023898D01*
X040548D01*
X040477Y023879D01*
X039416Y02494D01*
X039435Y024986D01*
X039859D01*
X041224Y023621D01*
X041206Y023556D01*
Y023453D01*
X041233Y023352D01*
X041285Y023263D01*
X041358Y023189D01*
X041448Y023137D01*
X041548Y023111D01*
X041652D01*
X041752Y023137D01*
X041842Y023189D01*
X041915Y023263D01*
X041967Y023352D01*
X041994Y023453D01*
Y023556D01*
X041967Y023656D01*
X041915Y023746D01*
X041842Y023819D01*
X041752Y023871D01*
X041652Y023898D01*
X041548D01*
X041477Y023879D01*
X04014Y025215D01*
X040159Y025262D01*
X040583D01*
X042224Y023621D01*
X042206Y023556D01*
Y023453D01*
X042233Y023352D01*
X042285Y023263D01*
X042358Y023189D01*
X042448Y023137D01*
X042548Y023111D01*
X042652D01*
X042752Y023137D01*
X042842Y023189D01*
X042915Y023263D01*
X042967Y023352D01*
X042994Y023453D01*
Y023556D01*
X042967Y023656D01*
X042915Y023746D01*
X042842Y023819D01*
X042752Y023871D01*
X042652Y023898D01*
X042548D01*
X042477Y023879D01*
X040865Y025491D01*
X040884Y025537D01*
X046762D01*
X047669Y02463D01*
Y024055D01*
X047608Y024019D01*
X047535Y023946D01*
X047483Y023856D01*
X047456Y023756D01*
Y023653D01*
X047483Y023552D01*
X047535Y023463D01*
X047608Y023389D01*
X047698Y023337D01*
X047798Y023311D01*
X047902D01*
X048002Y023337D01*
X048092Y023389D01*
X048165Y023463D01*
X048217Y023552D01*
X048244Y023653D01*
Y023756D01*
X048217Y023856D01*
X048165Y023946D01*
X048092Y024019D01*
X048031Y024055D01*
Y024704D01*
X048017Y024773D01*
X047978Y024832D01*
X046964Y025846D01*
X046906Y025885D01*
X046837Y025898D01*
D02*
G37*
G36*
X046Y024385D02*
X044304D01*
X044235Y024371D01*
X044177Y024332D01*
X043723Y023879D01*
X043652Y023898D01*
X043548D01*
X043448Y023871D01*
X043358Y023819D01*
X043285Y023746D01*
X043233Y023656D01*
X043206Y023556D01*
Y023453D01*
X043233Y023352D01*
X043285Y023263D01*
X043358Y023189D01*
X043448Y023137D01*
X043548Y023111D01*
X043652D01*
X043752Y023137D01*
X043842Y023189D01*
X043915Y023263D01*
X043967Y023352D01*
X043994Y023453D01*
Y023556D01*
X043976Y023621D01*
X044379Y024024D01*
X045925D01*
X046069Y02388D01*
Y02296D01*
X046052Y022948D01*
X046019Y02294D01*
X045332Y023628D01*
X045273Y023667D01*
X045204Y023681D01*
X044953D01*
X044915Y023746D01*
X044842Y023819D01*
X044752Y023871D01*
X044652Y023898D01*
X044548D01*
X044448Y023871D01*
X044358Y023819D01*
X044285Y023746D01*
X044233Y023656D01*
X044206Y023556D01*
Y023453D01*
X044233Y023352D01*
X044285Y023263D01*
X044358Y023189D01*
X044448Y023137D01*
X044548Y023111D01*
X044652D01*
X044752Y023137D01*
X044842Y023189D01*
X044915Y023263D01*
X044948Y023319D01*
X04513D01*
X045719Y02273D01*
Y018929D01*
X045454Y018664D01*
X043733D01*
X043664Y01865D01*
X043605Y018611D01*
X043372Y018377D01*
X043344Y018385D01*
X043256D01*
X043171Y018362D01*
X043095Y018318D01*
X043032Y018255D01*
X042988Y018179D01*
X042965Y018094D01*
Y018006D01*
X042988Y017921D01*
X043032Y017845D01*
X043095Y017782D01*
X043171Y017738D01*
X043256Y017715D01*
X043344D01*
X043429Y017738D01*
X043505Y017782D01*
X043568Y017845D01*
X043612Y017921D01*
X043635Y018006D01*
Y018094D01*
X043627Y018122D01*
X043808Y018302D01*
X044014D01*
X044024Y018279D01*
X04403Y018252D01*
X043988Y018179D01*
X043965Y018094D01*
Y018006D01*
X043988Y017921D01*
X044032Y017845D01*
X044095Y017782D01*
X044171Y017738D01*
X044181Y017736D01*
X044193Y017671D01*
X044233Y017612D01*
X044277Y017568D01*
X044258Y017522D01*
X043083D01*
X042627Y017978D01*
X042635Y018006D01*
Y018094D01*
X042612Y018179D01*
X042568Y018255D01*
X042505Y018318D01*
X042429Y018362D01*
X042344Y018385D01*
X042256D01*
X042171Y018362D01*
X042095Y018318D01*
X042032Y018255D01*
X041988Y018179D01*
X041965Y018094D01*
Y018006D01*
X041988Y017921D01*
X042032Y017845D01*
X042095Y017782D01*
X042171Y017738D01*
X042256Y017715D01*
X042344D01*
X042372Y017723D01*
X042881Y017214D01*
X04294Y017174D01*
X043009Y017161D01*
X045827D01*
X045896Y017174D01*
X045954Y017214D01*
X046918Y018177D01*
X046957Y018236D01*
X046971Y018305D01*
Y02057D01*
X04773Y021329D01*
X047798Y021311D01*
X047902D01*
X048002Y021337D01*
X048092Y021389D01*
X048165Y021463D01*
X048217Y021552D01*
X048244Y021653D01*
Y021756D01*
X048217Y021856D01*
X048165Y021946D01*
X048092Y022019D01*
X048002Y022071D01*
X047902Y022098D01*
X047798D01*
X047698Y022071D01*
X047608Y022019D01*
X047535Y021946D01*
X047483Y021856D01*
X047456Y021756D01*
Y021653D01*
X047475Y021584D01*
X046663Y020772D01*
X046623Y020714D01*
X04661Y020645D01*
Y01838D01*
X046477Y018247D01*
X046431Y018266D01*
Y023954D01*
X046417Y024023D01*
X046378Y024082D01*
X046128Y024332D01*
X046069Y024371D01*
X046Y024385D01*
D02*
G37*
G36*
X024855Y023169D02*
X02485D01*
Y022804D01*
X025215D01*
Y022809D01*
X025187Y022915D01*
X025132Y023009D01*
X025055Y023086D01*
X02496Y023141D01*
X024855Y023169D01*
D02*
G37*
G36*
X02475D02*
X024745D01*
X02464Y023141D01*
X024545Y023086D01*
X024468Y023009D01*
X024413Y022915D01*
X024385Y022809D01*
Y022804D01*
X02475D01*
Y023169D01*
D02*
G37*
G36*
X049359Y02305D02*
X04935D01*
Y02265D01*
X04975D01*
Y022659D01*
X049719Y022774D01*
X04966Y022876D01*
X049576Y02296D01*
X049474Y023019D01*
X049359Y02305D01*
D02*
G37*
G36*
X04925D02*
X049241D01*
X049126Y023019D01*
X049024Y02296D01*
X04894Y022876D01*
X048881Y022774D01*
X04885Y022659D01*
Y02265D01*
X04925D01*
Y02305D01*
D02*
G37*
G36*
X059158Y023473D02*
X057184D01*
X057115Y023459D01*
X057056Y02342D01*
X056317Y022681D01*
X054732D01*
X054718Y022705D01*
X054655Y022768D01*
X054579Y022812D01*
X054494Y022835D01*
X054406D01*
X054321Y022812D01*
X054245Y022768D01*
X054182Y022705D01*
X054168Y022681D01*
X052805D01*
X052736Y022667D01*
X052677Y022628D01*
X049919Y019869D01*
X049426D01*
Y019121D01*
X049619D01*
Y016631D01*
X048064Y015075D01*
X048014Y015096D01*
Y015135D01*
X047186D01*
Y015045D01*
X047201Y014938D01*
X047242Y014838D01*
X047308Y014753D01*
X047393Y014687D01*
X047493Y014646D01*
X047555Y014637D01*
X047573Y014585D01*
X046519Y013531D01*
X032406D01*
X032387Y013577D01*
X033483Y014673D01*
X033499Y014666D01*
X0336Y014653D01*
X033701Y014666D01*
X033796Y014705D01*
X033877Y014768D01*
X03394Y014849D01*
X033979Y014944D01*
X033992Y015045D01*
Y015325D01*
X033979Y015426D01*
X03394Y015521D01*
X033877Y015602D01*
X033796Y015665D01*
X033701Y015704D01*
X0336Y015717D01*
X033499Y015704D01*
X033404Y015665D01*
X033388Y015652D01*
X033236Y015804D01*
X033215Y015836D01*
X033111Y01594D01*
X033079Y015961D01*
X032331Y01671D01*
Y018671D01*
X032554D01*
Y019729D01*
X031746D01*
Y018671D01*
X031969D01*
Y016635D01*
X031983Y016566D01*
X032022Y016507D01*
X032748Y015781D01*
X032729Y015735D01*
X03265D01*
Y015185D01*
Y014635D01*
X032869D01*
X032888Y014589D01*
X03183Y013531D01*
X028932D01*
X028918Y013555D01*
X028855Y013618D01*
X028779Y013662D01*
X028694Y013685D01*
X028606D01*
X028521Y013662D01*
X028445Y013618D01*
X028382Y013555D01*
X028338Y013479D01*
X028315Y013394D01*
Y013306D01*
X028338Y013221D01*
X028382Y013145D01*
X028445Y013082D01*
X028521Y013038D01*
X028606Y013015D01*
X028694D01*
X028779Y013038D01*
X028855Y013082D01*
X028918Y013145D01*
X028932Y013169D01*
X046594D01*
X046663Y013183D01*
X046722Y013222D01*
X049928Y016428D01*
X049967Y016487D01*
X049981Y016556D01*
Y019121D01*
X050174D01*
Y019614D01*
X05288Y022319D01*
X054168D01*
X054182Y022295D01*
X054245Y022232D01*
X054321Y022188D01*
X054406Y022165D01*
X054494D01*
X054579Y022188D01*
X054655Y022232D01*
X054718Y022295D01*
X054732Y022319D01*
X056392D01*
X056461Y022333D01*
X05652Y022372D01*
X057259Y023111D01*
X058309D01*
X058328Y023065D01*
X058318Y023055D01*
X058263Y02296D01*
X058235Y022855D01*
Y02285D01*
X05865D01*
X059065D01*
Y022855D01*
X059037Y02296D01*
X058982Y023055D01*
X058972Y023065D01*
X058991Y023111D01*
X059083D01*
X059275Y02292D01*
X059256Y022852D01*
Y022748D01*
X059283Y022648D01*
X059335Y022558D01*
X059408Y022485D01*
X059498Y022433D01*
X059598Y022406D01*
X059702D01*
X059802Y022433D01*
X059892Y022485D01*
X059965Y022558D01*
X060017Y022648D01*
X060044Y022748D01*
Y022852D01*
X060017Y022952D01*
X059965Y023042D01*
X059892Y023115D01*
X059802Y023167D01*
X059702Y023194D01*
X059598D01*
X05953Y023175D01*
X059286Y02342D01*
X059227Y023459D01*
X059158Y023473D01*
D02*
G37*
G36*
X059065Y02275D02*
X0587D01*
Y022385D01*
X058705D01*
X05881Y022413D01*
X058905Y022468D01*
X058982Y022545D01*
X059037Y02264D01*
X059065Y022745D01*
Y02275D01*
D02*
G37*
G36*
X0586D02*
X058235D01*
Y022745D01*
X058257Y022663D01*
X0574Y021806D01*
X056675D01*
X056606Y021792D01*
X056547Y021753D01*
X055637Y020843D01*
X055555Y020865D01*
X05555D01*
Y0205D01*
X055915D01*
Y020505D01*
X055893Y020587D01*
X05675Y021444D01*
X057475D01*
X057544Y021458D01*
X057603Y021497D01*
X058513Y022407D01*
X058595Y022385D01*
X0586D01*
Y02275D01*
D02*
G37*
G36*
X023852Y023148D02*
X023748D01*
X023648Y023121D01*
X023558Y023069D01*
X023485Y022996D01*
X023433Y022906D01*
X023406Y022806D01*
Y022703D01*
X023433Y022602D01*
X023485Y022513D01*
X023558Y022439D01*
X023648Y022387D01*
X023748Y022361D01*
X023852D01*
X023952Y022387D01*
X024042Y022439D01*
X024115Y022513D01*
X024167Y022602D01*
X024194Y022703D01*
Y022806D01*
X024167Y022906D01*
X024115Y022996D01*
X024042Y023069D01*
X023952Y023121D01*
X023852Y023148D01*
D02*
G37*
G36*
X025215Y022704D02*
X02485D01*
Y022339D01*
X024855D01*
X02496Y022368D01*
X025055Y022422D01*
X025132Y0225D01*
X025187Y022594D01*
X025215Y0227D01*
Y022704D01*
D02*
G37*
G36*
X02475D02*
X024385D01*
Y0227D01*
X024413Y022594D01*
X024468Y0225D01*
X024545Y022422D01*
X02464Y022368D01*
X024745Y022339D01*
X02475D01*
Y022704D01*
D02*
G37*
G36*
X050494Y022835D02*
X050406D01*
X050321Y022812D01*
X050245Y022768D01*
X050182Y022705D01*
X050138Y022629D01*
X050115Y022544D01*
Y022456D01*
X050138Y022373D01*
X048443Y020678D01*
X048414Y020636D01*
X048404Y020585D01*
Y017315D01*
X046766Y015677D01*
X046701Y015704D01*
X0466Y015717D01*
X046499Y015704D01*
X046404Y015665D01*
X046323Y015602D01*
X04626Y015521D01*
X046221Y015426D01*
X046208Y015325D01*
Y015045D01*
X046221Y014944D01*
X04626Y014849D01*
X046323Y014768D01*
X046404Y014705D01*
X046499Y014666D01*
X0466Y014653D01*
X046701Y014666D01*
X046796Y014705D01*
X046877Y014768D01*
X04694Y014849D01*
X046979Y014944D01*
X046992Y015045D01*
Y015325D01*
X046979Y015426D01*
X046952Y015491D01*
X048628Y017168D01*
X048657Y01721D01*
X048667Y01726D01*
Y020531D01*
X050323Y022188D01*
X050406Y022165D01*
X050494D01*
X050579Y022188D01*
X050655Y022232D01*
X050718Y022295D01*
X050762Y022371D01*
X050785Y022456D01*
Y022544D01*
X050762Y022629D01*
X050718Y022705D01*
X050655Y022768D01*
X050579Y022812D01*
X050494Y022835D01*
D02*
G37*
G36*
X04975Y02255D02*
X04935D01*
Y02215D01*
X049359D01*
X049474Y022181D01*
X049576Y02224D01*
X04966Y022324D01*
X049719Y022426D01*
X04975Y022541D01*
Y02255D01*
D02*
G37*
G36*
X04925D02*
X04885D01*
Y022541D01*
X048881Y022426D01*
X04894Y022324D01*
X049024Y02224D01*
X049126Y022181D01*
X049241Y02215D01*
X04925D01*
Y02255D01*
D02*
G37*
G36*
X024859Y0213D02*
X02485D01*
Y0209D01*
X02525D01*
Y020909D01*
X025219Y021024D01*
X02516Y021126D01*
X025076Y02121D01*
X024974Y021269D01*
X024859Y0213D01*
D02*
G37*
G36*
X026259D02*
X02625D01*
Y0209D01*
X02665D01*
Y020909D01*
X026619Y021024D01*
X02656Y021126D01*
X026476Y02121D01*
X026374Y021269D01*
X026259Y0213D01*
D02*
G37*
G36*
X02615D02*
X026141D01*
X026026Y021269D01*
X025924Y02121D01*
X02584Y021126D01*
X025781Y021024D01*
X02575Y020909D01*
Y0209D01*
X02615D01*
Y0213D01*
D02*
G37*
G36*
X02475D02*
X024741D01*
X024626Y021269D01*
X024524Y02121D01*
X02444Y021126D01*
X024381Y021024D01*
X02435Y020909D01*
Y0209D01*
X02475D01*
Y0213D01*
D02*
G37*
G36*
X047905Y021119D02*
X0479D01*
Y020754D01*
X048265D01*
Y020759D01*
X048237Y020865D01*
X048182Y020959D01*
X048105Y021036D01*
X04801Y021091D01*
X047905Y021119D01*
D02*
G37*
G36*
X0478D02*
X047795D01*
X04769Y021091D01*
X047595Y021036D01*
X047518Y020959D01*
X047463Y020865D01*
X047435Y020759D01*
Y020754D01*
X0478D01*
Y021119D01*
D02*
G37*
G36*
X045344Y021385D02*
X045256D01*
X045171Y021362D01*
X045095Y021318D01*
X045032Y021255D01*
X044988Y021179D01*
X044965Y021094D01*
Y021006D01*
X044988Y020921D01*
X045032Y020845D01*
X045095Y020782D01*
X045171Y020738D01*
X045256Y020715D01*
X045344D01*
X045429Y020738D01*
X045505Y020782D01*
X045568Y020845D01*
X045612Y020921D01*
X045635Y021006D01*
Y021094D01*
X045612Y021179D01*
X045568Y021255D01*
X045505Y021318D01*
X045429Y021362D01*
X045344Y021385D01*
D02*
G37*
G36*
X044344D02*
X044256D01*
X044171Y021362D01*
X044095Y021318D01*
X044032Y021255D01*
X043988Y021179D01*
X043965Y021094D01*
Y021006D01*
X043988Y020921D01*
X044032Y020845D01*
X044095Y020782D01*
X044171Y020738D01*
X044256Y020715D01*
X044344D01*
X044429Y020738D01*
X044505Y020782D01*
X044568Y020845D01*
X044612Y020921D01*
X044635Y021006D01*
Y021094D01*
X044612Y021179D01*
X044568Y021255D01*
X044505Y021318D01*
X044429Y021362D01*
X044344Y021385D01*
D02*
G37*
G36*
X043344D02*
X043256D01*
X043171Y021362D01*
X043095Y021318D01*
X043032Y021255D01*
X042988Y021179D01*
X042965Y021094D01*
Y021006D01*
X042988Y020921D01*
X043032Y020845D01*
X043095Y020782D01*
X043171Y020738D01*
X043256Y020715D01*
X043344D01*
X043429Y020738D01*
X043505Y020782D01*
X043568Y020845D01*
X043612Y020921D01*
X043635Y021006D01*
Y021094D01*
X043612Y021179D01*
X043568Y021255D01*
X043505Y021318D01*
X043429Y021362D01*
X043344Y021385D01*
D02*
G37*
G36*
X042344D02*
X042256D01*
X042171Y021362D01*
X042095Y021318D01*
X042032Y021255D01*
X041988Y021179D01*
X041965Y021094D01*
Y021006D01*
X041988Y020921D01*
X042032Y020845D01*
X042095Y020782D01*
X042171Y020738D01*
X042256Y020715D01*
X042344D01*
X042429Y020738D01*
X042505Y020782D01*
X042568Y020845D01*
X042612Y020921D01*
X042635Y021006D01*
Y021094D01*
X042612Y021179D01*
X042568Y021255D01*
X042505Y021318D01*
X042429Y021362D01*
X042344Y021385D01*
D02*
G37*
G36*
X041344D02*
X041256D01*
X041171Y021362D01*
X041095Y021318D01*
X041032Y021255D01*
X040988Y021179D01*
X040965Y021094D01*
Y021006D01*
X040988Y020921D01*
X041032Y020845D01*
X041095Y020782D01*
X041171Y020738D01*
X041256Y020715D01*
X041344D01*
X041429Y020738D01*
X041505Y020782D01*
X041568Y020845D01*
X041612Y020921D01*
X041635Y021006D01*
Y021094D01*
X041612Y021179D01*
X041568Y021255D01*
X041505Y021318D01*
X041429Y021362D01*
X041344Y021385D01*
D02*
G37*
G36*
X040344D02*
X040256D01*
X040171Y021362D01*
X040095Y021318D01*
X040032Y021255D01*
X039988Y021179D01*
X039965Y021094D01*
Y021006D01*
X039988Y020921D01*
X040032Y020845D01*
X040095Y020782D01*
X040171Y020738D01*
X040256Y020715D01*
X040344D01*
X040429Y020738D01*
X040505Y020782D01*
X040568Y020845D01*
X040612Y020921D01*
X040635Y021006D01*
Y021094D01*
X040612Y021179D01*
X040568Y021255D01*
X040505Y021318D01*
X040429Y021362D01*
X040344Y021385D01*
D02*
G37*
G36*
X039344D02*
X039256D01*
X039171Y021362D01*
X039095Y021318D01*
X039032Y021255D01*
X038988Y021179D01*
X038965Y021094D01*
Y021006D01*
X038988Y020921D01*
X039032Y020845D01*
X039095Y020782D01*
X039171Y020738D01*
X039256Y020715D01*
X039344D01*
X039429Y020738D01*
X039505Y020782D01*
X039568Y020845D01*
X039612Y020921D01*
X039635Y021006D01*
Y021094D01*
X039612Y021179D01*
X039568Y021255D01*
X039505Y021318D01*
X039429Y021362D01*
X039344Y021385D01*
D02*
G37*
G36*
X037652Y023898D02*
X037548D01*
X037448Y023871D01*
X037358Y023819D01*
X037285Y023746D01*
X037233Y023656D01*
X037206Y023556D01*
Y023453D01*
X037233Y023352D01*
X037285Y023263D01*
X037358Y023189D01*
X037419Y023154D01*
Y02175D01*
X037433Y021681D01*
X037472Y021622D01*
X037973Y021122D01*
X037965Y021094D01*
Y021006D01*
X037988Y020921D01*
X038032Y020845D01*
X038095Y020782D01*
X038171Y020738D01*
X038256Y020715D01*
X038344D01*
X038429Y020738D01*
X038505Y020782D01*
X038568Y020845D01*
X038612Y020921D01*
X038635Y021006D01*
Y021094D01*
X038612Y021179D01*
X038568Y021255D01*
X038505Y021318D01*
X038429Y021362D01*
X038344Y021385D01*
X038256D01*
X038228Y021377D01*
X037781Y021825D01*
Y023154D01*
X037842Y023189D01*
X037915Y023263D01*
X037967Y023352D01*
X037994Y023453D01*
Y023556D01*
X037967Y023656D01*
X037915Y023746D01*
X037842Y023819D01*
X037752Y023871D01*
X037652Y023898D01*
D02*
G37*
G36*
X05545Y020865D02*
X055445D01*
X05534Y020837D01*
X055245Y020782D01*
X055168Y020705D01*
X055113Y02061D01*
X055085Y020505D01*
Y0205D01*
X05545D01*
Y020865D01*
D02*
G37*
G36*
X023856Y021279D02*
X023744D01*
X023635Y02125D01*
X023537Y021193D01*
X023457Y021113D01*
X0234Y021015D01*
X023371Y020906D01*
Y020794D01*
X0234Y020685D01*
X023457Y020587D01*
X023537Y020507D01*
X023635Y02045D01*
X023744Y020421D01*
X023856D01*
X023965Y02045D01*
X024063Y020507D01*
X024143Y020587D01*
X0242Y020685D01*
X024229Y020794D01*
Y020906D01*
X0242Y021015D01*
X024143Y021113D01*
X024063Y021193D01*
X023965Y02125D01*
X023856Y021279D01*
D02*
G37*
G36*
X02665Y0208D02*
X02625D01*
Y0204D01*
X026259D01*
X026374Y020431D01*
X026476Y02049D01*
X02656Y020574D01*
X026619Y020676D01*
X02665Y020791D01*
Y0208D01*
D02*
G37*
G36*
X02615D02*
X02575D01*
Y020791D01*
X025781Y020676D01*
X02584Y020574D01*
X025924Y02049D01*
X026026Y020431D01*
X026141Y0204D01*
X02615D01*
Y0208D01*
D02*
G37*
G36*
X02525D02*
X02485D01*
Y0204D01*
X024859D01*
X024974Y020431D01*
X025076Y02049D01*
X02516Y020574D01*
X025219Y020676D01*
X02525Y020791D01*
Y0208D01*
D02*
G37*
G36*
X02475D02*
X02435D01*
Y020791D01*
X024381Y020676D01*
X02444Y020574D01*
X024524Y02049D01*
X024626Y020431D01*
X024741Y0204D01*
X02475D01*
Y0208D01*
D02*
G37*
G36*
X048265Y020654D02*
X0479D01*
Y020289D01*
X047905D01*
X04801Y020318D01*
X048105Y020372D01*
X048182Y02045D01*
X048237Y020544D01*
X048265Y02065D01*
Y020654D01*
D02*
G37*
G36*
X0478D02*
X047435D01*
Y02065D01*
X047463Y020544D01*
X047518Y02045D01*
X047595Y020372D01*
X04769Y020318D01*
X047795Y020289D01*
X0478D01*
Y020654D01*
D02*
G37*
G36*
X055915Y0204D02*
X05555D01*
Y020035D01*
X055555D01*
X05566Y020063D01*
X055755Y020118D01*
X055832Y020195D01*
X055887Y02029D01*
X055915Y020395D01*
Y0204D01*
D02*
G37*
G36*
X05545D02*
X055085D01*
Y020395D01*
X055113Y02029D01*
X055168Y020195D01*
X055245Y020118D01*
X05534Y020063D01*
X055445Y020035D01*
X05545D01*
Y0204D01*
D02*
G37*
G36*
X02865Y019555D02*
Y01925D01*
X028955D01*
X028932Y019337D01*
X028885Y019419D01*
X028819Y019485D01*
X028737Y019532D01*
X02865Y019555D01*
D02*
G37*
G36*
X0342Y019747D02*
Y01925D01*
X034579D01*
Y019325D01*
X034564Y019436D01*
X034521Y019539D01*
X034453Y019628D01*
X034364Y019696D01*
X034261Y019739D01*
X0342Y019747D01*
D02*
G37*
G36*
X0341D02*
X034039Y019739D01*
X033936Y019696D01*
X033847Y019628D01*
X033779Y019539D01*
X033736Y019436D01*
X033721Y019325D01*
Y01925D01*
X0341D01*
Y019747D01*
D02*
G37*
G36*
X02855Y019555D02*
X028463Y019532D01*
X028381Y019485D01*
X028315Y019419D01*
X028268Y019337D01*
X028245Y01925D01*
X02855D01*
Y019555D01*
D02*
G37*
G36*
X0267D02*
X026613Y019532D01*
X026531Y019485D01*
X026465Y019419D01*
X026418Y019337D01*
X026395Y01925D01*
X0267D01*
Y019555D01*
D02*
G37*
G36*
X028955Y01915D02*
X02865D01*
Y018845D01*
X028737Y018868D01*
X028819Y018915D01*
X028885Y018981D01*
X028932Y019063D01*
X028955Y01915D01*
D02*
G37*
G36*
X02855D02*
X028245D01*
X028268Y019063D01*
X028315Y018981D01*
X028381Y018915D01*
X028463Y018868D01*
X02855Y018845D01*
Y01915D01*
D02*
G37*
G36*
X0267D02*
X026395D01*
X026418Y019063D01*
X026465Y018981D01*
X026531Y018915D01*
X026613Y018868D01*
X0267Y018845D01*
Y01915D01*
D02*
G37*
G36*
X02485Y019297D02*
Y01875D01*
X025254D01*
Y01885D01*
X025238Y018967D01*
X025193Y019077D01*
X025121Y019171D01*
X025027Y019243D01*
X024917Y019288D01*
X02485Y019297D01*
D02*
G37*
G36*
X02475D02*
X024683Y019288D01*
X024573Y019243D01*
X024479Y019171D01*
X024407Y019077D01*
X024362Y018967D01*
X024346Y01885D01*
Y01875D01*
X02475D01*
Y019297D01*
D02*
G37*
G36*
X034579Y01915D02*
X0342D01*
Y018653D01*
X034261Y018661D01*
X034364Y018704D01*
X034453Y018772D01*
X034521Y018861D01*
X034564Y018964D01*
X034579Y019075D01*
Y01915D01*
D02*
G37*
G36*
X0341D02*
X033721D01*
Y019075D01*
X033736Y018964D01*
X033779Y018861D01*
X033847Y018772D01*
X033936Y018704D01*
X034039Y018661D01*
X0341Y018653D01*
Y01915D01*
D02*
G37*
G36*
X055605Y018515D02*
X0556D01*
Y01815D01*
X055965D01*
Y018155D01*
X055937Y01826D01*
X055882Y018355D01*
X055805Y018432D01*
X05571Y018487D01*
X055605Y018515D01*
D02*
G37*
G36*
X0555D02*
X055495D01*
X05539Y018487D01*
X055295Y018432D01*
X055218Y018355D01*
X055163Y01826D01*
X055135Y018155D01*
Y01815D01*
X0555D01*
Y018515D01*
D02*
G37*
G36*
X024229Y019279D02*
X023371D01*
Y018121D01*
X024229D01*
Y019279D01*
D02*
G37*
G36*
X025254Y01865D02*
X02485D01*
Y018103D01*
X024917Y018112D01*
X025027Y018157D01*
X025121Y018229D01*
X025193Y018323D01*
X025238Y018433D01*
X025254Y01855D01*
Y01865D01*
D02*
G37*
G36*
X02475D02*
X024346D01*
Y01855D01*
X024362Y018433D01*
X024407Y018323D01*
X024479Y018229D01*
X024573Y018157D01*
X024683Y018112D01*
X02475Y018103D01*
Y01865D01*
D02*
G37*
G36*
X028644Y018535D02*
X028556D01*
X028471Y018512D01*
X028395Y018468D01*
X028332Y018405D01*
X028288Y018329D01*
X028265Y018244D01*
Y018156D01*
X028288Y018071D01*
X028332Y017995D01*
X028395Y017932D01*
X028471Y017888D01*
X028556Y017865D01*
X028644D01*
X028729Y017888D01*
X028805Y017932D01*
X028868Y017995D01*
X028912Y018071D01*
X028935Y018156D01*
Y018244D01*
X028912Y018329D01*
X028868Y018405D01*
X028805Y018468D01*
X028729Y018512D01*
X028644Y018535D01*
D02*
G37*
G36*
X041344Y018385D02*
X041256D01*
X041171Y018362D01*
X041095Y018318D01*
X041032Y018255D01*
X040988Y018179D01*
X040965Y018094D01*
Y018006D01*
X040988Y017921D01*
X041032Y017845D01*
X041095Y017782D01*
X041171Y017738D01*
X041256Y017715D01*
X041344D01*
X041429Y017738D01*
X041505Y017782D01*
X041568Y017845D01*
X041612Y017921D01*
X041635Y018006D01*
Y018094D01*
X041612Y018179D01*
X041568Y018255D01*
X041505Y018318D01*
X041429Y018362D01*
X041344Y018385D01*
D02*
G37*
G36*
X040344D02*
X040256D01*
X040171Y018362D01*
X040095Y018318D01*
X040032Y018255D01*
X039988Y018179D01*
X039965Y018094D01*
Y018006D01*
X039988Y017921D01*
X039992Y017915D01*
X037757Y015681D01*
X037701Y015704D01*
X0376Y015717D01*
X037499Y015704D01*
X037404Y015665D01*
X037323Y015602D01*
X03726Y015521D01*
X037221Y015426D01*
X037208Y015325D01*
Y015045D01*
X037221Y014944D01*
X03726Y014849D01*
X037323Y014768D01*
X037404Y014705D01*
X037499Y014666D01*
X0376Y014653D01*
X037701Y014666D01*
X037796Y014705D01*
X037877Y014768D01*
X03794Y014849D01*
X037979Y014944D01*
X037992Y015045D01*
Y015325D01*
X037979Y015426D01*
X037948Y0155D01*
X040183Y017735D01*
X040256Y017715D01*
X040344D01*
X040429Y017738D01*
X040505Y017782D01*
X040568Y017845D01*
X040612Y017921D01*
X040635Y018006D01*
Y018094D01*
X040612Y018179D01*
X040568Y018255D01*
X040505Y018318D01*
X040429Y018362D01*
X040344Y018385D01*
D02*
G37*
G36*
X039344D02*
X039256D01*
X039171Y018362D01*
X039095Y018318D01*
X039032Y018255D01*
X038988Y018179D01*
X038965Y018094D01*
Y018006D01*
X038988Y017923D01*
X037893Y016829D01*
X036973D01*
X036923Y016819D01*
X03688Y016791D01*
X035766Y015677D01*
X035701Y015704D01*
X0356Y015717D01*
X035499Y015704D01*
X035404Y015665D01*
X035323Y015602D01*
X03526Y015521D01*
X035221Y015426D01*
X035208Y015325D01*
Y015045D01*
X035221Y014944D01*
X03526Y014849D01*
X035323Y014768D01*
X035404Y014705D01*
X035499Y014666D01*
X0356Y014653D01*
X035701Y014666D01*
X035796Y014705D01*
X035877Y014768D01*
X03594Y014849D01*
X035979Y014944D01*
X035992Y015045D01*
Y015325D01*
X035979Y015426D01*
X035952Y015491D01*
X037027Y016567D01*
X037948D01*
X037998Y016577D01*
X038041Y016605D01*
X039173Y017738D01*
X039256Y017715D01*
X039344D01*
X039429Y017738D01*
X039505Y017782D01*
X039568Y017845D01*
X039612Y017921D01*
X039635Y018006D01*
Y018094D01*
X039612Y018179D01*
X039568Y018255D01*
X039505Y018318D01*
X039429Y018362D01*
X039344Y018385D01*
D02*
G37*
G36*
X052849Y019874D02*
X052751D01*
X052656Y019849D01*
X05257Y019799D01*
X052501Y01973D01*
X052451Y019644D01*
X052426Y019549D01*
Y019451D01*
X052451Y019356D01*
X052501Y01927D01*
X05257Y019201D01*
X052656Y019151D01*
X052751Y019126D01*
X052849D01*
X052944Y019151D01*
X05303Y019201D01*
X053099Y01927D01*
X053149Y019356D01*
X053152Y019369D01*
X055096D01*
X056194Y018271D01*
X056183Y018252D01*
X056156Y018152D01*
Y018048D01*
X056183Y017948D01*
X056235Y017858D01*
X056308Y017785D01*
X056398Y017733D01*
X056498Y017706D01*
X056602D01*
X056702Y017733D01*
X056792Y017785D01*
X056865Y017858D01*
X056917Y017948D01*
X056944Y018048D01*
Y018152D01*
X056917Y018252D01*
X056865Y018342D01*
X056792Y018415D01*
X056702Y018467D01*
X056602Y018494D01*
X056498D01*
X056398Y018467D01*
X056379Y018456D01*
X055243Y019593D01*
X0552Y019621D01*
X05515Y019631D01*
X053152D01*
X053149Y019644D01*
X053099Y01973D01*
X05303Y019799D01*
X052944Y019849D01*
X052849Y019874D01*
D02*
G37*
G36*
X055965Y01805D02*
X0556D01*
Y017685D01*
X055605D01*
X05571Y017713D01*
X055805Y017768D01*
X055882Y017845D01*
X055937Y01794D01*
X055965Y018045D01*
Y01805D01*
D02*
G37*
G36*
X0555D02*
X055135D01*
Y018045D01*
X055163Y01794D01*
X055218Y017845D01*
X055295Y017768D01*
X05539Y017713D01*
X055495Y017685D01*
X0555D01*
Y01805D01*
D02*
G37*
G36*
X060702Y023194D02*
X060598D01*
X060498Y023167D01*
X060408Y023115D01*
X060335Y023042D01*
X060283Y022952D01*
X060256Y022852D01*
Y022748D01*
X060283Y022648D01*
X060294Y022629D01*
X059421Y021756D01*
X058048D01*
X057997Y021746D01*
X057955Y021718D01*
X056911Y020674D01*
X056825D01*
X056815Y020692D01*
X056742Y020765D01*
X056652Y020817D01*
X056552Y020844D01*
X056448D01*
X056348Y020817D01*
X056258Y020765D01*
X056185Y020692D01*
X056133Y020602D01*
X056106Y020502D01*
Y020398D01*
X056133Y020298D01*
X056185Y020208D01*
X056258Y020135D01*
X056348Y020083D01*
X056448Y020056D01*
X056552D01*
X056652Y020083D01*
X056742Y020135D01*
X056815Y020208D01*
X056867Y020298D01*
X056894Y020398D01*
Y020411D01*
X056965D01*
X057015Y020421D01*
X057056Y020449D01*
X057078Y020444D01*
X057106Y020433D01*
Y020398D01*
X057133Y020298D01*
X057185Y020208D01*
X057258Y020135D01*
X057348Y020083D01*
X057448Y020056D01*
X057552D01*
X057652Y020083D01*
X057742Y020135D01*
X057815Y020208D01*
X057867Y020298D01*
X057894Y020398D01*
Y020502D01*
X057867Y020602D01*
X057856Y020621D01*
X058265Y02103D01*
X058315Y021009D01*
Y020956D01*
X058338Y020871D01*
X058382Y020795D01*
X058445Y020732D01*
X058521Y020688D01*
X058606Y020665D01*
X058694D01*
X058779Y020688D01*
X058855Y020732D01*
X058918Y020795D01*
X058962Y020871D01*
X058985Y020956D01*
Y021044D01*
X058962Y021129D01*
X058919Y021203D01*
X058925Y02123D01*
X058935Y021253D01*
X059465D01*
X059475Y02123D01*
X059481Y021203D01*
X059438Y021129D01*
X059415Y021044D01*
Y020956D01*
X059438Y020871D01*
X059482Y020795D01*
X059545Y020732D01*
X059619Y020689D01*
Y020354D01*
X057721Y018456D01*
X057702Y018467D01*
X057602Y018494D01*
X057498D01*
X057398Y018467D01*
X057308Y018415D01*
X057235Y018342D01*
X057183Y018252D01*
X057156Y018152D01*
Y018048D01*
X057183Y017948D01*
X057235Y017858D01*
X057308Y017785D01*
X057398Y017733D01*
X057498Y017706D01*
X057602D01*
X057702Y017733D01*
X057792Y017785D01*
X057865Y017858D01*
X057917Y017948D01*
X057944Y018048D01*
Y018152D01*
X057917Y018252D01*
X057906Y018271D01*
X059843Y020207D01*
X059871Y02025D01*
X059881Y0203D01*
Y020689D01*
X059955Y020732D01*
X060018Y020795D01*
X060062Y020871D01*
X060085Y020956D01*
Y021044D01*
X060062Y021129D01*
X060019Y021203D01*
X060025Y02123D01*
X060035Y021253D01*
X060411D01*
X060538Y021127D01*
X060515Y021044D01*
Y020956D01*
X060538Y020871D01*
X060582Y020795D01*
X060645Y020732D01*
X060721Y020688D01*
X060806Y020665D01*
X060894D01*
X060979Y020688D01*
X061053Y020731D01*
X06108Y020725D01*
X061103Y020715D01*
Y017285D01*
X06108Y017275D01*
X061053Y017269D01*
X060979Y017312D01*
X060894Y017335D01*
X060806D01*
X060721Y017312D01*
X060645Y017268D01*
X060582Y017205D01*
X060538Y017129D01*
X060515Y017044D01*
Y016956D01*
X060538Y016871D01*
X060581Y016797D01*
X060575Y01677D01*
X060565Y016747D01*
X060035D01*
X060025Y01677D01*
X060019Y016797D01*
X060062Y016871D01*
X060085Y016956D01*
Y017044D01*
X060062Y017129D01*
X060018Y017205D01*
X059955Y017268D01*
X059879Y017312D01*
X059794Y017335D01*
X059706D01*
X059621Y017312D01*
X059545Y017268D01*
X059482Y017205D01*
X059438Y017129D01*
X059415Y017044D01*
Y016956D01*
X059438Y016871D01*
X059481Y016797D01*
X059475Y01677D01*
X059465Y016747D01*
X059089D01*
X058962Y016873D01*
X058985Y016956D01*
Y017044D01*
X058962Y017129D01*
X058918Y017205D01*
X058855Y017268D01*
X058779Y017312D01*
X058694Y017335D01*
X058606D01*
X058521Y017312D01*
X058445Y017268D01*
X058382Y017205D01*
X058338Y017129D01*
X058315Y017044D01*
Y016956D01*
X058338Y016871D01*
X058382Y016795D01*
X058445Y016732D01*
X058521Y016688D01*
X058606Y016665D01*
X058694D01*
X058777Y016688D01*
X058942Y016523D01*
X058984Y016494D01*
X059035Y016484D01*
X061009D01*
X06106Y016494D01*
X061102Y016523D01*
X061327Y016748D01*
X061356Y01679D01*
X061366Y016841D01*
Y022215D01*
X061356Y022266D01*
X061327Y022308D01*
X061006Y022629D01*
X061017Y022648D01*
X061044Y022748D01*
Y022852D01*
X061017Y022952D01*
X060965Y023042D01*
X060892Y023115D01*
X060802Y023167D01*
X060702Y023194D01*
D02*
G37*
G36*
X028694Y017685D02*
X028606D01*
X028521Y017662D01*
X028445Y017618D01*
X028382Y017555D01*
X028338Y017479D01*
X028315Y017394D01*
Y017306D01*
X028338Y017221D01*
X028382Y017145D01*
X028445Y017082D01*
X028521Y017038D01*
X028606Y017015D01*
X028694D01*
X028779Y017038D01*
X028855Y017082D01*
X028918Y017145D01*
X028962Y017221D01*
X028985Y017306D01*
Y017394D01*
X028962Y017479D01*
X028918Y017555D01*
X028855Y017618D01*
X028779Y017662D01*
X028694Y017685D01*
D02*
G37*
G36*
X02485Y016522D02*
Y015975D01*
X025254D01*
Y016075D01*
X025238Y016192D01*
X025193Y016302D01*
X025121Y016396D01*
X025027Y016468D01*
X024917Y016513D01*
X02485Y016522D01*
D02*
G37*
G36*
X02475D02*
X024683Y016513D01*
X024573Y016468D01*
X024479Y016396D01*
X024407Y016302D01*
X024362Y016192D01*
X024346Y016075D01*
Y015975D01*
X02475D01*
Y016522D01*
D02*
G37*
G36*
X024229Y016504D02*
X023371D01*
Y015346D01*
X024229D01*
Y016504D01*
D02*
G37*
G36*
X025254Y015875D02*
X02485D01*
Y015328D01*
X024917Y015337D01*
X025027Y015382D01*
X025121Y015454D01*
X025193Y015548D01*
X025238Y015658D01*
X025254Y015775D01*
Y015875D01*
D02*
G37*
G36*
X02475D02*
X024346D01*
Y015775D01*
X024362Y015658D01*
X024407Y015548D01*
X024479Y015454D01*
X024573Y015382D01*
X024683Y015337D01*
X02475Y015328D01*
Y015875D01*
D02*
G37*
G36*
X04765Y015732D02*
Y015235D01*
X048014D01*
Y015325D01*
X047999Y015432D01*
X047958Y015532D01*
X047892Y015617D01*
X047807Y015683D01*
X047707Y015724D01*
X04765Y015732D01*
D02*
G37*
G36*
X04755D02*
X047493Y015724D01*
X047393Y015683D01*
X047308Y015617D01*
X047242Y015532D01*
X047201Y015432D01*
X047186Y015325D01*
Y015235D01*
X04755D01*
Y015732D01*
D02*
G37*
G36*
X04165D02*
Y015235D01*
X042014D01*
Y015325D01*
X041999Y015432D01*
X041958Y015532D01*
X041892Y015617D01*
X041807Y015683D01*
X041707Y015724D01*
X04165Y015732D01*
D02*
G37*
G36*
X04155D02*
X041493Y015724D01*
X041393Y015683D01*
X041308Y015617D01*
X041242Y015532D01*
X041201Y015432D01*
X041186Y015325D01*
Y015235D01*
X04155D01*
Y015732D01*
D02*
G37*
G36*
X04065D02*
Y015235D01*
X041014D01*
Y015325D01*
X040999Y015432D01*
X040958Y015532D01*
X040892Y015617D01*
X040807Y015683D01*
X040707Y015724D01*
X04065Y015732D01*
D02*
G37*
G36*
X04055D02*
X040493Y015724D01*
X040393Y015683D01*
X040308Y015617D01*
X040242Y015532D01*
X040201Y015432D01*
X040186Y015325D01*
Y015235D01*
X04055D01*
Y015732D01*
D02*
G37*
G36*
X03965D02*
Y015235D01*
X040014D01*
Y015325D01*
X039999Y015432D01*
X039958Y015532D01*
X039892Y015617D01*
X039807Y015683D01*
X039707Y015724D01*
X03965Y015732D01*
D02*
G37*
G36*
X03955D02*
X039493Y015724D01*
X039393Y015683D01*
X039308Y015617D01*
X039242Y015532D01*
X039201Y015432D01*
X039186Y015325D01*
Y015235D01*
X03955D01*
Y015732D01*
D02*
G37*
G36*
X03865D02*
Y015235D01*
X039014D01*
Y015325D01*
X038999Y015432D01*
X038958Y015532D01*
X038892Y015617D01*
X038807Y015683D01*
X038707Y015724D01*
X03865Y015732D01*
D02*
G37*
G36*
X03855D02*
X038493Y015724D01*
X038393Y015683D01*
X038308Y015617D01*
X038242Y015532D01*
X038201Y015432D01*
X038186Y015325D01*
Y015235D01*
X03855D01*
Y015732D01*
D02*
G37*
G36*
X03665D02*
Y015235D01*
X037014D01*
Y015325D01*
X036999Y015432D01*
X036958Y015532D01*
X036892Y015617D01*
X036807Y015683D01*
X036707Y015724D01*
X03665Y015732D01*
D02*
G37*
G36*
X03655D02*
X036493Y015724D01*
X036393Y015683D01*
X036308Y015617D01*
X036242Y015532D01*
X036201Y015432D01*
X036186Y015325D01*
Y015235D01*
X03655D01*
Y015732D01*
D02*
G37*
G36*
X03255Y015735D02*
X03219D01*
Y015235D01*
X03255D01*
Y015735D01*
D02*
G37*
G36*
X0456Y015717D02*
X045499Y015704D01*
X045404Y015665D01*
X045323Y015602D01*
X04526Y015521D01*
X045221Y015426D01*
X045208Y015325D01*
Y015045D01*
X045221Y014944D01*
X04526Y014849D01*
X045323Y014768D01*
X045404Y014705D01*
X045499Y014666D01*
X0456Y014653D01*
X045701Y014666D01*
X045796Y014705D01*
X045877Y014768D01*
X04594Y014849D01*
X045979Y014944D01*
X045992Y015045D01*
Y015325D01*
X045979Y015426D01*
X04594Y015521D01*
X045877Y015602D01*
X045796Y015665D01*
X045701Y015704D01*
X0456Y015717D01*
D02*
G37*
G36*
X0446D02*
X044499Y015704D01*
X044404Y015665D01*
X044323Y015602D01*
X04426Y015521D01*
X044221Y015426D01*
X044208Y015325D01*
Y015045D01*
X044221Y014944D01*
X04426Y014849D01*
X044323Y014768D01*
X044404Y014705D01*
X044499Y014666D01*
X0446Y014653D01*
X044701Y014666D01*
X044796Y014705D01*
X044877Y014768D01*
X04494Y014849D01*
X044979Y014944D01*
X044992Y015045D01*
Y015325D01*
X044979Y015426D01*
X04494Y015521D01*
X044877Y015602D01*
X044796Y015665D01*
X044701Y015704D01*
X0446Y015717D01*
D02*
G37*
G36*
X0436D02*
X043499Y015704D01*
X043404Y015665D01*
X043323Y015602D01*
X04326Y015521D01*
X043221Y015426D01*
X043208Y015325D01*
Y015045D01*
X043221Y014944D01*
X04326Y014849D01*
X043323Y014768D01*
X043404Y014705D01*
X043499Y014666D01*
X0436Y014653D01*
X043701Y014666D01*
X043796Y014705D01*
X043877Y014768D01*
X04394Y014849D01*
X043979Y014944D01*
X043992Y015045D01*
Y015325D01*
X043979Y015426D01*
X04394Y015521D01*
X043877Y015602D01*
X043796Y015665D01*
X043701Y015704D01*
X0436Y015717D01*
D02*
G37*
G36*
X0426D02*
X042499Y015704D01*
X042404Y015665D01*
X042323Y015602D01*
X04226Y015521D01*
X042221Y015426D01*
X042208Y015325D01*
Y015045D01*
X042221Y014944D01*
X04226Y014849D01*
X042323Y014768D01*
X042404Y014705D01*
X042499Y014666D01*
X0426Y014653D01*
X042701Y014666D01*
X042796Y014705D01*
X042877Y014768D01*
X04294Y014849D01*
X042979Y014944D01*
X042992Y015045D01*
Y015325D01*
X042979Y015426D01*
X04294Y015521D01*
X042877Y015602D01*
X042796Y015665D01*
X042701Y015704D01*
X0426Y015717D01*
D02*
G37*
G36*
X03315Y019732D02*
X033045Y019718D01*
X032946Y019678D01*
X032862Y019613D01*
X032797Y019529D01*
X032757Y01943D01*
X032743Y019325D01*
Y019075D01*
X032757Y01897D01*
X032797Y018871D01*
X032862Y018787D01*
X032946Y018722D01*
X033019Y018692D01*
Y016635D01*
X033029Y016585D01*
X033057Y016542D01*
X034216Y015384D01*
X034208Y015325D01*
Y015045D01*
X034221Y014944D01*
X03426Y014849D01*
X034323Y014768D01*
X034404Y014705D01*
X034499Y014666D01*
X0346Y014653D01*
X034701Y014666D01*
X034796Y014705D01*
X034877Y014768D01*
X03494Y014849D01*
X034979Y014944D01*
X034992Y015045D01*
Y015325D01*
X034979Y015426D01*
X03494Y015521D01*
X034877Y015602D01*
X034796Y015665D01*
X034701Y015704D01*
X0346Y015717D01*
X034499Y015704D01*
X034404Y015665D01*
X034349Y015622D01*
X033281Y016689D01*
Y018692D01*
X033354Y018722D01*
X033438Y018787D01*
X033503Y018871D01*
X033543Y01897D01*
X033557Y019075D01*
Y019325D01*
X033543Y01943D01*
X033503Y019529D01*
X033438Y019613D01*
X033354Y019678D01*
X033255Y019718D01*
X03315Y019732D01*
D02*
G37*
G36*
X042014Y015135D02*
X04165D01*
Y014638D01*
X041707Y014646D01*
X041807Y014687D01*
X041892Y014753D01*
X041958Y014838D01*
X041999Y014938D01*
X042014Y015045D01*
Y015135D01*
D02*
G37*
G36*
X04155D02*
X041186D01*
Y015045D01*
X041201Y014938D01*
X041242Y014838D01*
X041308Y014753D01*
X041393Y014687D01*
X041493Y014646D01*
X04155Y014638D01*
Y015135D01*
D02*
G37*
G36*
X041014D02*
X04065D01*
Y014638D01*
X040707Y014646D01*
X040807Y014687D01*
X040892Y014753D01*
X040958Y014838D01*
X040999Y014938D01*
X041014Y015045D01*
Y015135D01*
D02*
G37*
G36*
X04055D02*
X040186D01*
Y015045D01*
X040201Y014938D01*
X040242Y014838D01*
X040308Y014753D01*
X040393Y014687D01*
X040493Y014646D01*
X04055Y014638D01*
Y015135D01*
D02*
G37*
G36*
X040014D02*
X03965D01*
Y014638D01*
X039707Y014646D01*
X039807Y014687D01*
X039892Y014753D01*
X039958Y014838D01*
X039999Y014938D01*
X040014Y015045D01*
Y015135D01*
D02*
G37*
G36*
X03955D02*
X039186D01*
Y015045D01*
X039201Y014938D01*
X039242Y014838D01*
X039308Y014753D01*
X039393Y014687D01*
X039493Y014646D01*
X03955Y014638D01*
Y015135D01*
D02*
G37*
G36*
X039014D02*
X03865D01*
Y014638D01*
X038707Y014646D01*
X038807Y014687D01*
X038892Y014753D01*
X038958Y014838D01*
X038999Y014938D01*
X039014Y015045D01*
Y015135D01*
D02*
G37*
G36*
X03855D02*
X038186D01*
Y015045D01*
X038201Y014938D01*
X038242Y014838D01*
X038308Y014753D01*
X038393Y014687D01*
X038493Y014646D01*
X03855Y014638D01*
Y015135D01*
D02*
G37*
G36*
X037014D02*
X03665D01*
Y014638D01*
X036707Y014646D01*
X036807Y014687D01*
X036892Y014753D01*
X036958Y014838D01*
X036999Y014938D01*
X037014Y015045D01*
Y015135D01*
D02*
G37*
G36*
X03655D02*
X036186D01*
Y015045D01*
X036201Y014938D01*
X036242Y014838D01*
X036308Y014753D01*
X036393Y014687D01*
X036493Y014646D01*
X03655Y014638D01*
Y015135D01*
D02*
G37*
G36*
X03255D02*
X03219D01*
Y014635D01*
X03255D01*
Y015135D01*
D02*
G37*
G36*
X060185Y015751D02*
X060015D01*
X059847Y015718D01*
X05969Y015653D01*
X059548Y015558D01*
X059427Y015437D01*
X059332Y015295D01*
X059267Y015138D01*
X059234Y01497D01*
Y0148D01*
X059267Y014632D01*
X059332Y014475D01*
X059427Y014333D01*
X059548Y014212D01*
X05969Y014117D01*
X059847Y014052D01*
X060015Y014019D01*
X060185D01*
X060353Y014052D01*
X06051Y014117D01*
X060652Y014212D01*
X060773Y014333D01*
X060868Y014475D01*
X060933Y014632D01*
X060966Y0148D01*
Y01497D01*
X060933Y015138D01*
X060868Y015295D01*
X060773Y015437D01*
X060652Y015558D01*
X06051Y015653D01*
X060353Y015718D01*
X060185Y015751D01*
D02*
G37*
G36*
X030685D02*
X030515D01*
X030347Y015718D01*
X03019Y015653D01*
X030048Y015558D01*
X029927Y015437D01*
X029832Y015295D01*
X029767Y015138D01*
X029734Y01497D01*
Y0148D01*
X029767Y014632D01*
X029832Y014475D01*
X029927Y014333D01*
X030048Y014212D01*
X03019Y014117D01*
X030347Y014052D01*
X030515Y014019D01*
X030685D01*
X030853Y014052D01*
X03101Y014117D01*
X031152Y014212D01*
X031273Y014333D01*
X031368Y014475D01*
X031433Y014632D01*
X031466Y0148D01*
Y01497D01*
X031433Y015138D01*
X031368Y015295D01*
X031273Y015437D01*
X031152Y015558D01*
X03101Y015653D01*
X030853Y015718D01*
X030685Y015751D01*
D02*
G37*
G36*
X02485Y013747D02*
Y0132D01*
X025254D01*
Y0133D01*
X025238Y013417D01*
X025193Y013527D01*
X025121Y013621D01*
X025027Y013693D01*
X024917Y013738D01*
X02485Y013747D01*
D02*
G37*
G36*
X02475D02*
X024683Y013738D01*
X024573Y013693D01*
X024479Y013621D01*
X024407Y013527D01*
X024362Y013417D01*
X024346Y0133D01*
Y0132D01*
X02475D01*
Y013747D01*
D02*
G37*
G36*
X062516Y012424D02*
X062384D01*
X062255Y012398D01*
X062133Y012347D01*
X062023Y012274D01*
X06193Y012181D01*
X061857Y012071D01*
X061806Y01195D01*
X061781Y01182D01*
Y011688D01*
X061806Y011559D01*
X061857Y011437D01*
X06193Y011328D01*
X062023Y011234D01*
X062133Y011161D01*
X062255Y011111D01*
X062384Y011085D01*
X062516D01*
X062645Y011111D01*
X062767Y011161D01*
X062877Y011234D01*
X06297Y011328D01*
X063043Y011437D01*
X063094Y011559D01*
X063119Y011688D01*
Y01182D01*
X063094Y01195D01*
X063043Y012071D01*
X06297Y012181D01*
X062877Y012274D01*
X062767Y012347D01*
X062645Y012398D01*
X062516Y012424D01*
D02*
G37*
G36*
X021816D02*
X021684D01*
X021555Y012398D01*
X021433Y012347D01*
X021323Y012274D01*
X02123Y012181D01*
X021157Y012071D01*
X021106Y01195D01*
X021081Y01182D01*
Y011688D01*
X021106Y011559D01*
X021157Y011437D01*
X02123Y011328D01*
X021323Y011234D01*
X021433Y011161D01*
X021555Y011111D01*
X021684Y011085D01*
X021816D01*
X021945Y011111D01*
X022067Y011161D01*
X022177Y011234D01*
X02227Y011328D01*
X022343Y011437D01*
X022394Y011559D01*
X022419Y011688D01*
Y01182D01*
X022394Y01195D01*
X022343Y012071D01*
X02227Y012181D01*
X022177Y012274D01*
X022067Y012347D01*
X021945Y012398D01*
X021816Y012424D01*
D02*
G37*
%LPD*%
G36*
X061103Y022161D02*
Y021285D01*
X06108Y021275D01*
X061053Y021269D01*
X060979Y021312D01*
X060894Y021335D01*
X060806D01*
X060723Y021312D01*
X060558Y021477D01*
X060516Y021506D01*
X060465Y021516D01*
X059622D01*
X059602Y021566D01*
X060479Y022444D01*
X060498Y022433D01*
X060598Y022406D01*
X060702D01*
X060802Y022433D01*
X060821Y022444D01*
X061103Y022161D01*
D02*
G37*
D13*
X05755Y0181D02*
X05975Y0203D01*
Y021D01*
X060465Y021385D02*
X06085Y021D01*
X058435Y021385D02*
X060465D01*
X0575Y02045D02*
X058435Y021385D01*
X058048Y021625D02*
X059475D01*
X056965Y020542D02*
X058048Y021625D01*
X059475D02*
X06065Y0228D01*
X05865Y017D02*
X059035Y016615D01*
X061009D02*
X061235Y016841D01*
Y022215D01*
X059035Y016615D02*
X061009D01*
X06065Y0228D02*
X061235Y022215D01*
X056592Y020542D02*
X056965D01*
X0565Y02045D02*
X056592Y020542D01*
X0528Y0195D02*
X05515D01*
X05655Y0181D01*
X048535Y01726D02*
Y020585D01*
X0466Y015325D02*
X048535Y01726D01*
X0466Y015185D02*
Y015325D01*
X048535Y020585D02*
X05045Y0225D01*
X0403Y018038D02*
Y01805D01*
X0376Y015338D02*
X0403Y018038D01*
X0376Y015185D02*
Y015338D01*
X037948Y016698D02*
X0393Y01805D01*
X036973Y016698D02*
X037948D01*
X0356Y015325D02*
X036973Y016698D01*
X0356Y015185D02*
Y015325D01*
X03315Y016635D02*
X0346Y015185D01*
X03315Y016635D02*
Y0192D01*
X0266Y01735D02*
Y017939D01*
X02675Y018089D01*
Y0182D01*
D24*
X0528Y0195D02*
D03*
D33*
X04679Y020645D02*
X04785Y021704D01*
X04679Y018305D02*
Y020645D01*
X048404Y022704D02*
X0493Y0236D01*
X04785Y022704D02*
X048404D01*
X0446Y0235D02*
X045204D01*
X043602Y023502D02*
X044304Y024204D01*
X040658Y025442D02*
X042598Y023502D01*
X039933Y025167D02*
X041598Y023502D01*
X039209Y024891D02*
X040598Y023502D01*
X038485Y024615D02*
X039598Y023502D01*
X038246Y02434D02*
X0386Y023985D01*
Y023504D02*
Y023985D01*
X037146Y02434D02*
X038246D01*
X0376Y02175D02*
Y023504D01*
Y02175D02*
X0383Y02105D01*
X04785Y023719D02*
Y024704D01*
X046837Y025718D02*
X04785Y024704D01*
X028663Y025718D02*
X046837D01*
X045204Y0235D02*
X0459Y022804D01*
X044304Y024204D02*
X046D01*
X036911Y024615D02*
X038485D01*
X036797Y024891D02*
X039209D01*
X0272Y024254D02*
X028663Y025718D01*
X036569Y025442D02*
X040658D01*
X035316Y024189D02*
X036569Y025442D01*
X036683Y025167D02*
X039933D01*
X035591Y024075D02*
X036683Y025167D01*
X035867Y023961D02*
X036797Y024891D01*
X036746Y021781D02*
X03724Y021287D01*
Y02111D02*
X0373Y02105D01*
X0363Y024004D02*
X036911Y024615D01*
X036746Y02394D02*
X037146Y02434D01*
X036746Y021781D02*
Y02394D01*
X03724Y02111D02*
Y021287D01*
X031905Y01335D02*
X0336Y015045D01*
X031905Y01335D02*
X046594D01*
X0498Y016556D01*
Y019495D01*
X0272Y02085D02*
Y024254D01*
Y01395D02*
Y02085D01*
X0555Y02045D02*
X056675Y021625D01*
X057475D02*
X05865Y0228D01*
X056675Y021625D02*
X057475D01*
X056392Y0225D02*
X057184Y023292D01*
X059158D02*
X05965Y0228D01*
X05445Y0225D02*
X056392D01*
X057184Y023292D02*
X059158D01*
X0498Y019495D02*
X052805Y0225D01*
X05445D01*
X045827Y017341D02*
X04679Y018305D01*
X043009Y017341D02*
X045827D01*
X0423Y01805D02*
X043009Y017341D01*
X049883Y024183D02*
X054017D01*
X05445Y02375D01*
X0493Y0236D02*
X049883Y024183D01*
X046Y024204D02*
X04625Y023954D01*
X044483Y017617D02*
X045713D01*
X04436Y01774D02*
X044483Y017617D01*
X04436Y01774D02*
Y01799D01*
X0443Y01805D02*
X04436Y01799D01*
X045713Y017617D02*
X04625Y018154D01*
Y023954D01*
X0433Y01805D02*
X043733Y018483D01*
X045529D01*
X0459Y018854D01*
Y022804D01*
X03756Y01731D02*
X0383Y01805D01*
X035904Y01731D02*
X03756D01*
X035316Y017899D02*
X035904Y01731D01*
X035316Y017899D02*
Y024189D01*
X036836Y017586D02*
X0373Y01805D01*
X036018Y017586D02*
X036836D01*
X035591Y018013D02*
X036018Y017586D01*
X035591Y018013D02*
Y024075D01*
X035867Y018483D02*
X0363Y01805D01*
X035867Y018483D02*
Y023961D01*
X0363Y02105D02*
Y024004D01*
X03215Y016635D02*
X032973Y015812D01*
X033087Y015698D02*
Y015708D01*
Y015698D02*
X0336Y015185D01*
X03215Y016635D02*
Y0192D01*
X032983Y015812D02*
X033087Y015708D01*
X032973Y015812D02*
X032983D01*
X0336Y015045D02*
Y015185D01*
X02865Y01335D02*
X031905D01*
X0266D02*
X0272Y01395D01*
X0238Y013D02*
Y01315D01*
Y013D02*
X024327Y012473D01*
X025723D01*
X0266Y01335D01*
D35*
X0248Y022754D02*
D03*
X0238D02*
D03*
X04785Y023704D02*
D03*
Y022704D02*
D03*
Y021704D02*
D03*
Y020704D02*
D03*
X0446Y023504D02*
D03*
X0436D02*
D03*
X0426D02*
D03*
X0416D02*
D03*
X0406D02*
D03*
X0396D02*
D03*
X0386D02*
D03*
X0376D02*
D03*
X05555Y0181D02*
D03*
X05655D02*
D03*
X05755D02*
D03*
X0555Y02045D02*
D03*
X0565D02*
D03*
X0575D02*
D03*
X05965Y0228D02*
D03*
X06065D02*
D03*
X05865D02*
D03*
D36*
X06245Y028454D02*
D03*
X02175D02*
D03*
X06245Y011754D02*
D03*
X02175D02*
D03*
D37*
X02675Y0182D02*
D03*
Y0192D02*
D03*
X0266Y01335D02*
D03*
Y01735D02*
D03*
X02865Y01335D02*
D03*
Y01735D02*
D03*
X0453Y02105D02*
D03*
X0443D02*
D03*
X0433D02*
D03*
X0423D02*
D03*
X0413D02*
D03*
X0403D02*
D03*
X0393D02*
D03*
X0383D02*
D03*
X0373D02*
D03*
X0363D02*
D03*
X0453Y01805D02*
D03*
X0443D02*
D03*
X0433D02*
D03*
X0423D02*
D03*
X0413D02*
D03*
X0403D02*
D03*
X0393D02*
D03*
X0383D02*
D03*
X0373D02*
D03*
X0363D02*
D03*
X06085Y017D02*
D03*
Y021D02*
D03*
X05975Y017D02*
D03*
Y021D02*
D03*
X05865D02*
D03*
Y017D02*
D03*
X0286Y0192D02*
D03*
Y0182D02*
D03*
X05045Y02375D02*
D03*
X05445D02*
D03*
Y0225D02*
D03*
X05045D02*
D03*
D38*
X0238Y0187D02*
D03*
Y01315D02*
D03*
Y015925D02*
D03*
D39*
X0248Y0187D02*
D03*
Y01315D02*
D03*
Y015925D02*
D03*
D40*
X0262Y02085D02*
D03*
X0272D02*
D03*
X0248D02*
D03*
X0238D02*
D03*
X0493Y0226D02*
D03*
Y0236D02*
D03*
D41*
X0498Y019495D02*
D03*
D42*
X03215Y0192D02*
D03*
D43*
X03315D02*
D03*
X03415D02*
D03*
D44*
X0306Y014885D02*
D03*
Y002685D02*
D03*
X0601Y002735D02*
D03*
Y014885D02*
D03*
D45*
X0326Y015185D02*
D03*
D46*
X0336D02*
D03*
X0346D02*
D03*
X0356D02*
D03*
X0366D02*
D03*
X0376D02*
D03*
X0386D02*
D03*
X0396D02*
D03*
X0406D02*
D03*
X0416D02*
D03*
X0426D02*
D03*
X0436D02*
D03*
X0446D02*
D03*
X0456D02*
D03*
X0466D02*
D03*
X0476D02*
D03*
M02*
