G04*
G04 #@! TF.GenerationSoftware,Altium Limited,Altium Designer,21.9.2 (33)*
G04*
G04 Layer_Color=2752767*
%FSTAX24Y24*%
%MOIN*%
G70*
G04*
G04 #@! TF.SameCoordinates,A68203B9-CA12-4FF3-9F36-A0A22A6ADD5B*
G04*
G04*
G04 #@! TF.FilePolarity,Positive*
G04*
G01*
G75*
%ADD13C,0.0100*%
%ADD50C,0.0150*%
%ADD51C,0.0020*%
%ADD52C,0.0160*%
D13*
X002373Y043929D02*
Y044096D01*
X00254Y044263D01*
X002373Y044429D02*
X00254Y044263D01*
X002373Y044429D02*
Y044596D01*
X00254D01*
X002706Y044429D01*
X002873Y044596D01*
X00304D01*
Y044429D02*
Y044596D01*
X002873Y044263D02*
X00304Y044429D01*
X002873Y044263D02*
X00304Y044096D01*
Y043929D02*
Y044096D01*
X002873Y043929D02*
X00304D01*
X002706Y044096D02*
X002873Y043929D01*
X00254D02*
X002706Y044096D01*
X002373Y043929D02*
X00254D01*
X002506Y042563D02*
X002906D01*
Y042963D01*
X002506D02*
X002906D01*
X002506Y042563D02*
Y042963D01*
X002373Y042429D02*
X00304D01*
Y043096D01*
X002373D02*
X00304D01*
X002373Y042429D02*
Y043096D01*
X00254Y041096D02*
X002706Y040929D01*
X002373Y041096D02*
X00254D01*
X002373D02*
X00254Y041263D01*
X002373Y041429D02*
X00254Y041263D01*
X002373Y041429D02*
X00254D01*
X002706Y041596D01*
X002873Y041429D01*
X00304D01*
X002873Y041263D02*
X00304Y041429D01*
X002873Y041263D02*
X00304Y041096D01*
X002873D02*
X00304D01*
X002706Y040929D02*
X002873Y041096D01*
X002706Y039429D02*
X00304Y040096D01*
X002373D02*
X00304D01*
X002373D02*
X002706Y039429D01*
X002373Y038263D02*
X002706Y037929D01*
X00304Y038263D01*
X002706Y038596D02*
X00304Y038263D01*
X002373D02*
X002706Y038596D01*
X002373Y036429D02*
X002706Y036596D01*
X00304Y036429D01*
X002873Y036763D02*
X00304Y036429D01*
X002873Y036763D02*
X00304Y037096D01*
X002706Y036929D02*
X00304Y037096D01*
X002373D02*
X002706Y036929D01*
X002373Y037096D02*
X00254Y036763D01*
X002373Y036429D02*
X00254Y036763D01*
X002373Y035096D02*
X00254D01*
X002373D02*
Y035429D01*
X00254D01*
Y035596D01*
X002873D01*
Y035429D02*
Y035596D01*
Y035429D02*
X00304D01*
Y035096D02*
Y035429D01*
X002873Y035096D02*
X00304D01*
X002873Y034929D02*
Y035096D01*
X00254Y034929D02*
X002873D01*
X00254D02*
Y035096D01*
X002373Y033429D02*
X00304D01*
Y034096D01*
X002373D02*
X00304D01*
X002373Y033429D02*
Y034096D01*
X066078Y043929D02*
X065878Y044129D01*
Y044329D01*
X066078Y044529D01*
X066377Y043929D02*
Y044529D01*
X066577Y044329D01*
X066777Y044529D01*
Y043929D01*
X066977D02*
X067177D01*
X067077D01*
Y044329D01*
X066977D01*
X067477D02*
X067877Y043929D01*
X067677Y044129D01*
X067877Y044329D01*
X067477Y043929D01*
X068377D02*
X068177D01*
X068077Y044029D01*
Y044229D01*
X068177Y044329D01*
X068377D01*
X068477Y044229D01*
Y044129D01*
X068077D01*
X069077Y044529D02*
Y043929D01*
X068777D01*
X068677Y044029D01*
Y044229D01*
X068777Y044329D01*
X069077D01*
X069276Y043929D02*
X069476Y044129D01*
Y044329D01*
X069276Y044529D01*
X066277Y042829D02*
X065978D01*
X065878Y042729D01*
Y042529D01*
X065978Y042429D01*
X066277D01*
X066477Y042929D02*
X066577Y043029D01*
X066777D01*
X066877Y042929D01*
Y042829D01*
X066777Y042729D01*
X066677D01*
X066777D01*
X066877Y042629D01*
Y042529D01*
X066777Y042429D01*
X066577D01*
X066477Y042529D01*
X067077Y042929D02*
X067177Y043029D01*
X067377D01*
X067477Y042929D01*
Y042529D01*
X067377Y042429D01*
X067177D01*
X067077Y042529D01*
Y042929D01*
X067677D02*
X067777Y043029D01*
X067977D01*
X068077Y042929D01*
Y042529D01*
X067977Y042429D01*
X067777D01*
X067677Y042529D01*
Y042929D01*
X068277Y043029D02*
Y042429D01*
Y042729D01*
X068377Y042829D01*
X068577D01*
X068677Y042729D01*
Y042429D01*
X068877Y042929D02*
X068977Y043029D01*
X069177D01*
X069276Y042929D01*
Y042829D01*
X069177Y042729D01*
X069077D01*
X069177D01*
X069276Y042629D01*
Y042529D01*
X069177Y042429D01*
X068977D01*
X068877Y042529D01*
X069476Y042929D02*
X069576Y043029D01*
X069776D01*
X069876Y042929D01*
Y042529D01*
X069776Y042429D01*
X069576D01*
X069476Y042529D01*
Y042929D01*
X070076D02*
X070176Y043029D01*
X070376D01*
X070476Y042929D01*
Y042529D01*
X070376Y042429D01*
X070176D01*
X070076Y042529D01*
Y042929D01*
X070676Y042429D02*
Y042829D01*
X070776D01*
X070876Y042729D01*
Y042429D01*
Y042729D01*
X070976Y042829D01*
X071076Y042729D01*
Y042429D01*
X071276Y042929D02*
X071376Y043029D01*
X071576D01*
X071676Y042929D01*
Y042829D01*
X071576Y042729D01*
X071476D01*
X071576D01*
X071676Y042629D01*
Y042529D01*
X071576Y042429D01*
X071376D01*
X071276Y042529D01*
X071876Y042429D02*
X072076D01*
X071976D01*
Y043029D01*
X071876Y042929D01*
X072375D02*
X072475Y043029D01*
X072675D01*
X072775Y042929D01*
Y042529D01*
X072675Y042429D01*
X072475D01*
X072375Y042529D01*
Y042929D01*
X066277Y041329D02*
X065978D01*
X065878Y041229D01*
Y041029D01*
X065978Y040929D01*
X066277D01*
X066777D02*
Y041529D01*
X066477Y041229D01*
X066877D01*
X067077Y041429D02*
X067177Y041529D01*
X067377D01*
X067477Y041429D01*
Y041029D01*
X067377Y040929D01*
X067177D01*
X067077Y041029D01*
Y041429D01*
X067677D02*
X067777Y041529D01*
X067977D01*
X068077Y041429D01*
Y041029D01*
X067977Y040929D01*
X067777D01*
X067677Y041029D01*
Y041429D01*
X068277Y041529D02*
Y040929D01*
Y041229D01*
X068377Y041329D01*
X068577D01*
X068677Y041229D01*
Y040929D01*
X068877Y041429D02*
X068977Y041529D01*
X069177D01*
X069276Y041429D01*
Y041329D01*
X069177Y041229D01*
X069077D01*
X069177D01*
X069276Y041129D01*
Y041029D01*
X069177Y040929D01*
X068977D01*
X068877Y041029D01*
X069876Y041529D02*
X069476D01*
Y041229D01*
X069676Y041329D01*
X069776D01*
X069876Y041229D01*
Y041029D01*
X069776Y040929D01*
X069576D01*
X069476Y041029D01*
X070076Y041429D02*
X070176Y041529D01*
X070376D01*
X070476Y041429D01*
Y041029D01*
X070376Y040929D01*
X070176D01*
X070076Y041029D01*
Y041429D01*
X066277Y039829D02*
X065978D01*
X065878Y039729D01*
Y039529D01*
X065978Y039429D01*
X066277D01*
X066477D02*
X066677D01*
X066577D01*
Y040029D01*
X066477Y039929D01*
X066977Y040029D02*
X067377D01*
Y039929D01*
X066977Y039529D01*
Y039429D01*
X067577Y039929D02*
X067677Y040029D01*
X067877D01*
X067977Y039929D01*
Y039829D01*
X067877Y039729D01*
X067977Y039629D01*
Y039529D01*
X067877Y039429D01*
X067677D01*
X067577Y039529D01*
Y039629D01*
X067677Y039729D01*
X067577Y039829D01*
Y039929D01*
X067677Y039729D02*
X067877D01*
X068177Y040029D02*
Y039429D01*
Y039729D01*
X068277Y039829D01*
X068477D01*
X068577Y039729D01*
Y039429D01*
X068777Y040029D02*
X069177D01*
Y039929D01*
X068777Y039529D01*
Y039429D01*
X069376Y039529D02*
X069476Y039429D01*
X069676D01*
X069776Y039529D01*
Y039929D01*
X069676Y040029D01*
X069476D01*
X069376Y039929D01*
Y039829D01*
X069476Y039729D01*
X069776D01*
X066078Y037929D02*
X065878Y038129D01*
Y038329D01*
X066078Y038529D01*
X066377Y037929D02*
Y038529D01*
X066577Y038329D01*
X066777Y038529D01*
Y037929D01*
X066977D02*
X067177D01*
X067077D01*
Y038329D01*
X066977D01*
X067477D02*
X067877Y037929D01*
X067677Y038129D01*
X067877Y038329D01*
X067477Y037929D01*
X068377D02*
X068177D01*
X068077Y038029D01*
Y038229D01*
X068177Y038329D01*
X068377D01*
X068477Y038229D01*
Y038129D01*
X068077D01*
X069077Y038529D02*
Y037929D01*
X068777D01*
X068677Y038029D01*
Y038229D01*
X068777Y038329D01*
X069077D01*
X069276Y037929D02*
X069476Y038129D01*
Y038329D01*
X069276Y038529D01*
X066078Y036429D02*
X065878Y036629D01*
Y036829D01*
X066078Y037029D01*
X066377Y036429D02*
Y037029D01*
X066577Y036829D01*
X066777Y037029D01*
Y036429D01*
X066977D02*
X067177D01*
X067077D01*
Y036829D01*
X066977D01*
X067477D02*
X067877Y036429D01*
X067677Y036629D01*
X067877Y036829D01*
X067477Y036429D01*
X068377D02*
X068177D01*
X068077Y036529D01*
Y036729D01*
X068177Y036829D01*
X068377D01*
X068477Y036729D01*
Y036629D01*
X068077D01*
X069077Y037029D02*
Y036429D01*
X068777D01*
X068677Y036529D01*
Y036729D01*
X068777Y036829D01*
X069077D01*
X069276Y036429D02*
X069476Y036629D01*
Y036829D01*
X069276Y037029D01*
X066078Y034929D02*
X065878Y035129D01*
Y035329D01*
X066078Y035529D01*
X066377Y034929D02*
Y035529D01*
X066577Y035329D01*
X066777Y035529D01*
Y034929D01*
X066977D02*
X067177D01*
X067077D01*
Y035329D01*
X066977D01*
X067477D02*
X067877Y034929D01*
X067677Y035129D01*
X067877Y035329D01*
X067477Y034929D01*
X068377D02*
X068177D01*
X068077Y035029D01*
Y035229D01*
X068177Y035329D01*
X068377D01*
X068477Y035229D01*
Y035129D01*
X068077D01*
X069077Y035529D02*
Y034929D01*
X068777D01*
X068677Y035029D01*
Y035229D01*
X068777Y035329D01*
X069077D01*
X069276Y034929D02*
X069476Y035129D01*
Y035329D01*
X069276Y035529D01*
X066078Y033429D02*
X065878Y033629D01*
Y033829D01*
X066078Y034029D01*
X066377Y033429D02*
Y034029D01*
X066577Y033829D01*
X066777Y034029D01*
Y033429D01*
X066977D02*
X067177D01*
X067077D01*
Y033829D01*
X066977D01*
X067477D02*
X067877Y033429D01*
X067677Y033629D01*
X067877Y033829D01*
X067477Y033429D01*
X068377D02*
X068177D01*
X068077Y033529D01*
Y033729D01*
X068177Y033829D01*
X068377D01*
X068477Y033729D01*
Y033629D01*
X068077D01*
X069077Y034029D02*
Y033429D01*
X068777D01*
X068677Y033529D01*
Y033729D01*
X068777Y033829D01*
X069077D01*
X069276Y033429D02*
X069476Y033629D01*
Y033829D01*
X069276Y034029D01*
X05862Y043929D02*
X05842Y044129D01*
Y044329D01*
X05862Y044529D01*
X058919Y043929D02*
Y044529D01*
X059119Y044329D01*
X059319Y044529D01*
Y043929D01*
X059519D02*
X059719D01*
X059619D01*
Y044329D01*
X059519D01*
X060019D02*
X060419Y043929D01*
X060219Y044129D01*
X060419Y044329D01*
X060019Y043929D01*
X060919D02*
X060719D01*
X060619Y044029D01*
Y044229D01*
X060719Y044329D01*
X060919D01*
X061019Y044229D01*
Y044129D01*
X060619D01*
X061619Y044529D02*
Y043929D01*
X061319D01*
X061219Y044029D01*
Y044229D01*
X061319Y044329D01*
X061619D01*
X061819Y043929D02*
X062018Y044129D01*
Y044329D01*
X061819Y044529D01*
X05842Y042429D02*
Y043029D01*
X05872D01*
X058819Y042929D01*
Y042729D01*
X05872Y042629D01*
X05842D01*
X05862D02*
X058819Y042429D01*
X059119D02*
X059319D01*
X059419Y042529D01*
Y042729D01*
X059319Y042829D01*
X059119D01*
X059019Y042729D01*
Y042529D01*
X059119Y042429D01*
X059619Y042829D02*
Y042529D01*
X059719Y042429D01*
X060019D01*
Y042829D01*
X060219Y042429D02*
Y042829D01*
X060519D01*
X060619Y042729D01*
Y042429D01*
X061219Y043029D02*
Y042429D01*
X060919D01*
X060819Y042529D01*
Y042729D01*
X060919Y042829D01*
X061219D01*
X061719Y042429D02*
X061519D01*
X061419Y042529D01*
Y042729D01*
X061519Y042829D01*
X061719D01*
X061819Y042729D01*
Y042629D01*
X061419D01*
X062418Y043029D02*
Y042429D01*
X062118D01*
X062018Y042529D01*
Y042729D01*
X062118Y042829D01*
X062418D01*
X05842Y040929D02*
Y041529D01*
X05872D01*
X058819Y041429D01*
Y041229D01*
X05872Y041129D01*
X05842D01*
X05862D02*
X058819Y040929D01*
X059119D02*
X059319D01*
X059419Y041029D01*
Y041229D01*
X059319Y041329D01*
X059119D01*
X059019Y041229D01*
Y041029D01*
X059119Y040929D01*
X059619Y041329D02*
Y041029D01*
X059719Y040929D01*
X060019D01*
Y041329D01*
X060219Y040929D02*
Y041329D01*
X060519D01*
X060619Y041229D01*
Y040929D01*
X061219Y041529D02*
Y040929D01*
X060919D01*
X060819Y041029D01*
Y041229D01*
X060919Y041329D01*
X061219D01*
X061719Y040929D02*
X061519D01*
X061419Y041029D01*
Y041229D01*
X061519Y041329D01*
X061719D01*
X061819Y041229D01*
Y041129D01*
X061419D01*
X062418Y041529D02*
Y040929D01*
X062118D01*
X062018Y041029D01*
Y041229D01*
X062118Y041329D01*
X062418D01*
X05842Y039429D02*
Y040029D01*
X05872D01*
X058819Y039929D01*
Y039729D01*
X05872Y039629D01*
X05842D01*
X05862D02*
X058819Y039429D01*
X059119D02*
X059319D01*
X059419Y039529D01*
Y039729D01*
X059319Y039829D01*
X059119D01*
X059019Y039729D01*
Y039529D01*
X059119Y039429D01*
X059619Y039829D02*
Y039529D01*
X059719Y039429D01*
X060019D01*
Y039829D01*
X060219Y039429D02*
Y039829D01*
X060519D01*
X060619Y039729D01*
Y039429D01*
X061219Y040029D02*
Y039429D01*
X060919D01*
X060819Y039529D01*
Y039729D01*
X060919Y039829D01*
X061219D01*
X061719Y039429D02*
X061519D01*
X061419Y039529D01*
Y039729D01*
X061519Y039829D01*
X061719D01*
X061819Y039729D01*
Y039629D01*
X061419D01*
X062418Y040029D02*
Y039429D01*
X062118D01*
X062018Y039529D01*
Y039729D01*
X062118Y039829D01*
X062418D01*
X05862Y037929D02*
X05842Y038129D01*
Y038329D01*
X05862Y038529D01*
X058919Y037929D02*
Y038529D01*
X059119Y038329D01*
X059319Y038529D01*
Y037929D01*
X059519D02*
X059719D01*
X059619D01*
Y038329D01*
X059519D01*
X060019D02*
X060419Y037929D01*
X060219Y038129D01*
X060419Y038329D01*
X060019Y037929D01*
X060919D02*
X060719D01*
X060619Y038029D01*
Y038229D01*
X060719Y038329D01*
X060919D01*
X061019Y038229D01*
Y038129D01*
X060619D01*
X061619Y038529D02*
Y037929D01*
X061319D01*
X061219Y038029D01*
Y038229D01*
X061319Y038329D01*
X061619D01*
X061819Y037929D02*
X062018Y038129D01*
Y038329D01*
X061819Y038529D01*
X05862Y036429D02*
X05842Y036629D01*
Y036829D01*
X05862Y037029D01*
X058919Y036429D02*
Y037029D01*
X059119Y036829D01*
X059319Y037029D01*
Y036429D01*
X059519D02*
X059719D01*
X059619D01*
Y036829D01*
X059519D01*
X060019D02*
X060419Y036429D01*
X060219Y036629D01*
X060419Y036829D01*
X060019Y036429D01*
X060919D02*
X060719D01*
X060619Y036529D01*
Y036729D01*
X060719Y036829D01*
X060919D01*
X061019Y036729D01*
Y036629D01*
X060619D01*
X061619Y037029D02*
Y036429D01*
X061319D01*
X061219Y036529D01*
Y036729D01*
X061319Y036829D01*
X061619D01*
X061819Y036429D02*
X062018Y036629D01*
Y036829D01*
X061819Y037029D01*
X05842Y034929D02*
Y035529D01*
X05872D01*
X058819Y035429D01*
Y035229D01*
X05872Y035129D01*
X05842D01*
X05862D02*
X058819Y034929D01*
X059119D02*
X059319D01*
X059419Y035029D01*
Y035229D01*
X059319Y035329D01*
X059119D01*
X059019Y035229D01*
Y035029D01*
X059119Y034929D01*
X059619Y035329D02*
Y035029D01*
X059719Y034929D01*
X060019D01*
Y035329D01*
X060219Y034929D02*
Y035329D01*
X060519D01*
X060619Y035229D01*
Y034929D01*
X061219Y035529D02*
Y034929D01*
X060919D01*
X060819Y035029D01*
Y035229D01*
X060919Y035329D01*
X061219D01*
X061719Y034929D02*
X061519D01*
X061419Y035029D01*
Y035229D01*
X061519Y035329D01*
X061719D01*
X061819Y035229D01*
Y035129D01*
X061419D01*
X062418Y035529D02*
Y034929D01*
X062118D01*
X062018Y035029D01*
Y035229D01*
X062118Y035329D01*
X062418D01*
X05862Y033429D02*
X05842Y033629D01*
Y033829D01*
X05862Y034029D01*
X058919Y033429D02*
Y034029D01*
X059119Y033829D01*
X059319Y034029D01*
Y033429D01*
X059519D02*
X059719D01*
X059619D01*
Y033829D01*
X059519D01*
X060019D02*
X060419Y033429D01*
X060219Y033629D01*
X060419Y033829D01*
X060019Y033429D01*
X060919D02*
X060719D01*
X060619Y033529D01*
Y033729D01*
X060719Y033829D01*
X060919D01*
X061019Y033729D01*
Y033629D01*
X060619D01*
X061619Y034029D02*
Y033429D01*
X061319D01*
X061219Y033529D01*
Y033729D01*
X061319Y033829D01*
X061619D01*
X061819Y033429D02*
X062018Y033629D01*
Y033829D01*
X061819Y034029D01*
X052521Y043929D02*
Y044529D01*
X052821D01*
X052921Y044429D01*
Y044229D01*
X052821Y044129D01*
X052521D01*
X053221Y044329D02*
X053421D01*
X053521Y044229D01*
Y043929D01*
X053221D01*
X053121Y044029D01*
X053221Y044129D01*
X053521D01*
X054121Y044529D02*
Y043929D01*
X053821D01*
X053721Y044029D01*
Y044229D01*
X053821Y044329D01*
X054121D01*
X052521Y042429D02*
Y043029D01*
X052821D01*
X052921Y042929D01*
Y042729D01*
X052821Y042629D01*
X052521D01*
X053221Y042829D02*
X053421D01*
X053521Y042729D01*
Y042429D01*
X053221D01*
X053121Y042529D01*
X053221Y042629D01*
X053521D01*
X054121Y043029D02*
Y042429D01*
X053821D01*
X053721Y042529D01*
Y042729D01*
X053821Y042829D01*
X054121D01*
X052521Y040929D02*
Y041529D01*
X052821D01*
X052921Y041429D01*
Y041229D01*
X052821Y041129D01*
X052521D01*
X053221Y041329D02*
X053421D01*
X053521Y041229D01*
Y040929D01*
X053221D01*
X053121Y041029D01*
X053221Y041129D01*
X053521D01*
X054121Y041529D02*
Y040929D01*
X053821D01*
X053721Y041029D01*
Y041229D01*
X053821Y041329D01*
X054121D01*
X052521Y039429D02*
Y040029D01*
X052821D01*
X052921Y039929D01*
Y039729D01*
X052821Y039629D01*
X052521D01*
X053221Y039829D02*
X053421D01*
X053521Y039729D01*
Y039429D01*
X053221D01*
X053121Y039529D01*
X053221Y039629D01*
X053521D01*
X054121Y040029D02*
Y039429D01*
X053821D01*
X053721Y039529D01*
Y039729D01*
X053821Y039829D01*
X054121D01*
X052521Y037929D02*
Y038529D01*
X052821D01*
X052921Y038429D01*
Y038229D01*
X052821Y038129D01*
X052521D01*
X053221Y038329D02*
X053421D01*
X053521Y038229D01*
Y037929D01*
X053221D01*
X053121Y038029D01*
X053221Y038129D01*
X053521D01*
X054121Y038529D02*
Y037929D01*
X053821D01*
X053721Y038029D01*
Y038229D01*
X053821Y038329D01*
X054121D01*
X052521Y036429D02*
Y037029D01*
X052821D01*
X052921Y036929D01*
Y036729D01*
X052821Y036629D01*
X052521D01*
X053221Y036829D02*
X053421D01*
X053521Y036729D01*
Y036429D01*
X053221D01*
X053121Y036529D01*
X053221Y036629D01*
X053521D01*
X054121Y037029D02*
Y036429D01*
X053821D01*
X053721Y036529D01*
Y036729D01*
X053821Y036829D01*
X054121D01*
X052521Y034929D02*
Y035529D01*
X052821D01*
X052921Y035429D01*
Y035229D01*
X052821Y035129D01*
X052521D01*
X053221Y035329D02*
X053421D01*
X053521Y035229D01*
Y034929D01*
X053221D01*
X053121Y035029D01*
X053221Y035129D01*
X053521D01*
X054121Y035529D02*
Y034929D01*
X053821D01*
X053721Y035029D01*
Y035229D01*
X053821Y035329D01*
X054121D01*
X052521Y033429D02*
Y034029D01*
X052821D01*
X052921Y033929D01*
Y033729D01*
X052821Y033629D01*
X052521D01*
X053221Y033829D02*
X053421D01*
X053521Y033729D01*
Y033429D01*
X053221D01*
X053121Y033529D01*
X053221Y033629D01*
X053521D01*
X054121Y034029D02*
Y033429D01*
X053821D01*
X053721Y033529D01*
Y033729D01*
X053821Y033829D01*
X054121D01*
X037526Y044529D02*
X037925D01*
X037726D01*
Y043929D01*
X038225D02*
X038425D01*
X038525Y044029D01*
Y044229D01*
X038425Y044329D01*
X038225D01*
X038125Y044229D01*
Y044029D01*
X038225Y043929D01*
X038725Y043729D02*
Y044329D01*
X039025D01*
X039125Y044229D01*
Y044029D01*
X039025Y043929D01*
X038725D01*
X039925Y044529D02*
Y043929D01*
X040325D01*
X040625Y044329D02*
X040825D01*
X040925Y044229D01*
Y043929D01*
X040625D01*
X040525Y044029D01*
X040625Y044129D01*
X040925D01*
X041124Y044329D02*
Y044029D01*
X041224Y043929D01*
X041524D01*
Y043829D01*
X041424Y043729D01*
X041324D01*
X041524Y043929D02*
Y044329D01*
X042024Y043929D02*
X041824D01*
X041724Y044029D01*
Y044229D01*
X041824Y044329D01*
X042024D01*
X042124Y044229D01*
Y044129D01*
X041724D01*
X042324Y044329D02*
Y043929D01*
Y044129D01*
X042424Y044229D01*
X042524Y044329D01*
X042624D01*
X043524Y044229D02*
X043924D01*
X044723Y044529D02*
Y043929D01*
X045023D01*
X045123Y044029D01*
Y044129D01*
X045023Y044229D01*
X044723D01*
X045023D01*
X045123Y044329D01*
Y044429D01*
X045023Y044529D01*
X044723D01*
X045423Y043929D02*
X045623D01*
X045723Y044029D01*
Y044229D01*
X045623Y044329D01*
X045423D01*
X045323Y044229D01*
Y044029D01*
X045423Y043929D01*
X046023Y044429D02*
Y044329D01*
X045923D01*
X046123D01*
X046023D01*
Y044029D01*
X046123Y043929D01*
X046523Y044429D02*
Y044329D01*
X046423D01*
X046623D01*
X046523D01*
Y044029D01*
X046623Y043929D01*
X047023D02*
X047222D01*
X047322Y044029D01*
Y044229D01*
X047222Y044329D01*
X047023D01*
X046923Y044229D01*
Y044029D01*
X047023Y043929D01*
X047522D02*
Y044329D01*
X047622D01*
X047722Y044229D01*
Y043929D01*
Y044229D01*
X047822Y044329D01*
X047922Y044229D01*
Y043929D01*
X048722Y044529D02*
Y043929D01*
X049122D01*
X049422Y044329D02*
X049622D01*
X049722Y044229D01*
Y043929D01*
X049422D01*
X049322Y044029D01*
X049422Y044129D01*
X049722D01*
X049922Y044329D02*
Y044029D01*
X050022Y043929D01*
X050321D01*
Y043829D01*
X050222Y043729D01*
X050122D01*
X050321Y043929D02*
Y044329D01*
X050821Y043929D02*
X050621D01*
X050521Y044029D01*
Y044229D01*
X050621Y044329D01*
X050821D01*
X050921Y044229D01*
Y044129D01*
X050521D01*
X051121Y044329D02*
Y043929D01*
Y044129D01*
X051221Y044229D01*
X051321Y044329D01*
X051421D01*
X037526Y043029D02*
X037925D01*
X037726D01*
Y042429D01*
X038225D02*
X038425D01*
X038525Y042529D01*
Y042729D01*
X038425Y042829D01*
X038225D01*
X038125Y042729D01*
Y042529D01*
X038225Y042429D01*
X038725Y042229D02*
Y042829D01*
X039025D01*
X039125Y042729D01*
Y042529D01*
X039025Y042429D01*
X038725D01*
X039925Y043029D02*
Y042429D01*
X040325D01*
X040625Y042829D02*
X040825D01*
X040925Y042729D01*
Y042429D01*
X040625D01*
X040525Y042529D01*
X040625Y042629D01*
X040925D01*
X041124Y042829D02*
Y042529D01*
X041224Y042429D01*
X041524D01*
Y042329D01*
X041424Y042229D01*
X041324D01*
X041524Y042429D02*
Y042829D01*
X042024Y042429D02*
X041824D01*
X041724Y042529D01*
Y042729D01*
X041824Y042829D01*
X042024D01*
X042124Y042729D01*
Y042629D01*
X041724D01*
X042324Y042829D02*
Y042429D01*
Y042629D01*
X042424Y042729D01*
X042524Y042829D01*
X042624D01*
X043524Y042729D02*
X043924D01*
X044723Y043029D02*
Y042429D01*
X045023D01*
X045123Y042529D01*
Y042629D01*
X045023Y042729D01*
X044723D01*
X045023D01*
X045123Y042829D01*
Y042929D01*
X045023Y043029D01*
X044723D01*
X045423Y042429D02*
X045623D01*
X045723Y042529D01*
Y042729D01*
X045623Y042829D01*
X045423D01*
X045323Y042729D01*
Y042529D01*
X045423Y042429D01*
X046023Y042929D02*
Y042829D01*
X045923D01*
X046123D01*
X046023D01*
Y042529D01*
X046123Y042429D01*
X046523Y042929D02*
Y042829D01*
X046423D01*
X046623D01*
X046523D01*
Y042529D01*
X046623Y042429D01*
X047023D02*
X047222D01*
X047322Y042529D01*
Y042729D01*
X047222Y042829D01*
X047023D01*
X046923Y042729D01*
Y042529D01*
X047023Y042429D01*
X047522D02*
Y042829D01*
X047622D01*
X047722Y042729D01*
Y042429D01*
Y042729D01*
X047822Y042829D01*
X047922Y042729D01*
Y042429D01*
X048722Y043029D02*
Y042429D01*
X049122D01*
X049422Y042829D02*
X049622D01*
X049722Y042729D01*
Y042429D01*
X049422D01*
X049322Y042529D01*
X049422Y042629D01*
X049722D01*
X049922Y042829D02*
Y042529D01*
X050022Y042429D01*
X050321D01*
Y042329D01*
X050222Y042229D01*
X050122D01*
X050321Y042429D02*
Y042829D01*
X050821Y042429D02*
X050621D01*
X050521Y042529D01*
Y042729D01*
X050621Y042829D01*
X050821D01*
X050921Y042729D01*
Y042629D01*
X050521D01*
X051121Y042829D02*
Y042429D01*
Y042629D01*
X051221Y042729D01*
X051321Y042829D01*
X051421D01*
X037526Y041529D02*
X037925D01*
X037726D01*
Y040929D01*
X038225D02*
X038425D01*
X038525Y041029D01*
Y041229D01*
X038425Y041329D01*
X038225D01*
X038125Y041229D01*
Y041029D01*
X038225Y040929D01*
X038725Y040729D02*
Y041329D01*
X039025D01*
X039125Y041229D01*
Y041029D01*
X039025Y040929D01*
X038725D01*
X039925Y041529D02*
Y040929D01*
X040325D01*
X040625Y041329D02*
X040825D01*
X040925Y041229D01*
Y040929D01*
X040625D01*
X040525Y041029D01*
X040625Y041129D01*
X040925D01*
X041124Y041329D02*
Y041029D01*
X041224Y040929D01*
X041524D01*
Y040829D01*
X041424Y040729D01*
X041324D01*
X041524Y040929D02*
Y041329D01*
X042024Y040929D02*
X041824D01*
X041724Y041029D01*
Y041229D01*
X041824Y041329D01*
X042024D01*
X042124Y041229D01*
Y041129D01*
X041724D01*
X042324Y041329D02*
Y040929D01*
Y041129D01*
X042424Y041229D01*
X042524Y041329D01*
X042624D01*
X043524Y041229D02*
X043924D01*
X044723Y041529D02*
Y040929D01*
X045023D01*
X045123Y041029D01*
Y041129D01*
X045023Y041229D01*
X044723D01*
X045023D01*
X045123Y041329D01*
Y041429D01*
X045023Y041529D01*
X044723D01*
X045423Y040929D02*
X045623D01*
X045723Y041029D01*
Y041229D01*
X045623Y041329D01*
X045423D01*
X045323Y041229D01*
Y041029D01*
X045423Y040929D01*
X046023Y041429D02*
Y041329D01*
X045923D01*
X046123D01*
X046023D01*
Y041029D01*
X046123Y040929D01*
X046523Y041429D02*
Y041329D01*
X046423D01*
X046623D01*
X046523D01*
Y041029D01*
X046623Y040929D01*
X047023D02*
X047222D01*
X047322Y041029D01*
Y041229D01*
X047222Y041329D01*
X047023D01*
X046923Y041229D01*
Y041029D01*
X047023Y040929D01*
X047522D02*
Y041329D01*
X047622D01*
X047722Y041229D01*
Y040929D01*
Y041229D01*
X047822Y041329D01*
X047922Y041229D01*
Y040929D01*
X048722Y041529D02*
Y040929D01*
X049122D01*
X049422Y041329D02*
X049622D01*
X049722Y041229D01*
Y040929D01*
X049422D01*
X049322Y041029D01*
X049422Y041129D01*
X049722D01*
X049922Y041329D02*
Y041029D01*
X050022Y040929D01*
X050321D01*
Y040829D01*
X050222Y040729D01*
X050122D01*
X050321Y040929D02*
Y041329D01*
X050821Y040929D02*
X050621D01*
X050521Y041029D01*
Y041229D01*
X050621Y041329D01*
X050821D01*
X050921Y041229D01*
Y041129D01*
X050521D01*
X051121Y041329D02*
Y040929D01*
Y041129D01*
X051221Y041229D01*
X051321Y041329D01*
X051421D01*
X037526Y040029D02*
X037925D01*
X037726D01*
Y039429D01*
X038225D02*
X038425D01*
X038525Y039529D01*
Y039729D01*
X038425Y039829D01*
X038225D01*
X038125Y039729D01*
Y039529D01*
X038225Y039429D01*
X038725Y039229D02*
Y039829D01*
X039025D01*
X039125Y039729D01*
Y039529D01*
X039025Y039429D01*
X038725D01*
X039925Y040029D02*
Y039429D01*
X040325D01*
X040625Y039829D02*
X040825D01*
X040925Y039729D01*
Y039429D01*
X040625D01*
X040525Y039529D01*
X040625Y039629D01*
X040925D01*
X041124Y039829D02*
Y039529D01*
X041224Y039429D01*
X041524D01*
Y039329D01*
X041424Y039229D01*
X041324D01*
X041524Y039429D02*
Y039829D01*
X042024Y039429D02*
X041824D01*
X041724Y039529D01*
Y039729D01*
X041824Y039829D01*
X042024D01*
X042124Y039729D01*
Y039629D01*
X041724D01*
X042324Y039829D02*
Y039429D01*
Y039629D01*
X042424Y039729D01*
X042524Y039829D01*
X042624D01*
X043524Y039729D02*
X043924D01*
X044723Y040029D02*
Y039429D01*
X045023D01*
X045123Y039529D01*
Y039629D01*
X045023Y039729D01*
X044723D01*
X045023D01*
X045123Y039829D01*
Y039929D01*
X045023Y040029D01*
X044723D01*
X045423Y039429D02*
X045623D01*
X045723Y039529D01*
Y039729D01*
X045623Y039829D01*
X045423D01*
X045323Y039729D01*
Y039529D01*
X045423Y039429D01*
X046023Y039929D02*
Y039829D01*
X045923D01*
X046123D01*
X046023D01*
Y039529D01*
X046123Y039429D01*
X046523Y039929D02*
Y039829D01*
X046423D01*
X046623D01*
X046523D01*
Y039529D01*
X046623Y039429D01*
X047023D02*
X047222D01*
X047322Y039529D01*
Y039729D01*
X047222Y039829D01*
X047023D01*
X046923Y039729D01*
Y039529D01*
X047023Y039429D01*
X047522D02*
Y039829D01*
X047622D01*
X047722Y039729D01*
Y039429D01*
Y039729D01*
X047822Y039829D01*
X047922Y039729D01*
Y039429D01*
X048722Y040029D02*
Y039429D01*
X049122D01*
X049422Y039829D02*
X049622D01*
X049722Y039729D01*
Y039429D01*
X049422D01*
X049322Y039529D01*
X049422Y039629D01*
X049722D01*
X049922Y039829D02*
Y039529D01*
X050022Y039429D01*
X050321D01*
Y039329D01*
X050222Y039229D01*
X050122D01*
X050321Y039429D02*
Y039829D01*
X050821Y039429D02*
X050621D01*
X050521Y039529D01*
Y039729D01*
X050621Y039829D01*
X050821D01*
X050921Y039729D01*
Y039629D01*
X050521D01*
X051121Y039829D02*
Y039429D01*
Y039629D01*
X051221Y039729D01*
X051321Y039829D01*
X051421D01*
X037526Y038529D02*
X037925D01*
X037726D01*
Y037929D01*
X038225D02*
X038425D01*
X038525Y038029D01*
Y038229D01*
X038425Y038329D01*
X038225D01*
X038125Y038229D01*
Y038029D01*
X038225Y037929D01*
X038725Y037729D02*
Y038329D01*
X039025D01*
X039125Y038229D01*
Y038029D01*
X039025Y037929D01*
X038725D01*
X039925Y038529D02*
Y037929D01*
X040325D01*
X040625Y038329D02*
X040825D01*
X040925Y038229D01*
Y037929D01*
X040625D01*
X040525Y038029D01*
X040625Y038129D01*
X040925D01*
X041124Y038329D02*
Y038029D01*
X041224Y037929D01*
X041524D01*
Y037829D01*
X041424Y037729D01*
X041324D01*
X041524Y037929D02*
Y038329D01*
X042024Y037929D02*
X041824D01*
X041724Y038029D01*
Y038229D01*
X041824Y038329D01*
X042024D01*
X042124Y038229D01*
Y038129D01*
X041724D01*
X042324Y038329D02*
Y037929D01*
Y038129D01*
X042424Y038229D01*
X042524Y038329D01*
X042624D01*
X043524Y038229D02*
X043924D01*
X044723Y038529D02*
Y037929D01*
X045023D01*
X045123Y038029D01*
Y038129D01*
X045023Y038229D01*
X044723D01*
X045023D01*
X045123Y038329D01*
Y038429D01*
X045023Y038529D01*
X044723D01*
X045423Y037929D02*
X045623D01*
X045723Y038029D01*
Y038229D01*
X045623Y038329D01*
X045423D01*
X045323Y038229D01*
Y038029D01*
X045423Y037929D01*
X046023Y038429D02*
Y038329D01*
X045923D01*
X046123D01*
X046023D01*
Y038029D01*
X046123Y037929D01*
X046523Y038429D02*
Y038329D01*
X046423D01*
X046623D01*
X046523D01*
Y038029D01*
X046623Y037929D01*
X047023D02*
X047222D01*
X047322Y038029D01*
Y038229D01*
X047222Y038329D01*
X047023D01*
X046923Y038229D01*
Y038029D01*
X047023Y037929D01*
X047522D02*
Y038329D01*
X047622D01*
X047722Y038229D01*
Y037929D01*
Y038229D01*
X047822Y038329D01*
X047922Y038229D01*
Y037929D01*
X048722Y038529D02*
Y037929D01*
X049122D01*
X049422Y038329D02*
X049622D01*
X049722Y038229D01*
Y037929D01*
X049422D01*
X049322Y038029D01*
X049422Y038129D01*
X049722D01*
X049922Y038329D02*
Y038029D01*
X050022Y037929D01*
X050321D01*
Y037829D01*
X050222Y037729D01*
X050122D01*
X050321Y037929D02*
Y038329D01*
X050821Y037929D02*
X050621D01*
X050521Y038029D01*
Y038229D01*
X050621Y038329D01*
X050821D01*
X050921Y038229D01*
Y038129D01*
X050521D01*
X051121Y038329D02*
Y037929D01*
Y038129D01*
X051221Y038229D01*
X051321Y038329D01*
X051421D01*
X037526Y037029D02*
X037925D01*
X037726D01*
Y036429D01*
X038225D02*
X038425D01*
X038525Y036529D01*
Y036729D01*
X038425Y036829D01*
X038225D01*
X038125Y036729D01*
Y036529D01*
X038225Y036429D01*
X038725Y036229D02*
Y036829D01*
X039025D01*
X039125Y036729D01*
Y036529D01*
X039025Y036429D01*
X038725D01*
X039925Y037029D02*
Y036429D01*
X040325D01*
X040625Y036829D02*
X040825D01*
X040925Y036729D01*
Y036429D01*
X040625D01*
X040525Y036529D01*
X040625Y036629D01*
X040925D01*
X041124Y036829D02*
Y036529D01*
X041224Y036429D01*
X041524D01*
Y036329D01*
X041424Y036229D01*
X041324D01*
X041524Y036429D02*
Y036829D01*
X042024Y036429D02*
X041824D01*
X041724Y036529D01*
Y036729D01*
X041824Y036829D01*
X042024D01*
X042124Y036729D01*
Y036629D01*
X041724D01*
X042324Y036829D02*
Y036429D01*
Y036629D01*
X042424Y036729D01*
X042524Y036829D01*
X042624D01*
X043524Y036729D02*
X043924D01*
X044723Y037029D02*
Y036429D01*
X045023D01*
X045123Y036529D01*
Y036629D01*
X045023Y036729D01*
X044723D01*
X045023D01*
X045123Y036829D01*
Y036929D01*
X045023Y037029D01*
X044723D01*
X045423Y036429D02*
X045623D01*
X045723Y036529D01*
Y036729D01*
X045623Y036829D01*
X045423D01*
X045323Y036729D01*
Y036529D01*
X045423Y036429D01*
X046023Y036929D02*
Y036829D01*
X045923D01*
X046123D01*
X046023D01*
Y036529D01*
X046123Y036429D01*
X046523Y036929D02*
Y036829D01*
X046423D01*
X046623D01*
X046523D01*
Y036529D01*
X046623Y036429D01*
X047023D02*
X047222D01*
X047322Y036529D01*
Y036729D01*
X047222Y036829D01*
X047023D01*
X046923Y036729D01*
Y036529D01*
X047023Y036429D01*
X047522D02*
Y036829D01*
X047622D01*
X047722Y036729D01*
Y036429D01*
Y036729D01*
X047822Y036829D01*
X047922Y036729D01*
Y036429D01*
X048722Y037029D02*
Y036429D01*
X049122D01*
X049422Y036829D02*
X049622D01*
X049722Y036729D01*
Y036429D01*
X049422D01*
X049322Y036529D01*
X049422Y036629D01*
X049722D01*
X049922Y036829D02*
Y036529D01*
X050022Y036429D01*
X050321D01*
Y036329D01*
X050222Y036229D01*
X050122D01*
X050321Y036429D02*
Y036829D01*
X050821Y036429D02*
X050621D01*
X050521Y036529D01*
Y036729D01*
X050621Y036829D01*
X050821D01*
X050921Y036729D01*
Y036629D01*
X050521D01*
X051121Y036829D02*
Y036429D01*
Y036629D01*
X051221Y036729D01*
X051321Y036829D01*
X051421D01*
X037526Y035529D02*
X037925D01*
X037726D01*
Y034929D01*
X038225D02*
X038425D01*
X038525Y035029D01*
Y035229D01*
X038425Y035329D01*
X038225D01*
X038125Y035229D01*
Y035029D01*
X038225Y034929D01*
X038725Y034729D02*
Y035329D01*
X039025D01*
X039125Y035229D01*
Y035029D01*
X039025Y034929D01*
X038725D01*
X039925Y035529D02*
Y034929D01*
X040325D01*
X040625Y035329D02*
X040825D01*
X040925Y035229D01*
Y034929D01*
X040625D01*
X040525Y035029D01*
X040625Y035129D01*
X040925D01*
X041124Y035329D02*
Y035029D01*
X041224Y034929D01*
X041524D01*
Y034829D01*
X041424Y034729D01*
X041324D01*
X041524Y034929D02*
Y035329D01*
X042024Y034929D02*
X041824D01*
X041724Y035029D01*
Y035229D01*
X041824Y035329D01*
X042024D01*
X042124Y035229D01*
Y035129D01*
X041724D01*
X042324Y035329D02*
Y034929D01*
Y035129D01*
X042424Y035229D01*
X042524Y035329D01*
X042624D01*
X043524Y035229D02*
X043924D01*
X044723Y035529D02*
Y034929D01*
X045023D01*
X045123Y035029D01*
Y035129D01*
X045023Y035229D01*
X044723D01*
X045023D01*
X045123Y035329D01*
Y035429D01*
X045023Y035529D01*
X044723D01*
X045423Y034929D02*
X045623D01*
X045723Y035029D01*
Y035229D01*
X045623Y035329D01*
X045423D01*
X045323Y035229D01*
Y035029D01*
X045423Y034929D01*
X046023Y035429D02*
Y035329D01*
X045923D01*
X046123D01*
X046023D01*
Y035029D01*
X046123Y034929D01*
X046523Y035429D02*
Y035329D01*
X046423D01*
X046623D01*
X046523D01*
Y035029D01*
X046623Y034929D01*
X047023D02*
X047222D01*
X047322Y035029D01*
Y035229D01*
X047222Y035329D01*
X047023D01*
X046923Y035229D01*
Y035029D01*
X047023Y034929D01*
X047522D02*
Y035329D01*
X047622D01*
X047722Y035229D01*
Y034929D01*
Y035229D01*
X047822Y035329D01*
X047922Y035229D01*
Y034929D01*
X048722Y035529D02*
Y034929D01*
X049122D01*
X049422Y035329D02*
X049622D01*
X049722Y035229D01*
Y034929D01*
X049422D01*
X049322Y035029D01*
X049422Y035129D01*
X049722D01*
X049922Y035329D02*
Y035029D01*
X050022Y034929D01*
X050321D01*
Y034829D01*
X050222Y034729D01*
X050122D01*
X050321Y034929D02*
Y035329D01*
X050821Y034929D02*
X050621D01*
X050521Y035029D01*
Y035229D01*
X050621Y035329D01*
X050821D01*
X050921Y035229D01*
Y035129D01*
X050521D01*
X051121Y035329D02*
Y034929D01*
Y035129D01*
X051221Y035229D01*
X051321Y035329D01*
X051421D01*
X037526Y034029D02*
X037925D01*
X037726D01*
Y033429D01*
X038225D02*
X038425D01*
X038525Y033529D01*
Y033729D01*
X038425Y033829D01*
X038225D01*
X038125Y033729D01*
Y033529D01*
X038225Y033429D01*
X038725Y033229D02*
Y033829D01*
X039025D01*
X039125Y033729D01*
Y033529D01*
X039025Y033429D01*
X038725D01*
X039925Y034029D02*
Y033429D01*
X040325D01*
X040625Y033829D02*
X040825D01*
X040925Y033729D01*
Y033429D01*
X040625D01*
X040525Y033529D01*
X040625Y033629D01*
X040925D01*
X041124Y033829D02*
Y033529D01*
X041224Y033429D01*
X041524D01*
Y033329D01*
X041424Y033229D01*
X041324D01*
X041524Y033429D02*
Y033829D01*
X042024Y033429D02*
X041824D01*
X041724Y033529D01*
Y033729D01*
X041824Y033829D01*
X042024D01*
X042124Y033729D01*
Y033629D01*
X041724D01*
X042324Y033829D02*
Y033429D01*
Y033629D01*
X042424Y033729D01*
X042524Y033829D01*
X042624D01*
X043524Y033729D02*
X043924D01*
X044723Y034029D02*
Y033429D01*
X045023D01*
X045123Y033529D01*
Y033629D01*
X045023Y033729D01*
X044723D01*
X045023D01*
X045123Y033829D01*
Y033929D01*
X045023Y034029D01*
X044723D01*
X045423Y033429D02*
X045623D01*
X045723Y033529D01*
Y033729D01*
X045623Y033829D01*
X045423D01*
X045323Y033729D01*
Y033529D01*
X045423Y033429D01*
X046023Y033929D02*
Y033829D01*
X045923D01*
X046123D01*
X046023D01*
Y033529D01*
X046123Y033429D01*
X046523Y033929D02*
Y033829D01*
X046423D01*
X046623D01*
X046523D01*
Y033529D01*
X046623Y033429D01*
X047023D02*
X047222D01*
X047322Y033529D01*
Y033729D01*
X047222Y033829D01*
X047023D01*
X046923Y033729D01*
Y033529D01*
X047023Y033429D01*
X047522D02*
Y033829D01*
X047622D01*
X047722Y033729D01*
Y033429D01*
Y033729D01*
X047822Y033829D01*
X047922Y033729D01*
Y033429D01*
X048722Y034029D02*
Y033429D01*
X049122D01*
X049422Y033829D02*
X049622D01*
X049722Y033729D01*
Y033429D01*
X049422D01*
X049322Y033529D01*
X049422Y033629D01*
X049722D01*
X049922Y033829D02*
Y033529D01*
X050022Y033429D01*
X050321D01*
Y033329D01*
X050222Y033229D01*
X050122D01*
X050321Y033429D02*
Y033829D01*
X050821Y033429D02*
X050621D01*
X050521Y033529D01*
Y033729D01*
X050621Y033829D01*
X050821D01*
X050921Y033729D01*
Y033629D01*
X050521D01*
X051121Y033829D02*
Y033429D01*
Y033629D01*
X051221Y033729D01*
X051321Y033829D01*
X051421D01*
X030188Y043929D02*
Y044529D01*
X030487D01*
X030587Y044429D01*
Y044229D01*
X030487Y044129D01*
X030188D01*
X030388D02*
X030587Y043929D01*
X030887D02*
X031087D01*
X031187Y044029D01*
Y044229D01*
X031087Y044329D01*
X030887D01*
X030787Y044229D01*
Y044029D01*
X030887Y043929D01*
X031387Y044329D02*
Y044029D01*
X031487Y043929D01*
X031787D01*
Y044329D01*
X031987Y043929D02*
Y044329D01*
X032287D01*
X032387Y044229D01*
Y043929D01*
X032987Y044529D02*
Y043929D01*
X032687D01*
X032587Y044029D01*
Y044229D01*
X032687Y044329D01*
X032987D01*
X030188Y042429D02*
Y043029D01*
X030487D01*
X030587Y042929D01*
Y042729D01*
X030487Y042629D01*
X030188D01*
X030388D02*
X030587Y042429D01*
X030887D02*
X031087D01*
X031187Y042529D01*
Y042729D01*
X031087Y042829D01*
X030887D01*
X030787Y042729D01*
Y042529D01*
X030887Y042429D01*
X031387Y042829D02*
Y042529D01*
X031487Y042429D01*
X031787D01*
Y042829D01*
X031987Y042429D02*
Y042829D01*
X032287D01*
X032387Y042729D01*
Y042429D01*
X032987Y043029D02*
Y042429D01*
X032687D01*
X032587Y042529D01*
Y042729D01*
X032687Y042829D01*
X032987D01*
X030188Y040929D02*
Y041529D01*
X030487D01*
X030587Y041429D01*
Y041229D01*
X030487Y041129D01*
X030188D01*
X030388D02*
X030587Y040929D01*
X030887D02*
X031087D01*
X031187Y041029D01*
Y041229D01*
X031087Y041329D01*
X030887D01*
X030787Y041229D01*
Y041029D01*
X030887Y040929D01*
X031387Y041329D02*
Y041029D01*
X031487Y040929D01*
X031787D01*
Y041329D01*
X031987Y040929D02*
Y041329D01*
X032287D01*
X032387Y041229D01*
Y040929D01*
X032987Y041529D02*
Y040929D01*
X032687D01*
X032587Y041029D01*
Y041229D01*
X032687Y041329D01*
X032987D01*
X030188Y039429D02*
Y040029D01*
X030487D01*
X030587Y039929D01*
Y039729D01*
X030487Y039629D01*
X030188D01*
X030388D02*
X030587Y039429D01*
X030887D02*
X031087D01*
X031187Y039529D01*
Y039729D01*
X031087Y039829D01*
X030887D01*
X030787Y039729D01*
Y039529D01*
X030887Y039429D01*
X031387Y039829D02*
Y039529D01*
X031487Y039429D01*
X031787D01*
Y039829D01*
X031987Y039429D02*
Y039829D01*
X032287D01*
X032387Y039729D01*
Y039429D01*
X032987Y040029D02*
Y039429D01*
X032687D01*
X032587Y039529D01*
Y039729D01*
X032687Y039829D01*
X032987D01*
X030188Y037929D02*
Y038529D01*
X030487D01*
X030587Y038429D01*
Y038229D01*
X030487Y038129D01*
X030188D01*
X030388D02*
X030587Y037929D01*
X030887D02*
X031087D01*
X031187Y038029D01*
Y038229D01*
X031087Y038329D01*
X030887D01*
X030787Y038229D01*
Y038029D01*
X030887Y037929D01*
X031387Y038329D02*
Y038029D01*
X031487Y037929D01*
X031787D01*
Y038329D01*
X031987Y037929D02*
Y038329D01*
X032287D01*
X032387Y038229D01*
Y037929D01*
X032987Y038529D02*
Y037929D01*
X032687D01*
X032587Y038029D01*
Y038229D01*
X032687Y038329D01*
X032987D01*
X030188Y036429D02*
Y037029D01*
X030487D01*
X030587Y036929D01*
Y036729D01*
X030487Y036629D01*
X030188D01*
X030388D02*
X030587Y036429D01*
X030887D02*
X031087D01*
X031187Y036529D01*
Y036729D01*
X031087Y036829D01*
X030887D01*
X030787Y036729D01*
Y036529D01*
X030887Y036429D01*
X031387Y036829D02*
Y036529D01*
X031487Y036429D01*
X031787D01*
Y036829D01*
X031987Y036429D02*
Y036829D01*
X032287D01*
X032387Y036729D01*
Y036429D01*
X032987Y037029D02*
Y036429D01*
X032687D01*
X032587Y036529D01*
Y036729D01*
X032687Y036829D01*
X032987D01*
X030188Y034929D02*
Y035529D01*
X030487D01*
X030587Y035429D01*
Y035229D01*
X030487Y035129D01*
X030188D01*
X030388D02*
X030587Y034929D01*
X030887D02*
X031087D01*
X031187Y035029D01*
Y035229D01*
X031087Y035329D01*
X030887D01*
X030787Y035229D01*
Y035029D01*
X030887Y034929D01*
X031387Y035329D02*
Y035029D01*
X031487Y034929D01*
X031787D01*
Y035329D01*
X031987Y034929D02*
Y035329D01*
X032287D01*
X032387Y035229D01*
Y034929D01*
X032987Y035529D02*
Y034929D01*
X032687D01*
X032587Y035029D01*
Y035229D01*
X032687Y035329D01*
X032987D01*
X030188Y033429D02*
Y034029D01*
X030487D01*
X030587Y033929D01*
Y033729D01*
X030487Y033629D01*
X030188D01*
X030388D02*
X030587Y033429D01*
X030887D02*
X031087D01*
X031187Y033529D01*
Y033729D01*
X031087Y033829D01*
X030887D01*
X030787Y033729D01*
Y033529D01*
X030887Y033429D01*
X031387Y033829D02*
Y033529D01*
X031487Y033429D01*
X031787D01*
Y033829D01*
X031987Y033429D02*
Y033829D01*
X032287D01*
X032387Y033729D01*
Y033429D01*
X032987Y034029D02*
Y033429D01*
X032687D01*
X032587Y033529D01*
Y033729D01*
X032687Y033829D01*
X032987D01*
X025129Y043929D02*
Y044529D01*
X025429D01*
X025529Y044429D01*
Y044229D01*
X025429Y044129D01*
X025129D01*
X025729Y044529D02*
X026129D01*
X025929D01*
Y043929D01*
X026328Y044529D02*
Y043929D01*
Y044229D01*
X026728D01*
Y044529D01*
Y043929D01*
X025129Y042429D02*
Y043029D01*
X025429D01*
X025529Y042929D01*
Y042729D01*
X025429Y042629D01*
X025129D01*
X025729Y043029D02*
X026129D01*
X025929D01*
Y042429D01*
X026328Y043029D02*
Y042429D01*
Y042729D01*
X026728D01*
Y043029D01*
Y042429D01*
X025129Y040929D02*
Y041529D01*
X025429D01*
X025529Y041429D01*
Y041229D01*
X025429Y041129D01*
X025129D01*
X025729Y041529D02*
X026129D01*
X025929D01*
Y040929D01*
X026328Y041529D02*
Y040929D01*
Y041229D01*
X026728D01*
Y041529D01*
Y040929D01*
X025129Y039429D02*
Y040029D01*
X025429D01*
X025529Y039929D01*
Y039729D01*
X025429Y039629D01*
X025129D01*
X025729Y040029D02*
X026129D01*
X025929D01*
Y039429D01*
X026328Y040029D02*
Y039429D01*
Y039729D01*
X026728D01*
Y040029D01*
Y039429D01*
X025129Y037929D02*
Y038529D01*
X025429D01*
X025529Y038429D01*
Y038229D01*
X025429Y038129D01*
X025129D01*
X025729Y038529D02*
X026129D01*
X025929D01*
Y037929D01*
X026328Y038529D02*
Y037929D01*
Y038229D01*
X026728D01*
Y038529D01*
Y037929D01*
X025129Y036429D02*
Y037029D01*
X025429D01*
X025529Y036929D01*
Y036729D01*
X025429Y036629D01*
X025129D01*
X025729Y037029D02*
X026129D01*
X025929D01*
Y036429D01*
X026328Y037029D02*
Y036429D01*
Y036729D01*
X026728D01*
Y037029D01*
Y036429D01*
X025129Y034929D02*
Y035529D01*
X025429D01*
X025529Y035429D01*
Y035229D01*
X025429Y035129D01*
X025129D01*
X025729Y035529D02*
X026129D01*
X025929D01*
Y034929D01*
X026328Y035529D02*
Y034929D01*
Y035229D01*
X026728D01*
Y035529D01*
Y034929D01*
X025129Y033429D02*
Y034029D01*
X025429D01*
X025529Y033929D01*
Y033729D01*
X025429Y033629D01*
X025129D01*
X025729Y034029D02*
X026129D01*
X025929D01*
Y033429D01*
X026328Y034029D02*
Y033429D01*
Y033729D01*
X026728D01*
Y034029D01*
Y033429D01*
X013632Y044429D02*
X013732Y044529D01*
X013932D01*
X014032Y044429D01*
Y044029D01*
X013932Y043929D01*
X013732D01*
X013632Y044029D01*
Y044429D01*
X014232Y043929D02*
Y044029D01*
X014332D01*
Y043929D01*
X014232D01*
X014732Y044529D02*
X015132D01*
Y044429D01*
X014732Y044029D01*
Y043929D01*
X015732Y044529D02*
X015532Y044429D01*
X015332Y044229D01*
Y044029D01*
X015432Y043929D01*
X015632D01*
X015732Y044029D01*
Y044129D01*
X015632Y044229D01*
X015332D01*
X016331Y043929D02*
X015931D01*
X016331Y044329D01*
Y044429D01*
X016231Y044529D01*
X016031D01*
X015931Y044429D01*
X016531Y043929D02*
Y044329D01*
X016631D01*
X016731Y044229D01*
Y043929D01*
Y044229D01*
X016831Y044329D01*
X016931Y044229D01*
Y043929D01*
X017131D02*
Y044329D01*
X017231D01*
X017331Y044229D01*
Y043929D01*
Y044229D01*
X017431Y044329D01*
X017531Y044229D01*
Y043929D01*
X018531D02*
X018331Y044129D01*
Y044329D01*
X018531Y044529D01*
X018831Y044429D02*
X01893Y044529D01*
X01913D01*
X01923Y044429D01*
Y044329D01*
X01913Y044229D01*
X01903D01*
X01913D01*
X01923Y044129D01*
Y044029D01*
X01913Y043929D01*
X01893D01*
X018831Y044029D01*
X01943Y044429D02*
X01953Y044529D01*
X01973D01*
X01983Y044429D01*
Y044029D01*
X01973Y043929D01*
X01953D01*
X01943Y044029D01*
Y044429D01*
X02003Y043929D02*
Y044029D01*
X02013D01*
Y043929D01*
X02003D01*
X02053Y044429D02*
X02063Y044529D01*
X02083D01*
X02093Y044429D01*
Y044029D01*
X02083Y043929D01*
X02063D01*
X02053Y044029D01*
Y044429D01*
X02113D02*
X02123Y044529D01*
X02143D01*
X02153Y044429D01*
Y044029D01*
X02143Y043929D01*
X02123D01*
X02113Y044029D01*
Y044429D01*
X02173Y043929D02*
Y044329D01*
X02183D01*
X02193Y044229D01*
Y043929D01*
Y044229D01*
X022029Y044329D01*
X022129Y044229D01*
Y043929D01*
X022329D02*
X022529D01*
X022429D01*
Y044329D01*
X022329D01*
X022829Y043929D02*
X023029D01*
X022929D01*
Y044529D01*
X022829D01*
X023329Y043929D02*
X023529Y044129D01*
Y044329D01*
X023329Y044529D01*
X013632Y042929D02*
X013732Y043029D01*
X013932D01*
X014032Y042929D01*
Y042829D01*
X013932Y042729D01*
X013832D01*
X013932D01*
X014032Y042629D01*
Y042529D01*
X013932Y042429D01*
X013732D01*
X013632Y042529D01*
X014232Y042429D02*
Y042529D01*
X014332D01*
Y042429D01*
X014232D01*
X014732Y042929D02*
X014832Y043029D01*
X015032D01*
X015132Y042929D01*
Y042529D01*
X015032Y042429D01*
X014832D01*
X014732Y042529D01*
Y042929D01*
X015332D02*
X015432Y043029D01*
X015632D01*
X015732Y042929D01*
Y042529D01*
X015632Y042429D01*
X015432D01*
X015332Y042529D01*
Y042929D01*
X015931D02*
X016031Y043029D01*
X016231D01*
X016331Y042929D01*
Y042529D01*
X016231Y042429D01*
X016031D01*
X015931Y042529D01*
Y042929D01*
X016531Y042429D02*
Y042829D01*
X016631D01*
X016731Y042729D01*
Y042429D01*
Y042729D01*
X016831Y042829D01*
X016931Y042729D01*
Y042429D01*
X017131D02*
Y042829D01*
X017231D01*
X017331Y042729D01*
Y042429D01*
Y042729D01*
X017431Y042829D01*
X017531Y042729D01*
Y042429D01*
X018531D02*
X018331Y042629D01*
Y042829D01*
X018531Y043029D01*
X018831Y042429D02*
X01903D01*
X01893D01*
Y043029D01*
X018831Y042929D01*
X01933Y042429D02*
X01953D01*
X01943D01*
Y043029D01*
X01933Y042929D01*
X01983D02*
X01993Y043029D01*
X02013D01*
X02023Y042929D01*
Y042829D01*
X02013Y042729D01*
X02023Y042629D01*
Y042529D01*
X02013Y042429D01*
X01993D01*
X01983Y042529D01*
Y042629D01*
X01993Y042729D01*
X01983Y042829D01*
Y042929D01*
X01993Y042729D02*
X02013D01*
X02043Y042429D02*
Y042529D01*
X02053D01*
Y042429D01*
X02043D01*
X02093D02*
X02113D01*
X02103D01*
Y043029D01*
X02093Y042929D01*
X02143Y042429D02*
X02163D01*
X02153D01*
Y043029D01*
X02143Y042929D01*
X02193Y042429D02*
Y042829D01*
X022029D01*
X022129Y042729D01*
Y042429D01*
Y042729D01*
X022229Y042829D01*
X022329Y042729D01*
Y042429D01*
X022529D02*
X022729D01*
X022629D01*
Y042829D01*
X022529D01*
X023029Y042429D02*
X023229D01*
X023129D01*
Y043029D01*
X023029D01*
X023529Y042429D02*
X023729Y042629D01*
Y042829D01*
X023529Y043029D01*
X013632Y041429D02*
X013732Y041529D01*
X013932D01*
X014032Y041429D01*
Y041329D01*
X013932Y041229D01*
X013832D01*
X013932D01*
X014032Y041129D01*
Y041029D01*
X013932Y040929D01*
X013732D01*
X013632Y041029D01*
X014232Y040929D02*
Y041029D01*
X014332D01*
Y040929D01*
X014232D01*
X015132Y041529D02*
X014732D01*
Y041229D01*
X014932Y041329D01*
X015032D01*
X015132Y041229D01*
Y041029D01*
X015032Y040929D01*
X014832D01*
X014732Y041029D01*
X015332Y041429D02*
X015432Y041529D01*
X015632D01*
X015732Y041429D01*
Y041029D01*
X015632Y040929D01*
X015432D01*
X015332Y041029D01*
Y041429D01*
X015931D02*
X016031Y041529D01*
X016231D01*
X016331Y041429D01*
Y041029D01*
X016231Y040929D01*
X016031D01*
X015931Y041029D01*
Y041429D01*
X016531Y040929D02*
Y041329D01*
X016631D01*
X016731Y041229D01*
Y040929D01*
Y041229D01*
X016831Y041329D01*
X016931Y041229D01*
Y040929D01*
X017131D02*
Y041329D01*
X017231D01*
X017331Y041229D01*
Y040929D01*
Y041229D01*
X017431Y041329D01*
X017531Y041229D01*
Y040929D01*
X018531D02*
X018331Y041129D01*
Y041329D01*
X018531Y041529D01*
X018831Y040929D02*
X01903D01*
X01893D01*
Y041529D01*
X018831Y041429D01*
X01933D02*
X01943Y041529D01*
X01963D01*
X01973Y041429D01*
Y041329D01*
X01963Y041229D01*
X01953D01*
X01963D01*
X01973Y041129D01*
Y041029D01*
X01963Y040929D01*
X01943D01*
X01933Y041029D01*
X01993Y041529D02*
X02033D01*
Y041429D01*
X01993Y041029D01*
Y040929D01*
X02053D02*
Y041029D01*
X02063D01*
Y040929D01*
X02053D01*
X02103Y041529D02*
X02143D01*
Y041429D01*
X02103Y041029D01*
Y040929D01*
X02163Y041029D02*
X02173Y040929D01*
X02193D01*
X022029Y041029D01*
Y041429D01*
X02193Y041529D01*
X02173D01*
X02163Y041429D01*
Y041329D01*
X02173Y041229D01*
X022029D01*
X022229Y040929D02*
Y041329D01*
X022329D01*
X022429Y041229D01*
Y040929D01*
Y041229D01*
X022529Y041329D01*
X022629Y041229D01*
Y040929D01*
X022829D02*
X023029D01*
X022929D01*
Y041329D01*
X022829D01*
X023329Y040929D02*
X023529D01*
X023429D01*
Y041529D01*
X023329D01*
X023829Y040929D02*
X024029Y041129D01*
Y041329D01*
X023829Y041529D01*
X013632Y039929D02*
X013732Y040029D01*
X013932D01*
X014032Y039929D01*
Y039529D01*
X013932Y039429D01*
X013732D01*
X013632Y039529D01*
Y039929D01*
X014232Y039429D02*
Y039529D01*
X014332D01*
Y039429D01*
X014232D01*
X014732Y040029D02*
X015132D01*
Y039929D01*
X014732Y039529D01*
Y039429D01*
X015332Y039929D02*
X015432Y040029D01*
X015632D01*
X015732Y039929D01*
Y039829D01*
X015632Y039729D01*
X015732Y039629D01*
Y039529D01*
X015632Y039429D01*
X015432D01*
X015332Y039529D01*
Y039629D01*
X015432Y039729D01*
X015332Y039829D01*
Y039929D01*
X015432Y039729D02*
X015632D01*
X015931Y040029D02*
X016331D01*
Y039929D01*
X015931Y039529D01*
Y039429D01*
X016531D02*
Y039829D01*
X016631D01*
X016731Y039729D01*
Y039429D01*
Y039729D01*
X016831Y039829D01*
X016931Y039729D01*
Y039429D01*
X017131D02*
Y039829D01*
X017231D01*
X017331Y039729D01*
Y039429D01*
Y039729D01*
X017431Y039829D01*
X017531Y039729D01*
Y039429D01*
X018531D02*
X018331Y039629D01*
Y039829D01*
X018531Y040029D01*
X018831Y039929D02*
X01893Y040029D01*
X01913D01*
X01923Y039929D01*
Y039829D01*
X01913Y039729D01*
X01903D01*
X01913D01*
X01923Y039629D01*
Y039529D01*
X01913Y039429D01*
X01893D01*
X018831Y039529D01*
X01943Y039429D02*
X01963D01*
X01953D01*
Y040029D01*
X01943Y039929D01*
X01993Y039429D02*
Y039529D01*
X02003D01*
Y039429D01*
X01993D01*
X02043Y039929D02*
X02053Y040029D01*
X02073D01*
X02083Y039929D01*
Y039529D01*
X02073Y039429D01*
X02053D01*
X02043Y039529D01*
Y039929D01*
X02103D02*
X02113Y040029D01*
X02133D01*
X02143Y039929D01*
Y039529D01*
X02133Y039429D01*
X02113D01*
X02103Y039529D01*
Y039929D01*
X02163Y039429D02*
Y039829D01*
X02173D01*
X02183Y039729D01*
Y039429D01*
Y039729D01*
X02193Y039829D01*
X022029Y039729D01*
Y039429D01*
X022229D02*
X022429D01*
X022329D01*
Y039829D01*
X022229D01*
X022729Y039429D02*
X022929D01*
X022829D01*
Y040029D01*
X022729D01*
X023229Y039429D02*
X023429Y039629D01*
Y039829D01*
X023229Y040029D01*
X013632Y038429D02*
X013732Y038529D01*
X013932D01*
X014032Y038429D01*
Y038029D01*
X013932Y037929D01*
X013732D01*
X013632Y038029D01*
Y038429D01*
X014232Y037929D02*
Y038029D01*
X014332D01*
Y037929D01*
X014232D01*
X014732Y038429D02*
X014832Y038529D01*
X015032D01*
X015132Y038429D01*
Y038329D01*
X015032Y038229D01*
X015132Y038129D01*
Y038029D01*
X015032Y037929D01*
X014832D01*
X014732Y038029D01*
Y038129D01*
X014832Y038229D01*
X014732Y038329D01*
Y038429D01*
X014832Y038229D02*
X015032D01*
X015332Y037929D02*
X015532D01*
X015432D01*
Y038529D01*
X015332Y038429D01*
X015831D02*
X015931Y038529D01*
X016131D01*
X016231Y038429D01*
Y038329D01*
X016131Y038229D01*
X016031D01*
X016131D01*
X016231Y038129D01*
Y038029D01*
X016131Y037929D01*
X015931D01*
X015831Y038029D01*
X016431Y037929D02*
Y038329D01*
X016531D01*
X016631Y038229D01*
Y037929D01*
Y038229D01*
X016731Y038329D01*
X016831Y038229D01*
Y037929D01*
X017031D02*
Y038329D01*
X017131D01*
X017231Y038229D01*
Y037929D01*
Y038229D01*
X017331Y038329D01*
X017431Y038229D01*
Y037929D01*
X018431D02*
X018231Y038129D01*
Y038329D01*
X018431Y038529D01*
X018731Y038429D02*
X018831Y038529D01*
X01903D01*
X01913Y038429D01*
Y038329D01*
X01903Y038229D01*
X01893D01*
X01903D01*
X01913Y038129D01*
Y038029D01*
X01903Y037929D01*
X018831D01*
X018731Y038029D01*
X01973Y037929D02*
X01933D01*
X01973Y038329D01*
Y038429D01*
X01963Y038529D01*
X01943D01*
X01933Y038429D01*
X01993Y037929D02*
Y038029D01*
X02003D01*
Y037929D01*
X01993D01*
X02043Y038429D02*
X02053Y038529D01*
X02073D01*
X02083Y038429D01*
Y038029D01*
X02073Y037929D01*
X02053D01*
X02043Y038029D01*
Y038429D01*
X02103D02*
X02113Y038529D01*
X02133D01*
X02143Y038429D01*
Y038029D01*
X02133Y037929D01*
X02113D01*
X02103Y038029D01*
Y038429D01*
X02163Y037929D02*
Y038329D01*
X02173D01*
X02183Y038229D01*
Y037929D01*
Y038229D01*
X02193Y038329D01*
X022029Y038229D01*
Y037929D01*
X022229D02*
X022429D01*
X022329D01*
Y038329D01*
X022229D01*
X022729Y037929D02*
X022929D01*
X022829D01*
Y038529D01*
X022729D01*
X023229Y037929D02*
X023429Y038129D01*
Y038329D01*
X023229Y038529D01*
X013632Y036929D02*
X013732Y037029D01*
X013932D01*
X014032Y036929D01*
Y036529D01*
X013932Y036429D01*
X013732D01*
X013632Y036529D01*
Y036929D01*
X014232Y036429D02*
Y036529D01*
X014332D01*
Y036429D01*
X014232D01*
X014732Y036529D02*
X014832Y036429D01*
X015032D01*
X015132Y036529D01*
Y036929D01*
X015032Y037029D01*
X014832D01*
X014732Y036929D01*
Y036829D01*
X014832Y036729D01*
X015132D01*
X015332Y036429D02*
X015532D01*
X015432D01*
Y037029D01*
X015332Y036929D01*
X016131Y036429D02*
Y037029D01*
X015831Y036729D01*
X016231D01*
X016431Y036429D02*
Y036829D01*
X016531D01*
X016631Y036729D01*
Y036429D01*
Y036729D01*
X016731Y036829D01*
X016831Y036729D01*
Y036429D01*
X017031D02*
Y036829D01*
X017131D01*
X017231Y036729D01*
Y036429D01*
Y036729D01*
X017331Y036829D01*
X017431Y036729D01*
Y036429D01*
X018431D02*
X018231Y036629D01*
Y036829D01*
X018431Y037029D01*
X018731Y036929D02*
X018831Y037029D01*
X01903D01*
X01913Y036929D01*
Y036829D01*
X01903Y036729D01*
X01893D01*
X01903D01*
X01913Y036629D01*
Y036529D01*
X01903Y036429D01*
X018831D01*
X018731Y036529D01*
X01973Y037029D02*
X01953Y036929D01*
X01933Y036729D01*
Y036529D01*
X01943Y036429D01*
X01963D01*
X01973Y036529D01*
Y036629D01*
X01963Y036729D01*
X01933D01*
X01993Y036429D02*
Y036529D01*
X02003D01*
Y036429D01*
X01993D01*
X02043Y036929D02*
X02053Y037029D01*
X02073D01*
X02083Y036929D01*
Y036529D01*
X02073Y036429D01*
X02053D01*
X02043Y036529D01*
Y036929D01*
X02103D02*
X02113Y037029D01*
X02133D01*
X02143Y036929D01*
Y036529D01*
X02133Y036429D01*
X02113D01*
X02103Y036529D01*
Y036929D01*
X02163Y036429D02*
Y036829D01*
X02173D01*
X02183Y036729D01*
Y036429D01*
Y036729D01*
X02193Y036829D01*
X022029Y036729D01*
Y036429D01*
X022229D02*
X022429D01*
X022329D01*
Y036829D01*
X022229D01*
X022729Y036429D02*
X022929D01*
X022829D01*
Y037029D01*
X022729D01*
X023229Y036429D02*
X023429Y036629D01*
Y036829D01*
X023229Y037029D01*
X013632Y034929D02*
X013832D01*
X013732D01*
Y035529D01*
X013632Y035429D01*
X014132Y034929D02*
Y035029D01*
X014232D01*
Y034929D01*
X014132D01*
X014632Y035429D02*
X014732Y035529D01*
X014932D01*
X015032Y035429D01*
Y035029D01*
X014932Y034929D01*
X014732D01*
X014632Y035029D01*
Y035429D01*
X015232D02*
X015332Y035529D01*
X015532D01*
X015632Y035429D01*
Y035029D01*
X015532Y034929D01*
X015332D01*
X015232Y035029D01*
Y035429D01*
X015831D02*
X015931Y035529D01*
X016131D01*
X016231Y035429D01*
Y035029D01*
X016131Y034929D01*
X015931D01*
X015831Y035029D01*
Y035429D01*
X016431Y034929D02*
Y035329D01*
X016531D01*
X016631Y035229D01*
Y034929D01*
Y035229D01*
X016731Y035329D01*
X016831Y035229D01*
Y034929D01*
X017031D02*
Y035329D01*
X017131D01*
X017231Y035229D01*
Y034929D01*
Y035229D01*
X017331Y035329D01*
X017431Y035229D01*
Y034929D01*
X018431D02*
X018231Y035129D01*
Y035329D01*
X018431Y035529D01*
X018731Y035429D02*
X018831Y035529D01*
X01903D01*
X01913Y035429D01*
Y035329D01*
X01903Y035229D01*
X01893D01*
X01903D01*
X01913Y035129D01*
Y035029D01*
X01903Y034929D01*
X018831D01*
X018731Y035029D01*
X01933D02*
X01943Y034929D01*
X01963D01*
X01973Y035029D01*
Y035429D01*
X01963Y035529D01*
X01943D01*
X01933Y035429D01*
Y035329D01*
X01943Y035229D01*
X01973D01*
X01993Y034929D02*
Y035029D01*
X02003D01*
Y034929D01*
X01993D01*
X02043Y035429D02*
X02053Y035529D01*
X02073D01*
X02083Y035429D01*
Y035329D01*
X02073Y035229D01*
X02063D01*
X02073D01*
X02083Y035129D01*
Y035029D01*
X02073Y034929D01*
X02053D01*
X02043Y035029D01*
X02103Y035529D02*
X02143D01*
Y035429D01*
X02103Y035029D01*
Y034929D01*
X02163D02*
Y035329D01*
X02173D01*
X02183Y035229D01*
Y034929D01*
Y035229D01*
X02193Y035329D01*
X022029Y035229D01*
Y034929D01*
X022229D02*
X022429D01*
X022329D01*
Y035329D01*
X022229D01*
X022729Y034929D02*
X022929D01*
X022829D01*
Y035529D01*
X022729D01*
X023229Y034929D02*
X023429Y035129D01*
Y035329D01*
X023229Y035529D01*
X013632Y033929D02*
X013732Y034029D01*
X013932D01*
X014032Y033929D01*
Y033529D01*
X013932Y033429D01*
X013732D01*
X013632Y033529D01*
Y033929D01*
X014232Y033429D02*
Y033529D01*
X014332D01*
Y033429D01*
X014232D01*
X014732Y033929D02*
X014832Y034029D01*
X015032D01*
X015132Y033929D01*
Y033829D01*
X015032Y033729D01*
X015132Y033629D01*
Y033529D01*
X015032Y033429D01*
X014832D01*
X014732Y033529D01*
Y033629D01*
X014832Y033729D01*
X014732Y033829D01*
Y033929D01*
X014832Y033729D02*
X015032D01*
X015332Y033929D02*
X015432Y034029D01*
X015632D01*
X015732Y033929D01*
Y033529D01*
X015632Y033429D01*
X015432D01*
X015332Y033529D01*
Y033929D01*
X015931D02*
X016031Y034029D01*
X016231D01*
X016331Y033929D01*
Y033529D01*
X016231Y033429D01*
X016031D01*
X015931Y033529D01*
Y033929D01*
X016531Y033429D02*
Y033829D01*
X016631D01*
X016731Y033729D01*
Y033429D01*
Y033729D01*
X016831Y033829D01*
X016931Y033729D01*
Y033429D01*
X017131D02*
Y033829D01*
X017231D01*
X017331Y033729D01*
Y033429D01*
Y033729D01*
X017431Y033829D01*
X017531Y033729D01*
Y033429D01*
X018531D02*
X018331Y033629D01*
Y033829D01*
X018531Y034029D01*
X018831Y033929D02*
X01893Y034029D01*
X01913D01*
X01923Y033929D01*
Y033829D01*
X01913Y033729D01*
X01903D01*
X01913D01*
X01923Y033629D01*
Y033529D01*
X01913Y033429D01*
X01893D01*
X018831Y033529D01*
X01943Y033429D02*
X01963D01*
X01953D01*
Y034029D01*
X01943Y033929D01*
X01993Y033429D02*
Y033529D01*
X02003D01*
Y033429D01*
X01993D01*
X02083Y034029D02*
X02043D01*
Y033729D01*
X02063Y033829D01*
X02073D01*
X02083Y033729D01*
Y033529D01*
X02073Y033429D01*
X02053D01*
X02043Y033529D01*
X02103Y033929D02*
X02113Y034029D01*
X02133D01*
X02143Y033929D01*
Y033529D01*
X02133Y033429D01*
X02113D01*
X02103Y033529D01*
Y033929D01*
X02163Y033429D02*
Y033829D01*
X02173D01*
X02183Y033729D01*
Y033429D01*
Y033729D01*
X02193Y033829D01*
X022029Y033729D01*
Y033429D01*
X022229D02*
X022429D01*
X022329D01*
Y033829D01*
X022229D01*
X022729Y033429D02*
X022929D01*
X022829D01*
Y034029D01*
X022729D01*
X023229Y033429D02*
X023429Y033629D01*
Y033829D01*
X023229Y034029D01*
X007734Y031929D02*
X007934D01*
X007834D01*
Y032529D01*
X007734Y032429D01*
X008234D02*
X008334Y032529D01*
X008533D01*
X008633Y032429D01*
Y032029D01*
X008533Y031929D01*
X008334D01*
X008234Y032029D01*
Y032429D01*
X009233Y031929D02*
X008833D01*
X009233Y032329D01*
Y032429D01*
X009133Y032529D01*
X008933D01*
X008833Y032429D01*
X010033Y032529D02*
X010433D01*
X010233D01*
Y031929D01*
X010733D02*
X010933D01*
X011033Y032029D01*
Y032229D01*
X010933Y032329D01*
X010733D01*
X010633Y032229D01*
Y032029D01*
X010733Y031929D01*
X011333Y032429D02*
Y032329D01*
X011233D01*
X011433D01*
X011333D01*
Y032029D01*
X011433Y031929D01*
X011832Y032329D02*
X012032D01*
X012132Y032229D01*
Y031929D01*
X011832D01*
X011732Y032029D01*
X011832Y032129D01*
X012132D01*
X012332Y031929D02*
X012532D01*
X012432D01*
Y032529D01*
X012332D01*
X007734Y044429D02*
X007834Y044529D01*
X008034D01*
X008134Y044429D01*
Y044329D01*
X008034Y044229D01*
X007934D01*
X008034D01*
X008134Y044129D01*
Y044029D01*
X008034Y043929D01*
X007834D01*
X007734Y044029D01*
X008034Y042429D02*
Y043029D01*
X007734Y042729D01*
X008134D01*
X008034Y040929D02*
Y041529D01*
X007734Y041229D01*
X008134D01*
Y040029D02*
X007934Y039929D01*
X007734Y039729D01*
Y039529D01*
X007834Y039429D01*
X008034D01*
X008134Y039529D01*
Y039629D01*
X008034Y039729D01*
X007734D01*
X008134Y038529D02*
X007934Y038429D01*
X007734Y038229D01*
Y038029D01*
X007834Y037929D01*
X008034D01*
X008134Y038029D01*
Y038129D01*
X008034Y038229D01*
X007734D01*
Y036429D02*
X007934D01*
X007834D01*
Y037029D01*
X007734Y036929D01*
X008633Y037029D02*
X008434Y036929D01*
X008234Y036729D01*
Y036529D01*
X008334Y036429D01*
X008533D01*
X008633Y036529D01*
Y036629D01*
X008533Y036729D01*
X008234D01*
X008134Y034929D02*
X007734D01*
X008134Y035329D01*
Y035429D01*
X008034Y035529D01*
X007834D01*
X007734Y035429D01*
X008334D02*
X008434Y035529D01*
X008633D01*
X008733Y035429D01*
Y035329D01*
X008633Y035229D01*
X008533D01*
X008633D01*
X008733Y035129D01*
Y035029D01*
X008633Y034929D01*
X008434D01*
X008334Y035029D01*
X008034Y033429D02*
Y034029D01*
X007734Y033729D01*
X008134D01*
X008334Y033929D02*
X008434Y034029D01*
X008633D01*
X008733Y033929D01*
Y033529D01*
X008633Y033429D01*
X008434D01*
X008334Y033529D01*
Y033929D01*
D50*
X001775Y044979D02*
X109085D01*
X001775Y032979D02*
X109085D01*
X001775Y031479D02*
X109085D01*
Y046479D01*
X001775D02*
X109085D01*
X001775Y031479D02*
Y046479D01*
X095299Y031479D02*
Y046479D01*
X081963Y031479D02*
Y046479D01*
X073425Y031479D02*
Y046479D01*
X065428Y031479D02*
Y046479D01*
X05797Y031479D02*
Y046479D01*
X052071Y031479D02*
Y046479D01*
X037076Y031479D02*
Y046479D01*
X029738Y031479D02*
Y046479D01*
X024679Y031479D02*
Y046479D01*
X013182Y031479D02*
Y046479D01*
X007284Y031479D02*
Y046479D01*
D51*
X06005Y014835D02*
X0601Y014785D01*
X06Y014835D02*
X06005D01*
X06D02*
X06005Y014885D01*
X06Y014935D02*
X06005Y014885D01*
X06Y014935D02*
X06005D01*
X0601Y014985D01*
X06015Y014935D01*
X0602D01*
X06015Y014885D02*
X0602Y014935D01*
X06015Y014885D02*
X0602Y014835D01*
X06015D02*
X0602D01*
X0601Y014785D02*
X06015Y014835D01*
X0475Y015085D02*
X0476Y015135D01*
X0477Y015085D01*
X04765Y015185D02*
X0477Y015085D01*
X04765Y015185D02*
X0477Y015285D01*
X0476Y015235D02*
X0477Y015285D01*
X0475D02*
X0476Y015235D01*
X0475Y015285D02*
X04755Y015185D01*
X0475Y015085D02*
X04755Y015185D01*
X0465Y015085D02*
X0466Y015135D01*
X0467Y015085D01*
X04665Y015185D02*
X0467Y015085D01*
X04665Y015185D02*
X0467Y015285D01*
X0466Y015235D02*
X0467Y015285D01*
X0465D02*
X0466Y015235D01*
X0465Y015285D02*
X04655Y015185D01*
X0465Y015085D02*
X04655Y015185D01*
X0455Y015085D02*
X0456Y015135D01*
X0457Y015085D01*
X04565Y015185D02*
X0457Y015085D01*
X04565Y015185D02*
X0457Y015285D01*
X0456Y015235D02*
X0457Y015285D01*
X0455D02*
X0456Y015235D01*
X0455Y015285D02*
X04555Y015185D01*
X0455Y015085D02*
X04555Y015185D01*
X0445Y015085D02*
X0446Y015135D01*
X0447Y015085D01*
X04465Y015185D02*
X0447Y015085D01*
X04465Y015185D02*
X0447Y015285D01*
X0446Y015235D02*
X0447Y015285D01*
X0445D02*
X0446Y015235D01*
X0445Y015285D02*
X04455Y015185D01*
X0445Y015085D02*
X04455Y015185D01*
X0435Y015085D02*
X0436Y015135D01*
X0437Y015085D01*
X04365Y015185D02*
X0437Y015085D01*
X04365Y015185D02*
X0437Y015285D01*
X0436Y015235D02*
X0437Y015285D01*
X0435D02*
X0436Y015235D01*
X0435Y015285D02*
X04355Y015185D01*
X0435Y015085D02*
X04355Y015185D01*
X0425Y015085D02*
X0426Y015135D01*
X0427Y015085D01*
X04265Y015185D02*
X0427Y015085D01*
X04265Y015185D02*
X0427Y015285D01*
X0426Y015235D02*
X0427Y015285D01*
X0425D02*
X0426Y015235D01*
X0425Y015285D02*
X04255Y015185D01*
X0425Y015085D02*
X04255Y015185D01*
X0415Y015085D02*
X0416Y015135D01*
X0417Y015085D01*
X04165Y015185D02*
X0417Y015085D01*
X04165Y015185D02*
X0417Y015285D01*
X0416Y015235D02*
X0417Y015285D01*
X0415D02*
X0416Y015235D01*
X0415Y015285D02*
X04155Y015185D01*
X0415Y015085D02*
X04155Y015185D01*
X0405Y015085D02*
X0406Y015135D01*
X0407Y015085D01*
X04065Y015185D02*
X0407Y015085D01*
X04065Y015185D02*
X0407Y015285D01*
X0406Y015235D02*
X0407Y015285D01*
X0405D02*
X0406Y015235D01*
X0405Y015285D02*
X04055Y015185D01*
X0405Y015085D02*
X04055Y015185D01*
X0395Y015085D02*
X0396Y015135D01*
X0397Y015085D01*
X03965Y015185D02*
X0397Y015085D01*
X03965Y015185D02*
X0397Y015285D01*
X0396Y015235D02*
X0397Y015285D01*
X0395D02*
X0396Y015235D01*
X0395Y015285D02*
X03955Y015185D01*
X0395Y015085D02*
X03955Y015185D01*
X0385Y015085D02*
X0386Y015135D01*
X0387Y015085D01*
X03865Y015185D02*
X0387Y015085D01*
X03865Y015185D02*
X0387Y015285D01*
X0386Y015235D02*
X0387Y015285D01*
X0385D02*
X0386Y015235D01*
X0385Y015285D02*
X03855Y015185D01*
X0385Y015085D02*
X03855Y015185D01*
X0375Y015085D02*
X0376Y015135D01*
X0377Y015085D01*
X03765Y015185D02*
X0377Y015085D01*
X03765Y015185D02*
X0377Y015285D01*
X0376Y015235D02*
X0377Y015285D01*
X0375D02*
X0376Y015235D01*
X0375Y015285D02*
X03755Y015185D01*
X0375Y015085D02*
X03755Y015185D01*
X0365Y015085D02*
X0366Y015135D01*
X0367Y015085D01*
X03665Y015185D02*
X0367Y015085D01*
X03665Y015185D02*
X0367Y015285D01*
X0366Y015235D02*
X0367Y015285D01*
X0365D02*
X0366Y015235D01*
X0365Y015285D02*
X03655Y015185D01*
X0365Y015085D02*
X03655Y015185D01*
X0355Y015085D02*
X0356Y015135D01*
X0357Y015085D01*
X03565Y015185D02*
X0357Y015085D01*
X03565Y015185D02*
X0357Y015285D01*
X0356Y015235D02*
X0357Y015285D01*
X0355D02*
X0356Y015235D01*
X0355Y015285D02*
X03555Y015185D01*
X0355Y015085D02*
X03555Y015185D01*
X0345Y015085D02*
X0346Y015135D01*
X0347Y015085D01*
X03465Y015185D02*
X0347Y015085D01*
X03465Y015185D02*
X0347Y015285D01*
X0346Y015235D02*
X0347Y015285D01*
X0345D02*
X0346Y015235D01*
X0345Y015285D02*
X03455Y015185D01*
X0345Y015085D02*
X03455Y015185D01*
X0335Y015085D02*
X0336Y015135D01*
X0337Y015085D01*
X03365Y015185D02*
X0337Y015085D01*
X03365Y015185D02*
X0337Y015285D01*
X0336Y015235D02*
X0337Y015285D01*
X0335D02*
X0336Y015235D01*
X0335Y015285D02*
X03355Y015185D01*
X0335Y015085D02*
X03355Y015185D01*
X0325Y015085D02*
X0326Y015135D01*
X0327Y015085D01*
X03265Y015185D02*
X0327Y015085D01*
X03265Y015185D02*
X0327Y015285D01*
X0326Y015235D02*
X0327Y015285D01*
X0325D02*
X0326Y015235D01*
X0325Y015285D02*
X03255Y015185D01*
X0325Y015085D02*
X03255Y015185D01*
X06005Y002685D02*
X0601Y002635D01*
X06Y002685D02*
X06005D01*
X06D02*
X06005Y002735D01*
X06Y002785D02*
X06005Y002735D01*
X06Y002785D02*
X06005D01*
X0601Y002835D01*
X06015Y002785D01*
X0602D01*
X06015Y002735D02*
X0602Y002785D01*
X06015Y002735D02*
X0602Y002685D01*
X06015D02*
X0602D01*
X0601Y002635D02*
X06015Y002685D01*
X03055Y002635D02*
X0306Y002585D01*
X0305Y002635D02*
X03055D01*
X0305D02*
X03055Y002685D01*
X0305Y002735D02*
X03055Y002685D01*
X0305Y002735D02*
X03055D01*
X0306Y002785D01*
X03065Y002735D01*
X0307D01*
X03065Y002685D02*
X0307Y002735D01*
X03065Y002685D02*
X0307Y002635D01*
X03065D02*
X0307D01*
X0306Y002585D02*
X03065Y002635D01*
X03055Y014835D02*
X0306Y014785D01*
X0305Y014835D02*
X03055D01*
X0305D02*
X03055Y014885D01*
X0305Y014935D02*
X03055Y014885D01*
X0305Y014935D02*
X03055D01*
X0306Y014985D01*
X03065Y014935D01*
X0307D01*
X03065Y014885D02*
X0307Y014935D01*
X03065Y014885D02*
X0307Y014835D01*
X03065D02*
X0307D01*
X0306Y014785D02*
X03065Y014835D01*
X05035Y0224D02*
X05055D01*
Y0226D01*
X05035D02*
X05055D01*
X05035Y0224D02*
Y0226D01*
X05435Y0224D02*
X05455D01*
Y0226D01*
X05435D02*
X05455D01*
X05435Y0224D02*
Y0226D01*
X0493Y0235D02*
X0494Y0237D01*
X0492D02*
X0494D01*
X0492D02*
X0493Y0235D01*
Y0225D02*
X0494Y0227D01*
X0492D02*
X0494D01*
X0492D02*
X0493Y0225D01*
X05435Y02365D02*
X05455D01*
Y02385D01*
X05435D02*
X05455D01*
X05435Y02365D02*
Y02385D01*
X05035Y02365D02*
X05055D01*
Y02385D01*
X05035D02*
X05055D01*
X05035Y02365D02*
Y02385D01*
X0285Y0181D02*
X0287D01*
Y0183D01*
X0285D02*
X0287D01*
X0285Y0181D02*
Y0183D01*
Y0191D02*
X0287D01*
Y0193D01*
X0285D02*
X0287D01*
X0285Y0191D02*
Y0193D01*
X03405Y0191D02*
Y01915D01*
X0341Y0192D01*
X03405Y01925D02*
X0341Y0192D01*
X03405Y01925D02*
Y0193D01*
X0341D01*
X03415Y01925D01*
X0342Y0193D01*
X03425D01*
Y01925D02*
Y0193D01*
X0342Y0192D02*
X03425Y01925D01*
X0342Y0192D02*
X03425Y01915D01*
Y0191D02*
Y01915D01*
X0342Y0191D02*
X03425D01*
X03415Y01915D02*
X0342Y0191D01*
X0341D02*
X03415Y01915D01*
X03405Y0191D02*
X0341D01*
X03305D02*
Y01915D01*
X0331Y0192D01*
X03305Y01925D02*
X0331Y0192D01*
X03305Y01925D02*
Y0193D01*
X0331D01*
X03315Y01925D01*
X0332Y0193D01*
X03325D01*
Y01925D02*
Y0193D01*
X0332Y0192D02*
X03325Y01925D01*
X0332Y0192D02*
X03325Y01915D01*
Y0191D02*
Y01915D01*
X0332Y0191D02*
X03325D01*
X03315Y01915D02*
X0332Y0191D01*
X0331D02*
X03315Y01915D01*
X03305Y0191D02*
X0331D01*
X03205D02*
Y01915D01*
X0321Y0192D01*
X03205Y01925D02*
X0321Y0192D01*
X03205Y01925D02*
Y0193D01*
X0321D01*
X03215Y01925D01*
X0322Y0193D01*
X03225D01*
Y01925D02*
Y0193D01*
X0322Y0192D02*
X03225Y01925D01*
X0322Y0192D02*
X03225Y01915D01*
Y0191D02*
Y01915D01*
X0322Y0191D02*
X03225D01*
X03215Y01915D02*
X0322Y0191D01*
X0321D02*
X03215Y01915D01*
X03205Y0191D02*
X0321D01*
X05855Y02275D02*
X0586D01*
X05855D02*
Y02285D01*
X0586D01*
Y0229D01*
X0587D01*
Y02285D02*
Y0229D01*
Y02285D02*
X05875D01*
Y02275D02*
Y02285D01*
X0587Y02275D02*
X05875D01*
X0587Y0227D02*
Y02275D01*
X0586Y0227D02*
X0587D01*
X0586D02*
Y02275D01*
X06055D02*
X0606D01*
X06055D02*
Y02285D01*
X0606D01*
Y0229D01*
X0607D01*
Y02285D02*
Y0229D01*
Y02285D02*
X06075D01*
Y02275D02*
Y02285D01*
X0607Y02275D02*
X06075D01*
X0607Y0227D02*
Y02275D01*
X0606Y0227D02*
X0607D01*
X0606D02*
Y02275D01*
X05955D02*
X0596D01*
X05955D02*
Y02285D01*
X0596D01*
Y0229D01*
X0597D01*
Y02285D02*
Y0229D01*
Y02285D02*
X05975D01*
Y02275D02*
Y02285D01*
X0597Y02275D02*
X05975D01*
X0597Y0227D02*
Y02275D01*
X0596Y0227D02*
X0597D01*
X0596D02*
Y02275D01*
X05855Y0169D02*
X05875D01*
Y0171D01*
X05855D02*
X05875D01*
X05855Y0169D02*
Y0171D01*
Y0209D02*
X05875D01*
Y0211D01*
X05855D02*
X05875D01*
X05855Y0209D02*
Y0211D01*
X0574Y0204D02*
X05745D01*
X0574D02*
Y0205D01*
X05745D01*
Y02055D01*
X05755D01*
Y0205D02*
Y02055D01*
Y0205D02*
X0576D01*
Y0204D02*
Y0205D01*
X05755Y0204D02*
X0576D01*
X05755Y02035D02*
Y0204D01*
X05745Y02035D02*
X05755D01*
X05745D02*
Y0204D01*
X0564D02*
X05645D01*
X0564D02*
Y0205D01*
X05645D01*
Y02055D01*
X05655D01*
Y0205D02*
Y02055D01*
Y0205D02*
X0566D01*
Y0204D02*
Y0205D01*
X05655Y0204D02*
X0566D01*
X05655Y02035D02*
Y0204D01*
X05645Y02035D02*
X05655D01*
X05645D02*
Y0204D01*
X0554D02*
X05545D01*
X0554D02*
Y0205D01*
X05545D01*
Y02055D01*
X05555D01*
Y0205D02*
Y02055D01*
Y0205D02*
X0556D01*
Y0204D02*
Y0205D01*
X05555Y0204D02*
X0556D01*
X05555Y02035D02*
Y0204D01*
X05545Y02035D02*
X05555D01*
X05545D02*
Y0204D01*
X05745Y01805D02*
X0575D01*
X05745D02*
Y01815D01*
X0575D01*
Y0182D01*
X0576D01*
Y01815D02*
Y0182D01*
Y01815D02*
X05765D01*
Y01805D02*
Y01815D01*
X0576Y01805D02*
X05765D01*
X0576Y018D02*
Y01805D01*
X0575Y018D02*
X0576D01*
X0575D02*
Y01805D01*
X05645D02*
X0565D01*
X05645D02*
Y01815D01*
X0565D01*
Y0182D01*
X0566D01*
Y01815D02*
Y0182D01*
Y01815D02*
X05665D01*
Y01805D02*
Y01815D01*
X0566Y01805D02*
X05665D01*
X0566Y018D02*
Y01805D01*
X0565Y018D02*
X0566D01*
X0565D02*
Y01805D01*
X05545D02*
X0555D01*
X05545D02*
Y01815D01*
X0555D01*
Y0182D01*
X0556D01*
Y01815D02*
Y0182D01*
Y01815D02*
X05565D01*
Y01805D02*
Y01815D01*
X0556Y01805D02*
X05565D01*
X0556Y018D02*
Y01805D01*
X0555Y018D02*
X0556D01*
X0555D02*
Y01805D01*
X05965Y0209D02*
X05985D01*
Y0211D01*
X05965D02*
X05985D01*
X05965Y0209D02*
Y0211D01*
Y0169D02*
X05985D01*
Y0171D01*
X05965D02*
X05985D01*
X05965Y0169D02*
Y0171D01*
X06075Y0209D02*
X06095D01*
Y0211D01*
X06075D02*
X06095D01*
X06075Y0209D02*
Y0211D01*
Y0169D02*
X06095D01*
Y0171D01*
X06075D02*
X06095D01*
X06075Y0169D02*
Y0171D01*
X0362Y01795D02*
X0364D01*
Y01815D01*
X0362D02*
X0364D01*
X0362Y01795D02*
Y01815D01*
X0372Y01795D02*
X0374D01*
Y01815D01*
X0372D02*
X0374D01*
X0372Y01795D02*
Y01815D01*
X0382Y01795D02*
X0384D01*
Y01815D01*
X0382D02*
X0384D01*
X0382Y01795D02*
Y01815D01*
X0392Y01795D02*
X0394D01*
Y01815D01*
X0392D02*
X0394D01*
X0392Y01795D02*
Y01815D01*
X0402Y01795D02*
X0404D01*
Y01815D01*
X0402D02*
X0404D01*
X0402Y01795D02*
Y01815D01*
X0412Y01795D02*
X0414D01*
Y01815D01*
X0412D02*
X0414D01*
X0412Y01795D02*
Y01815D01*
X0422Y01795D02*
X0424D01*
Y01815D01*
X0422D02*
X0424D01*
X0422Y01795D02*
Y01815D01*
X0432Y01795D02*
X0434D01*
Y01815D01*
X0432D02*
X0434D01*
X0432Y01795D02*
Y01815D01*
X0442Y01795D02*
X0444D01*
Y01815D01*
X0442D02*
X0444D01*
X0442Y01795D02*
Y01815D01*
X0452Y01795D02*
X0454D01*
Y01815D01*
X0452D02*
X0454D01*
X0452Y01795D02*
Y01815D01*
X0362Y02095D02*
X0364D01*
Y02115D01*
X0362D02*
X0364D01*
X0362Y02095D02*
Y02115D01*
X0372Y02095D02*
X0374D01*
Y02115D01*
X0372D02*
X0374D01*
X0372Y02095D02*
Y02115D01*
X0382Y02095D02*
X0384D01*
Y02115D01*
X0382D02*
X0384D01*
X0382Y02095D02*
Y02115D01*
X0392Y02095D02*
X0394D01*
Y02115D01*
X0392D02*
X0394D01*
X0392Y02095D02*
Y02115D01*
X0402Y02095D02*
X0404D01*
Y02115D01*
X0402D02*
X0404D01*
X0402Y02095D02*
Y02115D01*
X0412Y02095D02*
X0414D01*
Y02115D01*
X0412D02*
X0414D01*
X0412Y02095D02*
Y02115D01*
X0422Y02095D02*
X0424D01*
Y02115D01*
X0422D02*
X0424D01*
X0422Y02095D02*
Y02115D01*
X0432Y02095D02*
X0434D01*
Y02115D01*
X0432D02*
X0434D01*
X0432Y02095D02*
Y02115D01*
X0442Y02095D02*
X0444D01*
Y02115D01*
X0442D02*
X0444D01*
X0442Y02095D02*
Y02115D01*
X0452Y02095D02*
X0454D01*
Y02115D01*
X0452D02*
X0454D01*
X0452Y02095D02*
Y02115D01*
X0527Y0194D02*
X0529D01*
Y0196D01*
X0527D02*
X0529D01*
X0527Y0194D02*
Y0196D01*
X0497Y019395D02*
X0499D01*
Y019595D01*
X0497D02*
X0499D01*
X0497Y019395D02*
Y019595D01*
X02855Y01725D02*
X02875D01*
Y01745D01*
X02855D02*
X02875D01*
X02855Y01725D02*
Y01745D01*
Y01325D02*
X02875D01*
Y01345D01*
X02855D02*
X02875D01*
X02855Y01325D02*
Y01345D01*
X0265Y01725D02*
X0267D01*
Y01745D01*
X0265D02*
X0267D01*
X0265Y01725D02*
Y01745D01*
Y01325D02*
X0267D01*
Y01345D01*
X0265D02*
X0267D01*
X0265Y01325D02*
Y01345D01*
X0247Y015925D02*
X0248Y015825D01*
X0249Y015925D01*
X0248Y016025D02*
X0249Y015925D01*
X0247D02*
X0248Y016025D01*
X0237Y015925D02*
X0238Y015825D01*
X0239Y015925D01*
X0238Y016025D02*
X0239Y015925D01*
X0237D02*
X0238Y016025D01*
X0247Y01315D02*
X0248Y01305D01*
X0249Y01315D01*
X0248Y01325D02*
X0249Y01315D01*
X0247D02*
X0248Y01325D01*
X0237Y01315D02*
X0238Y01305D01*
X0239Y01315D01*
X0238Y01325D02*
X0239Y01315D01*
X0237D02*
X0238Y01325D01*
Y02075D02*
X0239Y02095D01*
X0237D02*
X0239D01*
X0237D02*
X0238Y02075D01*
X0248D02*
X0249Y02095D01*
X0247D02*
X0249D01*
X0247D02*
X0248Y02075D01*
X0272D02*
X0273Y02095D01*
X0271D02*
X0273D01*
X0271D02*
X0272Y02075D01*
X0262D02*
X0263Y02095D01*
X0261D02*
X0263D01*
X0261D02*
X0262Y02075D01*
X0247Y0187D02*
X0248Y0186D01*
X0249Y0187D01*
X0248Y0188D02*
X0249Y0187D01*
X0247D02*
X0248Y0188D01*
X0237Y0187D02*
X0238Y0186D01*
X0239Y0187D01*
X0238Y0188D02*
X0239Y0187D01*
X0237D02*
X0238Y0188D01*
X02665Y0191D02*
X02685D01*
Y0193D01*
X02665D02*
X02685D01*
X02665Y0191D02*
Y0193D01*
Y0181D02*
X02685D01*
Y0183D01*
X02665D02*
X02685D01*
X02665Y0181D02*
Y0183D01*
X02169Y011694D02*
X02181D01*
Y011814D01*
X02169D02*
X02181D01*
X02169Y011694D02*
Y011814D01*
X02165Y011654D02*
X02185D01*
Y011854D01*
X02165D02*
X02185D01*
X02165Y011654D02*
Y011854D01*
X06239Y011694D02*
X06251D01*
Y011814D01*
X06239D02*
X06251D01*
X06239Y011694D02*
Y011814D01*
X06235Y011654D02*
X06255D01*
Y011854D01*
X06235D02*
X06255D01*
X06235Y011654D02*
Y011854D01*
X02169Y028394D02*
X02181D01*
Y028514D01*
X02169D02*
X02181D01*
X02169Y028394D02*
Y028514D01*
X02165Y028354D02*
X02185D01*
Y028554D01*
X02165D02*
X02185D01*
X02165Y028354D02*
Y028554D01*
X06239Y028394D02*
X06251D01*
Y028514D01*
X06239D02*
X06251D01*
X06239Y028394D02*
Y028514D01*
X06235Y028354D02*
X06255D01*
Y028554D01*
X06235D02*
X06255D01*
X06235Y028354D02*
Y028554D01*
X0375Y023454D02*
X03755D01*
X0375D02*
Y023554D01*
X03755D01*
Y023604D01*
X03765D01*
Y023554D02*
Y023604D01*
Y023554D02*
X0377D01*
Y023454D02*
Y023554D01*
X03765Y023454D02*
X0377D01*
X03765Y023404D02*
Y023454D01*
X03755Y023404D02*
X03765D01*
X03755D02*
Y023454D01*
X0385D02*
X03855D01*
X0385D02*
Y023554D01*
X03855D01*
Y023604D01*
X03865D01*
Y023554D02*
Y023604D01*
Y023554D02*
X0387D01*
Y023454D02*
Y023554D01*
X03865Y023454D02*
X0387D01*
X03865Y023404D02*
Y023454D01*
X03855Y023404D02*
X03865D01*
X03855D02*
Y023454D01*
X0395D02*
X03955D01*
X0395D02*
Y023554D01*
X03955D01*
Y023604D01*
X03965D01*
Y023554D02*
Y023604D01*
Y023554D02*
X0397D01*
Y023454D02*
Y023554D01*
X03965Y023454D02*
X0397D01*
X03965Y023404D02*
Y023454D01*
X03955Y023404D02*
X03965D01*
X03955D02*
Y023454D01*
X0405D02*
X04055D01*
X0405D02*
Y023554D01*
X04055D01*
Y023604D01*
X04065D01*
Y023554D02*
Y023604D01*
Y023554D02*
X0407D01*
Y023454D02*
Y023554D01*
X04065Y023454D02*
X0407D01*
X04065Y023404D02*
Y023454D01*
X04055Y023404D02*
X04065D01*
X04055D02*
Y023454D01*
X0415D02*
X04155D01*
X0415D02*
Y023554D01*
X04155D01*
Y023604D01*
X04165D01*
Y023554D02*
Y023604D01*
Y023554D02*
X0417D01*
Y023454D02*
Y023554D01*
X04165Y023454D02*
X0417D01*
X04165Y023404D02*
Y023454D01*
X04155Y023404D02*
X04165D01*
X04155D02*
Y023454D01*
X0425D02*
X04255D01*
X0425D02*
Y023554D01*
X04255D01*
Y023604D01*
X04265D01*
Y023554D02*
Y023604D01*
Y023554D02*
X0427D01*
Y023454D02*
Y023554D01*
X04265Y023454D02*
X0427D01*
X04265Y023404D02*
Y023454D01*
X04255Y023404D02*
X04265D01*
X04255D02*
Y023454D01*
X0435D02*
X04355D01*
X0435D02*
Y023554D01*
X04355D01*
Y023604D01*
X04365D01*
Y023554D02*
Y023604D01*
Y023554D02*
X0437D01*
Y023454D02*
Y023554D01*
X04365Y023454D02*
X0437D01*
X04365Y023404D02*
Y023454D01*
X04355Y023404D02*
X04365D01*
X04355D02*
Y023454D01*
X0445D02*
X04455D01*
X0445D02*
Y023554D01*
X04455D01*
Y023604D01*
X04465D01*
Y023554D02*
Y023604D01*
Y023554D02*
X0447D01*
Y023454D02*
Y023554D01*
X04465Y023454D02*
X0447D01*
X04465Y023404D02*
Y023454D01*
X04455Y023404D02*
X04465D01*
X04455D02*
Y023454D01*
X04775Y020654D02*
X0478D01*
X04775D02*
Y020754D01*
X0478D01*
Y020804D01*
X0479D01*
Y020754D02*
Y020804D01*
Y020754D02*
X04795D01*
Y020654D02*
Y020754D01*
X0479Y020654D02*
X04795D01*
X0479Y020604D02*
Y020654D01*
X0478Y020604D02*
X0479D01*
X0478D02*
Y020654D01*
X04775Y021654D02*
X0478D01*
X04775D02*
Y021754D01*
X0478D01*
Y021804D01*
X0479D01*
Y021754D02*
Y021804D01*
Y021754D02*
X04795D01*
Y021654D02*
Y021754D01*
X0479Y021654D02*
X04795D01*
X0479Y021604D02*
Y021654D01*
X0478Y021604D02*
X0479D01*
X0478D02*
Y021654D01*
X04775Y022654D02*
X0478D01*
X04775D02*
Y022754D01*
X0478D01*
Y022804D01*
X0479D01*
Y022754D02*
Y022804D01*
Y022754D02*
X04795D01*
Y022654D02*
Y022754D01*
X0479Y022654D02*
X04795D01*
X0479Y022604D02*
Y022654D01*
X0478Y022604D02*
X0479D01*
X0478D02*
Y022654D01*
X04775Y023654D02*
X0478D01*
X04775D02*
Y023754D01*
X0478D01*
Y023804D01*
X0479D01*
Y023754D02*
Y023804D01*
Y023754D02*
X04795D01*
Y023654D02*
Y023754D01*
X0479Y023654D02*
X04795D01*
X0479Y023604D02*
Y023654D01*
X0478Y023604D02*
X0479D01*
X0478D02*
Y023654D01*
X0237Y022704D02*
X02375D01*
X0237D02*
Y022804D01*
X02375D01*
Y022854D01*
X02385D01*
Y022804D02*
Y022854D01*
Y022804D02*
X0239D01*
Y022704D02*
Y022804D01*
X02385Y022704D02*
X0239D01*
X02385Y022654D02*
Y022704D01*
X02375Y022654D02*
X02385D01*
X02375D02*
Y022704D01*
X0247D02*
X02475D01*
X0247D02*
Y022804D01*
X02475D01*
Y022854D01*
X02485D01*
Y022804D02*
Y022854D01*
Y022804D02*
X0249D01*
Y022704D02*
Y022804D01*
X02485Y022704D02*
X0249D01*
X02485Y022654D02*
Y022704D01*
X02475Y022654D02*
X02485D01*
X02475D02*
Y022704D01*
D52*
X095749Y046149D02*
Y045429D01*
Y045789D01*
X096229D01*
Y046149D01*
Y045429D01*
X096589D02*
X096829D01*
X096949Y045549D01*
Y045789D01*
X096829Y045909D01*
X096589D01*
X096469Y045789D01*
Y045549D01*
X096589Y045429D01*
X097189D02*
X097429D01*
X097309D01*
Y046149D01*
X097189D01*
X098148Y045429D02*
X097908D01*
X097788Y045549D01*
Y045789D01*
X097908Y045909D01*
X098148D01*
X098268Y045789D01*
Y045669D01*
X097788D01*
X099228Y046149D02*
X099708D01*
X099468D01*
Y045429D01*
X100068D02*
X100308D01*
X100428Y045549D01*
Y045789D01*
X100308Y045909D01*
X100068D01*
X099948Y045789D01*
Y045549D01*
X100068Y045429D01*
X100667D02*
X100907D01*
X100787D01*
Y046149D01*
X100667D01*
X101627Y045429D02*
X101387D01*
X101267Y045549D01*
Y045789D01*
X101387Y045909D01*
X101627D01*
X101747Y045789D01*
Y045669D01*
X101267D01*
X101987Y045909D02*
Y045429D01*
Y045669D01*
X102107Y045789D01*
X102227Y045909D01*
X102347D01*
X102827D02*
X103067D01*
X103187Y045789D01*
Y045429D01*
X102827D01*
X102707Y045549D01*
X102827Y045669D01*
X103187D01*
X103427Y045429D02*
Y045909D01*
X103786D01*
X103906Y045789D01*
Y045429D01*
X104626Y045909D02*
X104266D01*
X104146Y045789D01*
Y045549D01*
X104266Y045429D01*
X104626D01*
X105226D02*
X104986D01*
X104866Y045549D01*
Y045789D01*
X104986Y045909D01*
X105226D01*
X105346Y045789D01*
Y045669D01*
X104866D01*
X106546Y045429D02*
X106306Y045669D01*
Y045909D01*
X106546Y046149D01*
X106905Y045789D02*
X107385D01*
X107625Y045429D02*
X107865Y045669D01*
Y045909D01*
X107625Y046149D01*
X082413D02*
Y045429D01*
Y045789D01*
X082893D01*
Y046149D01*
Y045429D01*
X083253D02*
X083493D01*
X083613Y045549D01*
Y045789D01*
X083493Y045909D01*
X083253D01*
X083133Y045789D01*
Y045549D01*
X083253Y045429D01*
X083853D02*
X084092D01*
X083972D01*
Y046149D01*
X083853D01*
X084812Y045429D02*
X084572D01*
X084452Y045549D01*
Y045789D01*
X084572Y045909D01*
X084812D01*
X084932Y045789D01*
Y045669D01*
X084452D01*
X085892Y046149D02*
X086372D01*
X086132D01*
Y045429D01*
X086732D02*
X086972D01*
X087091Y045549D01*
Y045789D01*
X086972Y045909D01*
X086732D01*
X086612Y045789D01*
Y045549D01*
X086732Y045429D01*
X087331D02*
X087571D01*
X087451D01*
Y046149D01*
X087331D01*
X088291Y045429D02*
X088051D01*
X087931Y045549D01*
Y045789D01*
X088051Y045909D01*
X088291D01*
X088411Y045789D01*
Y045669D01*
X087931D01*
X088651Y045909D02*
Y045429D01*
Y045669D01*
X088771Y045789D01*
X088891Y045909D01*
X089011D01*
X089491D02*
X089731D01*
X089851Y045789D01*
Y045429D01*
X089491D01*
X089371Y045549D01*
X089491Y045669D01*
X089851D01*
X090091Y045429D02*
Y045909D01*
X09045D01*
X09057Y045789D01*
Y045429D01*
X09129Y045909D02*
X09093D01*
X09081Y045789D01*
Y045549D01*
X09093Y045429D01*
X09129D01*
X09189D02*
X09165D01*
X09153Y045549D01*
Y045789D01*
X09165Y045909D01*
X09189D01*
X09201Y045789D01*
Y045669D01*
X09153D01*
X093209Y045429D02*
X09297Y045669D01*
Y045909D01*
X093209Y046149D01*
X093569Y045789D02*
X094049D01*
X093809Y046029D02*
Y045549D01*
X094289Y045429D02*
X094529Y045669D01*
Y045909D01*
X094289Y046149D01*
X073875D02*
Y045429D01*
X074235D01*
X074355Y045549D01*
Y046029D01*
X074235Y046149D01*
X073875D01*
X074955Y045429D02*
X074715D01*
X074595Y045549D01*
Y045789D01*
X074715Y045909D01*
X074955D01*
X075075Y045789D01*
Y045669D01*
X074595D01*
X075315Y045429D02*
X075675D01*
X075795Y045549D01*
X075675Y045669D01*
X075435D01*
X075315Y045789D01*
X075435Y045909D01*
X075795D01*
X076515D02*
X076155D01*
X076035Y045789D01*
Y045549D01*
X076155Y045429D01*
X076515D01*
X076754Y045909D02*
Y045429D01*
Y045669D01*
X076874Y045789D01*
X076994Y045909D01*
X077114D01*
X077474Y045429D02*
X077714D01*
X077594D01*
Y045909D01*
X077474D01*
X078074Y045189D02*
Y045909D01*
X078434D01*
X078554Y045789D01*
Y045549D01*
X078434Y045429D01*
X078074D01*
X078914Y046029D02*
Y045909D01*
X078794D01*
X079034D01*
X078914D01*
Y045549D01*
X079034Y045429D01*
X079394D02*
X079633D01*
X079514D01*
Y045909D01*
X079394D01*
X080113Y045429D02*
X080353D01*
X080473Y045549D01*
Y045789D01*
X080353Y045909D01*
X080113D01*
X079993Y045789D01*
Y045549D01*
X080113Y045429D01*
X080713D02*
Y045909D01*
X081073D01*
X081193Y045789D01*
Y045429D01*
X065878Y046149D02*
X066357D01*
X066118D01*
Y045429D01*
X066957D02*
X066717D01*
X066597Y045549D01*
Y045789D01*
X066717Y045909D01*
X066957D01*
X067077Y045789D01*
Y045669D01*
X066597D01*
X067317Y045429D02*
Y045909D01*
X067437D01*
X067557Y045789D01*
Y045429D01*
Y045789D01*
X067677Y045909D01*
X067797Y045789D01*
Y045429D01*
X068037Y045189D02*
Y045909D01*
X068397D01*
X068517Y045789D01*
Y045549D01*
X068397Y045429D01*
X068037D01*
X068757D02*
X068997D01*
X068877D01*
Y046149D01*
X068757D01*
X069476Y045909D02*
X069716D01*
X069836Y045789D01*
Y045429D01*
X069476D01*
X069356Y045549D01*
X069476Y045669D01*
X069836D01*
X070196Y046029D02*
Y045909D01*
X070076D01*
X070316D01*
X070196D01*
Y045549D01*
X070316Y045429D01*
X071036D02*
X070796D01*
X070676Y045549D01*
Y045789D01*
X070796Y045909D01*
X071036D01*
X071156Y045789D01*
Y045669D01*
X070676D01*
X05842Y045429D02*
Y046149D01*
X058779D01*
X058899Y046029D01*
Y045789D01*
X058779Y045669D01*
X05842D01*
X059259Y045909D02*
X059499D01*
X059619Y045789D01*
Y045429D01*
X059259D01*
X059139Y045549D01*
X059259Y045669D01*
X059619D01*
X060339Y046149D02*
Y045429D01*
X059979D01*
X059859Y045549D01*
Y045789D01*
X059979Y045909D01*
X060339D01*
X061779Y046029D02*
X061659Y046149D01*
X061419D01*
X061299Y046029D01*
Y045909D01*
X061419Y045789D01*
X061659D01*
X061779Y045669D01*
Y045549D01*
X061659Y045429D01*
X061419D01*
X061299Y045549D01*
X062018Y046149D02*
Y045429D01*
Y045789D01*
X062138Y045909D01*
X062378D01*
X062498Y045789D01*
Y045429D01*
X062858Y045909D02*
X063098D01*
X063218Y045789D01*
Y045429D01*
X062858D01*
X062738Y045549D01*
X062858Y045669D01*
X063218D01*
X063458Y045189D02*
Y045909D01*
X063818D01*
X063938Y045789D01*
Y045549D01*
X063818Y045429D01*
X063458D01*
X064538D02*
X064298D01*
X064178Y045549D01*
Y045789D01*
X064298Y045909D01*
X064538D01*
X064658Y045789D01*
Y045669D01*
X064178D01*
X052521Y046149D02*
Y045669D01*
X052761Y045429D01*
X053001Y045669D01*
Y046149D01*
X053241Y045429D02*
X053481D01*
X053361D01*
Y045909D01*
X053241D01*
X053961D02*
X054201D01*
X054321Y045789D01*
Y045429D01*
X053961D01*
X053841Y045549D01*
X053961Y045669D01*
X054321D01*
X05456Y045429D02*
X05504Y045909D01*
X05528Y045429D02*
Y046149D01*
X05564D01*
X05576Y046029D01*
Y045789D01*
X05564Y045669D01*
X05528D01*
X05612Y045909D02*
X05636D01*
X05648Y045789D01*
Y045429D01*
X05612D01*
X056Y045549D01*
X05612Y045669D01*
X05648D01*
X0572Y046149D02*
Y045429D01*
X05684D01*
X05672Y045549D01*
Y045789D01*
X05684Y045909D01*
X0572D01*
X037526Y046149D02*
Y045429D01*
X037885D01*
X038005Y045549D01*
Y046029D01*
X037885Y046149D01*
X037526D01*
X038245Y045909D02*
Y045429D01*
Y045669D01*
X038365Y045789D01*
X038485Y045909D01*
X038605D01*
X038965Y045429D02*
X039205D01*
X039085D01*
Y045909D01*
X038965D01*
X039565Y045429D02*
X039805D01*
X039685D01*
Y046149D01*
X039565D01*
X040165Y045429D02*
X040405D01*
X040285D01*
Y046149D01*
X040165D01*
X041484D02*
Y045429D01*
X041964D01*
X042324Y045909D02*
X042564D01*
X042684Y045789D01*
Y045429D01*
X042324D01*
X042204Y045549D01*
X042324Y045669D01*
X042684D01*
X042924Y045909D02*
Y045549D01*
X043044Y045429D01*
X043404D01*
Y045309D01*
X043284Y045189D01*
X043164D01*
X043404Y045429D02*
Y045909D01*
X044004Y045429D02*
X043764D01*
X043644Y045549D01*
Y045789D01*
X043764Y045909D01*
X044004D01*
X044123Y045789D01*
Y045669D01*
X043644D01*
X044363Y045909D02*
Y045429D01*
Y045669D01*
X044483Y045789D01*
X044603Y045909D01*
X044723D01*
X045803Y045429D02*
Y046149D01*
X046163D01*
X046283Y046029D01*
Y045789D01*
X046163Y045669D01*
X045803D01*
X046643Y045909D02*
X046883D01*
X047003Y045789D01*
Y045429D01*
X046643D01*
X046523Y045549D01*
X046643Y045669D01*
X047003D01*
X047242Y045429D02*
X047482D01*
X047362D01*
Y045909D01*
X047242D01*
X047842D02*
Y045429D01*
Y045669D01*
X047962Y045789D01*
X048082Y045909D01*
X048202D01*
X030188Y046149D02*
Y045429D01*
Y045789D01*
X030667D01*
Y046149D01*
Y045429D01*
X031027D02*
X031267D01*
X031387Y045549D01*
Y045789D01*
X031267Y045909D01*
X031027D01*
X030907Y045789D01*
Y045549D01*
X031027Y045429D01*
X031627D02*
X031867D01*
X031747D01*
Y046149D01*
X031627D01*
X032587Y045429D02*
X032347D01*
X032227Y045549D01*
Y045789D01*
X032347Y045909D01*
X032587D01*
X032707Y045789D01*
Y045669D01*
X032227D01*
X033666Y046149D02*
X034146D01*
X033906D01*
Y045429D01*
X034386Y045909D02*
Y045549D01*
X034506Y045429D01*
X034866D01*
Y045309D01*
X034746Y045189D01*
X034626D01*
X034866Y045429D02*
Y045909D01*
X035106Y045189D02*
Y045909D01*
X035466D01*
X035586Y045789D01*
Y045549D01*
X035466Y045429D01*
X035106D01*
X036186D02*
X035946D01*
X035826Y045549D01*
Y045789D01*
X035946Y045909D01*
X036186D01*
X036306Y045789D01*
Y045669D01*
X035826D01*
X025129Y045429D02*
Y046149D01*
X025489D01*
X025609Y046029D01*
Y045789D01*
X025489Y045669D01*
X025129D01*
X025849Y045429D02*
X026089D01*
X025969D01*
Y046149D01*
X025849D01*
X026568Y045909D02*
X026808D01*
X026928Y045789D01*
Y045429D01*
X026568D01*
X026448Y045549D01*
X026568Y045669D01*
X026928D01*
X027288Y046029D02*
Y045909D01*
X027168D01*
X027408D01*
X027288D01*
Y045549D01*
X027408Y045429D01*
X028128D02*
X027888D01*
X027768Y045549D01*
Y045789D01*
X027888Y045909D01*
X028128D01*
X028248Y045789D01*
Y045669D01*
X027768D01*
X028968Y046149D02*
Y045429D01*
X028608D01*
X028488Y045549D01*
Y045789D01*
X028608Y045909D01*
X028968D01*
X013632Y046149D02*
Y045429D01*
Y045789D01*
X014112D01*
Y046149D01*
Y045429D01*
X014472D02*
X014712D01*
X014832Y045549D01*
Y045789D01*
X014712Y045909D01*
X014472D01*
X014352Y045789D01*
Y045549D01*
X014472Y045429D01*
X015072D02*
X015312D01*
X015192D01*
Y046149D01*
X015072D01*
X016031Y045429D02*
X015792D01*
X015672Y045549D01*
Y045789D01*
X015792Y045909D01*
X016031D01*
X016151Y045789D01*
Y045669D01*
X015672D01*
X017591Y046029D02*
X017471Y046149D01*
X017231D01*
X017111Y046029D01*
Y045909D01*
X017231Y045789D01*
X017471D01*
X017591Y045669D01*
Y045549D01*
X017471Y045429D01*
X017231D01*
X017111Y045549D01*
X017831Y045429D02*
X018071D01*
X017951D01*
Y045909D01*
X017831D01*
X018431D02*
X01891D01*
X018431Y045429D01*
X01891D01*
X01951D02*
X01927D01*
X01915Y045549D01*
Y045789D01*
X01927Y045909D01*
X01951D01*
X01963Y045789D01*
Y045669D01*
X01915D01*
X008214Y046029D02*
X008094Y046149D01*
X007854D01*
X007734Y046029D01*
Y045549D01*
X007854Y045429D01*
X008094D01*
X008214Y045549D01*
X008573Y045429D02*
X008813D01*
X008933Y045549D01*
Y045789D01*
X008813Y045909D01*
X008573D01*
X008454Y045789D01*
Y045549D01*
X008573Y045429D01*
X009173Y045909D02*
Y045549D01*
X009293Y045429D01*
X009653D01*
Y045909D01*
X009893Y045429D02*
Y045909D01*
X010253D01*
X010373Y045789D01*
Y045429D01*
X010733Y046029D02*
Y045909D01*
X010613D01*
X010853D01*
X010733D01*
Y045549D01*
X010853Y045429D01*
X003155Y046029D02*
X003035Y046149D01*
X002795D01*
X002675Y046029D01*
Y045909D01*
X002795Y045789D01*
X003035D01*
X003155Y045669D01*
Y045549D01*
X003035Y045429D01*
X002795D01*
X002675Y045549D01*
X003395Y045909D02*
Y045549D01*
X003515Y045429D01*
X003875D01*
Y045309D01*
X003755Y045189D01*
X003635D01*
X003875Y045429D02*
Y045909D01*
X004115Y045429D02*
Y045909D01*
X004234D01*
X004354Y045789D01*
Y045429D01*
Y045789D01*
X004474Y045909D01*
X004594Y045789D01*
Y045429D01*
X004834Y046149D02*
Y045429D01*
X005194D01*
X005314Y045549D01*
Y045669D01*
Y045789D01*
X005194Y045909D01*
X004834D01*
X005674Y045429D02*
X005914D01*
X006034Y045549D01*
Y045789D01*
X005914Y045909D01*
X005674D01*
X005554Y045789D01*
Y045549D01*
X005674Y045429D01*
X006274D02*
X006514D01*
X006394D01*
Y046149D01*
X006274D01*
M02*
