G04*
G04 #@! TF.GenerationSoftware,Altium Limited,Altium Designer,21.9.2 (33)*
G04*
G04 Layer_Color=128*
%FSTAX24Y24*%
%MOIN*%
G70*
G04*
G04 #@! TF.SameCoordinates,A68203B9-CA12-4FF3-9F36-A0A22A6ADD5B*
G04*
G04*
G04 #@! TF.FilePolarity,Positive*
G04*
G01*
G75*
%ADD51C,0.0020*%
D51*
X024603Y022754D02*
X024997D01*
X0248Y022558D02*
Y022951D01*
X023603Y022754D02*
X023997D01*
X0238Y022558D02*
Y022951D01*
X047653Y023704D02*
X048047D01*
X04785Y023508D02*
Y023901D01*
X047653Y022704D02*
X048047D01*
X04785Y022508D02*
Y022901D01*
X047653Y021704D02*
X048047D01*
X04785Y021508D02*
Y021901D01*
X047653Y020704D02*
X048047D01*
X04785Y020508D02*
Y020901D01*
X044403Y023504D02*
X044797D01*
X0446Y023308D02*
Y023701D01*
X043403Y023504D02*
X043797D01*
X0436Y023308D02*
Y023701D01*
X042403Y023504D02*
X042797D01*
X0426Y023308D02*
Y023701D01*
X041403Y023504D02*
X041797D01*
X0416Y023308D02*
Y023701D01*
X040403Y023504D02*
X040797D01*
X0406Y023308D02*
Y023701D01*
X039403Y023504D02*
X039797D01*
X0396Y023308D02*
Y023701D01*
X038403Y023504D02*
X038797D01*
X0386Y023308D02*
Y023701D01*
X037403Y023504D02*
X037797D01*
X0376Y023308D02*
Y023701D01*
X061859Y028454D02*
X063041D01*
X06245Y027864D02*
Y029045D01*
X021159Y028454D02*
X022341D01*
X02175Y027864D02*
Y029045D01*
X061859Y011754D02*
X063041D01*
X06245Y011164D02*
Y012345D01*
X021159Y011754D02*
X022341D01*
X02175Y011164D02*
Y012345D01*
X026593Y0182D02*
X026907D01*
X02675Y018043D02*
Y018357D01*
X026593Y0192D02*
X026907D01*
X02675Y019043D02*
Y019357D01*
X02364Y0187D02*
X02396D01*
X0238Y01854D02*
Y01886D01*
X02464Y0187D02*
X02496D01*
X0248Y01854D02*
Y01886D01*
X026045Y02085D02*
X026355D01*
X0262Y020695D02*
Y021005D01*
X027045Y02085D02*
X027355D01*
X0272Y020695D02*
Y021005D01*
X024645Y02085D02*
X024955D01*
X0248Y020695D02*
Y021005D01*
X023645Y02085D02*
X023955D01*
X0238Y020695D02*
Y021005D01*
X02364Y01315D02*
X02396D01*
X0238Y01299D02*
Y01331D01*
X02464Y01315D02*
X02496D01*
X0248Y01299D02*
Y01331D01*
X02364Y015925D02*
X02396D01*
X0238Y015765D02*
Y016085D01*
X02464Y015925D02*
X02496D01*
X0248Y015765D02*
Y016085D01*
X026443Y01335D02*
X026757D01*
X0266Y013193D02*
Y013507D01*
X026443Y01735D02*
X026757D01*
X0266Y017193D02*
Y017507D01*
X028493Y01335D02*
X028807D01*
X02865Y013193D02*
Y013507D01*
X028493Y01735D02*
X028807D01*
X02865Y017193D02*
Y017507D01*
X049643Y019495D02*
X049957D01*
X0498Y019338D02*
Y019652D01*
X052643Y0195D02*
X052957D01*
X0528Y019343D02*
Y019657D01*
X045143Y02105D02*
X045457D01*
X0453Y020893D02*
Y021207D01*
X044143Y02105D02*
X044457D01*
X0443Y020893D02*
Y021207D01*
X043143Y02105D02*
X043457D01*
X0433Y020893D02*
Y021207D01*
X042143Y02105D02*
X042457D01*
X0423Y020893D02*
Y021207D01*
X041143Y02105D02*
X041457D01*
X0413Y020893D02*
Y021207D01*
X040143Y02105D02*
X040457D01*
X0403Y020893D02*
Y021207D01*
X039143Y02105D02*
X039457D01*
X0393Y020893D02*
Y021207D01*
X038143Y02105D02*
X038457D01*
X0383Y020893D02*
Y021207D01*
X037143Y02105D02*
X037457D01*
X0373Y020893D02*
Y021207D01*
X036143Y02105D02*
X036457D01*
X0363Y020893D02*
Y021207D01*
X045143Y01805D02*
X045457D01*
X0453Y017893D02*
Y018207D01*
X044143Y01805D02*
X044457D01*
X0443Y017893D02*
Y018207D01*
X043143Y01805D02*
X043457D01*
X0433Y017893D02*
Y018207D01*
X042143Y01805D02*
X042457D01*
X0423Y017893D02*
Y018207D01*
X041143Y01805D02*
X041457D01*
X0413Y017893D02*
Y018207D01*
X040143Y01805D02*
X040457D01*
X0403Y017893D02*
Y018207D01*
X039143Y01805D02*
X039457D01*
X0393Y017893D02*
Y018207D01*
X038143Y01805D02*
X038457D01*
X0383Y017893D02*
Y018207D01*
X037143Y01805D02*
X037457D01*
X0373Y017893D02*
Y018207D01*
X036143Y01805D02*
X036457D01*
X0363Y017893D02*
Y018207D01*
X060693Y017D02*
X061007D01*
X06085Y016843D02*
Y017157D01*
X060693Y021D02*
X061007D01*
X06085Y020843D02*
Y021157D01*
X059593Y017D02*
X059907D01*
X05975Y016843D02*
Y017157D01*
X059593Y021D02*
X059907D01*
X05975Y020843D02*
Y021157D01*
X055353Y0181D02*
X055747D01*
X05555Y017903D02*
Y018297D01*
X056353Y0181D02*
X056747D01*
X05655Y017903D02*
Y018297D01*
X057353Y0181D02*
X057747D01*
X05755Y017903D02*
Y018297D01*
X055303Y02045D02*
X055697D01*
X0555Y020253D02*
Y020647D01*
X056303Y02045D02*
X056697D01*
X0565Y020253D02*
Y020647D01*
X057303Y02045D02*
X057697D01*
X0575Y020253D02*
Y020647D01*
X058493Y021D02*
X058807D01*
X05865Y020843D02*
Y021157D01*
X058493Y017D02*
X058807D01*
X05865Y016843D02*
Y017157D01*
X059453Y0228D02*
X059847D01*
X05965Y022603D02*
Y022997D01*
X060453Y0228D02*
X060847D01*
X06065Y022603D02*
Y022997D01*
X058453Y0228D02*
X058847D01*
X05865Y022603D02*
Y022997D01*
X032Y0192D02*
X0323D01*
X03215Y01905D02*
Y01935D01*
X033Y0192D02*
X0333D01*
X03315Y01905D02*
Y01935D01*
X034Y0192D02*
X0343D01*
X03415Y01905D02*
Y01935D01*
X028443Y0192D02*
X028757D01*
X0286Y019043D02*
Y019357D01*
X028443Y0182D02*
X028757D01*
X0286Y018043D02*
Y018357D01*
X050293Y02375D02*
X050607D01*
X05045Y023593D02*
Y023907D01*
X054293Y02375D02*
X054607D01*
X05445Y023593D02*
Y023907D01*
X049145Y0226D02*
X049455D01*
X0493Y022445D02*
Y022755D01*
X049145Y0236D02*
X049455D01*
X0493Y023445D02*
Y023755D01*
X054293Y0225D02*
X054607D01*
X05445Y022343D02*
Y022657D01*
X050293Y0225D02*
X050607D01*
X05045Y022343D02*
Y022657D01*
X029911Y014885D02*
X031289D01*
X0306Y014196D02*
Y015574D01*
X029911Y002685D02*
X031289D01*
X0306Y001996D02*
Y003374D01*
X059411Y002735D02*
X060789D01*
X0601Y002046D02*
Y003424D01*
X03242Y015185D02*
X03278D01*
X0326Y015005D02*
Y015365D01*
X03342Y015185D02*
X03378D01*
X0336Y015005D02*
Y015365D01*
X03442Y015185D02*
X03478D01*
X0346Y015005D02*
Y015365D01*
X03542Y015185D02*
X03578D01*
X0356Y015005D02*
Y015365D01*
X03642Y015185D02*
X03678D01*
X0366Y015005D02*
Y015365D01*
X03742Y015185D02*
X03778D01*
X0376Y015005D02*
Y015365D01*
X03842Y015185D02*
X03878D01*
X0386Y015005D02*
Y015365D01*
X03942Y015185D02*
X03978D01*
X0396Y015005D02*
Y015365D01*
X04042Y015185D02*
X04078D01*
X0406Y015005D02*
Y015365D01*
X04142Y015185D02*
X04178D01*
X0416Y015005D02*
Y015365D01*
X04242Y015185D02*
X04278D01*
X0426Y015005D02*
Y015365D01*
X04342Y015185D02*
X04378D01*
X0436Y015005D02*
Y015365D01*
X04442Y015185D02*
X04478D01*
X0446Y015005D02*
Y015365D01*
X04542Y015185D02*
X04578D01*
X0456Y015005D02*
Y015365D01*
X04642Y015185D02*
X04678D01*
X0466Y015005D02*
Y015365D01*
X04742Y015185D02*
X04778D01*
X0476Y015005D02*
Y015365D01*
X059411Y014885D02*
X060789D01*
X0601Y014196D02*
Y015574D01*
M02*
