G04*
G04 #@! TF.GenerationSoftware,Altium Limited,Altium Designer,21.9.2 (33)*
G04*
G04 Layer_Color=16711935*
%FSTAX24Y24*%
%MOIN*%
G70*
G04*
G04 #@! TF.SameCoordinates,70968F61-CF9C-473A-8EF3-60FC9ECF6E36*
G04*
G04*
G04 #@! TF.FilePolarity,Positive*
G04*
G01*
G75*
%ADD33C,0.0020*%
D33*
X026956Y037667D02*
G03*
X026956Y037667I-000256J0D01*
G01*
Y033667D02*
G03*
X026956Y033667I-000256J0D01*
G01*
Y032933D02*
G03*
X026956Y032933I-000256J0D01*
G01*
Y028933D02*
G03*
X026956Y028933I-000256J0D01*
G01*
Y0282D02*
G03*
X026956Y0282I-000256J0D01*
G01*
Y0242D02*
G03*
X026956Y0242I-000256J0D01*
G01*
Y0424D02*
G03*
X026956Y0424I-000256J0D01*
G01*
Y0384D02*
G03*
X026956Y0384I-000256J0D01*
G01*
X031437Y04153D02*
G03*
X031439Y039874I000358J-000827D01*
G01*
X032015Y0397D02*
G03*
X032015Y0397I-000315J0D01*
G01*
Y0407D02*
G03*
X032015Y0407I-000315J0D01*
G01*
Y0417D02*
G03*
X032015Y0417I-000315J0D01*
G01*
X028987Y04153D02*
G03*
X028989Y039874I000358J-000827D01*
G01*
X029565Y0397D02*
G03*
X029565Y0397I-000315J0D01*
G01*
Y0407D02*
G03*
X029565Y0407I-000315J0D01*
G01*
Y0417D02*
G03*
X029565Y0417I-000315J0D01*
G01*
X028987Y03793D02*
G03*
X028989Y036274I000358J-000827D01*
G01*
X029565Y0361D02*
G03*
X029565Y0361I-000315J0D01*
G01*
Y0371D02*
G03*
X029565Y0371I-000315J0D01*
G01*
Y0381D02*
G03*
X029565Y0381I-000315J0D01*
G01*
X032015D02*
G03*
X032015Y0381I-000315J0D01*
G01*
Y0371D02*
G03*
X032015Y0371I-000315J0D01*
G01*
Y0361D02*
G03*
X032015Y0361I-000315J0D01*
G01*
X031437Y03793D02*
G03*
X031439Y036274I000358J-000827D01*
G01*
X032015Y03195D02*
G03*
X032015Y03195I-000315J0D01*
G01*
Y03095D02*
G03*
X032015Y03095I-000315J0D01*
G01*
Y02995D02*
G03*
X032015Y02995I-000315J0D01*
G01*
X031437Y03178D02*
G03*
X031439Y030124I000358J-000827D01*
G01*
X029565Y03195D02*
G03*
X029565Y03195I-000315J0D01*
G01*
Y03095D02*
G03*
X029565Y03095I-000315J0D01*
G01*
Y02995D02*
G03*
X029565Y02995I-000315J0D01*
G01*
X028987Y03178D02*
G03*
X028989Y030124I000358J-000827D01*
G01*
X032015Y02805D02*
G03*
X032015Y02805I-000315J0D01*
G01*
Y02705D02*
G03*
X032015Y02705I-000315J0D01*
G01*
Y02605D02*
G03*
X032015Y02605I-000315J0D01*
G01*
X031437Y02788D02*
G03*
X031439Y026224I000358J-000827D01*
G01*
X029565Y02805D02*
G03*
X029565Y02805I-000315J0D01*
G01*
Y02705D02*
G03*
X029565Y02705I-000315J0D01*
G01*
Y02605D02*
G03*
X029565Y02605I-000315J0D01*
G01*
X028987Y02788D02*
G03*
X028989Y026224I000358J-000827D01*
G01*
X026188Y034328D02*
Y037005D01*
Y034328D02*
X027212D01*
X0267Y037005D02*
Y037411D01*
Y033934D02*
Y034328D01*
X026188Y037005D02*
X027212D01*
Y034328D02*
Y037005D01*
X026188Y029595D02*
Y032272D01*
Y029595D02*
X027212D01*
X0267Y032272D02*
Y032677D01*
Y029201D02*
Y029595D01*
X026188Y032272D02*
X027212D01*
Y029595D02*
Y032272D01*
X026188Y024861D02*
Y027539D01*
Y024861D02*
X027212D01*
X0267Y027539D02*
Y027944D01*
Y024468D02*
Y024861D01*
X026188Y027539D02*
X027212D01*
Y024861D02*
Y027539D01*
X026188Y039061D02*
Y041739D01*
Y039061D02*
X027212D01*
X0267Y041739D02*
Y042144D01*
Y038668D02*
Y039061D01*
X026188Y041739D02*
X027212D01*
Y039061D02*
Y041739D01*
X0322Y03985D02*
X032318Y039968D01*
X0322Y04155D02*
X032318Y041432D01*
X032Y03985D02*
X0322D01*
X032318Y039968D02*
Y041432D01*
X032Y04155D02*
X0322D01*
X02975Y03985D02*
X029868Y039968D01*
X02975Y04155D02*
X029868Y041432D01*
X02955Y03985D02*
X02975D01*
X029868Y039968D02*
Y041432D01*
X02955Y04155D02*
X02975D01*
Y03625D02*
X029868Y036368D01*
X02975Y03795D02*
X029868Y037832D01*
X02955Y03625D02*
X02975D01*
X029868Y036368D02*
Y037832D01*
X02955Y03795D02*
X02975D01*
X032D02*
X0322D01*
X032318Y036368D02*
Y037832D01*
X032Y03625D02*
X0322D01*
Y03795D02*
X032318Y037832D01*
X0322Y03625D02*
X032318Y036368D01*
X032Y0318D02*
X0322D01*
X032318Y030218D02*
Y031682D01*
X032Y0301D02*
X0322D01*
Y0318D02*
X032318Y031682D01*
X0322Y0301D02*
X032318Y030218D01*
X02955Y0318D02*
X02975D01*
X029868Y030218D02*
Y031682D01*
X02955Y0301D02*
X02975D01*
Y0318D02*
X029868Y031682D01*
X02975Y0301D02*
X029868Y030218D01*
X032Y0279D02*
X0322D01*
X032318Y026318D02*
Y027782D01*
X032Y0262D02*
X0322D01*
Y0279D02*
X032318Y027782D01*
X0322Y0262D02*
X032318Y026318D01*
X02955Y0279D02*
X02975D01*
X029868Y026318D02*
Y027782D01*
X02955Y0262D02*
X02975D01*
Y0279D02*
X029868Y027782D01*
X02975Y0262D02*
X029868Y026318D01*
X0267Y037635D02*
X027015D01*
Y037478D01*
X026962Y037425D01*
X026857D01*
X026805Y037478D01*
Y037635D01*
Y03753D02*
X0267Y037425D01*
X026962Y03732D02*
X027015Y037268D01*
Y037163D01*
X026962Y03711D01*
X02691D01*
X026805Y037215D01*
X026752D02*
X0267D01*
Y032902D02*
X027015D01*
Y032744D01*
X026962Y032692D01*
X026857D01*
X026805Y032744D01*
Y032902D01*
Y032797D02*
X0267Y032692D01*
X026962Y032587D02*
X027015Y032534D01*
Y03243D01*
X026962Y032377D01*
X02691D01*
X026805Y032482D01*
X026752D02*
X0267D01*
Y028168D02*
X027015D01*
Y028011D01*
X026962Y027959D01*
X026857D01*
X026805Y028011D01*
Y028168D01*
Y028064D02*
X0267Y027959D01*
X026962Y027854D02*
X027015Y027801D01*
Y027696D01*
X026962Y027644D01*
X02691D01*
X026805Y027749D01*
X026752D02*
X0267D01*
Y042368D02*
X027015D01*
Y042211D01*
X026962Y042159D01*
X026857D01*
X026805Y042211D01*
Y042368D01*
Y042264D02*
X0267Y042159D01*
X026962Y042054D02*
X027015Y042001D01*
Y041896D01*
X026962Y041844D01*
X02691D01*
X026805Y041949D01*
X026752D02*
X0267D01*
X031535Y03981D02*
Y0396D01*
X03185D01*
Y03981D01*
X031693Y0396D02*
Y039705D01*
X031535Y0406D02*
X03185D01*
Y040757D01*
X031798Y04081D01*
X031745D01*
X031693Y040757D01*
Y0406D01*
Y040757D01*
X03164Y04081D01*
X031588D01*
X031535Y040757D01*
Y0406D01*
X031588Y04181D02*
X031535Y041757D01*
Y041652D01*
X031588Y0416D01*
X031798D01*
X03185Y041652D01*
Y041757D01*
X031798Y04181D01*
X029085Y03981D02*
Y0396D01*
X0294D01*
Y03981D01*
X029243Y0396D02*
Y039705D01*
X029085Y0406D02*
X0294D01*
Y040757D01*
X029348Y04081D01*
X029295D01*
X029243Y040757D01*
Y0406D01*
Y040757D01*
X02919Y04081D01*
X029138D01*
X029085Y040757D01*
Y0406D01*
X029138Y04181D02*
X029085Y041757D01*
Y041652D01*
X029138Y0416D01*
X029348D01*
X0294Y041652D01*
Y041757D01*
X029348Y04181D01*
X029085Y03621D02*
Y036D01*
X0294D01*
Y03621D01*
X029243Y036D02*
Y036105D01*
X029085Y037D02*
X0294D01*
Y037157D01*
X029348Y03721D01*
X029295D01*
X029243Y037157D01*
Y037D01*
Y037157D01*
X02919Y03721D01*
X029138D01*
X029085Y037157D01*
Y037D01*
X029138Y03821D02*
X029085Y038157D01*
Y038052D01*
X029138Y038D01*
X029348D01*
X0294Y038052D01*
Y038157D01*
X029348Y03821D01*
X031588D02*
X031535Y038157D01*
Y038052D01*
X031588Y038D01*
X031798D01*
X03185Y038052D01*
Y038157D01*
X031798Y03821D01*
X031535Y037D02*
X03185D01*
Y037157D01*
X031798Y03721D01*
X031745D01*
X031693Y037157D01*
Y037D01*
Y037157D01*
X03164Y03721D01*
X031588D01*
X031535Y037157D01*
Y037D01*
Y03621D02*
Y036D01*
X03185D01*
Y03621D01*
X031693Y036D02*
Y036105D01*
X031588Y03206D02*
X031535Y032007D01*
Y031902D01*
X031588Y03185D01*
X031798D01*
X03185Y031902D01*
Y032007D01*
X031798Y03206D01*
X031535Y03085D02*
X03185D01*
Y031007D01*
X031798Y03106D01*
X031745D01*
X031693Y031007D01*
Y03085D01*
Y031007D01*
X03164Y03106D01*
X031588D01*
X031535Y031007D01*
Y03085D01*
Y03006D02*
Y02985D01*
X03185D01*
Y03006D01*
X031693Y02985D02*
Y029955D01*
X029138Y03206D02*
X029085Y032007D01*
Y031902D01*
X029138Y03185D01*
X029348D01*
X0294Y031902D01*
Y032007D01*
X029348Y03206D01*
X029085Y03085D02*
X0294D01*
Y031007D01*
X029348Y03106D01*
X029295D01*
X029243Y031007D01*
Y03085D01*
Y031007D01*
X02919Y03106D01*
X029138D01*
X029085Y031007D01*
Y03085D01*
Y03006D02*
Y02985D01*
X0294D01*
Y03006D01*
X029243Y02985D02*
Y029955D01*
X031588Y02816D02*
X031535Y028107D01*
Y028002D01*
X031588Y02795D01*
X031798D01*
X03185Y028002D01*
Y028107D01*
X031798Y02816D01*
X031535Y02695D02*
X03185D01*
Y027107D01*
X031798Y02716D01*
X031745D01*
X031693Y027107D01*
Y02695D01*
Y027107D01*
X03164Y02716D01*
X031588D01*
X031535Y027107D01*
Y02695D01*
Y02616D02*
Y02595D01*
X03185D01*
Y02616D01*
X031693Y02595D02*
Y026055D01*
X029138Y02816D02*
X029085Y028107D01*
Y028002D01*
X029138Y02795D01*
X029348D01*
X0294Y028002D01*
Y028107D01*
X029348Y02816D01*
X029085Y02695D02*
X0294D01*
Y027107D01*
X029348Y02716D01*
X029295D01*
X029243Y027107D01*
Y02695D01*
Y027107D01*
X02919Y02716D01*
X029138D01*
X029085Y027107D01*
Y02695D01*
Y02616D02*
Y02595D01*
X0294D01*
Y02616D01*
X029243Y02595D02*
Y026055D01*
M02*
