G04*
G04 #@! TF.GenerationSoftware,Altium Limited,Altium Designer,21.9.2 (33)*
G04*
G04 Layer_Color=8388736*
%FSTAX24Y24*%
%MOIN*%
G70*
G04*
G04 #@! TF.SameCoordinates,70968F61-CF9C-473A-8EF3-60FC9ECF6E36*
G04*
G04*
G04 #@! TF.FilePolarity,Negative*
G04*
G01*
G75*
G04:AMPARAMS|DCode=16|XSize=35.6mil|YSize=47.4mil|CornerRadius=10.9mil|HoleSize=0mil|Usage=FLASHONLY|Rotation=0.000|XOffset=0mil|YOffset=0mil|HoleType=Round|Shape=RoundedRectangle|*
%AMROUNDEDRECTD16*
21,1,0.0356,0.0256,0,0,0.0*
21,1,0.0138,0.0474,0,0,0.0*
1,1,0.0218,0.0069,-0.0128*
1,1,0.0218,-0.0069,-0.0128*
1,1,0.0218,-0.0069,0.0128*
1,1,0.0218,0.0069,0.0128*
%
%ADD16ROUNDEDRECTD16*%
%ADD17R,0.0474X0.0580*%
%ADD18C,0.0780*%
%ADD19C,0.0709*%
%ADD20C,0.0591*%
%ADD21R,0.0780X0.0780*%
%ADD22C,0.0671*%
%ADD23R,0.0671X0.0671*%
%ADD24C,0.0356*%
D16*
X0247Y025113D02*
D03*
X024326Y024287D02*
D03*
X025074D02*
D03*
X0247Y034942D02*
D03*
X024326Y034115D02*
D03*
X025074D02*
D03*
Y039029D02*
D03*
X024326D02*
D03*
X0247Y039856D02*
D03*
X025074Y036572D02*
D03*
X024326D02*
D03*
X0247Y037399D02*
D03*
X025074Y041487D02*
D03*
X024326D02*
D03*
X0247Y042313D02*
D03*
X025074Y026744D02*
D03*
X024326D02*
D03*
X0247Y027571D02*
D03*
X025074Y029201D02*
D03*
X024326D02*
D03*
X0247Y030028D02*
D03*
X025074Y031658D02*
D03*
X024326D02*
D03*
X0247Y032485D02*
D03*
D17*
X0226Y02645D02*
D03*
X0218D02*
D03*
Y028279D02*
D03*
X0226D02*
D03*
Y030107D02*
D03*
X0218D02*
D03*
Y031936D02*
D03*
X0226D02*
D03*
Y033764D02*
D03*
X0218D02*
D03*
Y035593D02*
D03*
X0226D02*
D03*
X0218Y037421D02*
D03*
X0226D02*
D03*
Y03925D02*
D03*
X0218D02*
D03*
D18*
X0186Y04D02*
D03*
X0201D02*
D03*
X0347Y03285D02*
D03*
Y03135D02*
D03*
Y0353D02*
D03*
Y0338D02*
D03*
X01985Y0415D02*
D03*
D19*
X03675Y0319D02*
D03*
Y0329D02*
D03*
Y0339D02*
D03*
Y0349D02*
D03*
X0317Y0397D02*
D03*
Y0407D02*
D03*
Y0417D02*
D03*
X02925Y0397D02*
D03*
Y0407D02*
D03*
Y0417D02*
D03*
Y0361D02*
D03*
Y0371D02*
D03*
Y0381D02*
D03*
X0317D02*
D03*
Y0371D02*
D03*
Y0361D02*
D03*
Y03195D02*
D03*
Y03095D02*
D03*
Y02995D02*
D03*
X02925Y03195D02*
D03*
Y03095D02*
D03*
Y02995D02*
D03*
X0317Y02805D02*
D03*
Y02705D02*
D03*
Y02605D02*
D03*
X02925Y02805D02*
D03*
Y02705D02*
D03*
Y02605D02*
D03*
D20*
X0267Y037667D02*
D03*
Y033667D02*
D03*
Y032933D02*
D03*
Y028933D02*
D03*
Y0282D02*
D03*
Y0242D02*
D03*
Y0424D02*
D03*
Y0384D02*
D03*
D21*
X01885Y0415D02*
D03*
D22*
X0192Y03105D02*
D03*
Y03205D02*
D03*
Y03305D02*
D03*
Y03405D02*
D03*
D23*
Y03505D02*
D03*
D24*
X0236Y0292D02*
D03*
Y0251D02*
D03*
X0232Y0268D02*
D03*
Y0326D02*
D03*
X0235Y035D02*
D03*
Y039D02*
D03*
X0232Y0366D02*
D03*
Y0423D02*
D03*
M02*
