G04*
G04 #@! TF.GenerationSoftware,Altium Limited,Altium Designer,21.9.2 (33)*
G04*
G04 Layer_Color=8421504*
%FSTAX24Y24*%
%MOIN*%
G70*
G04*
G04 #@! TF.SameCoordinates,70968F61-CF9C-473A-8EF3-60FC9ECF6E36*
G04*
G04*
G04 #@! TF.FilePolarity,Positive*
G04*
G01*
G75*
G04:AMPARAMS|DCode=14|XSize=27.6mil|YSize=39.4mil|CornerRadius=6.9mil|HoleSize=0mil|Usage=FLASHONLY|Rotation=0.000|XOffset=0mil|YOffset=0mil|HoleType=Round|Shape=RoundedRectangle|*
%AMROUNDEDRECTD14*
21,1,0.0276,0.0256,0,0,0.0*
21,1,0.0138,0.0394,0,0,0.0*
1,1,0.0138,0.0069,-0.0128*
1,1,0.0138,-0.0069,-0.0128*
1,1,0.0138,-0.0069,0.0128*
1,1,0.0138,0.0069,0.0128*
%
%ADD14ROUNDEDRECTD14*%
%ADD15R,0.0394X0.0500*%
D14*
X0247Y025113D02*
D03*
X024326Y024287D02*
D03*
X025074D02*
D03*
X0247Y034942D02*
D03*
X024326Y034115D02*
D03*
X025074D02*
D03*
Y039029D02*
D03*
X024326D02*
D03*
X0247Y039856D02*
D03*
X025074Y036572D02*
D03*
X024326D02*
D03*
X0247Y037399D02*
D03*
X025074Y041487D02*
D03*
X024326D02*
D03*
X0247Y042313D02*
D03*
X025074Y026744D02*
D03*
X024326D02*
D03*
X0247Y027571D02*
D03*
X025074Y029201D02*
D03*
X024326D02*
D03*
X0247Y030028D02*
D03*
X025074Y031658D02*
D03*
X024326D02*
D03*
X0247Y032485D02*
D03*
D15*
X0226Y02645D02*
D03*
X0218D02*
D03*
Y028279D02*
D03*
X0226D02*
D03*
Y030107D02*
D03*
X0218D02*
D03*
Y031936D02*
D03*
X0226D02*
D03*
Y033764D02*
D03*
X0218D02*
D03*
Y035593D02*
D03*
X0226D02*
D03*
X0218Y037421D02*
D03*
X0226D02*
D03*
Y03925D02*
D03*
X0218D02*
D03*
M02*
