M48
;Layer_Color=9474304
;FILE_FORMAT=2:4
INCH,LZ
;TYPE=PLATED
T1F00S00C0.0157
T2F00S00C0.0310
T3F00S00C0.0315
T4F00S00C0.0354
T5F00S00C0.0394
;TYPE=NON_PLATED
T6F00S00C0.0394
%
T01
X0076Y0036
X0072Y0053
X0076Y0077
X0072Y0111
X0075Y0135
X0072Y0151
X0075Y0175
X0072Y0208
T02
X0026Y0185
X0041
X0187Y0138
Y0123
Y01135
Y00985
T03
X0107Y0027
Y0067
Y007433
Y011433
Y012167
Y016167
Y0169
Y0209
T04
X0032Y00955
Y01055
Y01155
Y01255
Y01355
T05
X0157Y00455
Y00555
Y00655
Y00845
Y00945
X01325
Y00845
Y00655
Y00555
Y00455
Y01045
Y0146
Y0156
Y0166
Y0182
Y0192
Y0202
X0157
Y0192
Y0182
Y0166
Y0156
Y0146
Y01045
X02075Y0104
Y0114
Y0124
Y0134
T06
X00285Y02
X00385
M30
