G04*
G04 #@! TF.GenerationSoftware,Altium Limited,Altium Designer,21.9.2 (33)*
G04*
G04 Layer_Color=255*
%FSTAX24Y24*%
%MOIN*%
G70*
G04*
G04 #@! TF.SameCoordinates,70968F61-CF9C-473A-8EF3-60FC9ECF6E36*
G04*
G04*
G04 #@! TF.FilePolarity,Positive*
G04*
G01*
G75*
G04:AMPARAMS|DCode=14|XSize=27.6mil|YSize=39.4mil|CornerRadius=6.9mil|HoleSize=0mil|Usage=FLASHONLY|Rotation=0.000|XOffset=0mil|YOffset=0mil|HoleType=Round|Shape=RoundedRectangle|*
%AMROUNDEDRECTD14*
21,1,0.0276,0.0256,0,0,0.0*
21,1,0.0138,0.0394,0,0,0.0*
1,1,0.0138,0.0069,-0.0128*
1,1,0.0138,-0.0069,-0.0128*
1,1,0.0138,-0.0069,0.0128*
1,1,0.0138,0.0069,0.0128*
%
%ADD14ROUNDEDRECTD14*%
%ADD15R,0.0394X0.0500*%
%ADD20C,0.0591*%
%ADD27C,0.0700*%
%ADD28C,0.0630*%
%ADD29C,0.0512*%
%ADD30R,0.0700X0.0700*%
%ADD31R,0.0591X0.0591*%
D14*
X0247Y025113D02*
D03*
X024326Y024287D02*
D03*
X025074D02*
D03*
X0247Y034942D02*
D03*
X024326Y034115D02*
D03*
X025074D02*
D03*
Y039029D02*
D03*
X024326D02*
D03*
X0247Y039856D02*
D03*
X025074Y036572D02*
D03*
X024326D02*
D03*
X0247Y037399D02*
D03*
X025074Y041487D02*
D03*
X024326D02*
D03*
X0247Y042313D02*
D03*
X025074Y026744D02*
D03*
X024326D02*
D03*
X0247Y027571D02*
D03*
X025074Y029201D02*
D03*
X024326D02*
D03*
X0247Y030028D02*
D03*
X025074Y031658D02*
D03*
X024326D02*
D03*
X0247Y032485D02*
D03*
D15*
X0226Y02645D02*
D03*
X0218D02*
D03*
Y028279D02*
D03*
X0226D02*
D03*
Y030107D02*
D03*
X0218D02*
D03*
Y031936D02*
D03*
X0226D02*
D03*
Y033764D02*
D03*
X0218D02*
D03*
Y035593D02*
D03*
X0226D02*
D03*
X0218Y037421D02*
D03*
X0226D02*
D03*
Y03925D02*
D03*
X0218D02*
D03*
D20*
X0192Y03105D02*
D03*
Y03205D02*
D03*
Y03305D02*
D03*
Y03405D02*
D03*
D27*
X0186Y04D02*
D03*
X0201D02*
D03*
X0347Y03285D02*
D03*
Y03135D02*
D03*
Y0353D02*
D03*
Y0338D02*
D03*
X01985Y0415D02*
D03*
D28*
X03675Y0319D02*
D03*
Y0329D02*
D03*
Y0339D02*
D03*
Y0349D02*
D03*
X0317Y0397D02*
D03*
Y0407D02*
D03*
Y0417D02*
D03*
X02925Y0397D02*
D03*
Y0407D02*
D03*
Y0417D02*
D03*
Y0361D02*
D03*
Y0371D02*
D03*
Y0381D02*
D03*
X0317D02*
D03*
Y0371D02*
D03*
Y0361D02*
D03*
Y03195D02*
D03*
Y03095D02*
D03*
Y02995D02*
D03*
X02925Y03195D02*
D03*
Y03095D02*
D03*
Y02995D02*
D03*
X0317Y02805D02*
D03*
Y02705D02*
D03*
Y02605D02*
D03*
X02925Y02805D02*
D03*
Y02705D02*
D03*
Y02605D02*
D03*
D29*
X0267Y037667D02*
D03*
Y033667D02*
D03*
Y032933D02*
D03*
Y028933D02*
D03*
Y0282D02*
D03*
Y0242D02*
D03*
Y0424D02*
D03*
Y0384D02*
D03*
D30*
X01885Y0415D02*
D03*
D31*
X0192Y03505D02*
D03*
M02*
